<svg width="121" height="190" viewBox="0 0 121 190" fill="none" xmlns="http://www.w3.org/2000/svg">
<g clip-path="url(#clip0_21_9263)">
<path d="M52.4989 37.487C52.2675 33.6882 52.8266 24.2586 64.1632 23.9115C73.1283 23.6415 74.4586 27.7682 75.5961 34.3438C76.4637 34.4981 77.312 34.7102 78.1217 34.9416C77.8133 32.0684 76.7336 26.2448 72.9933 22.9666C70.7569 20.9997 67.8263 20.2091 64.2981 20.6333C58.8612 21.2696 53.9256 24.0079 51.13 27.961C48.8164 31.2199 47.9874 35.1345 48.6429 39.6275C49.8383 38.8369 51.13 38.1427 52.4989 37.487Z" fill="#8F9689"/>
<path d="M54.639 172.394C53.7907 172.683 53.0002 172.857 52.2483 172.915C53.058 176.193 54.1184 177.119 54.5811 177.369C54.6004 177.389 54.6197 177.389 54.639 177.408C54.5811 175.865 54.5811 174.168 54.639 172.394Z" fill="#8F9689"/>
<path d="M108.218 21.4432C103.012 17.143 100.756 13.1513 100.178 7.19273C99.8501 3.81813 98.7126 2.66112 98.1535 2.52614C97.71 2.41044 97.3244 2.89252 97.1316 3.18177C96.0327 4.82087 94.3553 6.71065 93.1986 7.92551C93.5649 8.06049 93.9505 8.15691 94.2975 8.13762C94.3939 8.13762 94.4903 8.11834 94.5674 8.07977C94.6638 8.04121 94.7602 8.00264 94.8373 7.96407C95.088 7.79052 95.4157 7.38557 95.8013 6.49853C96.0712 5.86218 96.8039 5.57292 97.4401 5.84289C98.0763 6.11286 98.3655 6.84563 98.0956 7.48199C97.9992 7.73267 97.8643 7.98336 97.7293 8.23404C97.6715 8.38831 97.2473 9.41033 96.1484 10.0853C95.7628 10.3359 95.3193 10.5095 94.7988 10.5866C94.7217 10.6059 94.6445 10.6059 94.5674 10.6059C93.3142 10.7409 91.9068 10.3167 90.3837 9.3332C87.3375 7.36629 86.0072 8.81255 85.8144 9.02466C85.2938 9.75744 85.4674 11.9558 87.0869 15.0025C88.9184 18.5121 92.0996 22.1567 95.9941 25.2999C102.009 30.1208 105.518 38.0656 104.169 43.812C103.455 46.8203 101.47 48.8065 98.5776 49.4235C95.8206 50.002 94.2011 51.564 93.6034 54.1865C93.1407 56.2692 93.5456 58.2361 93.5456 58.2746C93.6806 58.9496 93.2564 59.6245 92.5816 59.7595C92.4852 59.7787 92.4081 59.7787 92.3117 59.7787C91.7333 59.7787 91.2127 59.3738 91.0971 58.7953C91.0585 58.6025 90.1331 54.148 92.3888 50.6577C92.5045 50.4648 92.6394 50.272 92.7937 50.0984C91.5212 49.2114 90.7693 49.4621 90.4994 49.5585C88.1472 50.3106 86.4699 55.2857 86.065 56.9634C85.9301 57.5419 85.4095 57.9275 84.8504 57.9275C84.754 57.9275 84.6576 57.9083 84.5612 57.889C83.8864 57.7347 83.4815 57.0598 83.6358 56.3849C83.8286 55.575 85.6216 48.4979 89.7475 47.1866C88.3208 44.1206 86.0843 41.6523 83.1152 39.8204C79.9726 37.892 76.001 36.6964 71.6245 36.3879C65.8405 35.983 59.6517 37.0821 54.1955 39.4925C49.0864 41.768 45.0376 45.0462 42.6662 48.8065C45.0376 50.1949 46.4836 51.4097 46.58 51.4869C47.1006 51.9304 47.1777 52.721 46.715 53.2609C46.2715 53.7816 45.4811 53.8587 44.9412 53.3959C44.8448 53.3188 40.0634 49.3271 33.3733 47.6495C24.5239 45.4126 16.5999 48.1123 9.85199 55.6328C4.685 61.3986 1.96655 69.1312 2.56422 76.324C3.0655 82.1669 5.70683 87.1613 10.199 90.7287C12.4162 92.5028 14.9419 93.9876 17.3904 95.4339C18.9906 96.3788 20.6294 97.3429 22.2103 98.4035C27.3195 101.817 29.8837 106.001 32.8335 110.861L33.2384 111.536C34.9543 114.351 37.0943 115.932 39.6007 116.241C43.206 116.684 47.7754 114.486 52.1326 110.205C55.0438 106.985 56.0657 103.302 55.1788 99.2906C54.4269 95.8967 52.5953 93.5248 52.1519 93.0813C51.6699 92.5992 51.6699 91.7893 52.1519 91.3072C52.6339 90.8251 53.4436 90.8251 53.9256 91.3072C55.8729 93.2548 62.0038 103.051 53.9642 111.921C53.9449 111.941 53.9256 111.96 53.9063 111.979C51.2264 114.621 46.0787 118.805 40.584 118.805C40.1598 118.805 39.7357 118.786 39.2922 118.728C37.3643 118.497 35.6291 117.726 34.106 116.434C32.7178 117.456 29.6716 119.885 26.4905 123.588C22.5574 128.158 17.5832 135.678 16.33 145.513C16.1179 147.152 16.0215 148.733 16.0215 150.237C16.0215 150.295 16.0215 150.334 16.0215 150.392C16.0794 155.965 17.6217 160.651 20.6487 164.353C23.5214 167.901 26.7604 169.212 26.7989 169.232C27.4352 169.482 27.7629 170.215 27.5123 170.852C27.3195 171.353 26.8375 171.642 26.3555 171.642C26.2013 171.642 26.047 171.623 25.8928 171.565C25.8157 171.546 25.0637 171.237 23.9455 170.543C25.1409 174.38 24.7746 175.692 24.2926 176.405L24.2733 176.424C23.6563 177.35 22.0368 179.78 22.5959 181.438C22.8659 182.209 23.637 182.827 24.9095 183.251C27.358 184.08 31.4839 185.121 35.6869 185.507C35.9761 185.526 36.2653 185.565 36.5545 185.584C36.0918 185.141 35.8219 184.408 35.8219 183.791C35.8219 183.54 35.8797 183.232 35.9761 182.942C35.9568 182.441 36.0532 181.978 36.3039 181.496C36.5545 181.014 37.0365 180.648 37.5378 180.435C38.0969 180.204 38.6367 180.165 39.2344 180.3C39.9285 180.455 40.3912 180.956 40.7768 181.496C40.8539 180.609 41.1045 179.722 41.548 178.854C42.2228 177.562 43.9001 176.27 45.0955 176.887C45.5389 177.119 45.9438 177.466 46.2908 177.871C46.1558 177.678 46.0209 177.485 45.8859 177.292C44.7099 175.73 44.4014 174.149 44.4978 172.761C43.5338 173.686 42.0878 174.342 40.449 174.515C37.2679 174.824 34.5108 173.185 34.2795 170.852C34.0481 168.518 36.4388 166.358 39.62 166.05C42.6469 165.761 45.2883 167.226 45.7317 169.386C45.751 169.367 45.7702 169.347 45.7702 169.328C45.8859 169.193 45.963 169.097 46.1173 169.02C46.3486 168.846 49.4527 166.262 46.7921 156.447C45.616 152.108 43.1675 149.177 39.5043 147.75C36.7473 146.689 34.3759 146.882 34.3373 146.901C33.6433 146.959 33.0456 146.458 32.9685 145.764C32.9106 145.07 33.4119 144.472 34.106 144.395C34.2217 144.375 37.1136 144.125 40.4105 145.417C43.476 146.593 47.4862 149.37 49.2213 155.791C51.4385 164.006 50.0311 168.017 48.7393 169.849C49.9925 170.427 52.1519 170.967 54.7739 169.656C54.8896 167.631 55.0438 165.568 55.1788 163.582C55.3138 161.634 55.468 159.783 55.5258 158.24C55.815 152.031 47.4283 146.766 47.3512 146.709C46.7728 146.342 46.58 145.571 46.9463 144.992C47.3126 144.395 48.0838 144.221 48.6622 144.587C49.0671 144.838 58.3985 150.681 58.0322 158.375C57.9551 159.956 57.8201 161.808 57.6659 163.774C57.2032 170.138 56.5477 178.873 57.9358 182.19C58.7841 184.234 61.4255 186.047 64.8187 186.934C66.5153 187.377 68.3469 187.57 70.217 187.532C69.6579 186.317 69.6579 184.928 70.352 183.752C71.0461 182.576 72.28 181.785 73.6488 181.747C74.208 181.727 74.7285 181.843 75.2298 182.075C75.2683 181.727 75.3647 181.361 75.519 181.033C75.8853 180.281 76.2323 179.51 76.5986 178.758C77.1963 177.466 79.0086 177.196 80.1461 177.832C80.4161 177.986 80.6667 178.16 80.898 178.353C80.8402 178.179 80.7824 177.986 80.7245 177.813C80.3004 176.424 79.5099 172.626 78.7965 168.229C77.7554 169.733 75.4226 170.909 72.627 171.199C68.6747 171.584 65.2814 170.003 65.05 167.67C64.8187 165.336 67.8456 163.119 71.798 162.733C74.42 162.483 76.7914 163.08 78.1603 164.199C78.141 164.083 78.1218 163.967 78.1025 163.832C77.312 158.298 76.5023 150.874 77.1385 146.901C77.2542 146.227 77.8904 145.744 78.5652 145.86C79.24 145.976 79.722 146.612 79.6063 147.287C79.1629 150.083 79.5292 155.232 80.1847 160.496C89.1691 154.962 94.8759 147.692 97.1702 138.841C99.6187 129.315 97.6329 119.635 95.5314 113.175C93.8733 108.084 91.8875 104.15 90.9043 102.337C88.2436 103.938 85.3324 105.095 82.1705 105.751C82.0934 105.77 81.997 105.77 81.9199 105.77C81.3415 105.77 80.8209 105.365 80.686 104.767C80.551 104.092 80.9752 103.417 81.6692 103.282C86.5277 102.28 90.75 100.043 94.2397 96.5909C97.0545 93.8141 99.4066 90.2659 101.238 86.0235C103.301 81.222 104.227 76.6325 104.612 74.0099C103.86 74.3378 103.089 74.627 102.318 74.897C101.354 75.2055 100.39 75.4755 99.3874 75.6683C99.5994 78.2523 99.9079 85.5415 96.6111 88.2219C95.9748 88.7425 95.0109 89.2439 93.6805 89.2439C93.0636 89.2439 92.3888 89.1475 91.6176 88.8775C90.1716 88.3954 88.8992 87.6434 87.8195 86.6213C86.9133 85.8693 86.1807 84.9437 85.718 83.9217C85.1203 82.8611 84.619 81.6462 84.272 80.3156C83.5779 77.7317 83.5587 75.3791 83.5972 74.5306C83.1345 74.3763 82.6718 74.2028 82.1898 74.0292C82.1898 74.5885 82.2862 74.8584 82.3247 74.9163C82.6911 75.4369 82.6139 76.1504 82.132 76.5747C81.9006 76.7868 81.5921 76.8832 81.3029 76.8832C80.9559 76.8832 80.6088 76.7482 80.3582 76.4589C80.069 76.1311 79.4521 75.0898 79.7991 72.4287C79.7991 72.3323 79.7991 72.2552 79.8184 72.1587C79.8377 72.0816 79.8569 72.0045 79.8762 71.9273C80.3582 69.6133 81.862 68.7263 82.7103 68.5527C82.8839 68.5142 83.0574 68.4756 83.2309 68.4563C83.925 68.3985 84.5419 68.8805 84.5998 69.5747C84.6769 70.269 84.1756 70.886 83.4815 70.9439C83.2116 70.9632 82.961 71.2138 82.7489 71.5417C82.7682 71.5417 82.7682 71.5417 82.7875 71.5609C89.0727 74.0678 95.7242 74.4149 101.547 72.5058C102.935 72.043 104.265 71.4645 105.499 70.7896C105.518 70.7896 105.518 70.7703 105.538 70.7703C109.259 68.707 112.228 65.6409 114.079 61.8999C124.682 38.4705 113.519 25.8013 108.218 21.4432ZM46.8885 109.337C43.4567 113.348 39.62 111.96 36.7859 109.067C35.7255 107.987 34.8193 106.715 34.106 105.403C31.7346 101.065 30.0765 96.6102 25.5072 94.1419C22.8851 92.7342 19.9932 91.8857 17.3325 90.5359C4.76212 84.2495 8.57952 68.0706 14.5563 58.5253C23.8298 43.7156 42.6662 56.6548 41.8179 64.4068C39.8514 70.9439 42.8397 84.5773 47.3319 90.9215C51.8434 97.3044 51.9591 103.437 46.8885 109.337ZM77.5626 64.0982C77.1578 64.3682 76.7336 64.5418 76.2709 64.6575C76.7143 65.5638 76.9457 66.5665 76.9457 67.6464C76.9457 71.4452 73.8802 74.5113 70.0821 74.5113C66.284 74.5113 63.2185 71.4452 63.2185 67.6464C63.2185 64.4261 65.4356 61.7264 68.424 60.9936C68.2505 60.7622 68.0577 60.5115 67.9035 60.2608C65.3007 56.327 65.3971 51.699 68.1155 49.8863C70.834 48.093 75.1527 49.8092 77.7554 53.7237C80.3582 57.6383 80.2811 62.3049 77.5626 64.0982Z" fill="#8F9689"/>
<path d="M33.5662 187.744C31.8695 187.512 30.2307 187.204 28.7076 186.857C30.1151 187.339 31.7346 187.667 33.5662 187.744Z" fill="#8F9689"/>
<path d="M99.8694 165.279C99.3874 167.149 97.2859 168.672 94.6253 168.942C91.4441 169.251 88.6871 167.612 88.4557 165.279C88.2244 162.945 90.6151 160.786 93.7963 160.477C96.3605 160.226 98.6355 161.248 99.5609 162.868C99.291 160.747 99.0211 158.549 98.5005 156.447C97.7486 153.496 96.9581 150.565 96.2062 147.885C92.813 153.901 87.5882 159.011 80.5703 163.138C81.4379 169.386 82.5947 175.248 83.1345 177.003C83.2309 177.331 83.3466 177.678 83.4623 178.025C83.6551 178.603 83.8479 179.221 84.0214 179.857C84.0214 179.876 84.0407 179.895 84.0407 179.934C84.407 181.361 85.2746 182.344 86.682 182.981C88.3208 183.714 91.6755 183.984 95.2808 183.251C93.6999 181.631 92.7359 178.777 93.9891 177.427C94.471 176.926 95.2808 176.617 95.9556 176.617C96.3797 176.617 96.7268 176.714 97.0545 176.868C97.2473 176.154 97.7293 175.48 98.3463 175.075C99.6573 174.226 101.373 174.862 102.183 176.077C102.511 176.559 102.819 177.061 103.147 177.543C103.089 176.444 102.665 175.094 101.913 173.358C100.776 170.717 100.255 167.978 99.8694 165.279Z" fill="#8F9689"/>
<path d="M103.147 177.523C102.819 177.041 102.511 176.54 102.183 176.058C101.392 174.824 99.6766 174.207 98.3463 175.055C97.7101 175.46 97.2473 176.116 97.0545 176.849C96.7268 176.694 96.3605 176.598 95.9556 176.598C95.2808 176.598 94.4518 176.906 93.9891 177.408C92.7359 178.758 93.6999 181.612 95.2808 183.231C97.0353 182.884 98.8283 182.287 100.544 181.399C102.414 180.435 103.243 179.317 103.147 177.523Z" fill="#FEF0C9"/>
<path d="M81.6114 180.57C81.6114 180.551 81.5921 180.512 81.5921 180.493C81.4572 179.972 81.2644 179.413 81.0716 178.815C81.0137 178.642 80.9559 178.468 80.8981 178.276C80.6667 178.083 80.4161 177.909 80.1462 177.755C79.0087 177.119 77.2156 177.408 76.5987 178.68C76.2324 179.433 75.8853 180.204 75.519 180.956C75.3648 181.284 75.2684 181.631 75.2298 181.997C74.7478 181.785 74.208 181.65 73.6489 181.669C72.2607 181.708 71.0461 182.499 70.352 183.675C69.6579 184.851 69.658 186.24 70.2171 187.454C72.9741 187.397 75.866 186.837 78.7002 185.777C81.8235 184.196 82.1127 182.653 81.6114 180.628C81.6307 180.628 81.6307 180.59 81.6114 180.57Z" fill="#FEF0C9"/>
<path d="M45.1148 176.868C43.9194 176.251 42.2421 177.543 41.5673 178.835C41.1239 179.703 40.8732 180.59 40.7961 181.477C40.3912 180.937 39.9285 180.435 39.2537 180.281C38.6753 180.146 38.1162 180.185 37.5571 180.416C37.0558 180.628 36.5738 180.995 36.3232 181.477C36.0725 181.959 35.9761 182.422 35.9954 182.923C35.899 183.212 35.8412 183.501 35.8412 183.771C35.8412 184.388 36.1111 185.121 36.5738 185.565C40.3912 185.835 43.2832 185.43 44.787 184.427C46.3872 183.347 47.2741 182.325 47.4476 181.265C47.6019 180.32 47.2355 179.24 46.3101 177.851C45.9631 177.446 45.5775 177.099 45.1148 176.868Z" fill="#FEF0C9"/>
<path d="M64.1632 23.9115C52.8267 24.2586 52.2675 33.6882 52.4989 37.487C52.7303 37.3906 52.9423 37.2749 53.1737 37.1785C58.9962 34.5945 65.5899 33.4182 71.798 33.8618C73.109 33.9582 74.3815 34.1124 75.5961 34.3438C74.4586 27.7875 73.1476 23.6415 64.1632 23.9115Z" fill="#F3B39F"/>
<path d="M41.8372 64.4261C42.6855 56.6548 23.8491 43.7349 14.5755 58.5446C8.5988 68.0899 4.7814 84.2688 17.3518 90.5552C20.0124 91.8857 22.9044 92.7342 25.5265 94.1612C30.0958 96.6295 31.7538 101.084 34.1252 105.423C34.8386 106.715 35.7448 108.007 36.8051 109.087C39.6393 111.998 43.4567 113.368 46.9078 109.357C51.9591 103.456 51.8627 97.3237 47.3705 90.9601C42.859 84.5966 39.8706 70.9632 41.8372 64.4261Z" fill="#F3B39F"/>
<path d="M91.2127 79.525C90.0366 78.9658 88.6099 79.4479 87.8195 80.6434C87.6074 80.9713 87.5881 81.1641 87.6074 81.2991C87.6267 81.7619 87.7423 82.2054 87.9159 82.6489C88.2436 83.401 88.7835 84.1145 89.4775 84.6737C90.0366 85.1172 90.6729 85.5029 91.3862 85.7536C92.196 86.0428 94.2204 86.5442 95.6663 85.0401C95.7242 84.153 94.124 80.8941 91.2127 79.525Z" fill="#F39673"/>
<path d="M68.4626 60.9935C65.4742 61.7263 63.257 64.426 63.257 67.6463C63.257 71.4452 66.3225 74.5112 70.1206 74.5112C73.9187 74.5112 76.9842 71.4452 76.9842 67.6463C76.9842 66.5857 76.7336 65.5637 76.3094 64.6574C73.8223 65.2937 70.6605 63.8668 68.4626 60.9935Z" fill="#F39673"/>
<path d="M77.7748 53.7238C75.172 49.7899 70.8533 48.0737 68.1349 49.8864C65.4164 51.6797 65.32 56.327 67.9228 60.2609C68.0963 60.5115 68.2698 60.7622 68.4433 60.9936C70.6605 63.8669 73.8031 65.2938 76.2709 64.6768C76.7336 64.5611 77.1578 64.3682 77.5627 64.1175C80.2811 62.3049 80.3775 57.6576 77.7748 53.7238ZM76.4252 61.0708C74.7093 62.2085 72.0101 61.1286 70.3713 58.6603C68.7325 56.192 68.7904 53.2802 70.5063 52.1425C72.2222 51.0048 74.9213 52.0847 76.5601 54.5529C78.1989 57.0212 78.1411 59.933 76.4252 61.0708Z" fill="white"/>
<path d="M71.798 162.637C67.8457 163.022 64.8187 165.24 65.0501 167.573C65.2814 169.906 68.6747 171.488 72.627 171.102C75.4226 170.832 77.7362 169.637 78.7966 168.132C78.5845 166.821 78.3724 165.452 78.1603 164.083C76.7915 162.984 74.4201 162.367 71.798 162.637Z" fill="#B1B7AB"/>
<path d="M39.62 166.011C36.4388 166.32 34.0482 168.48 34.2795 170.813C34.5109 173.146 37.2679 174.804 40.449 174.477C42.1071 174.322 43.5338 173.647 44.4978 172.722C44.6135 171.256 45.1919 170.041 45.7124 169.328C45.2883 167.188 42.6469 165.722 39.62 166.011Z" fill="#B1B7AB"/>
<path d="M99.5802 162.964C99.5802 162.926 99.5802 162.887 99.5609 162.849C98.6547 161.229 96.3604 160.207 93.7962 160.458C90.6151 160.766 88.2244 162.926 88.4557 165.259C88.6871 167.593 91.4441 169.251 94.6253 168.923C97.2666 168.653 99.3681 167.13 99.8694 165.259C99.773 164.507 99.6766 163.736 99.5802 162.964Z" fill="#B1B7AB"/>
<path d="M119.303 33.2254C116.874 26.0905 112.305 21.5782 109.818 19.5148C105.133 15.6581 103.185 12.245 102.684 6.96129C102.318 3.18173 100.853 0.636313 98.7704 0.0963763C97.3823 -0.250726 95.9941 0.385628 95.0494 1.79332C93.8926 3.50955 91.9068 5.65002 90.885 6.72989C87.2218 4.82083 84.6962 6.38279 83.8286 7.57836C82.5561 9.35244 82.961 12.4956 84.889 16.1981C86.8941 19.9969 90.2873 23.95 94.4518 27.2861C100.274 31.9527 102.742 39.0683 101.74 43.2528C101.258 45.3161 100.004 46.5695 98.0571 46.9938C96.7461 47.2637 95.6085 47.7265 94.6446 48.3822C94.0276 47.9001 93.295 47.4566 92.4467 47.1866C90.3452 41.9415 86.2386 38.027 80.686 35.8286C80.5317 33.3218 79.6449 25.512 74.6128 21.0961C71.8558 18.6085 68.2698 17.625 64.009 18.1264C57.878 18.8399 52.2868 21.9831 49.0864 26.4954C46.2137 30.545 45.2883 35.6165 46.3679 41.2087C43.9194 43.0985 41.9143 45.2583 40.449 47.6108C38.6367 46.7238 36.4967 45.8368 34.0867 45.239C27.3002 43.5035 17.2747 43.6192 8.00114 53.9551C2.39072 60.2222 -0.578368 68.6491 0.0964248 76.5168C0.655539 83.0731 3.62463 88.6653 8.67593 92.6763C11.0281 94.5468 13.6308 96.0895 16.1565 97.5743C17.7182 98.4999 19.3377 99.4448 20.8608 100.467C25.5072 103.571 27.8208 107.351 30.732 112.153L31.1562 112.828C31.5418 113.464 31.9659 114.062 32.3901 114.602C30.8091 115.797 27.8401 118.227 24.6974 121.871C20.5137 126.712 15.2311 134.695 13.9008 145.166C13.6694 146.94 13.573 148.598 13.5923 150.141C13.1681 152.706 13.0332 155.54 12.8982 158.259C12.7633 160.92 12.6476 163.504 12.2813 165.722C12.1849 165.761 12.0885 165.818 12.0113 165.876C11.8764 165.953 11.78 166.069 11.6836 166.185C8.79161 170.196 7.82762 173.705 8.84945 176.579C10.1412 180.262 14.1321 181.38 14.2864 181.419C14.402 181.457 14.4984 181.457 14.6141 181.457C15.019 181.457 15.4239 181.245 15.6552 180.898C15.9444 180.435 15.9251 179.857 15.5781 179.433C14.7298 178.353 14.8647 177.832 15.2118 176.694C15.4046 176.771 15.5974 176.81 15.7902 176.849C17.1783 177.08 18.393 176.328 18.8749 174.92C18.8749 174.901 18.8749 174.901 18.8942 174.882C19.3569 173.416 19.1256 171.739 18.2773 169.984C17.6025 168.595 16.5228 167.284 15.4046 166.436C15.1732 166.262 14.9611 166.127 14.7491 165.992C15.0575 164.102 15.1925 162.02 15.3082 159.879C16.3107 162.463 17.6025 164.488 18.8364 165.992C19.2798 166.532 19.7425 167.033 20.186 167.477C21.5934 170.736 22.5381 174.188 22.2296 174.978C21.362 176.289 19.2991 179.375 20.2631 182.171C20.7836 183.714 22.0947 184.851 24.1383 185.545C25.3337 185.95 26.9339 186.413 28.7269 186.818C30.2307 187.165 31.8888 187.474 33.5854 187.705C35.3206 187.937 37.0944 188.091 38.791 188.091C41.7408 188.091 44.4207 187.647 46.2137 186.452C48.4309 184.967 49.6455 183.405 49.954 181.631C50.2625 179.838 49.6069 177.967 47.9296 175.73C46.7728 174.187 46.9271 172.741 47.2741 171.816C47.7561 172.086 48.373 172.356 49.1057 172.568C49.2792 172.626 49.472 172.664 49.6841 172.722C50.4553 176.405 51.7663 178.719 53.5593 179.625C54.0413 179.876 54.504 179.973 54.9282 180.011C55.0824 181.207 55.333 182.248 55.6801 183.077C56.8369 185.873 60.0373 188.187 64.2403 189.286C65.9948 189.749 67.8649 189.981 69.8122 189.981C73.0319 189.981 76.4251 189.344 79.722 188.11C79.7605 188.091 79.7991 188.072 79.8377 188.052C82.1898 186.876 83.4044 185.545 83.9635 184.176C84.4841 184.601 85.0625 184.948 85.718 185.237C87.3182 185.95 89.1498 186.182 90.885 186.182C92.0996 186.182 93.2757 186.066 94.259 185.912C96.9581 185.507 99.7537 184.639 101.74 183.598C107.813 180.455 105.422 174.959 104.265 172.317C102.935 169.27 102.53 166.031 102.106 162.617C101.836 160.381 101.547 158.067 100.968 155.791C99.9658 151.78 98.8668 147.846 97.9028 144.491C98.6162 142.833 99.1946 141.116 99.6573 139.342C102.26 129.218 100.178 119.018 97.9607 112.23C96.1677 106.753 94.0469 102.627 93.0636 100.833C97.4787 97.555 101.065 92.8498 103.629 86.8527C106.386 80.4313 107.176 74.492 107.369 72.5251C111.264 70.2111 114.387 66.9136 116.373 62.9026C116.373 62.8833 116.392 62.8833 116.392 62.8641C121.309 51.9689 122.311 41.9993 119.303 33.2254ZM51.1301 27.9417C53.9449 23.9886 58.8612 21.2503 64.2982 20.614C67.8264 20.1897 70.7569 20.9804 72.9933 22.9473C76.7336 26.2448 77.8133 32.0684 78.1218 34.9223C77.312 34.6909 76.4637 34.4981 75.5961 34.3245C74.3815 34.0931 73.109 33.9389 71.798 33.8424C65.6092 33.3989 58.9962 34.5945 53.1737 37.1592C52.9423 37.2556 52.7303 37.3713 52.4989 37.4677C51.13 38.1041 49.8383 38.8176 48.6237 39.5889C47.9682 35.1152 48.8165 31.2006 51.1301 27.9417ZM54.5811 177.369C54.1184 177.119 53.058 176.174 52.2483 172.915C53.0002 172.857 53.7907 172.703 54.639 172.394C54.5811 174.149 54.5811 175.846 54.639 177.408C54.6197 177.389 54.6004 177.389 54.5811 177.369ZM98.5005 156.447C99.0211 158.529 99.3103 160.728 99.5609 162.868C99.5609 162.907 99.5609 162.945 99.5802 162.984C99.6766 163.755 99.773 164.526 99.8694 165.298C100.255 167.998 100.776 170.736 101.913 173.378C102.665 175.094 103.089 176.463 103.147 177.562C103.243 179.355 102.414 180.474 100.544 181.438C98.8283 182.325 97.0352 182.904 95.2808 183.27C91.6755 184.003 88.3208 183.733 86.682 183C85.2746 182.383 84.4263 181.38 84.0407 179.953C84.0407 179.934 84.0214 179.915 84.0214 179.876C83.8671 179.24 83.6551 178.623 83.4623 178.044C83.3466 177.697 83.2309 177.35 83.1345 177.022C82.5947 175.267 81.4379 169.386 80.5703 163.157C87.5881 159.031 92.813 153.921 96.2062 147.904C96.9581 150.565 97.7486 153.477 98.5005 156.447ZM114.079 61.842C112.228 65.583 109.259 68.6298 105.538 70.7124C105.518 70.7124 105.518 70.7317 105.499 70.7317C104.265 71.4259 102.935 71.9851 101.547 72.4479C95.7242 74.357 89.0727 74.0292 82.7875 71.503C82.7682 71.503 82.7682 71.5031 82.7489 71.4838C82.9417 71.1752 83.1924 70.9245 83.4815 70.886C84.1756 70.8088 84.6769 70.2111 84.5998 69.5169C84.5227 68.8226 83.925 68.3213 83.2309 68.3984C83.0574 68.4177 82.8839 68.4563 82.7104 68.4948C81.862 68.6491 80.3582 69.5554 79.8762 71.8694C79.8569 71.9466 79.8377 72.0237 79.8184 72.1008C79.7991 72.1973 79.7991 72.2744 79.7991 72.3708C79.4328 75.0319 80.069 76.0732 80.3582 76.4011C80.6089 76.6903 80.9559 76.8253 81.3029 76.8253C81.5921 76.8253 81.9006 76.7289 82.132 76.5168C82.614 76.0925 82.6911 75.379 82.3248 74.8584C82.3055 74.8005 82.2091 74.5306 82.1898 73.9713C82.6525 74.1449 83.1152 74.3184 83.5972 74.4727C83.5779 75.3405 83.5972 77.6738 84.272 80.2577C84.6383 81.6076 85.1203 82.8032 85.718 83.8638C86.2 84.8858 86.9134 85.8114 87.8195 86.5634C88.8992 87.5662 90.1716 88.3375 91.6176 88.8196C92.3888 89.0703 93.0829 89.186 93.6806 89.186C95.0109 89.186 95.9749 88.6846 96.6111 88.164C99.9079 85.4836 99.5995 78.1751 99.3874 75.6104C100.39 75.3983 101.354 75.1476 102.318 74.8391C103.108 74.5884 103.88 74.2799 104.612 73.9521C104.227 76.5746 103.301 81.1833 101.238 85.9656C99.4067 90.208 97.0545 93.7562 94.2397 96.533C90.75 99.9654 86.5278 102.222 81.6692 103.224C80.9945 103.359 80.551 104.034 80.686 104.709C80.8017 105.307 81.3222 105.712 81.9199 105.712C81.997 105.712 82.0934 105.712 82.1705 105.693C85.3324 105.037 88.2437 103.899 90.9043 102.279C91.8875 104.092 93.8734 108.026 95.5314 113.117C97.6329 119.577 99.6187 129.257 97.1702 138.783C94.8952 147.634 89.1691 154.904 80.1847 160.438C79.5292 155.174 79.1629 150.025 79.6063 147.229C79.722 146.554 79.2593 145.899 78.5652 145.802C77.8904 145.687 77.2349 146.149 77.1385 146.844C76.5023 150.816 77.312 158.24 78.1025 163.774C78.1218 163.89 78.141 164.006 78.1603 164.141C78.3531 165.51 78.5652 166.879 78.7966 168.19C79.5292 172.587 80.3004 176.386 80.7245 177.774C80.7824 177.948 80.8402 178.141 80.8981 178.314C80.9559 178.488 81.0137 178.681 81.0716 178.854C81.2644 179.452 81.4572 180.011 81.5921 180.532C81.5921 180.551 81.5921 180.59 81.6114 180.609C81.6114 180.647 81.6307 180.667 81.6307 180.705C82.1127 182.73 81.8235 184.273 78.7194 185.854C75.866 186.915 72.9741 187.474 70.2363 187.532C68.3469 187.57 66.5153 187.377 64.838 186.934C61.4447 186.047 58.8034 184.234 57.9551 182.19C56.5862 178.873 57.2225 170.157 57.6852 163.774C57.8394 161.808 57.9744 159.956 58.0515 158.375C58.4178 150.7 49.0864 144.838 48.6815 144.587C48.0838 144.221 47.3127 144.414 46.9656 144.992C46.5993 145.59 46.7921 146.361 47.3705 146.709C47.4476 146.766 55.8343 152.031 55.5451 158.24C55.468 159.783 55.333 161.634 55.1981 163.582C55.0438 165.568 54.9089 167.631 54.7932 169.656C52.1904 170.967 50.0118 170.427 48.7586 169.849C50.0504 168.017 51.4578 164.006 49.2406 155.791C47.5054 149.37 43.4952 146.593 40.4298 145.417C37.1329 144.144 34.2602 144.395 34.1253 144.395C33.4312 144.452 32.9299 145.069 32.9878 145.764C33.0456 146.458 33.6626 146.959 34.3566 146.901C34.3759 146.901 36.7666 146.689 39.5236 147.75C43.1868 149.177 45.6353 152.089 46.8114 156.447C49.4527 166.262 46.3679 168.846 46.1366 169.02C45.9823 169.097 45.9052 169.193 45.7895 169.328C45.7703 169.347 45.751 169.367 45.751 169.386C45.2304 170.099 44.6328 171.314 44.5364 172.78C44.4207 174.168 44.7484 175.749 45.9245 177.311C46.0787 177.504 46.2137 177.697 46.3294 177.89C47.2741 179.259 47.6404 180.358 47.4669 181.303C47.2934 182.364 46.4258 183.386 44.8063 184.466C43.3025 185.468 40.4105 185.873 36.5931 185.603C36.3039 185.584 36.0147 185.565 35.7255 185.526C31.5225 185.141 27.3966 184.118 24.9481 183.27C23.6756 182.846 22.9044 182.229 22.6345 181.457C22.0754 179.818 23.6949 177.369 24.3118 176.444L24.3311 176.424C24.7938 175.711 25.1794 174.419 23.9841 170.562C25.1023 171.256 25.8542 171.546 25.9314 171.584C26.0856 171.642 26.2398 171.661 26.3941 171.661C26.8953 171.661 27.3581 171.353 27.5509 170.871C27.8015 170.234 27.493 169.502 26.8375 169.251C26.7989 169.232 23.5792 167.92 20.6872 164.372C17.6796 160.651 16.1179 155.965 16.0601 150.411C16.0601 150.353 16.0601 150.315 16.0601 150.257C16.0601 148.733 16.1565 147.171 16.3686 145.532C17.641 135.698 22.596 128.196 26.529 123.607C29.7102 119.905 32.7564 117.475 34.1445 116.453C35.6869 117.745 37.4221 118.516 39.3308 118.748C39.755 118.805 40.1984 118.825 40.6226 118.825C46.1366 118.825 51.265 114.621 53.9449 111.998C53.9642 111.979 53.9835 111.96 54.0027 111.94C62.0424 103.07 55.9114 93.2741 53.9642 91.3265C53.4822 90.8444 52.6724 90.8444 52.1904 91.3265C51.7084 91.8085 51.7084 92.6184 52.1904 93.1005C52.6339 93.5441 54.4847 95.9352 55.2174 99.3098C56.1042 103.321 55.0824 107.004 52.1712 110.224C47.8139 114.505 43.2446 116.703 39.6393 116.26C37.1329 115.951 34.9929 114.37 33.277 111.555L32.8721 110.88C29.9223 106.02 27.3581 101.836 22.2489 98.4228C20.668 97.3622 19.0292 96.398 17.429 95.4531C14.9804 94.0069 12.4548 92.522 10.2376 90.748C5.72613 87.1612 3.08479 82.1861 2.6028 76.3432C2.00512 69.1505 4.72358 61.4178 9.89056 55.652C16.6385 48.1122 24.5625 45.4318 33.4119 47.6687C40.102 49.3463 44.8834 53.338 44.9798 53.4152C45.5003 53.8587 46.2908 53.8008 46.7535 53.2802C47.197 52.7595 47.1391 51.9689 46.6186 51.5061C46.5029 51.4097 45.0762 50.2141 42.7048 48.8257C45.0762 45.0654 49.1249 41.7679 54.2341 39.5118C59.671 37.1013 65.8598 35.9829 71.663 36.4071C76.0396 36.7157 80.0112 37.9113 83.1538 39.8396C86.1229 41.6715 88.3593 44.1591 89.786 47.2059C85.6602 48.5364 83.8671 55.6135 83.6743 56.4041C83.5201 57.079 83.925 57.7539 84.5998 57.9082C84.6962 57.9275 84.7926 57.9468 84.889 57.9468C85.4481 57.9468 85.9686 57.5611 86.1036 56.9826C86.5085 55.3049 88.1858 50.3298 90.538 49.5778C90.8079 49.4813 91.5791 49.2499 92.8323 50.1177C92.6973 50.2912 92.5623 50.4841 92.4274 50.6769C90.1716 54.1672 91.0971 58.6217 91.1356 58.8145C91.2706 59.393 91.7719 59.798 92.3503 59.798C92.4467 59.798 92.5238 59.798 92.6202 59.7787C93.295 59.6437 93.7191 58.9688 93.5842 58.2939C93.5842 58.2746 93.1793 56.3077 93.642 54.2058C94.2397 51.5832 95.8592 50.0213 98.6162 49.4428C101.508 48.8257 103.494 46.8395 104.207 43.8313C105.576 38.1041 102.048 30.14 96.0327 25.3192C92.1189 22.1952 88.957 18.5314 87.1254 15.0218C85.5252 11.975 85.3517 9.77668 85.853 9.04391C86.0265 8.83179 87.3761 7.38553 90.4223 9.35244C91.9647 10.3359 93.3528 10.7794 94.606 10.6251C94.6831 10.6251 94.7602 10.6059 94.8373 10.6059C95.3579 10.5287 95.8013 10.3552 96.1869 10.1045C97.2859 9.42957 97.71 8.40755 97.7679 8.25328C97.9028 7.98331 98.0185 7.73263 98.1342 7.50123C98.4041 6.86487 98.1149 6.1321 97.4787 5.86213C96.8425 5.59216 96.1098 5.88142 95.8399 6.51777C95.4543 7.42409 95.1265 7.80976 94.8759 7.98331C94.7988 8.02188 94.7024 8.07973 94.606 8.09901C94.5289 8.1183 94.4325 8.13758 94.3361 8.15687C93.989 8.17615 93.6034 8.07973 93.2371 7.94475C94.3939 6.72989 96.0905 4.84011 97.1702 3.20101C97.363 2.91176 97.7486 2.42968 98.192 2.54538C98.7511 2.68036 99.8886 3.83737 100.216 7.21198C100.795 13.1706 103.051 17.1815 108.256 21.4625C113.519 25.8012 124.682 38.4705 114.079 61.842ZM87.6074 81.3183C87.6074 81.1834 87.6074 80.9712 87.8195 80.6627C88.61 79.4671 90.0367 78.985 91.2127 79.5443C94.124 80.8941 95.7242 84.153 95.6664 85.0593C94.2204 86.5634 92.196 86.0621 91.3863 85.7728C90.6729 85.5221 90.0367 85.1557 89.4776 84.6929C88.7835 84.1144 88.2244 83.4202 87.9159 82.6682C87.7231 82.2247 87.6267 81.7619 87.6074 81.3183Z" fill="#101D1B"/>
<path d="M70.5062 52.1232C68.7903 53.2609 68.7325 56.1727 70.3713 58.641C72.01 61.1093 74.7285 62.1892 76.4251 61.0514C78.141 59.9137 78.1989 57.0019 76.5601 54.5336C74.9213 52.0653 72.2221 50.9855 70.5062 52.1232Z" fill="#101D1B"/>
</g>
<defs>
<clipPath id="clip0_21_9263">
<rect width="121" height="190" fill="white"/>
</clipPath>
</defs>
</svg>
