<?xml version="1.0" encoding="utf-8"?>
<!-- Generator: Adobe Illustrator 24.0.1, SVG Export Plug-In . SVG Version: 6.00 Build 0)  -->
<svg version="1.1" id="Layer_1" xmlns="http://www.w3.org/2000/svg" xmlns:xlink="http://www.w3.org/1999/xlink" x="0px" y="0px"
	 viewBox="0 0 151 151" style="enable-background:new 0 0 151 151;" xml:space="preserve">
<style type="text/css">
	.st0{fill:#FFFFFF;}
	.st1{fill:#078B35;}
</style>
<path class="st0" d="M75.5,0.5L75.5,0.5c41.4,0,75,33.6,75,75l0,0c0,41.4-33.6,75-75,75l0,0c-41.4,0-75-33.6-75-75l0,0
	C0.5,34.1,34.1,0.5,75.5,0.5z"/>
<path class="st1" d="M100.2,110c-4.2,0-7.7-0.7-10.7-2.1c-2.9-1.4-5.4-3.3-7.3-5.7c-1.9-2.4-3.5-5.1-4.6-8.1c-1.1-3-1.9-6.1-2.3-9.3
	c-0.4-3.3-0.7-6.4-0.7-9.4c0-2.8,0.2-5.8,0.7-8.9c0.4-3.2,1.2-6.3,2.3-9.3c1.1-3,2.6-5.7,4.4-8.2c1.9-2.5,4.4-4.4,7.3-5.9
	c3-1.5,6.6-2.2,10.7-2.2c4,0,7.4,0.7,10.3,2.2c2.9,1.4,5.3,3.3,7.2,5.8c1.9,2.4,3.3,5.1,4.4,8.1c1.2,3,2,6.1,2.4,9.3
	c0.4,3.2,0.7,6.3,0.7,9.2c0,3-0.3,6.1-0.8,9.3c-0.4,3.2-1.2,6.3-2.3,9.3c-1.1,3-2.6,5.7-4.5,8.1c-1.9,2.4-4.2,4.3-7,5.7
	C107.6,109.3,104.2,110,100.2,110z M99.8,95.3c2.1,0,3.8-0.5,5.1-1.4c1.3-1,2.4-2.3,3.1-3.8c0.8-1.5,1.3-3.2,1.6-4.9
	c0.4-1.8,0.6-3.5,0.7-5.1c0.1-1.7,0.1-3,0.1-4.1v-0.5c0-4.3-0.4-7.9-1.2-10.8c-0.8-2.9-1.9-5.2-3.5-6.7c-1.5-1.5-3.5-2.3-5.9-2.3
	c-2.4,0-4.4,0.8-6,2.3c-1.5,1.5-2.7,3.7-3.5,6.7c-0.8,2.9-1.2,6.6-1.2,10.9c0,4.2,0.4,7.8,1.2,10.8c0.8,2.9,2,5.2,3.6,6.7
	C95.6,94.6,97.5,95.3,99.8,95.3z"/>
<path class="st1" d="M47.5,110c-2.8,0-5.2-0.3-7.4-0.9c-2.1-0.6-3.9-1.2-5.5-2c-1.5-0.8-2.7-1.6-3.6-2.2c-0.9-0.7-1.5-1.2-1.8-1.4
	c-0.9-0.7-1.7-1.4-2.3-2.2c-0.6-0.8-0.9-1.7-0.9-2.7c0-0.8,0.2-1.7,0.7-2.6c0.4-0.9,1.2-1.9,2.2-2.9c0.8-1,1.7-1.7,2.5-2.1
	c0.8-0.5,1.7-0.8,2.5-0.8c0.8,0,1.6,0.2,2.4,0.6c0.8,0.4,1.9,1.1,3.1,2.1c0.3,0.2,0.6,0.5,1.2,0.9c0.6,0.4,1.3,0.7,2.3,1.1
	c1,0.3,2.4,0.5,4,0.5c1.8,0,3.3-0.3,4.5-1c1.3-0.6,2.3-1.5,3-2.7c0.7-1.2,1.1-2.7,1.1-4.3c0-1.5-0.4-2.9-1.2-4.1
	c-0.7-1.2-1.7-2.1-2.9-2.8c-1.2-0.7-2.6-1.1-4.1-1.1c-0.9,0-1.7,0.1-2.4,0.3c-0.7,0.2-1.3,0.4-1.8,0.8c-0.4,0.3-0.8,0.6-1.1,0.9
	c-0.6,0.5-1.2,1-1.9,1.4c-0.6,0.4-1.5,0.6-2.5,0.6c-0.8,0.1-1.7,0-2.6-0.2c-0.9-0.3-1.9-0.7-3-1.2c-1.7-0.9-2.9-1.7-3.6-2.4
	s-1.1-1.5-1.1-2.5L31,49.1c0.1-0.9,0.4-1.9,0.7-3.1s1-2.1,1.9-3c1-0.9,2.6-1.3,4.7-1.3l22.9,0.1c1.3,0,2.5,0.1,3.6,0.4
	c1.1,0.3,2,0.9,2.6,1.9c0.7,1,1.1,2.8,1.1,5.2c0,2.2-0.3,3.9-1,4.9c-0.6,1-1.5,1.5-2.6,1.7c-1,0.2-2.1,0.3-3.3,0.3H44.7l-1.3,9.7
	c0.4-0.3,0.8-0.4,1.2-0.6c0.4-0.1,0.9-0.2,1.3-0.3c0.4-0.1,0.9-0.2,1.3-0.2h0.6c2.9,0,5.6,0.6,8.3,1.7c2.7,1.2,5.1,2.8,7.1,4.8
	c2.1,2,3.8,4.4,5,7c1.2,2.6,1.8,5.4,1.8,8.4c0,4.4-1,8.4-3,11.9c-2,3.5-4.7,6.3-8.2,8.4C55.5,109,51.7,110,47.5,110z"/>
</svg>
