<svg width="126" height="99" viewBox="0 0 126 99" fill="none" xmlns="http://www.w3.org/2000/svg">
<g clip-path="url(#clip0_21_9290)">
<path d="M121.841 85.0106C121.82 83.4937 121.358 82.2296 120.706 81.2394C121.337 82.2507 121.82 83.4937 121.841 85.0106Z" fill="#565350"/>
<path d="M114.047 83.0513C114.194 83.599 114.299 84.189 114.383 84.821C114.32 84.189 114.194 83.599 114.047 83.0513Z" fill="#565350"/>
<path d="M117.324 88.2129C118.017 87.918 118.543 87.3702 118.837 86.6328C118.543 87.3702 118.038 87.918 117.324 88.2129Z" fill="#565350"/>
<path d="M111.4 88.1076C111.295 88.234 111.169 88.3394 111.085 88.4026C111.169 88.3394 111.274 88.234 111.4 88.1076C111.841 86.8856 111.799 85.6005 111.568 84.4207C111.799 85.6005 111.82 86.9067 111.4 88.1076Z" fill="#565350"/>
<path d="M108.942 88.2972C109.468 88.5922 109.951 88.7818 110.35 88.7397C110.392 88.7397 110.434 88.7397 110.518 88.7186C110.455 88.7397 110.392 88.7397 110.35 88.7397C109.972 88.7607 109.489 88.5922 108.942 88.2972Z" fill="#565350"/>
<path d="M110.098 80.4388C110.014 80.0174 110.119 79.575 110.413 79.2379C110.14 79.575 110.014 80.0174 110.098 80.4388Z" fill="#565350"/>
<path d="M117.03 81.3657C117.072 81.3868 117.366 81.5553 117.744 81.9135C117.366 81.5553 117.051 81.3868 117.03 81.3657Z" fill="#565350"/>
<path d="M106.085 71.5059C106.064 71.5059 106.064 71.4848 106.043 71.4848C105.98 71.4637 105.938 71.4426 105.896 71.4005C105.896 71.4005 105.896 71.4005 105.875 71.4005C105.833 71.3794 105.791 71.3373 105.749 71.3162L105.728 71.2952C105.686 71.253 105.644 71.2109 105.602 71.1688C105.56 71.1266 105.539 71.0845 105.497 71.0424C105.497 71.0213 105.476 71.0213 105.476 71.0002C105.455 70.9791 105.455 70.9581 105.434 70.937C105.581 73.4863 104.993 75.572 104.342 77.0679C103.355 79.3011 102.01 80.6706 101.59 81.0919C101.59 81.1973 101.59 81.3026 101.59 81.429C101.59 82.2718 101.527 83.0934 101.422 83.9151C101.632 83.9362 101.842 83.894 102.052 83.7887C102.304 83.6623 102.577 83.6412 102.829 83.6833C102.766 83.6623 102.703 83.6412 102.619 83.6201C102.514 83.578 104.132 78.7534 104.342 78.332C105.161 76.6887 106.485 75.1717 108.312 74.624C109.531 74.2658 111.085 74.1183 112.346 74.1183C112.514 74.1183 112.682 74.1394 112.871 74.1815C110.203 73.0649 107.619 72.0958 106.169 71.5901C106.127 71.5059 106.106 71.5059 106.085 71.5059Z" fill="#565350"/>
<path d="M102.22 68.3456C102.451 69.1883 102.598 69.9889 102.661 70.7474C102.619 70.01 102.472 69.2094 102.22 68.3456Z" fill="#565350"/>
<path d="M67.8737 70.6631C67.8947 71.7376 68.0207 72.7699 68.2098 73.7812C67.9997 72.791 67.8947 71.7376 67.8737 70.6631Z" fill="#565350"/>
<path d="M76.0244 61.2245C76.2975 61.5616 76.5916 61.8565 76.9277 62.1515C77.4949 62.6361 78.1251 63.0996 78.7973 63.4999C78.1461 63.0996 77.5159 62.6361 76.9277 62.1515C76.5916 61.8565 76.2975 61.5405 76.0244 61.2245Z" fill="#565350"/>
<path d="M82.3054 65.0589C82.1374 65.0167 81.9693 64.9535 81.8013 64.9114C81.9693 64.9746 82.1374 65.0167 82.3054 65.0589Z" fill="#565350"/>
<path d="M79.4696 63.9001C79.8477 64.1108 80.2469 64.3004 80.646 64.469C80.4779 64.4058 80.3309 64.3215 80.1628 64.2583C79.9318 64.153 79.7007 64.0266 79.4696 63.9001Z" fill="#565350"/>
<path d="M84.0701 50.2689C82.1795 50.2057 80.583 50.585 79.2805 51.1959C80.583 50.585 82.1795 50.2268 84.0701 50.2689Z" fill="#565350"/>
<path d="M72.6003 18.7296C71.907 16.7071 70.9197 14.853 69.7853 13.0622C65.2688 13.7996 61.8867 15.1691 61.8237 15.1901C61.4035 15.3587 60.9204 15.3165 60.5423 15.0637C60.1641 14.8109 59.933 14.3895 59.933 13.926C59.933 13.8839 59.87 9.39635 56.4669 4.31889C55.8577 3.39188 55.2485 2.88624 54.6603 2.7809C53.5469 2.57022 51.9084 3.75004 50.1858 4.99307C48.6733 6.06756 46.9717 7.31059 44.9971 8.09012C39.4512 10.3234 36.1111 11.6717 32.813 14.3263C32.3719 14.6845 31.9727 15.8433 32.3088 17.9712C33.0861 22.859 36.9724 29.0742 42.1191 31.0124C42.9174 31.3074 43.6106 31.2442 44.3459 30.8018C48.8414 28.0839 51.5723 13.9471 52.2445 8.72216C52.3495 7.96371 53.0217 7.437 53.778 7.54234C54.5342 7.64768 55.0594 8.32187 54.9544 9.08033C54.9334 9.29101 54.3032 14.0946 52.9167 19.4249C50.9841 26.8409 48.5683 31.4549 45.7533 33.1614C44.892 33.6881 43.9677 33.9409 43.0434 33.9409C42.8964 33.9409 42.7703 33.9409 42.6233 33.9199C42.2451 35.2682 41.6149 37.5015 40.7957 39.8822C39.6403 43.2531 38.5059 45.7603 37.4345 47.4457C39.4722 47.4668 41.678 46.7926 42.5813 46.4555C43.1695 46.2238 43.8417 46.4134 44.1988 46.9401C44.5559 47.4457 44.5349 48.162 44.1148 48.6256C43.5266 49.2997 42.8964 49.995 42.2241 50.7324C39.6193 53.5766 36.7203 56.7579 35.67 60.1499C36.8884 59.9392 38.1278 59.5389 39.2832 59.1597C40.7537 58.6962 42.0141 58.2748 43.0854 58.2748C43.6106 58.2748 44.0938 58.5698 44.3038 59.0544C44.5349 59.5179 44.4719 60.0867 44.1358 60.5081C42.0141 63.2048 41.5729 66.7022 41.804 68.2612C42.1401 67.9452 42.4972 67.6292 42.8333 67.3131C45.3752 64.9324 47.77 62.657 50.5429 62.7624C51.2782 62.7835 51.8454 63.3944 51.8454 64.1318C51.8454 65.4381 51.6143 66.7022 51.4042 67.7977C51.0261 69.8203 50.837 71.1054 51.5933 72.1589C51.9084 72.6013 52.7907 73.0437 53.883 73.444C54.5763 70.8526 56.4669 69.2514 56.5719 69.1672C56.761 69.0197 56.9501 68.9143 57.1601 68.8722C57.1601 68.7879 57.1601 68.6826 57.1811 68.5983C57.2021 68.2191 57.2442 67.8188 57.2652 67.4396C57.2652 67.3553 57.2862 67.2921 57.2862 67.2499C57.3072 67.2078 57.3282 67.1025 57.3492 66.9339C57.7903 64.6164 58.3575 62.3621 59.2608 60.171C59.3028 60.0867 59.4079 59.8339 59.4499 59.7286C59.5759 59.4757 59.702 59.2229 59.828 58.9701C60.0591 58.5277 60.3112 58.1063 60.5843 57.6849C60.7943 57.3478 61.0254 57.0318 61.2565 56.7158C61.3195 56.6315 61.4456 56.463 61.5086 56.3787C61.7396 56.0837 61.9917 55.8098 62.2438 55.5149C62.895 54.7986 63.6093 54.1033 64.3235 53.4713C64.7226 53.1131 65.1428 52.7549 65.5839 52.4178C65.668 52.3546 65.752 52.2914 65.836 52.2282C65.773 52.2704 66.2982 51.8701 66.3612 51.8279C67.9787 50.627 69.8484 49.7211 71.3399 48.3727C73.1885 46.7083 73.8817 44.2855 74.3439 41.9258C75.3732 36.6587 74.4699 31.4759 73.9027 26.2299C73.6296 23.7228 73.4616 21.1525 72.6003 18.7296ZM70.7307 41.7994C70.4996 45.7392 67.6216 48.773 64.3025 48.5834C60.9834 48.3938 58.4626 45.0439 58.6726 41.1042C58.9037 37.1644 61.7817 34.1305 65.1008 34.3202C68.4409 34.5308 70.9407 37.8596 70.7307 41.7994Z" fill="#565350"/>
<path d="M71.1928 12.8516H71.1718H71.1508C71.0667 12.8516 70.9827 12.8726 70.8987 12.8937C70.9827 12.8726 71.0667 12.8726 71.1718 12.8516C71.1718 12.8516 71.1718 12.8516 71.1928 12.8516Z" fill="#565350"/>
<path d="M70.7097 12.9148C70.5626 12.9359 70.4366 12.9569 70.2896 12.978C70.4366 12.9569 70.5837 12.9359 70.7307 12.9148C70.7307 12.9148 70.7307 12.9148 70.7097 12.9148Z" fill="#565350"/>
<path d="M71.6129 12.8095C71.5919 12.8095 71.5919 12.8095 71.5709 12.8095C71.5079 12.8095 71.4449 12.8306 71.3818 12.8306C71.4869 12.8095 71.5919 12.8095 71.6969 12.7885C71.6759 12.7885 71.6549 12.8095 71.6129 12.8095Z" fill="#565350"/>
<path d="M103.376 64.9535C103.502 64.9957 103.628 65.0589 103.733 65.1221C104.678 65.6067 105.581 66.2387 106.338 67.0604C107.094 63.0363 105.371 58.4224 105.35 58.3592C105.14 57.8325 105.287 57.2425 105.707 56.8633C106.127 56.4841 106.737 56.3998 107.241 56.6526C107.367 56.7158 109.405 57.7482 111.127 59.6443C110.812 56.1049 108.711 53.7031 107.304 52.7761C106.884 52.5022 106.653 52.0176 106.695 51.512C106.737 51.0063 107.052 50.585 107.514 50.3743C108.606 49.8897 109.573 49.5105 110.329 49.1944C111.211 48.8363 111.946 48.5413 112.43 48.2885C108.207 46.1395 102.01 42.1998 102.934 27.157C99.1952 22.4377 97.1155 17.4445 96.7373 12.3038C96.6743 11.5454 97.2415 10.8922 97.9978 10.829C98.754 10.7658 99.4052 11.3347 99.4683 12.0931C99.8254 16.8124 101.821 21.4475 105.413 25.8508C106.254 26.8831 107.178 27.8944 108.186 28.8846C108.48 29.1795 108.606 29.1374 108.627 29.1374C108.837 29.0953 109.909 28.6318 111.652 24.6499C112.745 22.1217 113.648 19.2142 114.131 17.6552C114.299 17.0863 114.425 16.7071 114.509 16.4754C114.803 15.6537 115.413 12.8516 114.299 10.7026C113.606 9.3964 112.409 8.55367 110.623 8.11123C107.388 7.31064 104.279 6.13081 101.548 5.0774C98.4179 3.8765 95.708 2.84415 93.7754 2.71774C91.6747 2.57027 90.5193 5.41449 88.6496 10.4709C88.1875 11.735 87.7043 13.0201 87.1581 14.3896C87.0111 14.7688 86.696 15.0427 86.3179 15.1691C85.9397 15.2955 85.5196 15.2534 85.1835 15.0427C85.0364 14.9584 84.8894 14.8742 84.7423 14.7899C84.7003 14.7688 84.6373 14.7267 84.5953 14.7056C84.4903 14.6635 84.4062 14.6003 84.3012 14.5581C84.2382 14.5371 84.1752 14.4949 84.1121 14.4739C84.0281 14.4317 83.9441 14.3896 83.839 14.3475C83.776 14.3264 83.713 14.2842 83.65 14.2632C83.566 14.221 83.4819 14.1789 83.3979 14.1578C83.3349 14.1368 83.2508 14.0946 83.1878 14.0736C83.1038 14.0314 83.0198 14.0104 82.9357 13.9682C82.8727 13.9472 82.7887 13.905 82.7257 13.884C82.6416 13.8629 82.5576 13.8207 82.4946 13.7997C82.4106 13.7786 82.3475 13.7365 82.2635 13.7154C82.1795 13.6943 82.0955 13.6522 82.0324 13.6311C81.9484 13.6101 81.8854 13.589 81.8014 13.5469C81.7173 13.5258 81.6543 13.5047 81.5703 13.4626C81.4863 13.4415 81.4022 13.4204 81.3392 13.3994C81.2552 13.3783 81.1922 13.3572 81.1081 13.3362C81.0241 13.3151 80.9401 13.294 80.856 13.273C80.772 13.2519 80.709 13.2308 80.625 13.2098C80.5409 13.1887 80.4569 13.1676 80.3729 13.1466C80.2889 13.1255 80.2258 13.1044 80.1418 13.1044C80.0578 13.0834 79.9738 13.0623 79.8897 13.0412C79.8267 13.0201 79.7427 13.0201 79.6797 12.9991C79.5956 12.978 79.5116 12.9569 79.4066 12.9569C79.3435 12.9359 79.2595 12.9359 79.1965 12.9148C79.1125 12.8937 79.0074 12.8937 78.9234 12.8727C78.8604 12.8516 78.7764 12.8516 78.7133 12.8305C78.6293 12.8095 78.5243 12.8095 78.4402 12.7884C78.3772 12.7884 78.3142 12.7673 78.2302 12.7673C78.1251 12.7463 78.0411 12.7463 77.9361 12.7252C77.8731 12.7252 77.81 12.7041 77.747 12.7041C77.642 12.7041 77.558 12.6831 77.4529 12.6831C77.3899 12.6831 77.3269 12.662 77.2638 12.662C77.2218 12.662 77.2008 12.662 77.1588 12.662C77.1798 12.662 77.1798 12.662 77.2008 12.662C77.2218 12.662 77.2428 12.662 77.2849 12.662C77.6 12.6831 77.9361 12.7252 78.2512 12.7673C78.3772 13.1466 78.4823 13.5047 78.6083 13.884C78.8184 14.6424 79.0074 15.4009 79.1755 16.1593C79.2805 16.6228 79.3646 17.1074 79.4486 17.592C79.4696 17.7816 79.5116 17.9501 79.5326 18.1397C79.5536 18.2451 79.5956 18.6454 79.5956 18.6875C80.0158 22.3745 80.3729 26.0404 80.793 29.7273C81.2342 33.5828 81.2762 37.5858 82.0534 41.3781C82.4316 43.2953 83.1458 45.2757 84.3432 46.8348C85.4776 48.3096 86.9481 49.2576 88.6286 49.974C88.9858 50.1214 89.3639 50.29 89.721 50.4375C89.721 50.4585 89.8681 50.5217 89.9731 50.5639C90.0361 50.5849 90.0991 50.6271 90.1201 50.6271C90.8134 50.9642 91.4646 51.3855 92.0948 51.828C92.2628 51.9544 92.4309 52.0597 92.599 52.1861C92.62 52.2072 92.662 52.2283 92.704 52.2493C92.746 52.2704 92.767 52.2915 92.767 52.3126C92.9141 52.439 93.0821 52.5654 93.2292 52.6918C93.7123 53.1131 94.1745 53.5556 94.6156 54.0402C94.3215 53.5977 94.0695 53.2396 93.8804 52.9867C93.7543 52.8182 93.6703 52.7339 93.6703 52.7128C93.6493 52.6707 93.6073 52.6286 93.5863 52.6075C93.1031 52.0176 93.1872 51.1538 93.7754 50.6903C94.3636 50.2057 95.2248 50.29 95.687 50.8799C95.729 50.922 95.855 51.0906 96.0651 51.3645C97.1575 52.8182 100.981 58.3381 100.035 64.0476C100.981 64.0897 102.199 64.4058 103.376 64.9535ZM97.7877 41.7995C97.5566 45.7392 94.6787 48.7731 91.3595 48.5835C88.0404 48.3938 85.5196 45.044 85.7297 41.1042C85.9608 37.1644 88.8387 34.1306 92.1578 34.3202C95.4979 34.5309 98.0188 37.8597 97.7877 41.7995Z" fill="#565350"/>
<path d="M76.8647 12.6619C76.8016 12.6619 76.7386 12.6619 76.6966 12.6409C76.6546 12.6409 76.5916 12.6409 76.5496 12.6409C76.7176 12.6409 76.9067 12.6619 77.0747 12.683C77.0117 12.683 76.9277 12.683 76.8647 12.6619Z" fill="#565350"/>
<path d="M76.1925 12.6409C76.2975 12.6409 76.4026 12.6409 76.5076 12.6619C76.4656 12.6619 76.4236 12.6619 76.3815 12.6619C76.3185 12.6409 76.2765 12.6409 76.1925 12.6409C76.1295 12.6409 76.0664 12.6409 76.0034 12.6409C76.0244 12.6409 76.0454 12.6409 76.0875 12.6409C76.1085 12.6409 76.1505 12.6409 76.1925 12.6409Z" fill="#565350"/>
<path d="M75.7304 12.6199C75.6463 12.6199 75.5413 12.6199 75.4573 12.6199C75.6253 12.6199 75.7934 12.6199 75.9825 12.6409C75.9614 12.6409 75.9194 12.6409 75.8984 12.6409C75.8354 12.6199 75.7934 12.6199 75.7304 12.6199Z" fill="#565350"/>
<path d="M72.0751 12.7462C72.0541 12.7462 72.033 12.7462 72.012 12.7462C71.97 12.7462 71.907 12.7673 71.865 12.7673C71.928 12.7673 72.012 12.7462 72.0751 12.7462Z" fill="#565350"/>
<path d="M72.5372 12.7042C72.5162 12.7042 72.4952 12.7042 72.4742 12.7042C72.4322 12.7042 72.3902 12.7042 72.3481 12.7042C72.4742 12.6831 72.5792 12.6831 72.7053 12.6831C72.6633 12.7042 72.6002 12.7042 72.5372 12.7042Z" fill="#565350"/>
<path d="M73.1044 12.6831C73.0834 12.6831 73.0414 12.6831 73.0204 12.6831C72.9993 12.6831 72.9573 12.6831 72.9363 12.6831C72.9153 12.6831 72.8733 12.6831 72.8523 12.6831C72.9153 12.6831 72.9783 12.6831 73.0624 12.662C73.0624 12.6831 73.0834 12.6831 73.1044 12.6831Z" fill="#565350"/>
<path d="M74.785 12.6198C74.659 12.6198 74.5539 12.6198 74.4279 12.6198C74.3859 12.6198 74.3439 12.6198 74.3019 12.6198C74.2388 12.6198 74.1758 12.6198 74.1128 12.6198C74.1338 12.6198 74.1338 12.6198 74.1548 12.6198C74.4489 12.6198 74.743 12.5988 75.0161 12.5988C75.0371 12.5988 75.0371 12.5988 75.0581 12.5988C74.9951 12.5988 74.9321 12.5988 74.869 12.5988C74.869 12.6198 74.827 12.6198 74.785 12.6198Z" fill="#565350"/>
<path d="M74.0918 12.6199C74.0498 12.6199 74.0078 12.6199 73.9658 12.6199C73.9238 12.6199 73.9027 12.6199 73.8607 12.6199C73.7347 12.6199 73.6086 12.6409 73.5036 12.6409C73.4616 12.6409 73.4406 12.6409 73.3986 12.6409C73.3776 12.6409 73.3776 12.6409 73.3566 12.6409C73.5876 12.6199 73.8187 12.6199 74.0498 12.6199C74.0498 12.6199 74.0708 12.6199 74.0918 12.6199Z" fill="#565350"/>
<path d="M58.7146 69.7782C58.8827 70.3049 58.7356 70.8948 58.2945 71.274C58.2945 71.274 58.2945 71.274 58.2735 71.2951L58.2525 71.3162C58.2525 71.3162 58.2525 71.3162 58.2315 71.3373C58.2105 71.3583 58.1895 71.3794 58.1684 71.4005C58.1474 71.4215 58.1264 71.4426 58.1054 71.4637L58.0844 71.4847C58.0634 71.5058 58.0424 71.5269 58.0214 71.569L58.0004 71.5901C57.9794 71.6111 57.9794 71.6322 57.9584 71.6322C57.9794 71.6111 57.9794 71.5901 58.0004 71.5901C58.0004 71.5901 58.0004 71.5901 58.0214 71.569C58.0424 71.5479 58.0634 71.5058 58.1054 71.4847L58.1264 71.4637C58.1474 71.4426 58.1684 71.4215 58.1895 71.4005C58.2105 71.3794 58.2315 71.3583 58.2525 71.3373C58.2525 71.3373 58.2525 71.3373 58.2735 71.3373C58.2945 71.3162 58.2945 71.3162 58.2945 71.3162L58.3155 71.2951C58.7566 70.9159 58.9037 70.3049 58.7146 69.7782Z" fill="#565350"/>
<path d="M56.719 73.5705C56.698 73.5916 56.698 73.6337 56.677 73.6548C56.656 73.6969 56.635 73.7391 56.635 73.8023C56.614 73.8444 56.593 73.9076 56.593 73.9498C56.572 73.9919 56.572 74.013 56.551 74.0551C56.5299 74.1394 56.5089 74.2447 56.4669 74.329C56.5299 74.3501 56.572 74.3711 56.635 74.3711C56.698 74.0551 56.74 73.718 56.782 73.402C56.761 73.4652 56.74 73.5073 56.719 73.5705Z" fill="#565350"/>
<path d="M100.54 66.8497C100.393 66.8286 100.267 66.7864 100.141 66.7654C100.267 66.8075 100.414 66.8286 100.54 66.8497Z" fill="#565350"/>
<path d="M53.1688 84.6735C52.7697 85.0106 52.6226 85.5584 52.7276 86.0429C52.6226 85.5584 52.7697 85.0317 53.1688 84.6735Z" fill="#565350"/>
<path d="M59.9541 85.2845C59.66 85.0317 59.513 84.6735 59.4919 84.3364C59.534 84.6946 59.681 85.0317 59.9541 85.2845C59.9751 85.3056 61.8447 87.0121 62.2018 89.5403C61.8657 87.0332 59.9751 85.3056 59.9541 85.2845Z" fill="#565350"/>
<path d="M49.3665 73.739C47.9171 71.6954 48.3372 69.4622 48.7363 67.2921C48.8204 66.8286 48.9044 66.344 48.9884 65.8595C47.665 66.5126 46.1735 67.9242 44.724 69.2936C44.0308 69.9467 43.2955 70.642 42.5603 71.274C42.2662 71.5268 41.867 71.6533 41.4679 71.5901C40.9427 71.5058 39.9764 71.1898 39.4302 69.7992C38.9261 68.5351 38.9051 66.6601 39.3462 64.6164C39.5563 63.6052 39.8924 62.636 40.2915 61.709C40.2285 61.7301 40.1655 61.7512 40.1235 61.7722C38.2538 62.3621 36.1321 63.0574 33.9894 63.0574C33.6113 63.0574 33.2332 62.8888 32.9811 62.5939C32.729 62.2989 32.603 61.9197 32.645 61.5405C33.1071 57.1583 36.1321 53.4292 39.1361 50.1004C37.6026 50.2689 35.9011 50.2479 34.3886 49.679C33.9054 49.5105 33.5693 49.068 33.5063 48.5624C33.4432 48.0568 33.6533 47.5511 34.0734 47.2562C34.5986 46.8769 36.0901 45.3179 38.2538 38.9974C39.0731 36.6377 39.7243 34.3834 40.0604 33.0772C39.5353 32.8244 39.0311 32.5294 38.5479 32.2134C36.6153 32.8454 30.2712 35.0997 24.5573 39.5241C20.2088 42.8739 17.1838 46.6873 15.5033 50.901C15.5033 50.922 15.4823 50.9642 15.4612 50.9852C15.0831 51.9544 14.768 52.9446 14.5369 53.9348C14.5369 53.9559 14.5369 53.9769 14.5159 53.9769C13.1085 59.0755 14.9781 65.5435 15.9444 68.3034C18.5703 67.5239 20.86 67.2078 21.4692 67.2078C22.3936 67.1446 23.0448 67.1657 23.759 67.2921C24.0321 67.3343 24.3262 67.3764 24.5993 67.4396C24.6833 67.3132 24.9144 67.0182 25.1455 66.7654C25.1875 66.6811 25.2505 66.5969 25.3135 66.5337C27.9604 63.6894 28.5906 59.0333 28.6536 55.6203C28.7167 51.8069 28.1075 48.7099 28.1075 48.6888C27.9604 47.9514 28.4436 47.2351 29.1788 47.0876C29.9141 46.9401 30.6283 47.4247 30.7753 48.1621C30.8804 48.7099 33.4012 61.8354 27.3092 68.4087C27.2252 68.493 27.1411 68.5562 27.0571 68.6194C27.1832 68.7037 27.3092 68.809 27.4142 68.9144C28.8217 70.0942 29.872 71.7797 30.6283 73.5283C31.5316 71.569 33.0021 69.2725 35.2288 66.5969C35.712 66.007 36.5733 65.9437 37.1615 66.4283C37.7287 66.9129 37.8127 67.7767 37.3295 68.3666C31.6576 75.1085 31.8047 78.5637 32.3929 80.0174C32.855 81.1551 33.7163 81.5132 33.9264 81.5343C35.1658 81.45 37.9597 82.377 40.1025 83.3462C40.7117 83.6201 41.3839 83.9572 42.0351 84.3364C42.0141 84.3364 42.0141 84.3153 41.9931 84.3153C41.5099 84.0414 43.1905 81.1551 43.3796 80.7969C44.0938 79.5328 44.9971 78.3108 46.2155 77.5103C47.9801 76.3726 50.1438 76.1197 52.2025 76.1619C53.4209 76.1829 54.6183 76.5622 55.7737 76.9414C56.593 77.1942 57.4332 77.426 58.2525 77.6999C57.5803 77.4681 56.9081 77.2574 56.2568 77.0678C53.1478 76.1619 50.4799 75.3402 49.3665 73.739Z" fill="#565350"/>
<path d="M46.0684 88.3605C46.8666 90.5937 51.1521 92.6163 54.4502 91.921C51.131 92.6163 46.8666 90.6148 46.0684 88.3605Z" fill="#565350"/>
<path d="M63.2312 80.4598C63.3362 80.5652 63.4413 80.6495 63.5463 80.7548C64.8067 81.9346 65.8781 82.988 66.6553 84.0415C65.8991 82.988 64.8277 81.9346 63.5463 80.7548C63.4413 80.6705 63.3362 80.5652 63.2312 80.4598Z" fill="#565350"/>
<path d="M61.3195 92.0474C60.7943 92.4898 60.1431 92.8058 59.4498 92.9322C60.1431 92.8058 60.7943 92.5109 61.3195 92.0474Z" fill="#565350"/>
<path d="M67.4535 89.3296C67.0334 90.404 66.5082 91.0572 66.046 91.1414C65.962 91.1625 65.899 91.1625 65.8149 91.1414C65.899 91.1625 65.983 91.1625 66.046 91.1414C66.5082 91.0361 67.0123 90.383 67.4535 89.3296Z" fill="#565350"/>
<path d="M21.6163 38.3653C17.4989 34.0463 15.0201 27.7047 14.4529 19.8884C14.2008 16.4332 14.3688 13.3572 14.5579 11.2504C13.7807 11.8403 12.8984 12.5987 12.0161 13.5889C8.92803 17.0863 7.45754 21.4896 7.68862 26.6724C7.70963 27.2412 7.39452 27.7469 6.89035 27.9786C6.38619 28.2104 5.77698 28.105 5.37785 27.7047C4.28549 26.6513 3.4242 25.619 2.75198 24.6919C2.68895 29.2006 3.48722 36.0478 8.29782 39.7137C8.78098 40.0929 8.97005 40.746 8.73897 41.3148C8.2138 42.6211 6.49122 44.6647 3.29816 44.6015C4.20146 47.0876 5.67195 48.9416 7.35251 49.7422C8.97005 50.5217 10.9027 50.4164 13.0874 49.4683C14.81 45.381 17.6669 41.673 21.6163 38.3653Z" fill="#565350"/>
<path d="M94.8675 71.2952C94.8255 71.3373 94.7625 71.3584 94.6995 71.4005C94.7835 71.4005 94.8675 71.4005 94.9515 71.4005C94.9305 71.3584 94.8885 71.3373 94.8675 71.2952Z" fill="#94C740"/>
<path d="M98.7539 79.8489C98.6489 78.7744 98.4178 77.7421 98.0817 76.7519C97.8086 75.8881 97.4305 75.0664 97.0103 74.2869C96.1911 74.1816 95.4348 74.1183 94.7626 74.1394C92.5358 74.1815 91.0864 74.94 90.078 76.4991C89.0067 78.1845 88.7966 80.186 88.5655 82.2929C88.5445 82.5246 88.5235 82.7774 88.4815 83.0092C88.4815 83.0724 88.4605 83.1356 88.4605 83.1777C88.2714 84.8421 87.8513 86.6961 86.5699 88.2973C86.3598 88.5501 86.1287 88.824 85.8766 89.0558C83.986 90.8677 81.4651 91.5208 78.7552 91.5208C78.7132 91.5208 78.6502 91.5208 78.6082 91.5208C76.5915 91.4997 74.4488 91.1415 72.4111 90.6359C75.121 94.049 79.3014 96.2401 83.986 96.2401C90.8133 96.2401 96.5692 91.584 98.2918 85.2635C98.5859 84.1679 98.7539 83.0092 98.7959 81.8293C98.7959 81.6819 98.8169 81.5344 98.8169 81.3658C98.8379 80.8813 98.8169 80.3546 98.7539 79.8489Z" fill="#94C740"/>
<path d="M78.9022 88.824C80.9189 88.8029 82.7465 88.3394 84.028 87.1175C84.8262 86.359 85.2464 85.4741 85.5195 84.4418C85.6455 83.9151 85.7505 83.3463 85.8135 82.7353C85.8346 82.5035 85.8556 82.2718 85.8976 82.0189C86.1497 79.6804 86.4017 77.2575 87.8302 75.0243C88.4604 74.0341 89.2167 73.2967 90.015 72.7489C89.9519 72.7489 89.8889 72.7489 89.8259 72.7489C87.5781 72.7489 85.8976 72.0747 84.7632 71.3794C83.7549 70.7685 83.0406 70.0732 82.5995 69.5465C82.1793 69.9257 81.6962 70.2839 81.15 70.5999C78.8392 71.9272 76.5915 72.6014 74.4067 72.6014C73.6925 72.6014 72.9783 72.5171 72.264 72.3907C71.0456 73.9919 70.1423 75.867 69.6382 77.8896C69.3651 79.0062 69.218 80.186 69.218 81.3869C69.218 81.9557 69.26 82.5246 69.3231 83.0724C69.4911 84.5471 69.8692 85.9377 70.4364 87.2439C70.4574 87.2439 70.4784 87.2439 70.4994 87.265C73.1463 88.0866 76.2134 88.8451 78.9022 88.824Z" fill="#94C740"/>
<path d="M25.6076 71.0634C24.5152 70.1575 23.3388 69.8414 21.9944 70.1364C21.9103 70.1575 21.8053 70.1785 21.7213 70.1785C21.6793 70.1785 19.4525 70.2207 16.9947 70.8949C16.7216 70.9791 16.4485 71.0423 16.1754 71.1477C16.0494 71.2952 15.062 71.5901 15.02 71.5901C13.3815 72.3064 11.7639 73.402 10.9867 75.1296C9.66325 78.037 11.3858 79.4064 11.932 79.7646C12.6252 80.207 13.5916 80.4177 14.2638 80.0596C13.8857 76.0355 16.4275 73.4863 16.5325 73.3598C17.0787 72.8331 17.94 72.8331 18.4652 73.3809C18.9904 73.9287 18.9904 74.7925 18.4442 75.3192C18.3601 75.4035 16.5745 77.2785 17.0157 80.1649C18.1921 82.2296 19.9357 82.2717 20.6289 82.1875C21.6582 82.0821 22.2464 81.5554 22.3305 81.2394C22.3305 81.2183 22.3515 81.1762 22.3515 81.1551V81.1341C23.5489 77.8474 22.3725 74.8768 22.3725 74.8557C22.0994 74.1604 22.4355 73.3598 23.1287 73.0649C23.822 72.791 24.6202 73.1281 24.9143 73.8233C24.9774 73.9708 26.1117 76.8993 25.3765 80.4809C26.6579 80.6705 28.6326 80.9444 29.1788 80.502C29.1998 80.4809 29.2838 80.4177 29.3048 80.1017C29.4098 78.1634 28.1704 73.2124 25.6076 71.0634Z" fill="white"/>
<path d="M64.3025 48.6046C67.6216 48.7942 70.4996 45.7603 70.7306 41.8206C70.9617 37.8808 68.4409 34.5309 65.1007 34.3413C61.7816 34.1517 58.9037 37.1855 58.6726 41.1253C58.4625 45.0651 60.9624 48.4149 64.3025 48.6046ZM61.6346 42.3051C61.7816 39.7769 63.6303 37.8176 65.773 37.944C67.9157 38.0704 69.5332 40.2194 69.3862 42.7476C69.2391 45.2758 67.3905 47.2351 65.2478 47.1087C63.1051 46.9823 61.4875 44.8333 61.6346 42.3051Z" fill="white"/>
<path d="M91.3805 48.6046C94.6996 48.7942 97.5776 45.7603 97.8087 41.8206C98.0398 37.8808 95.5189 34.5309 92.1788 34.3413C88.8597 34.1517 85.9817 37.1855 85.7507 41.1253C85.5196 45.0651 88.0404 48.4149 91.3805 48.6046ZM87.4522 42.3051C87.5993 39.7769 89.4479 37.8176 91.5906 37.944C93.7333 38.0704 95.3509 40.2194 95.2038 42.7476C95.0568 45.2758 93.2081 47.2351 91.0654 47.1087C88.9227 46.9823 87.3052 44.8333 87.4522 42.3051Z" fill="white"/>
<path d="M67.8736 70.6631C67.1804 70.1785 66.5081 69.6097 65.8359 68.9565C64.7436 67.861 63.6932 66.5548 62.7269 65.0168C62.6219 64.8693 62.5378 64.7007 62.4328 64.5533C62.2437 65.08 62.1177 65.712 62.0337 66.4073C61.9496 67.1025 61.3614 67.6082 60.6892 67.6082C60.6262 67.6082 60.5842 67.6082 60.5212 67.6082C59.7649 67.5239 59.2397 66.8497 59.3238 66.0913C59.6389 63.3734 60.6052 61.4562 62.2227 60.3817C64.2394 59.0334 66.3821 59.6022 66.6132 59.6865C67.3274 59.8972 67.7476 60.6556 67.5375 61.393C67.3274 62.1093 66.5712 62.5307 65.8569 62.32C65.8149 62.32 65.0377 62.1304 64.2394 62.4043C64.4705 62.5096 64.6595 62.6782 64.8066 62.9099C68.987 69.7782 74.0077 71.569 79.7636 68.2613C80.94 67.566 81.7592 66.618 82.3054 65.1853C82.3054 65.1642 82.3264 65.1432 82.3264 65.1432C82.3264 65.1221 82.3474 65.101 82.3474 65.08C81.3811 64.8061 80.4148 64.4058 79.5115 63.9212C79.2804 63.7948 79.0703 63.6684 78.8393 63.542C78.188 63.1417 77.5578 62.6782 76.9696 62.1936C76.6335 61.8987 76.3394 61.5826 76.0663 61.2666C74.6379 59.4758 74.3648 57.2426 75.3731 55.0515C76.0033 53.682 77.3268 52.1862 79.3224 51.2592C80.6249 50.6482 82.2214 50.2689 84.112 50.3322C87.116 50.4164 90.7712 51.7859 92.2837 54.5669C92.4308 54.8197 92.5358 55.0936 92.6409 55.3675C92.7039 55.5571 92.7669 55.7467 92.8089 55.9153C93.208 57.39 93.145 58.907 92.6619 60.2553C92.1157 61.7723 91.0653 63.0996 89.5948 63.9423C88.3344 65.0589 86.7589 65.5224 85.0993 65.5224C85.0363 65.712 84.9733 65.9227 84.8893 66.1123V66.1334C84.8263 66.323 84.7632 66.4916 84.6792 66.6812C84.5742 66.934 84.4691 67.1868 84.3431 67.4186C84.3851 67.4607 84.4271 67.5239 84.4481 67.566C84.4481 67.5871 84.4691 67.6082 84.5111 67.6714C85.1414 68.472 87.5152 70.9791 92.3468 69.7361C95.0987 68.1138 96.7162 66.0491 97.1784 63.5841C97.8506 59.9182 95.8549 56.1049 94.5525 54.0823C94.1114 53.6188 93.6492 53.1553 93.166 52.7339C93.019 52.6075 92.8509 52.4811 92.7039 52.3547C92.6829 52.3336 92.6619 52.3126 92.6409 52.2915C92.5988 52.2704 92.5568 52.2283 92.5358 52.2283C92.3678 52.1019 92.1997 51.9965 92.0317 51.8701C91.4014 51.4277 90.7292 51.0063 90.057 50.6692C90.036 50.6692 89.994 50.6271 89.9099 50.606C89.8049 50.5639 89.6579 50.5007 89.6579 50.4796C89.3007 50.3322 88.9226 50.1847 88.5655 50.0161C86.8639 49.2998 85.4145 48.3517 84.2801 46.877C83.0827 45.3179 82.3684 43.3585 81.9903 41.4203C81.2341 37.6069 81.171 33.625 80.7299 29.7695C80.3097 26.0825 79.9526 22.4166 79.5325 18.7297C79.5325 18.7086 79.4695 18.2872 79.4695 18.1819C79.4485 17.9923 79.4064 17.8237 79.3854 17.6341C79.3014 17.1496 79.2174 16.6861 79.1124 16.2015C78.9443 15.443 78.7762 14.6635 78.5452 13.9261C78.4401 13.5469 78.3141 13.1887 78.188 12.8095C77.8729 12.7674 77.5368 12.7463 77.2217 12.7041C77.2007 12.7041 77.1797 12.7041 77.1377 12.7041C77.1167 12.7041 77.1167 12.7041 77.0957 12.7041C76.9276 12.6831 76.7386 12.6831 76.5705 12.662H76.5495C76.4445 12.662 76.3394 12.662 76.2344 12.6409C76.1924 12.6409 76.1504 12.6409 76.1083 12.6409C76.0873 12.6409 76.0663 12.6409 76.0243 12.6409H76.0033C75.8353 12.6409 75.6672 12.6409 75.4781 12.6199C75.4781 12.6199 75.4781 12.6199 75.4571 12.6199C75.3731 12.6199 75.2891 12.6199 75.205 12.6199C75.163 12.6199 75.121 12.6199 75.058 12.6199C74.7639 12.6199 74.4698 12.6199 74.1967 12.6409C74.1547 12.6409 74.1127 12.6409 74.0497 12.6409C73.8186 12.6409 73.5875 12.662 73.3564 12.662C73.3354 12.662 73.3144 12.662 73.2724 12.662C73.2514 12.662 73.2094 12.662 73.1884 12.662C73.1464 12.662 73.1043 12.662 73.0623 12.662C72.9993 12.662 72.9363 12.662 72.8523 12.6831C72.8102 12.6831 72.7682 12.6831 72.7262 12.6831C72.6002 12.6831 72.4951 12.7041 72.3691 12.7041C72.3271 12.7041 72.2641 12.7041 72.222 12.7252C72.18 12.7252 72.159 12.7252 72.117 12.7463C72.054 12.7463 71.97 12.7674 71.9069 12.7674C71.8439 12.7674 71.8019 12.7884 71.7389 12.7884C71.6339 12.8095 71.5288 12.8095 71.4238 12.8306C71.3608 12.8306 71.3188 12.8516 71.2557 12.8516C71.2347 12.8516 71.2137 12.8516 71.1927 12.8516C71.1087 12.8727 71.0247 12.8727 70.9196 12.8938C70.8776 12.8938 70.8146 12.9148 70.7726 12.9148C70.6255 12.9359 70.4785 12.957 70.3314 12.978H70.3104H70.2894C70.1844 12.9991 70.0793 13.0202 69.9533 13.0202C69.9113 13.0202 69.8693 13.0412 69.8273 13.0412H69.8062C70.9406 14.832 71.928 16.6861 72.6212 18.7086C73.4615 21.1315 73.6505 23.7018 73.9236 26.2511C74.4908 31.4971 75.3941 36.6799 74.3648 41.947C73.9026 44.3066 73.2094 46.7295 71.3608 48.3939C69.8693 49.7422 67.9786 50.6482 66.3821 51.8491C66.3191 51.8912 65.8149 52.2915 65.8569 52.2494C65.7729 52.3126 65.6889 52.3758 65.6048 52.439C65.1847 52.7761 64.7646 53.1342 64.3444 53.4924C63.6092 54.1455 62.9159 54.8197 62.2647 55.536C62.0126 55.8099 61.7606 56.1049 61.5295 56.3998C61.4665 56.463 61.3404 56.6316 61.2774 56.7369C61.0463 57.0529 60.8152 57.39 60.6052 57.7061C60.3321 58.1274 60.08 58.5488 59.8489 58.9912C59.7229 59.2441 59.5968 59.4969 59.4708 59.7497C59.4288 59.834 59.3238 60.0868 59.2817 60.1921C58.3784 62.3832 57.8112 64.6375 57.3701 66.9551C57.3281 67.1236 57.3071 67.2289 57.3071 67.2711C57.3071 67.3132 57.3071 67.3764 57.2861 67.4607C57.2441 67.8399 57.223 68.2402 57.202 68.6195C57.202 68.7037 57.202 68.8091 57.181 68.8933C57.2441 68.8723 57.2861 68.8723 57.3491 68.8723C57.3701 68.8723 57.3701 68.8723 57.3911 68.8723C57.4331 68.8723 57.4751 68.8723 57.5171 68.8723C57.5382 68.8723 57.5382 68.8723 57.5592 68.8723C57.6222 68.8723 57.6642 68.8723 57.7272 68.8933H57.7482C57.7902 68.8933 57.8323 68.9144 57.8743 68.9355C57.8953 68.9355 57.9163 68.9565 57.9163 68.9565C57.9583 68.9776 58.0003 68.9776 58.0213 68.9987C58.0423 68.9987 58.0423 69.0198 58.0633 69.0198C58.1053 69.0408 58.1474 69.0619 58.2104 69.104C58.2314 69.104 58.2314 69.1251 58.2524 69.1251C58.2944 69.1462 58.3154 69.1672 58.3574 69.2094C58.3784 69.2094 58.3784 69.2304 58.3994 69.2304C58.4415 69.2726 58.4835 69.3147 58.5255 69.3568C58.6305 69.4833 58.7146 69.6307 58.7566 69.7993C58.9246 70.326 58.7776 70.9159 58.3364 71.2951C58.3364 71.2951 58.3364 71.2951 58.3154 71.3162L58.2944 71.3373C58.2944 71.3373 58.2944 71.3373 58.2734 71.3373C58.2524 71.3583 58.2314 71.3794 58.2104 71.4005C58.1894 71.4215 58.1684 71.4426 58.1474 71.4637L58.1264 71.4847C58.1053 71.5058 58.0843 71.5269 58.0423 71.569C58.0423 71.569 58.0423 71.569 58.0213 71.5901C58.0003 71.6112 58.0003 71.6322 57.9793 71.6322C57.9583 71.6533 57.9583 71.6744 57.9373 71.6744L57.9163 71.6954C57.9163 71.6954 57.9163 71.6954 57.8953 71.7165C57.8743 71.7376 57.8533 71.7586 57.8323 71.8008C57.8323 71.8218 57.8113 71.8218 57.8113 71.8429C57.7692 71.885 57.7482 71.9272 57.7062 71.9693C57.7062 71.9693 57.7062 71.9693 57.7062 71.9904C57.6642 72.0325 57.6432 72.0747 57.6012 72.1379C57.5802 72.1589 57.5802 72.1589 57.5592 72.18C57.5382 72.2221 57.5172 72.2432 57.4751 72.2853C57.4541 72.3064 57.4541 72.3275 57.4331 72.3485C57.4121 72.3907 57.3911 72.4328 57.3491 72.4539C57.3281 72.475 57.3281 72.496 57.3071 72.5171C57.2651 72.5803 57.223 72.6435 57.202 72.7067C57.202 72.7067 57.202 72.7067 57.202 72.7278C57.16 72.791 57.139 72.8542 57.097 72.9174C57.097 72.9385 57.076 72.9385 57.076 72.9595C57.034 73.0227 57.013 73.0859 56.971 73.1491C56.971 73.1702 56.95 73.1702 56.95 73.1913C56.9079 73.2545 56.8869 73.3388 56.8449 73.402C56.8029 73.718 56.7399 74.0551 56.6979 74.3711C56.8239 74.4132 56.95 74.4554 57.076 74.4975C57.5382 74.645 58.0003 74.7925 58.4625 74.9399C59.7439 75.3613 61.0043 75.7827 62.1177 76.3094C61.7816 74.1604 62.3067 72.6646 62.3488 72.5592C62.6218 71.8429 63.3991 71.4847 64.1134 71.7586C64.8066 72.0115 65.1847 72.791 64.9116 73.5073C64.8696 73.6548 63.9663 76.4147 66.5712 79.6592C66.5922 79.6803 66.5922 79.7014 66.6132 79.7225C66.8233 77.6156 67.3904 75.6141 68.2727 73.7812C67.9996 72.791 67.8946 71.7376 67.8736 70.6631Z" fill="white"/>
<path d="M102.64 72.9384C102.661 72.8331 102.661 72.7488 102.661 72.6435C102.661 72.6224 102.661 72.6013 102.661 72.5803C102.661 72.4749 102.682 72.3907 102.682 72.2853C102.682 72.2643 102.682 72.2432 102.682 72.2221C102.682 72.1168 102.682 72.0114 102.682 71.9272C102.682 71.9061 102.682 71.885 102.682 71.864C102.682 71.7586 102.682 71.6533 102.682 71.5479C102.682 71.5269 102.682 71.5058 102.682 71.4847C102.682 71.3794 102.682 71.274 102.661 71.1476C102.661 71.1266 102.661 71.1266 102.661 71.1055C102.661 71.0002 102.64 70.8737 102.64 70.7473V70.7263C102.577 69.9678 102.43 69.1672 102.199 68.3245C102.199 68.3034 102.199 68.2823 102.178 68.2823C102.073 67.9453 101.968 67.6082 101.842 67.25C101.38 67.0604 100.939 66.934 100.519 66.8286C100.371 66.8076 100.245 66.7654 100.119 66.7444C99.9933 66.7233 99.8673 66.7022 99.7623 66.7022H99.7412C99.6362 66.7022 99.5312 66.6812 99.4472 66.6812C99.4261 66.6812 99.4051 66.6812 99.4051 66.6812C99.3001 66.6812 99.1951 66.6812 99.111 66.6812C98.6069 67.7346 97.9347 68.7037 97.0734 69.6096C97.7876 70.3892 98.4178 71.253 98.985 72.1589C99.048 72.2643 99.111 72.3696 99.1741 72.4749C100.056 73.9708 100.708 75.593 101.128 77.2996C101.254 77.11 101.359 76.9204 101.485 76.7097C101.485 76.7097 101.485 76.6886 101.506 76.6886C101.548 76.6254 101.569 76.5622 101.611 76.499C101.611 76.4779 101.632 76.4568 101.632 76.4568C101.653 76.3936 101.695 76.3304 101.716 76.2672C101.737 76.2462 101.737 76.2251 101.758 76.204C101.779 76.1408 101.8 76.0987 101.842 76.0355C101.863 76.0144 101.863 75.9723 101.884 75.9512C101.905 75.9091 101.926 75.8459 101.947 75.8037C101.968 75.7616 101.989 75.7195 101.989 75.6984C102.01 75.6563 102.031 75.6141 102.052 75.5509C102.073 75.5088 102.094 75.4666 102.115 75.4034C102.136 75.3613 102.136 75.3192 102.157 75.277C102.178 75.2138 102.199 75.1717 102.22 75.1085C102.22 75.0874 102.241 75.0663 102.241 75.0453C102.283 74.9189 102.325 74.8135 102.346 74.6871C102.346 74.6871 102.346 74.6871 102.346 74.666C102.388 74.5396 102.409 74.4343 102.451 74.3079C102.514 74.0761 102.556 73.8654 102.598 73.6126V73.5916C102.619 73.4862 102.64 73.4019 102.64 73.2966C102.64 73.2755 102.64 73.2755 102.64 73.2545C102.661 73.1491 102.661 73.0648 102.682 72.9595C102.64 72.9806 102.64 72.9595 102.64 72.9384Z" fill="white"/>
<path d="M63.5673 80.7759C63.4622 80.6706 63.3572 80.5652 63.2522 80.4809C63.1261 80.3756 63.0211 80.2492 62.895 80.1439C62.811 80.0596 62.706 79.9753 62.6219 79.891C61.4876 78.7955 59.744 78.2688 58.2735 77.7842C58.2525 77.7842 58.2315 77.7631 58.2105 77.7631C57.3912 77.4892 56.5509 77.2575 55.7316 77.0047C54.5763 76.6465 53.3789 76.2462 52.1605 76.2251C50.1018 76.183 47.938 76.4358 46.1735 77.5735C44.934 78.3741 44.0518 79.5961 43.3375 80.8602C43.1274 81.2183 41.4679 84.1047 41.951 84.3786C41.9721 84.3786 41.9721 84.3997 41.9931 84.3997C42.0771 84.4418 42.1611 84.505 42.2451 84.5471C42.2662 84.5471 42.2872 84.5682 42.2872 84.5682C42.3922 84.6314 42.4762 84.6735 42.5813 84.7367C42.6023 84.7578 42.6443 84.7789 42.6653 84.8C42.7283 84.8421 42.8123 84.8842 42.8754 84.9474C42.8964 84.9685 42.9384 84.9896 42.9594 85.0106C43.0434 85.0738 43.1274 85.137 43.2325 85.2002C43.2745 85.2213 43.2955 85.2424 43.3375 85.2635C43.4005 85.3056 43.4636 85.3477 43.5266 85.3899C43.5476 85.4109 43.5896 85.432 43.6106 85.4531C43.6946 85.5163 43.7787 85.5795 43.8627 85.6427C43.8837 85.6638 43.9257 85.6848 43.9467 85.727C44.0097 85.7691 44.0517 85.8112 44.1148 85.8744C44.1358 85.8955 44.1778 85.9166 44.1988 85.9587C44.2828 86.0219 44.3458 86.0851 44.4299 86.1483C44.4509 86.1694 44.4929 86.1905 44.5139 86.2326C44.5769 86.2747 44.6189 86.3379 44.682 86.3801C44.703 86.4011 44.745 86.4433 44.766 86.4643C44.829 86.5276 44.913 86.6118 44.9761 86.675C44.9971 86.6961 45.0181 86.7172 45.0391 86.7382C45.0811 86.8014 45.1441 86.8436 45.1861 86.9068C45.2071 86.9279 45.2281 86.97 45.2491 86.9911C45.3122 87.0753 45.3752 87.1385 45.4172 87.2228C45.4382 87.2439 45.4382 87.2649 45.4592 87.286C45.5012 87.3492 45.5432 87.4124 45.5853 87.4756C45.6063 87.4967 45.6273 87.5388 45.6273 87.5599C45.6693 87.6442 45.7323 87.7284 45.7743 87.8127C45.7743 87.8338 45.7953 87.8338 45.7953 87.8549C45.8373 87.9391 45.8794 88.0023 45.9004 88.0866C45.9214 88.1077 45.9214 88.1287 45.9424 88.1709C45.9844 88.2552 46.0264 88.3394 46.0474 88.4237C46.8457 90.6569 51.1311 92.6795 54.4292 91.9842C54.5763 91.0572 54.5132 90.2145 54.3452 89.4771C54.3452 89.4561 54.3452 89.456 54.3452 89.435C53.9461 87.7917 53.0638 86.7172 53.0217 86.654C52.8747 86.4854 52.7907 86.2958 52.7276 86.0851C52.6226 85.6005 52.7697 85.0738 53.1688 84.7157C53.736 84.2311 54.5973 84.2943 55.0804 84.8632C55.2065 85.0106 57.9164 88.2341 57.0971 92.6163C57.1391 92.6374 57.1811 92.6584 57.2231 92.6795C57.4542 92.827 57.7483 92.9323 58.0424 92.9745C58.3785 93.0377 58.7146 93.0587 59.0928 93.0166C59.1978 92.9955 59.3238 92.9955 59.4289 92.9745C60.1431 92.848 60.7733 92.532 61.2985 92.0896C61.6556 91.7736 61.9707 91.3943 62.2228 90.973C62.2648 90.4884 62.2648 90.0249 62.2018 89.5825C61.8447 87.0543 59.9751 85.3477 59.954 85.3267C59.66 85.0738 59.5129 84.7157 59.4919 84.3786C59.4709 84.0415 59.5759 83.6833 59.828 83.4094C60.3322 82.8406 61.1935 82.7774 61.7396 83.283C61.7817 83.3252 62.1598 83.6623 62.6219 84.2311C63.6303 85.4531 65.1218 87.7917 64.9537 90.8255C65.0377 90.8887 65.1428 90.9519 65.2478 91.0151C65.4159 91.0994 65.6049 91.1836 65.773 91.2047C65.857 91.2258 65.941 91.2258 66.0041 91.2047C66.4662 91.1204 66.9704 90.4463 67.4115 89.3928C67.5796 88.9715 67.6846 88.5712 67.7476 88.192C67.2225 86.9068 66.8443 85.5584 66.6133 84.1468C65.899 83.0091 64.8277 81.9557 63.5673 80.7759Z" fill="white"/>
<path d="M121.904 79.2379C121.736 79.0482 121.547 78.8376 121.357 78.669C121.315 78.6269 121.273 78.6058 121.252 78.5637C121.231 78.5426 121.231 78.5426 121.21 78.5215C119.824 77.2996 118.038 76.4568 116.358 75.6773C116.169 75.593 116.001 75.5088 115.833 75.4245C114.992 75.0242 113.858 74.3079 112.871 74.1183C112.703 74.0761 112.514 74.0551 112.345 74.0551C111.064 74.0761 109.531 74.2025 108.312 74.5607C106.506 75.0874 105.182 76.6254 104.342 78.2687C104.132 78.6901 102.493 83.5358 102.619 83.5569C102.682 83.5779 102.745 83.599 102.829 83.6201C103.018 83.6622 103.186 83.7043 103.354 83.8097C103.375 83.8307 103.417 83.8518 103.438 83.8729C103.438 83.8729 103.459 83.8729 103.459 83.894C104.3 84.526 105.098 85.2213 105.875 85.8954C106.947 86.8225 108.039 87.7495 108.963 88.2762C109.489 88.5711 109.972 88.7607 110.371 88.7186C110.413 88.7186 110.455 88.7186 110.539 88.6975C110.665 88.6765 110.854 88.5922 111.085 88.4026C111.19 88.3183 111.295 88.234 111.4 88.1076C111.841 86.8857 111.799 85.6005 111.568 84.4207C111.19 82.4402 110.287 80.8812 110.266 80.8601C110.182 80.7337 110.14 80.5862 110.098 80.4387C110.014 80.0174 110.119 79.575 110.413 79.2379C110.497 79.1325 110.602 79.0482 110.728 78.985C111.379 78.6058 112.219 78.8165 112.598 79.4485C112.661 79.5539 113.522 81.0076 114.047 83.0302C114.194 83.5779 114.299 84.1678 114.383 84.7999C114.509 85.8533 114.488 86.9699 114.236 88.0866C115.391 88.5079 116.463 88.5711 117.324 88.1919C118.017 87.8969 118.543 87.3492 118.837 86.6118C118.879 86.5064 118.921 86.4011 118.942 86.2747C119.467 83.9993 118.458 82.5877 117.723 81.8925C117.345 81.5554 117.051 81.3658 117.009 81.3447C116.379 81.0076 116.127 80.2491 116.421 79.596C116.442 79.5539 116.463 79.5117 116.484 79.4696C116.526 79.3853 116.568 79.3221 116.631 79.2589L116.652 79.2379C116.82 79.0272 117.051 78.8797 117.303 78.8165C117.639 78.7112 118.017 78.7533 118.332 78.9218C119.047 79.3011 119.971 80.0806 120.706 81.1972C121.336 82.1874 121.82 83.4515 121.841 84.9684C122.366 84.7578 122.744 84.4207 122.996 83.9361C123.038 83.8729 123.059 83.7886 123.08 83.7254C123.08 83.7043 123.101 83.6622 123.101 83.6411C123.563 82.3981 123.059 80.6073 121.904 79.2379Z" fill="white"/>
<path d="M95.3509 71.8429C95.2248 71.6955 95.0988 71.548 94.9517 71.4005C94.8677 71.4005 94.7837 71.4005 94.6997 71.4005C94.3215 71.6533 93.9224 71.9062 93.5023 72.159C93.3972 72.2222 93.2922 72.2643 93.1872 72.2854C92.0108 72.6014 90.9394 72.7489 89.9731 72.77C89.1748 73.3177 88.4186 74.0551 87.7884 75.0453C86.3599 77.2786 86.1078 79.7014 85.8557 82.04C85.8347 82.2718 85.8137 82.5035 85.7717 82.7563C85.7087 83.3673 85.6036 83.9362 85.4776 84.4629C85.2255 85.4952 84.7843 86.3801 83.9861 87.1385C82.7047 88.3605 80.8981 88.824 78.8604 88.8451C76.1715 88.8661 73.1255 88.1077 70.4156 87.3071C70.3946 87.3071 70.3735 87.3071 70.3525 87.286C70.6256 87.9391 70.9617 88.5712 71.3399 89.1822C71.655 89.7089 72.0121 90.1934 72.3902 90.678C74.4279 91.1837 76.5496 91.5418 78.5873 91.5629C78.6293 91.5629 78.6923 91.5629 78.7343 91.5629C81.4442 91.5629 83.9651 90.9098 85.8557 89.0979C86.1078 88.8451 86.3389 88.5923 86.5489 88.3394C87.8304 86.7382 88.2295 84.8842 88.4396 83.2198C88.4396 83.1566 88.4606 83.0934 88.4606 83.0513C88.4816 82.8195 88.5026 82.5667 88.5446 82.335C88.7757 80.2281 88.9858 78.2266 90.0571 76.5412C91.0444 74.9821 92.5149 74.2237 94.7417 74.1815C95.4139 74.1605 96.1491 74.2237 96.9894 74.329C96.5483 73.4231 95.9811 72.6014 95.3509 71.8429Z" fill="white"/>
<path d="M123.185 76.6465C120.286 73.9708 111.841 70.7052 108.459 69.4411C109.467 66.7233 109.32 63.6474 108.9 61.2877C109.699 62.1094 110.413 63.1417 110.665 64.3426C110.791 64.9536 111.337 65.396 111.967 65.4171C112.598 65.4382 113.144 65.0168 113.312 64.4058C114.152 61.372 114.005 58.3171 112.871 55.6203C112.303 54.272 111.505 53.05 110.56 52.0176C110.812 51.9123 111.043 51.828 111.295 51.7227C113.921 50.6693 115.644 49.974 115.644 47.6986C115.644 47.193 115.349 46.7084 114.887 46.4767C114.698 46.3924 114.509 46.2871 114.299 46.1817C110.749 44.412 105.539 41.8206 105.518 30.1487C105.749 30.3805 105.959 30.6122 106.19 30.8229C107.073 31.7078 108.165 32.0449 109.215 31.771C112.387 30.9704 114.656 24.9027 116.652 18.4558C116.799 17.9923 116.925 17.571 116.967 17.4235C117.513 15.9487 118.143 12.3671 116.61 9.41752C115.559 7.41603 113.732 6.06766 111.169 5.43561C108.102 4.67715 105.077 3.51839 102.409 2.50711C99.069 1.22194 96.1911 0.126391 93.8383 -0.0210868C89.5949 -0.316043 87.9983 4.02403 85.9606 9.52286C85.6665 10.3024 85.3724 11.1241 85.0573 11.9457C76.7596 7.9006 66.4661 10.6395 62.4328 11.9879C62.0967 9.94423 61.1934 6.48902 58.6935 2.75993C57.6432 1.17981 56.4668 0.294938 55.1013 0.0421181C52.8536 -0.35818 50.7529 1.13767 48.5472 2.71779C47.0977 3.75014 45.5852 4.84569 43.9256 5.49881C38.3378 7.75312 34.6615 9.24897 31.0483 12.1564C29.6199 13.2941 29.0947 15.5063 29.5568 18.3716C30.166 22.2481 32.4558 26.9042 35.9009 30.1909C33.128 31.2232 28.3594 33.2668 23.7169 36.6378C18.9693 31.8342 17.4988 24.8606 17.0997 19.7199C16.6585 13.7365 17.5408 8.8276 17.5618 8.78547C17.6459 8.27983 17.4568 7.77419 17.0787 7.45816C16.7005 7.14214 16.1334 7.07893 15.6712 7.26855C15.5452 7.31069 12.7302 8.59585 9.99931 11.6297C7.91962 13.9472 5.54583 17.7184 4.97864 23.1962C3.44513 21.1315 3.00398 19.6567 3.00398 19.6356C2.83593 19.0247 2.26874 18.6033 1.61752 18.6454C1.05033 18.7086 0.525157 19.1721 0.420122 19.8042C0.399115 19.9517 -0.273109 23.6386 0.126024 28.1683C0.609185 33.7514 2.52082 38.1758 5.62986 41.0621C5.02066 41.652 3.84426 42.2209 1.74356 41.6099C1.28141 41.4835 0.777241 41.5888 0.420122 41.9259C0.0630027 42.263 -0.0840463 42.7476 0.0419957 43.2322C1.02932 47.5301 3.27707 50.8168 6.17604 52.2073C7.28941 52.734 8.4658 53.0079 9.70522 53.0079C10.4405 53.0079 11.1967 52.9025 11.974 52.734C11.932 52.9236 11.8689 53.1132 11.8269 53.3239C10.1884 59.2441 12.2891 66.3441 13.3394 69.3569C11.3438 70.326 9.49515 71.8008 8.48681 74.013C6.72222 77.9317 8.4448 80.818 10.4615 82.1032C12.058 83.1145 13.9066 83.262 15.3561 82.6088C16.7846 84.3575 18.6752 84.9896 20.2927 84.9896C20.5238 84.9896 20.7339 84.9685 20.944 84.9474C22.4145 84.7789 23.6959 84.1047 24.4101 83.1355C24.4731 83.1566 24.5572 83.1566 24.6202 83.1777C26.7839 83.5358 29.2417 83.9151 30.7962 82.7563C31.7836 83.8729 33.107 84.4418 34.0523 84.3364C34.0523 84.3364 34.0523 84.3364 34.0733 84.3364C35.4598 84.3364 42.6652 87.0121 43.4845 89.3296C44.8289 93.0798 50.7109 95.6291 55.1854 94.5967C56.1097 95.3762 57.3491 95.7976 58.6935 95.7976C58.9036 95.7976 59.1347 95.7765 59.3658 95.7555C61.1514 95.5659 62.7689 94.7021 63.8823 93.3537C64.5755 93.754 65.4788 94.0489 66.5082 93.8593C67.7266 93.6486 68.7349 92.8059 69.5122 91.3522C72.6842 95.9872 77.999 99.0421 84.007 99.0421C91.8846 99.0421 98.5648 93.8172 100.792 86.6329C101.296 86.7172 101.821 86.7172 102.367 86.5908C102.955 87.0543 103.522 87.5599 104.09 88.0234C106.169 89.8142 108.144 91.5207 110.266 91.5207C110.371 91.5207 110.497 91.5207 110.602 91.4997C111.421 91.4365 112.177 91.0994 112.871 90.5305C114.824 91.3733 116.757 91.4575 118.395 90.7833C119.677 90.2566 120.664 89.2875 121.252 88.0023C123.353 87.7495 124.929 86.6118 125.622 84.821C126.609 82.2085 125.622 78.8797 123.185 76.6465ZM13.0873 49.4684C10.9026 50.4375 8.96997 50.5218 7.35243 49.7423C5.65087 48.9417 4.20138 47.0666 3.27707 44.6227C6.44913 44.6648 8.19271 42.6422 8.71789 41.336C8.94897 40.7672 8.7599 40.1141 8.27674 39.7348C3.46614 36.0689 2.66787 29.2217 2.73089 24.7131C3.40312 25.6401 4.2644 26.6514 5.35677 27.7259C5.7559 28.1051 6.3651 28.2315 6.86927 27.9998C7.37344 27.768 7.68854 27.2413 7.66754 26.6935C7.43646 21.5107 8.90695 17.1075 12.016 13.6101C12.8983 12.6199 13.7806 11.8614 14.5578 11.2715C14.3478 13.3784 14.2007 16.4543 14.4528 19.9095C15.02 27.7259 17.4988 34.0674 21.6162 38.3864C17.6669 41.6731 14.8099 45.3811 13.0873 49.4684ZM29.3258 80.1017C29.3048 80.4177 29.2207 80.4809 29.1997 80.502C28.6535 80.9444 26.6789 80.6916 25.3974 80.4809C26.1327 76.8993 24.9773 73.9708 24.9353 73.8234C24.6622 73.1281 23.8639 72.791 23.1497 73.0649C22.4565 73.3388 22.0993 74.1394 22.3934 74.8557C22.4145 74.8768 23.5698 77.8474 22.3724 81.1341V81.1551C22.3514 81.1762 22.3514 81.2183 22.3514 81.2394C22.2674 81.5554 21.6792 82.0821 20.6499 82.1875C19.9356 82.2717 18.192 82.2085 17.0367 80.1649C16.5955 77.2575 18.3811 75.4035 18.4651 75.3192C18.9903 74.7925 19.0113 73.9287 18.4861 73.3809C17.961 72.8331 17.0997 72.8331 16.5535 73.3599C16.4275 73.4652 13.8856 76.0355 14.2847 80.0596C13.6125 80.3967 12.6462 80.2071 11.953 79.7646C11.4068 79.4065 9.68421 78.037 11.0077 75.1296C11.7849 73.402 13.4024 72.3064 15.041 71.5901C15.083 71.5901 16.0703 71.2952 16.1964 71.1477C16.4695 71.0634 16.7426 70.9791 17.0157 70.8949C19.4735 70.2207 21.7002 70.1785 21.7422 70.1785C21.8263 70.1785 21.9313 70.1575 22.0153 70.1364C23.3598 69.8414 24.5572 70.1364 25.6285 71.0634C28.1704 73.2124 29.4098 78.1634 29.3258 80.1017ZM67.4535 89.3296C67.0333 90.4041 66.5082 91.0572 66.046 91.1415C65.962 91.1626 65.8989 91.1626 65.8149 91.1415C65.6469 91.1204 65.4578 91.0572 65.2897 90.9519C65.1847 90.8887 65.0797 90.8255 64.9956 90.7623C65.1427 87.7284 63.6722 85.3899 62.6639 84.1679C62.2017 83.5991 61.8236 83.262 61.7816 83.2198C61.2144 82.7142 60.3531 82.7774 59.8699 83.3462C59.6179 83.6201 59.5128 83.9783 59.5338 84.3154C59.5548 84.6735 59.7019 85.0106 59.996 85.2634C60.017 85.2845 61.8866 86.991 62.2437 89.5192C62.3067 89.9617 62.3278 90.4252 62.2647 90.9098C62.0337 91.3522 61.7186 91.7103 61.3404 92.0264C60.8153 92.4899 60.164 92.7848 59.4708 92.9112C59.3658 92.9323 59.2397 92.9534 59.1347 92.9534C58.7566 92.9955 58.4205 92.9744 58.0843 92.9112C57.7692 92.848 57.4962 92.7427 57.2651 92.6163C57.2231 92.5952 57.181 92.5741 57.139 92.5531C57.9583 88.1709 55.2484 84.9474 55.1224 84.7999C54.6392 84.2311 53.7779 84.1679 53.2107 84.6525C52.8116 84.9896 52.6645 85.5373 52.7696 86.0219C52.8116 86.2326 52.9166 86.4222 53.0637 86.5908C53.1267 86.654 54.009 87.7284 54.3871 89.3718C54.3871 89.3928 54.3871 89.3928 54.3871 89.4139C54.5552 90.1513 54.6392 90.994 54.4711 91.921C51.152 92.6163 46.8876 90.6148 46.0893 88.3605C46.0473 88.2762 46.0263 88.1919 45.9843 88.1077C45.9633 88.0866 45.9633 88.0655 45.9423 88.0234C45.9003 87.9391 45.8793 87.8759 45.8373 87.7916C45.8373 87.7706 45.8163 87.7706 45.8163 87.7495C45.7742 87.6652 45.7112 87.581 45.6692 87.4967C45.6482 87.4756 45.6272 87.4335 45.6272 87.4124C45.5852 87.3492 45.5432 87.286 45.5012 87.2228C45.4801 87.2017 45.4801 87.1807 45.4591 87.1596C45.3961 87.0753 45.3331 87.0121 45.2911 86.9278C45.2701 86.9068 45.2491 86.8646 45.2281 86.8436C45.186 86.7804 45.123 86.7382 45.081 86.675C45.06 86.654 45.039 86.6329 45.018 86.6118C44.955 86.5486 44.8919 86.4643 44.8079 86.4011C44.7869 86.3801 44.7449 86.3379 44.7239 86.3169C44.6819 86.2747 44.6189 86.2115 44.5558 86.1694C44.5348 86.1483 44.4928 86.1272 44.4718 86.0851C44.3878 86.0219 44.3248 85.9587 44.2407 85.8955C44.2197 85.8744 44.1777 85.8534 44.1567 85.8112C44.0937 85.7691 44.0517 85.727 43.9886 85.6637C43.9676 85.6427 43.9256 85.6216 43.9046 85.5795C43.8206 85.5163 43.7366 85.4531 43.6525 85.3899C43.6315 85.3688 43.5895 85.3477 43.5685 85.3267C43.5055 85.2845 43.4425 85.2424 43.3794 85.2002C43.3374 85.1792 43.3164 85.1581 43.2744 85.137C43.1904 85.0738 43.1064 85.0106 43.0013 84.9474C42.9803 84.9264 42.9383 84.9053 42.9173 84.8842C42.8543 84.8421 42.7702 84.7999 42.7072 84.7367C42.6862 84.7157 42.6442 84.6946 42.6232 84.6735C42.5182 84.6103 42.4341 84.5471 42.3291 84.505C42.3081 84.505 42.2871 84.4839 42.2871 84.4839C42.2031 84.4418 42.119 84.3786 42.035 84.3364C41.3838 83.9572 40.7116 83.6201 40.1023 83.3462C37.9596 82.356 35.1657 81.429 33.9263 81.5344C33.7162 81.4922 32.8549 81.1551 32.3928 80.0174C31.8046 78.5637 31.6785 75.1085 37.3294 68.3667C37.8126 67.7767 37.7496 66.9129 37.1614 66.4284C36.5732 65.9438 35.7119 66.007 35.2287 66.5969C32.981 69.2726 31.5315 71.569 30.6282 73.5284C29.8719 71.7797 28.8216 70.0943 27.4141 68.9144C27.2881 68.8091 27.162 68.7248 27.057 68.6195C27.141 68.5563 27.2251 68.4931 27.3091 68.4088C33.4221 61.8355 30.9013 48.7099 30.7752 48.1621C30.6282 47.4248 29.914 46.9402 29.1787 47.0877C28.4435 47.2351 27.9603 47.9515 28.1074 48.6889C28.1074 48.731 28.7166 51.828 28.6535 55.6203C28.5905 59.0334 28.0653 63.6052 25.4185 66.4494C25.3344 66.5337 25.2504 66.6391 25.1454 66.7655C24.9353 67.0183 24.6832 67.3132 24.5992 67.4397C24.5782 67.4607 24.5782 67.4818 24.5782 67.5029C24.2841 67.4186 24.032 67.3554 23.7799 67.2922C23.0867 67.1447 22.4355 67.1447 21.4901 67.2079C20.8599 67.229 18.5912 67.5239 15.9653 68.3035C14.999 65.5435 13.1084 59.0755 14.5368 53.977C14.5368 53.9559 14.5368 53.9349 14.5578 53.9349C14.7889 52.9236 15.104 51.9334 15.4821 50.9853C15.5031 50.9642 15.5032 50.9221 15.5242 50.901C17.2047 46.6874 20.2507 42.874 24.5782 39.5241C30.3131 35.0998 36.6572 32.8455 38.5688 32.2134C39.052 32.5295 39.5772 32.8244 40.0813 33.0772C39.7242 34.3835 39.073 36.6378 38.2747 38.9974C36.09 45.3179 34.6195 46.877 34.0943 47.2562C33.6742 47.5512 33.4641 48.0568 33.5272 48.5624C33.5902 49.0681 33.9263 49.4895 34.4095 49.6791C35.922 50.2479 37.6235 50.269 39.157 50.1004C36.153 53.4292 33.128 57.1583 32.6659 61.5405C32.6239 61.9198 32.7499 62.3201 33.002 62.5939C33.2541 62.8889 33.6322 63.0574 34.0103 63.0574C36.153 63.0574 38.2747 62.3833 40.1444 61.7723C40.2074 61.7512 40.2704 61.7301 40.3124 61.7091C39.9133 62.6361 39.5772 63.6052 39.3671 64.6165C38.926 66.6601 38.947 68.5352 39.4511 69.7993C39.9973 71.1687 40.9636 71.5058 41.4888 71.5901C41.8669 71.6533 42.2661 71.5269 42.5812 71.2741C43.3164 70.642 44.0517 69.9468 44.7449 69.2937C46.1944 67.9242 47.6859 66.5126 49.0093 65.8595C48.9463 66.3441 48.8413 66.8076 48.7572 67.2922C48.3581 69.4411 47.959 71.6955 49.3874 73.7391C50.5218 75.3403 53.1687 76.1619 56.2357 77.11C56.8869 77.3207 57.5802 77.5314 58.2314 77.7421C58.2524 77.7421 58.2734 77.7631 58.2944 77.7631C59.7649 78.2477 61.4875 78.7744 62.6429 79.87C62.7269 79.9542 62.8109 80.0385 62.916 80.1228C63.042 80.2281 63.147 80.3335 63.2731 80.4599C63.3781 80.5652 63.4831 80.6495 63.5882 80.7548C64.8486 81.9347 65.92 82.9881 66.6972 84.0415C66.9073 85.4531 67.2854 86.8014 67.8316 88.0866C67.7266 88.508 67.6215 88.9083 67.4535 89.3296ZM66.5922 59.6654C66.3611 59.6022 64.2184 59.0334 62.2017 60.3607C60.5842 61.4352 59.6179 63.3524 59.3027 66.0702C59.2187 66.8287 59.7439 67.5029 60.5002 67.5871C60.5632 67.5871 60.6052 67.5871 60.6682 67.5871C61.3614 67.5871 61.9496 67.0815 62.0127 66.3862C62.0967 65.691 62.2227 65.0589 62.4118 64.5322C62.5168 64.6797 62.6009 64.8483 62.7059 64.9957C63.6932 66.5337 64.7226 67.84 65.8149 68.9355C66.4661 69.5886 67.1594 70.1575 67.8526 70.642C67.8736 71.7165 67.9997 72.7489 68.1887 73.7601C67.3064 75.5931 66.7392 77.5946 66.5292 79.7014C66.5082 79.6803 66.5082 79.6593 66.4871 79.6382C63.9033 76.3937 64.7856 73.6337 64.8276 73.4863C65.0797 72.791 64.7226 71.9904 64.0293 71.7376C63.3151 71.4848 62.5378 71.8429 62.2647 72.5382C62.2227 72.6435 61.6975 74.1394 62.0337 76.2883C60.9203 75.7616 59.6599 75.3192 58.3784 74.9189C57.9163 74.7714 57.4541 74.6239 56.992 74.4765C56.8659 74.4343 56.7399 74.3922 56.6139 74.3501C56.5508 74.329 56.5088 74.3079 56.4458 74.3079C56.4668 74.2237 56.4878 74.1183 56.5298 74.034C56.5508 73.9919 56.5508 73.9708 56.5718 73.9287C56.5928 73.8866 56.6139 73.8234 56.6139 73.7812C56.6349 73.7391 56.6559 73.6969 56.6559 73.6337C56.6769 73.6127 56.6769 73.5705 56.6979 73.5495C56.7189 73.4863 56.7399 73.4441 56.7609 73.3809C56.8029 73.3177 56.8239 73.2334 56.8659 73.1702C56.8659 73.1492 56.8869 73.1492 56.8869 73.1281C56.929 73.0649 56.95 73.0017 56.992 72.9385C56.992 72.9174 57.013 72.9174 57.013 72.8963C57.055 72.8331 57.076 72.7699 57.118 72.7067C57.118 72.7067 57.118 72.7067 57.118 72.6857C57.16 72.6225 57.202 72.5593 57.2231 72.4961C57.2441 72.475 57.2441 72.4539 57.2651 72.4328C57.2651 72.4118 57.2861 72.4118 57.2861 72.3907C57.3071 72.3696 57.3071 72.3486 57.3281 72.3275C57.3491 72.3064 57.3491 72.2854 57.3701 72.2643C57.3911 72.2222 57.4121 72.2011 57.4541 72.159C57.4751 72.1379 57.4751 72.1379 57.4962 72.1168C57.5382 72.0747 57.5802 72.0115 57.6012 71.9693C57.6432 71.9272 57.6852 71.864 57.7272 71.8219L57.7482 71.8008C57.7692 71.7587 57.8113 71.7376 57.8323 71.6955C57.8323 71.6955 57.8323 71.6744 57.8533 71.6744C57.8953 71.6323 57.9163 71.5901 57.9583 71.569L57.9793 71.548C58.0003 71.5269 58.0213 71.4848 58.0423 71.4637L58.0633 71.4426C58.0843 71.4216 58.1054 71.4005 58.1264 71.3794C58.1474 71.3584 58.1684 71.3373 58.1894 71.3162C58.1894 71.3162 58.1894 71.3162 58.2104 71.2952C58.2314 71.2952 58.2314 71.2741 58.2314 71.2741L58.2524 71.253C58.6935 70.8738 58.8406 70.2839 58.6725 69.7572C58.6305 69.6097 58.5465 69.4622 58.4415 69.3147C58.3995 69.2726 58.3574 69.2305 58.3154 69.1883C58.2944 69.1673 58.2944 69.1673 58.2734 69.1673C58.2314 69.1462 58.2104 69.104 58.1684 69.083C58.1474 69.083 58.1474 69.0619 58.1264 69.0619C58.0843 69.0408 58.0423 68.9987 57.9793 68.9776C57.9583 68.9776 57.9583 68.9566 57.9373 68.9566C57.8953 68.9355 57.8743 68.9144 57.8323 68.9144C57.8113 68.9144 57.7902 68.8934 57.7902 68.8934C57.7482 68.8723 57.7062 68.8723 57.6642 68.8512H57.6432C57.6012 68.8512 57.5382 68.8302 57.4751 68.8302C57.4541 68.8302 57.4541 68.8302 57.4331 68.8302C57.3911 68.8302 57.3491 68.8302 57.3071 68.8302C57.2861 68.8302 57.2861 68.8302 57.2651 68.8302C57.2021 68.8302 57.16 68.8512 57.097 68.8512C56.8869 68.8934 56.6769 68.9987 56.5088 69.1462C56.4038 69.2305 54.5342 70.8317 53.8199 73.4231C52.7276 73.0017 51.8453 72.5803 51.5302 72.1379C50.7949 71.0845 50.984 69.7993 51.3411 67.7767C51.5512 66.6812 51.7822 65.4382 51.7822 64.1109C51.7822 63.3735 51.194 62.7625 50.4798 62.7414C47.7069 62.6361 45.3121 64.8904 42.7702 67.2922C42.4341 67.6082 42.098 67.9242 41.7409 68.2402C41.5098 66.6812 41.951 63.1839 44.0727 60.4871C44.4088 60.0657 44.4508 59.518 44.2407 59.0334C44.0097 58.5699 43.5265 58.2539 43.0223 58.2539C41.951 58.2539 40.6695 58.6542 39.2201 59.1387C38.0857 59.4969 36.8253 59.8972 35.6069 60.1289C36.6362 56.7369 39.5562 53.5556 42.161 50.7114C42.8333 49.974 43.4635 49.2998 44.0517 48.6046C44.4718 48.12 44.4928 47.4248 44.1357 46.9191C43.7786 46.4135 43.1064 46.2028 42.5182 46.4345C41.6359 46.7927 39.4301 47.4458 37.3714 47.4248C38.4638 45.7393 39.5772 43.2532 40.7326 39.8612C41.5518 37.4805 42.2031 35.2473 42.5602 33.8989C42.7072 33.92 42.8543 33.92 42.9803 33.92C43.9046 33.92 44.8289 33.6671 45.6902 33.1404C48.5262 31.4339 50.921 26.8199 52.8536 19.4039C54.2401 14.0736 54.8703 9.27004 54.8913 9.05936C54.9963 8.3009 54.4501 7.62671 53.7149 7.52137C52.9586 7.41603 52.2864 7.9638 52.1814 8.70119C51.5092 13.9261 48.7782 28.084 44.2827 30.7808C43.5475 31.2232 42.8543 31.2864 42.056 30.9915C36.8883 29.0532 33.023 22.838 32.2457 17.9502C31.9096 15.8223 32.3088 14.6635 32.7499 14.3054C36.048 11.6508 39.4091 10.3024 44.934 8.06915C46.9086 7.26855 48.6102 6.04659 50.1227 4.9721C51.8453 3.72907 53.4838 2.57032 54.5972 2.75993C55.1854 2.86527 55.7946 3.39198 56.4038 4.29792C59.8699 9.39645 59.933 13.884 59.933 13.9051C59.933 14.3686 60.164 14.7899 60.5422 15.0428C60.9203 15.2956 61.4034 15.3377 61.8236 15.1692C61.8866 15.1481 65.5208 13.6733 70.2684 12.957C70.4155 12.9359 70.5625 12.9149 70.6885 12.8938C70.8356 12.8727 70.9616 12.8517 71.1087 12.8306H71.1297C71.2557 12.8095 71.4028 12.7884 71.5498 12.7884C71.5708 12.7884 71.5708 12.7884 71.5918 12.7884C71.7179 12.7674 71.8649 12.7674 71.991 12.7463C72.012 12.7463 72.033 12.7463 72.054 12.7463C72.18 12.7252 72.3061 12.7252 72.4531 12.7042C72.4741 12.7042 72.4952 12.7042 72.5162 12.7042C72.6422 12.7042 72.7682 12.6831 72.8943 12.6831C72.9153 12.6831 72.9573 12.6831 72.9783 12.6831C73.1044 12.6831 73.2304 12.662 73.3564 12.662C73.3985 12.662 73.4195 12.662 73.4615 12.662C73.5875 12.662 73.7136 12.641 73.8186 12.641C73.8606 12.641 73.8816 12.641 73.9236 12.641C74.0497 12.641 74.1547 12.641 74.2807 12.6199C74.3228 12.6199 74.3648 12.6199 74.4068 12.6199C74.5328 12.6199 74.6379 12.6199 74.7639 12.6199C74.8059 12.6199 74.8479 12.6199 74.8899 12.6199C74.995 12.6199 75.121 12.6199 75.2261 12.6199C75.2681 12.6199 75.3311 12.6199 75.3731 12.6199C75.4781 12.6199 75.5832 12.6199 75.7092 12.6199C75.7722 12.6199 75.8143 12.6199 75.8773 12.6199C75.9823 12.6199 76.0873 12.6199 76.1924 12.641C76.2554 12.641 76.2974 12.641 76.3604 12.641C76.4655 12.641 76.5705 12.662 76.6755 12.662C76.7386 12.662 76.8016 12.662 76.8436 12.6831C76.9486 12.6831 77.0537 12.7042 77.1377 12.7042C77.2007 12.7042 77.2637 12.7252 77.3268 12.7252C77.4318 12.7252 77.5158 12.7463 77.6209 12.7463C77.6839 12.7463 77.7469 12.7674 77.8099 12.7674C77.915 12.7884 77.999 12.7884 78.104 12.8095C78.167 12.8095 78.2301 12.8306 78.3141 12.8306C78.3981 12.8517 78.5032 12.8517 78.5872 12.8727C78.6502 12.8727 78.7342 12.8938 78.7973 12.9149C78.8813 12.9359 78.9863 12.9359 79.0703 12.957C79.1334 12.9781 79.2174 12.9781 79.2804 12.9991C79.3644 13.0202 79.4485 13.0413 79.5535 13.0413C79.6165 13.0623 79.7006 13.0623 79.7636 13.0834C79.8476 13.1045 79.9316 13.1255 80.0157 13.1466C80.0997 13.1677 80.1627 13.1887 80.2467 13.1887C80.3308 13.2098 80.4148 13.2309 80.4988 13.252C80.5828 13.273 80.6459 13.2941 80.7299 13.3152C80.8139 13.3362 80.898 13.3573 80.982 13.3784C81.066 13.3994 81.129 13.4205 81.2131 13.4416C81.2971 13.4626 81.3811 13.4837 81.4441 13.5048C81.5282 13.5258 81.5912 13.5469 81.6752 13.589C81.7592 13.6101 81.8223 13.6312 81.9063 13.6733C81.9903 13.6944 82.0743 13.7365 82.1374 13.7576C82.2214 13.7787 82.2844 13.7997 82.3684 13.8419C82.4525 13.8629 82.5365 13.9051 82.5995 13.9261C82.6625 13.9472 82.7466 13.9893 82.8096 14.0104C82.8936 14.0525 82.9776 14.0736 83.0617 14.1158C83.1247 14.1368 83.2087 14.179 83.2717 14.2C83.3558 14.2422 83.4398 14.2843 83.5238 14.3054C83.5868 14.3264 83.6499 14.3686 83.7129 14.3896C83.7969 14.4318 83.8809 14.4739 83.986 14.516C84.049 14.5371 84.112 14.5793 84.175 14.6003C84.2801 14.6425 84.3641 14.7057 84.4691 14.7478C84.5112 14.7689 84.5742 14.811 84.6162 14.8321C84.7632 14.9163 84.9103 15.0006 85.0573 15.0849C85.3934 15.2956 85.8136 15.3377 86.1917 15.2113C86.5698 15.0849 86.8639 14.7899 87.032 14.4318C87.5782 13.0623 88.0613 11.7561 88.5235 10.5131C90.3931 5.45667 91.5485 2.61245 93.6492 2.75993C95.6028 2.88634 98.3128 3.91869 101.422 5.11958C104.153 6.173 107.262 7.35282 110.497 8.15342C112.282 8.59585 113.48 9.43859 114.173 10.7448C115.307 12.8938 114.698 15.6959 114.383 16.5175C114.299 16.7493 114.173 17.1075 114.005 17.6974C113.522 19.2564 112.64 22.1428 111.526 24.692C109.804 28.674 108.711 29.1375 108.501 29.1796C108.459 29.1796 108.333 29.2217 108.06 28.9268C107.052 27.9366 106.127 26.9042 105.287 25.8929C101.695 21.4897 99.6992 16.8546 99.3421 12.1353C99.2791 11.3769 98.6279 10.808 97.8716 10.8712C97.1154 10.9344 96.5482 11.5876 96.6112 12.346C96.9893 17.4867 99.09 22.4799 102.808 27.1992C101.884 42.242 108.06 46.1817 112.303 48.3307C111.82 48.5835 111.085 48.8785 110.203 49.2366C109.425 49.5527 108.48 49.9319 107.388 50.4165C106.926 50.6271 106.611 51.0485 106.569 51.5541C106.526 52.0598 106.758 52.5444 107.178 52.8182C108.585 53.7452 110.686 56.147 111.001 59.6865C109.278 57.7904 107.241 56.758 107.115 56.6948C106.611 56.442 106.001 56.5263 105.581 56.9055C105.161 57.2847 105.014 57.8746 105.224 58.4013C105.245 58.4646 106.968 63.0785 106.211 67.1026C105.455 66.2809 104.552 65.6488 103.607 65.1643C103.501 65.08 103.375 65.0379 103.249 64.9957C102.073 64.448 100.876 64.153 99.8253 64.0477C100.771 58.3592 96.9683 52.8182 95.8549 51.3645C95.6449 51.0906 95.5188 50.9221 95.4768 50.88C94.9936 50.29 94.1324 50.2268 93.5652 50.6903C92.977 51.1749 92.914 52.0387 93.3761 52.6076C93.3971 52.6497 93.4391 52.6918 93.4601 52.7129C93.4601 52.7129 93.5442 52.8182 93.6702 52.9868C93.8593 53.2396 94.1114 53.5978 94.4055 54.0402C95.7079 56.0628 97.6825 59.8761 97.0313 63.542C96.5902 66.007 94.9516 68.0717 92.1997 69.694C87.3891 70.937 84.9943 68.4299 84.3641 67.6293C84.3221 67.5871 84.3011 67.545 84.3011 67.5239C84.2591 67.4607 84.2381 67.4186 84.196 67.3764C84.3221 67.1236 84.4271 66.8919 84.5322 66.6391C84.6162 66.4494 84.6792 66.2809 84.7422 66.0913V66.0702C84.8263 65.8806 84.8893 65.6699 84.9523 65.4803C86.6119 65.4803 88.1664 64.9957 89.4478 63.9002C90.9183 63.0574 91.9686 61.7301 92.5148 60.2132C92.998 58.8648 93.061 57.3479 92.6619 55.8732C92.6199 55.6835 92.5568 55.4939 92.4938 55.3254C92.3888 55.0515 92.2627 54.7776 92.1367 54.5248C90.6242 51.7438 86.969 50.3954 83.965 50.29C82.0743 50.2268 80.4778 50.6061 79.1754 51.2171C77.1797 52.1441 75.8563 53.6399 75.2261 55.0093C74.2177 57.2005 74.4908 59.4548 75.9193 61.2245C76.1924 61.5616 76.4865 61.8566 76.8226 62.1515C77.3898 62.6361 78.02 63.0996 78.6922 63.4999C78.9023 63.6263 79.1334 63.7738 79.3644 63.8791C79.5955 64.0055 79.8266 64.1109 80.0577 64.2373C80.7509 64.5744 81.4861 64.8482 82.2004 65.0589C82.2004 65.08 82.1794 65.1011 82.1794 65.1221C82.1794 65.1432 82.1584 65.1643 82.1584 65.1643C81.6122 66.5969 80.8139 67.5661 79.6165 68.2402C73.8816 71.569 68.8399 69.7572 64.6595 62.8889C64.5125 62.6571 64.3234 62.4886 64.0923 62.3833C64.8906 62.0883 65.6679 62.2779 65.7099 62.299C66.4241 62.5097 67.1804 62.0883 67.3904 61.372C67.7476 60.6346 67.3274 59.8761 66.5922 59.6654ZM98.8169 81.8504C98.7749 83.0302 98.6069 84.189 98.3128 85.2845C96.6112 91.605 90.8343 96.2611 84.007 96.2611C79.3224 96.2611 75.142 94.07 72.4321 90.6569C72.054 90.1724 71.6969 89.6878 71.3818 89.1611C71.0036 88.5501 70.6885 87.9181 70.3944 87.2649C69.8273 85.9587 69.4491 84.5682 69.2811 83.0934C69.2181 82.5456 69.176 81.9768 69.176 81.4079C69.176 80.2071 69.3231 79.0272 69.5962 77.9106C70.0793 75.888 70.9826 74.013 72.2221 72.4118C72.9153 72.5593 73.6295 72.6225 74.3648 72.6225C76.5285 72.6225 78.7973 71.9693 81.108 70.621C81.6542 70.3049 82.1374 69.9468 82.5575 69.5676C82.9987 70.0943 83.7129 70.7895 84.7212 71.4005C85.8556 72.0957 87.5362 72.7699 89.7839 72.7699C89.8469 72.7699 89.91 72.7699 89.973 72.7699C90.9393 72.7489 92.0107 72.6225 93.187 72.2854C93.2921 72.2643 93.3971 72.2011 93.5022 72.159C93.9223 71.9272 94.3214 71.6744 94.6995 71.4005C94.7626 71.3584 94.8046 71.3373 94.8676 71.2952C94.8886 71.3373 94.9306 71.3584 94.9516 71.4005C95.0777 71.548 95.2247 71.6955 95.3508 71.8429C95.981 72.6014 96.5482 73.4231 97.0313 74.2869C97.4515 75.0664 97.8086 75.888 98.1027 76.7518C98.4388 77.7421 98.6489 78.7744 98.7749 79.8489C98.8379 80.3545 98.8589 80.8812 98.8589 81.3869C98.8379 81.5554 98.8379 81.7029 98.8169 81.8504ZM101.086 77.3418C100.687 75.6142 100.014 73.9919 99.132 72.5171C99.069 72.4118 99.006 72.3064 98.943 72.2011C98.3758 71.2952 97.7456 70.4314 97.0313 69.6518C97.8926 68.7459 98.5858 67.7767 99.069 66.7233C99.153 66.7233 99.2581 66.7233 99.3631 66.7233C99.3841 66.7233 99.4051 66.7233 99.4051 66.7233C99.5102 66.7233 99.5942 66.7233 99.6992 66.7444H99.7202C99.8463 66.7655 99.9513 66.7655 100.077 66.7865C100.203 66.8076 100.35 66.8287 100.476 66.8708C100.897 66.9551 101.338 67.1026 101.8 67.2922C101.926 67.6503 102.052 67.9874 102.136 68.3245C102.136 68.3456 102.136 68.3667 102.157 68.3667C102.388 69.2094 102.535 70.01 102.598 70.7684V70.7895C102.598 70.9159 102.619 71.0213 102.619 71.1477C102.619 71.1687 102.619 71.1687 102.619 71.1898C102.619 71.2952 102.619 71.4005 102.64 71.5269C102.64 71.548 102.64 71.569 102.64 71.5901C102.64 71.6955 102.64 71.8008 102.64 71.9061C102.64 71.9272 102.64 71.9483 102.64 71.9693C102.64 72.0747 102.64 72.18 102.64 72.2643C102.64 72.2854 102.64 72.3064 102.64 72.3275C102.64 72.4328 102.619 72.5171 102.619 72.6225C102.619 72.6435 102.619 72.6646 102.619 72.6857C102.619 72.791 102.598 72.8753 102.598 72.9806C102.598 73.0017 102.598 73.0228 102.598 73.0228C102.577 73.1281 102.577 73.2124 102.556 73.3177C102.556 73.3388 102.556 73.3388 102.556 73.3599C102.535 73.4652 102.535 73.5495 102.514 73.6548V73.6759C102.472 73.9076 102.409 74.1394 102.367 74.3711C102.304 74.6239 102.241 74.8768 102.157 75.1085C102.157 75.1296 102.136 75.1507 102.136 75.1717C102.115 75.2349 102.094 75.2771 102.073 75.3403C102.052 75.3824 102.052 75.4245 102.031 75.4667C102.01 75.5088 101.989 75.551 101.968 75.6142C101.947 75.6563 101.926 75.6984 101.905 75.7616C101.884 75.8038 101.863 75.8459 101.863 75.867C101.842 75.9091 101.821 75.9723 101.8 76.0145C101.779 76.0566 101.779 76.0777 101.758 76.0987C101.737 76.1619 101.716 76.2041 101.674 76.2673C101.653 76.2883 101.653 76.3094 101.632 76.3305C101.611 76.3937 101.569 76.4569 101.548 76.5201C101.548 76.5412 101.527 76.5622 101.527 76.5622C101.485 76.6254 101.464 76.6886 101.422 76.7518C101.422 76.7518 101.422 76.7729 101.401 76.7729C101.338 76.9415 101.212 77.1521 101.086 77.3418ZM123.101 83.7044C123.101 83.7255 123.08 83.7676 123.08 83.7887C123.059 83.8519 123.017 83.9361 122.996 83.9994C122.765 84.4629 122.366 84.7999 121.841 85.0317C121.82 83.5148 121.357 82.2507 120.706 81.2605C119.971 80.1438 119.047 79.3643 118.332 78.9851C117.996 78.7955 117.639 78.7744 117.303 78.8797C117.051 78.943 116.82 79.0904 116.652 79.3011L116.631 79.3222C116.589 79.3854 116.526 79.4486 116.484 79.5329C116.463 79.575 116.442 79.6171 116.421 79.6593C116.148 80.2913 116.4 81.0498 117.03 81.4079C117.072 81.429 117.366 81.5976 117.744 81.9557C118.5 82.651 119.509 84.0626 118.963 86.3379C118.921 86.4433 118.9 86.5697 118.858 86.675C118.564 87.4335 118.038 87.9602 117.345 88.2551C116.484 88.6133 115.412 88.5712 114.257 88.1287C114.509 87.0121 114.53 85.8955 114.404 84.8421C114.341 84.2311 114.215 83.6201 114.068 83.0723C113.543 81.0498 112.703 79.6171 112.619 79.4907C112.24 78.8376 111.4 78.6269 110.749 79.0272C110.623 79.0904 110.518 79.1958 110.434 79.28C110.14 79.5961 110.035 80.0596 110.119 80.4809C110.14 80.6284 110.203 80.7759 110.287 80.9023C110.308 80.9234 111.211 82.5035 111.589 84.4628C111.82 85.6216 111.862 86.9278 111.421 88.1498C111.295 88.2762 111.19 88.3816 111.106 88.4448C110.875 88.6344 110.686 88.6976 110.56 88.7397C110.497 88.7608 110.434 88.7608 110.392 88.7608C109.993 88.8029 109.509 88.6133 108.984 88.3184C108.039 87.7916 106.968 86.8436 105.896 85.9376C105.119 85.2634 104.321 84.5893 103.48 83.9361C103.48 83.9361 103.459 83.9361 103.459 83.9151C103.438 83.894 103.396 83.8729 103.375 83.8519C103.207 83.7465 103.039 83.7044 102.85 83.6623C102.598 83.6201 102.325 83.6623 102.073 83.7676C101.863 83.8729 101.653 83.9151 101.443 83.894C101.548 83.0723 101.611 82.2507 101.611 81.4079C101.611 81.3026 101.611 81.1973 101.611 81.0708C102.052 80.6495 103.396 79.28 104.363 77.0468C105.014 75.551 105.602 73.4652 105.455 70.9159C105.476 70.937 105.476 70.9581 105.497 70.9791C105.497 71.0002 105.518 71.0002 105.518 71.0213C105.56 71.0634 105.581 71.1055 105.623 71.1477C105.665 71.1898 105.707 71.2319 105.749 71.2741L105.77 71.2952C105.812 71.3373 105.854 71.3584 105.896 71.3794C105.896 71.3794 105.896 71.3794 105.917 71.3794C105.959 71.4005 106.022 71.4426 106.064 71.4637C106.085 71.4637 106.085 71.4637 106.106 71.4848C106.127 71.4848 106.148 71.5058 106.169 71.5058C107.619 72.0115 110.203 72.9806 112.871 74.0972C113.858 74.3079 114.971 75.0032 115.833 75.4035C116.001 75.4877 116.19 75.572 116.358 75.6563C118.059 76.4358 119.866 77.2996 121.252 78.5427C121.252 78.5427 121.273 78.5427 121.273 78.5637C121.294 78.5848 121.336 78.6269 121.378 78.648C121.568 78.8165 121.757 79.0272 121.925 79.2168C123.059 80.6073 123.563 82.3982 123.101 83.7044Z" fill="#21201F"/>
<path d="M69.3861 42.7476C69.5332 40.2194 67.9156 38.0704 65.7729 37.944C63.6302 37.8176 61.7816 39.777 61.6345 42.3052C61.4875 44.8334 63.105 46.9823 65.2477 47.1087C67.3904 47.2351 69.2391 45.2758 69.3861 42.7476Z" fill="#21201F"/>
<path d="M91.0654 47.1087C93.2081 47.2351 95.0567 45.2758 95.2037 42.7476C95.3508 40.2194 93.7332 38.0704 91.5905 37.944C89.4478 37.8176 87.5992 39.777 87.4522 42.3052C87.3051 44.8334 88.9226 46.9823 91.0654 47.1087Z" fill="#21201F"/>
</g>
<defs>
<clipPath id="clip0_21_9290">
<rect width="126" height="99" fill="white"/>
</clipPath>
</defs>
</svg>
