<svg width="490" height="455" viewBox="0 0 490 455" fill="none" xmlns="http://www.w3.org/2000/svg">
<g clip-path="url(#clip0_211_123)">
<path d="M344.5 446.8C344.4 441.8 343.1 324 394.6 307.3C401.4 305.1 407.3 304 412.4 303.8C395.8 288.6 367 276.3 362.5 268.2C361.5 266.5 360.7 264.6 359.9 262.7C358.1 266.8 355.5 271.3 351.7 275.7C336.7 292.9 309.8 302.2 271.7 303.2H271.6C270.8 303.2 270 302.9 269.5 302.3C268.9 301.7 268.6 300.9 268.6 300.1L268.9 290.1C253.8 306.3 212.6 348 200.4 337C197.1 334 194.5 331.3 192.4 328.9C192.2 329 192 329.1 191.9 329.3C199.6 350.7 202.7 369 200.9 384C201 385.5 201.1 386.9 201.2 388.3C202.4 404.2 203.2 413.8 198.2 422.1C197.1 424 196 425.8 195 427.6C202.1 425.4 218.1 416.4 224 413.2C226.6 411.8 228.6 410.6 229.8 410C236.6 406.5 242.4 407.8 245.4 410C247 411.1 247.9 412.6 248.2 414.2C248.4 414.4 248.6 414.5 248.8 414.6C252 417.3 251.9 423.2 250.8 426.5C250.4 427.6 249.7 428.8 246.3 431.1C246.9 432.5 247.2 434.1 247 435.8C246.5 440.1 243.4 444.6 239.5 446.8C237.5 447.9 234.5 448.9 231.2 449.9H347.7C345.8 449.7 344.5 448.4 344.5 446.8Z" fill="#F7B9CE"/>
<path d="M451.7 358.7C450.4 357.2 449.3 355.6 448.3 353.9C444 349.6 440.2 346.6 440.2 346.6C440.2 346.6 421.5 367.1 405.2 349.6C424.5 339.4 432.9 332.1 420.3 312.8C419.7 311.9 419 311 418.3 310.1C412.7 309.3 405.6 310.1 396.4 313C372 320.9 360.8 356.5 355.7 384.9C350 416.4 350.5 446.3 350.5 446.6C350.5 448.2 349.3 449.5 347.7 449.6H471C470.8 437.7 465.3 374 451.7 358.7Z" fill="#F7B9CE"/>
<path d="M193.2 215.8C193.2 215.7 193.2 215.6 193.3 215.5C193.3 215.4 193.4 215.3 193.4 215.3C193.4 215.2 193.5 215.1 193.6 215C193.6 214.9 193.7 214.9 193.7 214.8C193.8 214.7 193.9 214.6 193.9 214.5L194 214.4C194.1 214.3 194.2 214.2 194.3 214.1C194.3 214.1 194.4 214.1 194.4 214C194.5 213.9 194.7 213.8 194.8 213.8H194.9C195 213.7 195.2 213.7 195.3 213.6C195.4 213.6 195.4 213.6 195.5 213.6C195.6 213.6 195.8 213.6 195.9 213.5C196 213.5 196.1 213.5 196.2 213.5C196.3 213.5 196.3 213.5 196.4 213.5C197.8 213.6 199.5 211.6 200.9 208.2C205.6 196.9 204.9 179 202.5 176.5C201.8 176.4 201.2 176.5 200.6 176.8C198.4 178.2 197 182.5 196.7 183.9C196.3 185.5 194.8 186.5 193.1 186.2C191.5 185.9 190.5 184.3 190.8 182.6C190.9 182.2 191.3 180.4 192.2 178.3C191.7 171.4 189.7 157.5 186 155.7C182.2 153.8 181 136.4 180.8 133C180.8 132.7 180.5 132.5 180.2 132.6C179.2 133 177 134.1 174.1 136.8C173.8 137 173.4 136.9 173.4 136.5C172.8 131.3 168.8 125.3 161.5 117.4C161.2 117.1 160.7 117.3 160.7 117.8C161.3 122.2 159.7 132.2 155.9 135.8C155.6 136.1 155.1 135.9 155.1 135.5C155.2 127.5 150.7 124.5 145.5 113.4C145.3 112.9 144.6 113.1 144.6 113.6C144.9 119 142.5 124.7 141 127.7C140.8 128.1 140.1 128 140.2 127.5C140.3 125.4 140 121.9 138.2 117.4C138 117 137.4 117.1 137.3 117.5C137 122 134 129.3 131.6 133.4C131.5 133.6 131.3 133.7 131.1 133.6C124.3 131.6 118.2 124 109.4 107.7C109.2 107.3 108.7 107.4 108.6 107.8C105 123.2 98.4001 130.2 92.0001 139.2C91.8001 139.4 91.5001 139.3 91.6001 139C92.1001 136.7 92.5001 133.7 92.2001 129.4C92.2001 128.9 91.5001 128.8 91.3001 129.3C90.5001 132 89.0001 134.7 87.9001 136.4C87.6001 136.8 87.0001 136.6 87.1001 136.1C87.3001 133.9 87.4001 129.7 86.0001 122.8C85.9001 122.3 85.3001 122.3 85.1001 122.7C82.8001 130 77.3001 139.4 71.9001 153.5C73.2001 150.9 71.4001 125.2 71.4001 126C71.4001 126.8 66.9001 147.5 61.4001 164.8C56.6001 180 63.0001 196.4 64.7001 200.2C64.9001 200.6 64.5001 200.9 64.1001 200.8C61.3001 199.8 57.0001 195.6 53.7001 190C53.0001 190.7 52.0001 191.2 51.0001 191C46.9001 190.3 46.2001 192 45.9001 192.7C44.1001 196.9 47.4001 205.7 49.7001 207.4C52.4001 209.4 53.8001 213.1 55.4001 217.4C57.4001 222.7 59.7001 228.7 64.6001 232.1C66.1001 233.1 67.4001 233.5 68.3001 233.1C70.6001 232.2 72.2001 227.6 72.6001 225.5C72.9001 223.9 74.5001 222.8 76.1001 223.2C77.7001 223.5 78.8001 225.1 78.4001 226.7C78.3001 227 78.1001 228.3 77.5001 229.9C77.8001 230.1 78.0001 230.4 78.2001 230.8C78.3001 231 87.1001 248 106.2 255.9C114.6 259.3 119.4 262.2 122.9 264.3C128 267.4 130.1 268.6 137.5 268.3C153.3 267.6 160.9 265.9 161.8 257.7C161.9 256.8 162.4 255.9 163.2 255.4C165.5 254 167.8 252.9 170.1 251.9C179.8 247.3 188.9 243 193.1 216C193.1 215.9 193.2 215.9 193.2 215.8ZM67.4001 208.9C66.7001 210.3 65.1001 211 63.7001 210.4C63.6001 210.4 63.5001 210.4 63.4001 210.5C62.8001 210.6 62.7001 210.8 62.7001 210.8C62.4001 211.7 63.0001 213.7 64.3001 215.1C65.4001 216.3 65.4001 218.2 64.1001 219.3C63.5001 219.8 62.8001 220.1 62.1001 220.1C61.3001 220.1 60.5001 219.8 59.9001 219.1C57.6001 216.6 55.9001 212.3 57.0001 208.9C57.8001 206.6 59.6001 205 62.2001 204.5C63.1001 204.3 64.4001 204.1 66.0001 204.8C67.5001 205.6 68.1001 207.4 67.4001 208.9ZM142.3 210.7C142.8 210.1 147 205.2 151.8 206.5C152.9 206.8 153.5 207.9 153.2 209C152.9 210.1 151.8 210.7 150.7 210.4C148.6 209.8 145.9 212.5 145.3 213.3C144.9 213.8 144.3 214 143.8 214C143.4 214 142.9 213.9 142.5 213.5C141.7 212.8 141.6 211.5 142.3 210.7ZM126.3 205.5C126.9 201.7 131 199.8 131.4 199.6C132.4 199.1 133.6 199.6 134 200.6C134.5 201.6 134 202.8 133 203.2C132.3 203.5 130.4 204.7 130.2 206.1C130 207.1 129.2 207.8 128.2 207.8C128.1 207.8 128 207.8 127.9 207.8C126.9 207.6 126.1 206.6 126.3 205.5ZM126.6 211.2C129.4 208.9 134.3 210.7 135.2 211.1C136.2 211.5 136.7 212.7 136.3 213.7C136 214.5 135.2 214.9 134.4 214.9C134.1 214.9 133.9 214.9 133.6 214.8C132 214.1 129.6 213.8 129 214.3C128.1 215 126.9 214.9 126.2 214C125.6 213.2 125.8 211.9 126.6 211.2ZM82.9001 176.2C82.3001 176.9 81.5001 177.2 80.6001 177.2C79.9001 177.2 79.2001 177 78.6001 176.4C77.4001 175.3 77.2001 173.4 78.3001 172.2C88.2001 161 115.7 162.7 116.9 162.8C118.6 162.9 119.8 164.3 119.7 166C119.6 167.7 118.2 168.9 116.5 168.8C109.5 168.3 89.5001 168.8 82.9001 176.2ZM104.9 191.6C101.5 191.6 98.8001 188.9 98.8001 185.5C98.8001 183.8 99.5001 182.2 100.6 181.1C94.3001 183.2 91.6001 189.2 91.5001 189.5C91.0001 190.6 89.9001 191.3 88.7001 191.3C88.3001 191.3 87.9001 191.2 87.5001 191.1C86.0001 190.4 85.3001 188.7 85.9001 187.2C86.1001 186.7 91.4001 174.6 104.8 174.4C105 174.4 105.2 174.4 105.4 174.4C118.4 174.4 122 182.7 122.2 183.1C122.8 184.6 122.1 186.4 120.6 187C119.1 187.6 117.3 186.9 116.7 185.4C116.6 185.3 114.9 181.6 108.7 180.7C110.2 181.8 111.1 183.6 111.1 185.6C111 188.9 108.3 191.6 104.9 191.6ZM152.4 251.8C150.8 253.3 148.1 255.1 143.6 255.1C140.7 255.1 138.2 254.8 136.2 254.2C134.6 253.7 133.7 252.1 134.2 250.5C134.7 248.9 136.3 248 137.9 248.5C138.9 248.8 140.7 249.1 143.6 249.1C145.6 249.1 147.1 248.6 148.2 247.5C149.4 246.3 151.3 246.4 152.4 247.6C153.6 248.7 153.5 250.6 152.4 251.8ZM168.1 231.7C168 233.3 166.7 234.5 165.1 234.5C165 234.5 165 234.5 164.9 234.5C163.5 234.4 162.3 233.3 162.1 231.9C161.6 232.3 161.1 232.7 160.5 233.1C160.6 233.7 160.5 234.2 160.2 234.8C160 235.3 154.4 246.1 144.1 246.5C143.5 246.5 142.9 246.5 142.3 246.5C128.3 246.5 122.6 239.7 122.4 239.4C121.9 238.8 121.7 238.1 121.7 237.3C120.7 237.1 120 236.8 119.6 236.7C119.7 238 119 239.3 117.7 239.8C117.3 239.9 117 240 116.6 240C115.4 240 114.3 239.3 113.8 238.1C111.5 232.3 116.9 226.9 117.5 226.4C118.7 225.3 120.6 225.3 121.7 226.5C122.8 227.7 122.8 229.6 121.6 230.7C121.5 230.8 121.4 230.9 121.3 231C122.6 231.4 130.2 233.7 140 232.1L141.1 231.9C151.3 230.2 156.4 229.4 158.9 226.6L159 226.5C158.7 226.2 158.4 225.9 158.1 225.7C156.8 224.6 156.7 222.7 157.7 221.5C158.8 220.2 160.7 220.1 161.9 221.1C163.2 221.9 168.5 226.6 168.1 231.7ZM177.4 182.1C176.2 183.2 174.3 183.1 173.2 181.9C173.2 181.9 169.5 177.9 164 176.7C165.4 177.8 166.2 179.5 166.2 181.4C166.2 184.8 163.5 187.5 160.1 187.5C156.7 187.5 154 184.8 154 181.4C154 180 154.5 178.7 155.3 177.6C151.6 179.5 149.4 182.7 149.3 182.8C148.7 183.7 147.8 184.1 146.8 184.1C146.2 184.1 145.7 183.9 145.1 183.6C143.7 182.7 143.3 180.8 144.3 179.5C144.5 179.1 150.5 170.3 160.7 170.3C170.6 170.3 177.4 177.6 177.6 177.9C178.7 179 178.6 180.9 177.4 182.1ZM182.1 168.4C181.5 168.9 180.8 169.2 180.1 169.2C179.3 169.2 178.5 168.9 177.9 168.2C168.9 158.2 148 166.8 147.8 166.9C146.3 167.5 144.5 166.8 143.9 165.3C143.3 163.8 144 162 145.5 161.4C146.5 161 170.5 151.1 182.4 164.3C183.5 165.4 183.4 167.2 182.1 168.4ZM191.6 195.7C190.3 194.7 190 192.8 191 191.5C192 190.2 193.9 189.9 195.2 190.9C197.8 192.8 201.5 197.4 199.2 202.3C198.7 203.4 197.6 204 196.5 204C196.1 204 195.6 203.9 195.2 203.7C193.7 203 193.1 201.2 193.8 199.7C194.4 198.3 192.2 196.1 191.6 195.7Z" fill="#DB8B65"/>
<path d="M291.5 250.2C328.4 242.8 349.8 192.7 350.7 190.5C343.7 163.4 344.4 139 332.2 115.8C319.5 91.7 279.8 62.2 276.7 50.7C276.7 50.9 247 72.5 244.4 74.5C239.2 78.4 230.1 81.3 227.3 87.5C225.4 91.7 221.1 99.9 219 108.4C234 100.7 248.3 108.6 249 109C250.4 109.8 250.9 111.7 250.1 113.1C249.3 114.5 247.5 115 246 114.2C245.4 113.9 231.7 106.4 218.5 115.6C218.5 115.6 218.5 115.6 218.4 115.6C218.4 118 219 121 219.5 123.7C220 126.5 220.6 129.2 220.6 131.4C220.6 134.3 219.7 136.8 218.5 140.3C217 144.4 215 150.1 213.4 159.7C211.4 171.2 222.3 193.9 230.3 210.4C233.8 217.6 236.8 223.9 238.6 228.7C238.7 229 238.8 229.3 238.8 229.7C239.4 253.2 254.1 255.9 262.9 257.6C265.6 258.1 268.5 257.6 271.4 256.6C271.6 256.5 271.7 256.5 271.9 256.4C273.6 255.8 275.3 255.1 277 254.4C281.6 252.5 286.3 250.6 291.5 250.2ZM318 133.7C317.5 134 317 134.1 316.5 134.1C315.5 134.1 314.5 133.6 313.9 132.6C313.8 132.4 310.8 128 301.8 126.3C303.1 127.5 303.9 129.3 303.9 131.2C303.9 135 300.9 138 297.1 138C293.3 138 290.3 135 290.3 131.2C290.3 129.2 291.2 127.4 292.5 126.2C285.8 127.6 282.5 132 282.4 132.2C281.4 133.5 279.6 133.9 278.2 132.9C276.8 131.9 276.5 130.1 277.5 128.7C277.8 128.3 284.9 118.3 299.6 119.8C314 121.3 318.8 129 319 129.4C319.9 131 319.4 132.9 318 133.7ZM273.1 108.9C273.7 108.6 288.1 101.6 308.1 107.3C327.1 112.7 329.6 118.6 329.7 120.9C329.8 122.6 328.6 124 326.9 124.1C326.8 124.1 326.8 124.1 326.7 124.1C325.3 124.1 324 123.1 323.8 121.7C323.6 121.2 321.2 117.3 306.5 113.1C288.9 108.1 276 114.2 275.8 114.3C274.3 115 272.5 114.4 271.8 112.9C271 111.4 271.6 109.6 273.1 108.9ZM251.7 173C254.8 170.9 262.1 168.3 267.2 173.8C268.3 175 268.3 176.9 267 178C266.4 178.5 265.7 178.8 265 178.8C264.2 178.8 263.4 178.5 262.8 177.8C259.9 174.7 255.2 177.8 255.1 177.9C253.7 178.8 251.9 178.4 250.9 177.1C250 175.8 250.3 173.9 251.7 173ZM232.7 175.9C228.7 168.2 230.7 164.1 238.3 156.5C244.7 150.1 244.7 136 244.1 130.1C243.1 128.8 242 127.7 240.9 126.8C241.5 127.6 241.9 128.6 241.9 129.8C241.9 132.5 239.7 134.7 237 134.7C234.3 134.7 232.1 132.5 232.1 129.8C232.1 127.1 234.3 124.9 237 124.9C236.5 124.8 236.1 124.7 235.6 124.7C230.6 124.4 226.5 128.8 226.4 128.8C225.3 130 223.4 130.1 222.2 129C221 127.9 220.9 126 222 124.8C222.2 124.5 228.1 118.3 235.9 118.8C240.9 119.1 245.4 121.9 249.2 127.3C249.5 127.7 249.7 128.2 249.7 128.7C249.8 129.6 252.4 150.7 242.2 160.8C236.4 166.6 235.6 168.4 236.7 171.3C239.3 171.2 242.7 172 244.9 175.4C245.8 176.8 245.4 178.6 244.1 179.6C243.6 179.9 243 180.1 242.4 180.1C241.4 180.1 240.5 179.6 239.9 178.8C238.6 176.8 236.4 177.5 235.9 177.6C234.9 177.8 233.4 177.2 232.7 175.9ZM268.2 225C264.1 227.6 260.2 228.4 256.7 228.4C249.7 228.4 244.6 224.8 244.3 224.6C243 223.6 242.7 221.7 243.7 220.4C244.7 219.1 246.6 218.8 247.9 219.8C248.3 220.1 256.1 225.5 265 220C266.4 219.1 268.3 219.5 269.1 221C270 222.3 269.6 224.1 268.2 225ZM256 216.4C250.5 216.4 245.8 213.8 242.4 208.9C240 205.4 239.1 201.9 239 201.7C239 201.6 239 201.5 239 201.4C237.5 200.8 236.7 200.4 236.5 200.3C235 199.5 234.5 197.7 235.3 196.2C236.1 194.7 237.9 194.2 239.4 195C239.5 195.1 244.1 197.4 252.6 198.1C253.5 198.1 254.4 198.1 255.4 198.1C255.7 198.1 255.9 198.1 256.2 198.1C261.7 198.1 268.2 197.4 274 196.5C278.8 195.5 284 193.9 289.7 191.7L290.2 190.3L291.1 187.4C293.7 188.2 298.3 191.8 297.1 199.6C296.9 201.1 295.6 202.1 294.1 202.1C293.9 202.1 293.8 202.1 293.6 202.1C292.4 201.9 291.6 201.1 291.2 200.1C285.2 208.6 266.9 216.4 256 216.4Z" fill="#DB8B65"/>
<path d="M355.4 245.8C355.3 245.1 355.2 244.7 355.2 244.7C355.2 244.7 354.7 225.4 352.4 201.1C349.7 206.4 345.6 213.6 340.1 221.1C326 240.6 309.5 252.7 292.5 256C292.4 256 292.2 256 292.1 256.1C287.7 256.3 283.4 258.1 279.3 259.8C278.1 260.3 276.8 260.8 275.6 261.3L275.1 279.9L274.6 297C309.2 295.6 333.6 287.2 347 271.8C353 264.9 355.6 257.9 356.7 252.6C356 249.7 355.6 247.2 355.4 245.8Z" fill="#DB8B65"/>
<path d="M135.5 274.4C127.9 274.4 124.8 272.5 119.8 269.5C116.3 267.4 111.9 264.7 103.9 261.5C101.3 260.4 98.9 259.2 96.7 258L86.3 270C97.2 273.7 127 283.2 141.5 279.7C154.3 276.7 157.9 274.2 158.7 273.4L159 270.7C152.9 273.6 144.6 274 137.8 274.3C137 274.3 136.2 274.4 135.5 274.4Z" fill="#DB8B65"/>
<path d="M244.5 419.5C244.3 419.6 244.1 419.7 243.9 419.7C239.4 422.6 229.8 427.7 208.9 437.2C208.5 437.4 208.1 437.5 207.7 437.5C206.6 437.5 205.5 436.8 205 435.7C204.3 434.2 205 432.4 206.5 431.7C220.8 425.2 236.5 417.6 241.3 414.4C239.8 413.6 236.7 413 232.5 415.2C231.3 415.8 229.4 416.9 226.9 418.3C205.8 430.1 196.3 434.4 191.5 433.9C190.1 436.6 189.3 438.3 189.3 438.4C189.2 438.6 189.1 438.8 188.9 439C189.3 443.8 187.9 448.7 187.7 449.7V449.8C187.6 450.1 187.5 450.4 187.3 450.7H212.6C212.7 450.4 212.8 450 213 449.7C213.3 449.2 213.8 448.7 214.4 448.4C216.3 447.6 219.6 446.6 223.5 445.6C228.2 444.3 234 442.7 236.6 441.3C238.8 440.1 240.8 437.3 241 434.9C241 434.5 241 434.2 241 433.9C238.9 435 236.2 436.3 233 437.9C225.3 441.5 217.7 444.7 217.7 444.7C217.3 444.9 216.9 444.9 216.5 444.9C215.3 444.9 214.2 444.2 213.7 443.1C213.1 441.6 213.8 439.8 215.3 439.2C228.1 433.8 243 426.6 245.1 424.2C245.7 422.3 245.4 420.1 245 419.2C244.8 419.4 244.7 419.4 244.5 419.5Z" fill="#DB8B65"/>
<path d="M30.6 378.6C35.4 370.8 34.2 359.3 43 359C51.8 358.7 57.8 351.8 57.8 348.2C64 345.4 101.7 343.9 110.9 351.6C113.3 345.4 114.9 341 115 340.8C115.6 339.2 117.3 338.4 118.8 339C119.4 339.2 119.9 339.6 120.2 340.1C121.8 338 122.9 337 122.9 337C122.9 337 129.8 329.5 136.5 329.8C142.3 330.1 174.9 325.1 183.3 323.8C182 320.5 180.6 317.1 179 313.7C172.3 298.8 165.3 286.4 161.6 280.3C161.4 279.9 161.1 279.5 160.9 279.2C159.2 280.3 156.9 281.4 154 282.4C150.9 283.5 147.2 284.6 142.8 285.6C140.2 286.2 137.3 286.5 134.1 286.5C113 286.5 81.6 274.8 80 274.2C80 274.2 80 274.2 79.9 274.2C79.9 274.2 79.9 274.2 79.8 274.2C78.4 273.6 76 273.9 73.1 274.9C78.7 278.8 106.4 297.5 131.8 298.3C114 311 109.8 326.6 109.8 326.6C109.8 326.6 99.9 318.8 83 322.7C66.1 326.6 60.7 314.9 56.5 319.7C52.3 324.5 35.7 356.5 31.5 352.6C28.3 349.6 28 337.8 28.1 332.2C17.9 344.9 12.7 358.5 7.1 378.1C6.4 380.5 6.1 383.2 6 386.1C10.9 386.6 26.3 385.6 30.6 378.6Z" fill="#0D8944"/>
<path d="M195.1 388.7C195 387.2 194.9 385.7 194.7 384.1C194.7 383.9 194.7 383.7 194.7 383.5C195.3 378.2 195.3 372.2 194.6 365.8C189.3 365.5 172.2 365.4 153.5 373.2C135.9 380.5 116.2 375.7 108.2 373.2C104.4 381.6 100.2 389.8 96.4999 394.7C94.1999 397.8 93.9999 400.7 95.9999 404.1C99.9999 410.8 110.3 415.2 112.6 414.8C113.1 414.7 113.7 414.6 114.4 414.5C118.1 413.9 123.6 413 129.2 412.8C136.5 410.8 143.9 408.1 149.2 405.4C160.3 399.7 186.5 399.3 195.7 399.3C195.7 396.2 195.4 392.7 195.1 388.7Z" fill="#0D8944"/>
<path d="M166.9 431.1C160.5 429.3 154 427.5 149.2 425.3C147.2 430.7 142 445.1 141.1 449.8H177.1H181.8C181.7 449.3 181.6 448.7 181.8 448.1C182.1 447.2 182.3 446.2 182.5 445C183 442 183.1 438.5 182.1 436.5C180.7 434.9 172.4 432.6 166.9 431.1Z" fill="#0D8944"/>
<path d="M115.6 420.4C114.9 420.5 114.2 420.6 113.7 420.7C111.1 421.1 106.7 419.8 102.3 417.4C96.4 421.9 83.6 443.4 80 449.8H111.5C109.4 437 113.8 425.8 116.6 420.3C116.1 420.3 115.8 420.4 115.6 420.4Z" fill="#0D8944"/>
<path d="M89.7 395C90.2 393.7 90.9 392.4 91.9 391.1C94.4 387.8 97.2 382.8 99.9 377.2C91.7 376.7 59.4 375.4 44 386.7C29.8 397 12.8 395.3 6.5 394.2C8.1 409 14.3 426 18.6 436.4C27.7 425.7 60.5 390.8 89.7 395Z" fill="#0D8944"/>
<path d="M147.8 166.8C148 166.7 168.9 158.1 177.9 168.1C178.5 168.8 179.3 169.1 180.1 169.1C180.8 169.1 181.5 168.8 182.1 168.3C183.3 167.2 183.4 165.3 182.3 164.1C170.5 150.9 146.5 160.8 145.4 161.2C143.9 161.8 143.2 163.6 143.8 165.1C144.4 166.6 146.3 167.4 147.8 166.8Z" fill="black"/>
<path d="M116.6 168.8C118.3 168.9 119.7 167.7 119.8 166C119.9 164.3 118.7 162.9 117 162.8C115.8 162.7 88.3001 161 78.4001 172.2C77.3001 173.4 77.4 175.3 78.7 176.4C79.3 176.9 80 177.2 80.7 177.2C81.5 177.2 82.4 176.9 83 176.2C89.5 168.8 109.5 168.3 116.6 168.8Z" fill="black"/>
<path d="M160.6 170.2C150.4 170.2 144.5 179.1 144.2 179.4C143.3 180.8 143.7 182.6 145 183.5C145.5 183.8 146.1 184 146.7 184C147.7 184 148.6 183.5 149.2 182.7C149.2 182.7 151.4 179.4 155.2 177.5C154.4 178.5 153.9 179.8 153.9 181.3C153.9 184.7 156.6 187.4 160 187.4C163.4 187.4 166.1 184.7 166.1 181.3C166.1 179.4 165.2 177.7 163.9 176.6C169.3 177.9 173 181.8 173.1 181.8C174.2 183 176.1 183.1 177.3 182C178.5 180.9 178.6 179 177.5 177.8C177.3 177.5 170.6 170.2 160.6 170.2Z" fill="black"/>
<path d="M111 185.5C111 183.5 110 181.7 108.6 180.6C114.8 181.6 116.6 185.2 116.6 185.3C117.2 186.8 119 187.6 120.5 186.9C122 186.3 122.8 184.5 122.1 183C122 182.6 118.4 174.3 105.3 174.3C105.1 174.3 104.9 174.3 104.7 174.3C91.3 174.5 86 186.6 85.8 187.1C85.2 188.6 85.9 190.4 87.4 191C87.8 191.2 88.2 191.2 88.6 191.2C89.8 191.2 90.9 190.5 91.4 189.4C91.5 189.1 94.2 183.1 100.5 181C99.4 182.1 98.7 183.7 98.7 185.4C98.7 188.8 101.4 191.5 104.8 191.5C108.3 191.6 111 188.9 111 185.5Z" fill="black"/>
<path d="M66.0001 204.9C64.5001 204.2 63.1001 204.4 62.2001 204.6C59.6001 205.1 57.7001 206.6 57.0001 209C55.9001 212.5 57.6001 216.8 59.9001 219.2C60.5001 219.8 61.3001 220.2 62.1001 220.2C62.8001 220.2 63.6001 219.9 64.1001 219.4C65.3001 218.3 65.4001 216.4 64.3001 215.2C63.1001 213.9 62.5001 211.8 62.7001 210.9C62.7001 210.8 62.8001 210.7 63.4001 210.6C63.5001 210.6 63.6001 210.6 63.7001 210.5C65.1001 211 66.8001 210.4 67.4001 209C68.1001 207.4 67.5001 205.6 66.0001 204.9Z" fill="black"/>
<path d="M191.6 195.7C192.2 196.2 194.5 198.3 193.8 199.7C193.1 201.2 193.7 203 195.2 203.7C195.6 203.9 196.1 204 196.5 204C197.6 204 198.7 203.4 199.2 202.3C201.5 197.4 197.8 192.9 195.2 190.9C193.9 189.9 192 190.2 191 191.5C190 192.8 190.3 194.7 191.6 195.7Z" fill="black"/>
<path d="M129.1 214.3C129.8 213.8 132.1 214.1 133.7 214.8C133.9 214.9 134.2 214.9 134.5 214.9C135.3 214.9 136 214.4 136.4 213.7C136.8 212.7 136.3 211.5 135.3 211.1C134.4 210.7 129.5 208.9 126.7 211.2C125.8 211.9 125.7 213.1 126.4 214C127 214.9 128.3 215 129.1 214.3Z" fill="black"/>
<path d="M143.9 214C144.5 214 145.1 213.7 145.4 213.3C146 212.5 148.7 209.9 150.8 210.4C151.9 210.7 153 210.1 153.3 209C153.6 207.9 153 206.8 151.9 206.5C147 205.2 142.8 210.1 142.4 210.7C141.7 211.6 141.8 212.8 142.7 213.5C143 213.8 143.4 214 143.9 214Z" fill="black"/>
<path d="M121.8 226.4C120.7 225.2 118.8 225.1 117.6 226.3C117 226.9 111.5 232.2 113.9 238C114.4 239.2 115.5 239.9 116.7 239.9C117.1 239.9 117.4 239.8 117.8 239.7C119.1 239.2 119.8 237.9 119.7 236.6C120.1 236.7 120.9 237 121.8 237.2C121.8 237.9 122 238.7 122.5 239.3C122.7 239.6 128.4 246.4 142.4 246.4C143 246.4 143.6 246.4 144.2 246.4C154.5 246 160.1 235.2 160.3 234.7C160.6 234.2 160.7 233.6 160.6 233C161.2 232.6 161.7 232.3 162.2 231.8C162.4 233.2 163.5 234.3 165 234.4C165.1 234.4 165.1 234.4 165.2 234.4C166.8 234.4 168.1 233.2 168.2 231.6C168.6 226.5 163.3 221.8 162.2 220.9C160.9 219.8 159 220 158 221.3C156.9 222.6 157.1 224.5 158.4 225.5C158.7 225.7 159 226 159.3 226.3L159.2 226.4C156.8 229.3 151.6 230.1 141.4 231.7L140.3 231.9C130.5 233.5 122.9 231.2 121.6 230.8C121.7 230.7 121.8 230.6 121.9 230.5C122.9 229.5 122.9 227.6 121.8 226.4ZM133.2 238.6C135.6 238.6 138.3 238.4 141.1 238L142.2 237.8C146 237.2 149.2 236.7 151.9 236.1C150 238.2 147.2 240.3 143.8 240.4C138.4 240.6 134.5 239.7 131.8 238.6C132.3 238.6 132.7 238.6 133.2 238.6Z" fill="black"/>
<path d="M148.2 247.5C147.1 248.6 145.5 249.1 143.6 249.1C140.7 249.1 138.9 248.8 137.9 248.5C136.3 248 134.6 248.9 134.2 250.5C133.8 252.1 134.6 253.8 136.2 254.2C138.2 254.8 140.7 255.1 143.6 255.1C148.1 255.1 150.9 253.3 152.4 251.8C153.6 250.6 153.6 248.7 152.5 247.6C151.3 246.4 149.4 246.3 148.2 247.5Z" fill="black"/>
<path d="M467.9 377.4C475.7 379.2 495 343 488.4 310.5C481.8 278 451 264.7 455.2 249C459.4 233.3 461.8 197.2 458.8 174.9C455.8 152.6 441.9 149 429.3 101.4C416.6 53.8001 396.1 19.4001 357 5.00007C317.9 -9.39993 282.3 12.8001 282.3 12.8001C256.4 5.60007 222 46.6001 203.3 86.9001C198.8 96.6001 196.4 108.8 195.2 121.8C189.1 99.2001 177.2 82.5001 160.2 73.6001C150.1 64.2001 132.2 60.4001 110.9 63.1001C87.4001 66.1001 67.1001 76.2001 59.3001 88.7001C40.1001 112 38.4001 137.7 40.4001 155.3C42.0001 169.2 45.9001 180 48.0001 185C43.3001 185.5 41.3001 188.4 40.4001 190.4C37.5001 197.3 41.8001 209 46.1001 212.2C47.4001 213.2 48.6001 216.4 49.8001 219.5C52.0001 225.3 54.8001 232.5 61.3001 237C63.7001 238.7 65.8001 239.2 67.6001 239.2C68.8001 239.2 69.8001 238.9 70.7001 238.6C72.2001 238 73.4001 237 74.4001 235.9C76.8001 239.8 82.4001 247.8 91.8001 254.6L80.0001 268C70.9001 266.8 54.5001 276.3 50.8001 284.1C49.8001 286.1 49.1001 288.4 48.3001 291C45.9001 298.4 42.6001 308.4 31.1001 319.9C14.9001 336 8.40006 351.5 1.40006 376.3C-5.59994 401.1 16.5001 447 17.4001 449C17.9001 450.1 19.0001 450.7 20.1001 450.7C20.5001 450.7 21.0001 450.6 21.4001 450.4C21.7001 450.3 21.9001 450.1 22.2001 449.8C23.1001 448.9 23.4001 447.5 22.8001 446.3C22.7001 446.2 20.9001 442.3 18.5001 436.4C14.1001 426 7.90006 409 6.40006 394.2C6.10006 391.3 6.00006 388.5 6.00006 385.9C6.10006 383 6.50006 380.4 7.10006 377.9C12.7001 358.3 17.9001 344.7 28.1001 332C30.3001 329.3 32.6001 326.7 35.3001 324C47.8001 311.5 51.4001 300.6 54.0001 292.7C54.8001 290.3 55.5001 288.2 56.3001 286.5C58.5001 281.9 66.9001 276.7 73.3001 274.6C76.2001 273.7 78.6001 273.3 80.0001 273.9C80.0001 273.9 80.0001 273.9 80.1001 273.9C80.1001 273.9 80.1001 273.9 80.2001 273.9C81.7001 274.5 113.1 286.2 134.3 286.2C137.5 286.2 140.4 285.9 143 285.3C147.4 284.3 151.1 283.2 154.2 282.1C157.1 281.1 159.4 280 161.1 278.9C161.3 279.3 161.5 279.6 161.8 280C165.5 286.1 172.5 298.5 179.2 313.4C180.7 316.8 182.1 320.2 183.5 323.5C189.7 339.1 193.5 353.2 194.9 365.6C195.6 372 195.7 378 195 383.3C195 383.5 195 383.7 195 383.9C195.1 385.5 195.2 387 195.4 388.5C195.7 392.4 196 396 196.1 399.1C196.5 407.8 196.1 413.8 193.2 418.7C190.3 423.4 187.7 428.2 186.1 431.5C183.3 429.2 177.8 427.5 168.8 425C160.9 422.8 151.2 420.1 148.2 417.1C144.1 413 136.8 412.2 129.7 412.4C124.1 412.6 118.6 413.5 114.9 414.1C114.2 414.2 113.6 414.3 113.1 414.4C110.8 414.8 100.5 410.4 96.5001 403.7C94.5001 400.4 94.7001 397.4 97.0001 394.3C100.7 389.4 104.9 381.2 108.7 372.8C115.2 358.5 120.6 343.4 120.9 342.4C121.2 341.4 121.1 340.4 120.5 339.7C120.2 339.2 119.7 338.8 119.1 338.6C117.5 338 115.8 338.9 115.3 340.4C115.3 340.5 113.7 344.9 111.2 351.2C108.3 358.5 104.3 368.4 100.2 376.9C97.5001 382.5 94.7001 387.5 92.2001 390.8C91.3001 392.1 90.5001 393.3 90.0001 394.7C88.5001 398.6 88.9001 402.9 91.3001 406.9C93.8001 411.1 98.2001 414.7 102.5 417.1C106.9 419.6 111.4 420.8 113.9 420.4C114.4 420.3 115.1 420.2 115.8 420.1C116.1 420.1 116.4 420 116.7 420C123.5 418.9 139 416.5 143.9 421.4C145.2 422.7 147.2 423.9 149.5 425C154.3 427.2 160.8 429.1 167.2 430.8C172.7 432.3 181 434.6 182.4 436.2C183.5 438.2 183.3 441.8 182.8 444.7C182.6 445.9 182.4 447 182.1 447.8C181.9 448.4 181.9 448.9 182.1 449.5C182.4 450.5 183.1 451.3 184.1 451.6C184.4 451.7 184.7 451.7 185 451.7C186 451.7 186.9 451.2 187.4 450.4C187.6 450.1 187.7 449.8 187.8 449.5V449.4C188.1 448.5 189.4 443.6 189 438.7C189.1 438.5 189.3 438.3 189.4 438.1C189.4 438.1 190.3 436.3 191.6 433.6C196.3 434 205.8 429.8 227 418C229.5 416.6 231.5 415.5 232.6 414.9C236.9 412.7 240 413.3 241.4 414.1C236.6 417.2 220.9 424.9 206.6 431.4C205.1 432.1 204.4 433.9 205.1 435.4C205.6 436.5 206.7 437.2 207.8 437.2C208.2 437.2 208.6 437.1 209 436.9C229.9 427.4 239.6 422.3 244 419.4C244.2 419.3 244.4 419.3 244.6 419.2C244.7 419.1 244.8 419.1 244.9 419.1C245.3 419.9 245.6 422.1 245 424.1C242.9 426.6 228 433.8 215.2 439.1C213.7 439.7 212.9 441.5 213.6 443C214.1 444.2 215.2 444.8 216.4 444.8C216.8 444.8 217.2 444.7 217.6 444.6C217.7 444.6 225.3 441.4 232.9 437.8C236.1 436.3 238.7 435 240.9 433.8C240.9 434.1 241 434.4 240.9 434.8C240.6 437.2 238.7 440 236.5 441.2C233.9 442.6 228.1 444.2 223.4 445.5C219.5 446.6 216.2 447.5 214.3 448.3C213.7 448.6 213.2 449 212.9 449.6C212.7 449.9 212.6 450.2 212.5 450.6C212.4 451.2 212.5 451.8 212.7 452.3C213.2 453.4 214.3 454.1 215.4 454.1C215.8 454.1 216.2 454 216.6 453.8C218.1 453.1 221.4 452.2 224.8 451.3C226.8 450.7 228.9 450.2 230.9 449.6C234.2 448.6 237.2 447.6 239.2 446.5C243.1 444.3 246.2 439.8 246.7 435.5C246.9 433.8 246.6 432.2 246 430.8C249.4 428.6 250.2 427.3 250.5 426.2C251.6 422.9 251.7 417 248.5 414.3C248.3 414.2 248.1 414 247.9 413.9C247.7 412.4 246.7 410.9 245.1 409.7C242.1 407.5 236.3 406.3 229.5 409.7C228.3 410.3 226.2 411.5 223.7 412.9C217.9 416.2 201.8 425.1 194.7 427.3C195.7 425.5 196.8 423.6 197.9 421.8C202.9 413.6 202.2 403.9 200.9 388C200.8 386.6 200.7 385.2 200.6 383.7C202.3 368.7 199.3 350.4 191.6 329C191.4 328.4 191.2 327.8 190.9 327.2C191.3 327.7 191.7 328.2 192.1 328.7C194.2 331.2 196.8 333.9 200.1 336.8C212.3 347.8 253.5 306.1 268.6 289.9L268.3 299.9C268.3 300.7 268.6 301.5 269.2 302.1C269.8 302.7 270.5 303 271.3 303H271.4C309.5 302 336.5 292.7 351.4 275.5C355.2 271.1 357.8 266.7 359.6 262.5C360.4 264.4 361.2 266.3 362.2 268C366.8 276.1 395.5 288.4 412.1 303.6C407 303.8 401.2 304.9 394.3 307.1C342.8 323.7 344.1 441.6 344.2 446.6C344.2 448.2 345.5 449.4 347 449.5C347.1 449.5 347.1 449.5 347.2 449.5C347.3 449.5 347.3 449.5 347.4 449.5C349 449.4 350.2 448.1 350.2 446.5C350.2 446.2 349.8 416.2 355.4 384.8C360.5 356.3 371.7 320.8 396.1 312.9C405.3 309.9 412.4 309.1 418 310C418.7 310.9 419.4 311.8 420 312.7C432.7 332 424.2 339.2 404.9 349.5C421.2 367 439.9 346.5 439.9 346.5C439.9 346.5 443.7 349.5 448 353.8C449 355.5 450.1 357.1 451.4 358.6C464.9 373.9 470.5 437.6 470.7 449.6C470.7 450.4 470.7 451 470.7 451.3C470.5 452.9 471.8 454.4 473.4 454.6C473.5 454.6 473.6 454.6 473.7 454.6C475.2 454.6 476.5 453.4 476.7 451.9C477.1 447.7 474.3 405.5 466.1 376.9C466.9 377.2 467.4 377.3 467.9 377.4ZM78.2001 230.8C78.0001 230.5 77.8001 230.2 77.5001 229.9C78.1001 228.3 78.4001 227 78.4001 226.7C78.7001 225.1 77.7001 223.5 76.1001 223.2C74.5001 222.9 72.9001 223.9 72.6001 225.5C72.2001 227.6 70.6001 232.1 68.3001 233.1C67.4001 233.5 66.1001 233.1 64.6001 232.1C59.7001 228.7 57.4001 222.7 55.4001 217.4C53.8001 213.1 52.3001 209.4 49.7001 207.4C47.5001 205.7 44.2001 196.9 45.9001 192.7C46.2001 192 46.9001 190.3 51.0001 191C52.1001 191.2 53.1001 190.8 53.7001 190C57.0001 195.6 61.3001 199.8 64.1001 200.8C64.5001 200.9 64.8001 200.6 64.7001 200.2C63.0001 196.4 56.6001 180 61.4001 164.8C66.9001 147.5 71.4001 126.8 71.4001 126C71.4001 125.2 73.2001 150.9 71.9001 153.5C77.2001 139.4 82.8001 130.1 85.1001 122.7C85.2001 122.3 85.9001 122.3 86.0001 122.8C87.4001 129.7 87.4001 133.9 87.1001 136.1C87.0001 136.6 87.7001 136.8 87.9001 136.4C89.0001 134.7 90.5001 132 91.3001 129.3C91.4001 128.8 92.1001 128.9 92.2001 129.4C92.5001 133.7 92.1001 136.7 91.6001 139C91.5001 139.3 91.9001 139.4 92.0001 139.2C98.4001 130.2 105 123.2 108.6 107.8C108.7 107.4 109.2 107.3 109.4 107.7C118.1 124 124.3 131.6 131.1 133.6C131.3 133.7 131.5 133.6 131.6 133.4C133.9 129.3 137 121.9 137.3 117.5C137.3 117 138 116.9 138.2 117.4C140.1 121.9 140.3 125.3 140.2 127.5C140.2 128 140.8 128.1 141 127.7C142.5 124.7 144.9 119 144.6 113.6C144.6 113.1 145.2 112.9 145.5 113.4C150.7 124.5 155.2 127.4 155.1 135.5C155.1 135.9 155.6 136.1 155.9 135.8C159.7 132.2 161.3 122.2 160.7 117.8C160.6 117.4 161.2 117.1 161.5 117.4C168.8 125.4 172.8 131.3 173.4 136.5C173.4 136.9 173.9 137 174.1 136.8C177 134.2 179.2 133.1 180.2 132.6C180.5 132.5 180.8 132.7 180.8 133C181 136.5 182.2 153.9 186 155.7C189.6 157.5 191.7 171.4 192.2 178.3C191.3 180.4 190.8 182.3 190.8 182.6C190.5 184.2 191.5 185.8 193.1 186.2C194.7 186.6 196.3 185.5 196.7 183.9C197 182.5 198.4 178.2 200.6 176.8C201.2 176.4 201.8 176.3 202.5 176.5C204.9 179 205.5 196.9 200.9 208.2C199.5 211.6 197.8 213.6 196.4 213.5C196.3 213.5 196.3 213.5 196.2 213.5C196.1 213.5 196 213.5 195.9 213.5C195.8 213.5 195.6 213.5 195.5 213.6C195.4 213.6 195.4 213.6 195.3 213.6C195.2 213.6 195 213.7 194.9 213.8H194.8C194.7 213.9 194.5 214 194.4 214C194.4 214 194.3 214 194.3 214.1C194.2 214.2 194.1 214.3 194 214.4L193.9 214.5C193.8 214.6 193.7 214.7 193.7 214.8C193.7 214.9 193.6 214.9 193.6 215C193.5 215.1 193.5 215.2 193.4 215.3C193.4 215.4 193.3 215.5 193.3 215.5C193.3 215.6 193.2 215.7 193.2 215.8C193.2 215.9 193.2 215.9 193.2 216C189 243.1 179.9 247.4 170.2 251.9C167.9 253 165.6 254.1 163.3 255.4C162.5 255.9 162 256.7 161.9 257.7C161 265.8 153.4 267.6 137.6 268.3C130.2 268.6 128.1 267.4 123 264.3C119.5 262.2 114.7 259.3 106.3 255.9C87.1001 248 78.3001 231 78.2001 230.8ZM103.9 261.4C111.8 264.7 116.2 267.3 119.8 269.4C124.8 272.4 127.9 274.3 135.5 274.3C136.2 274.3 137 274.3 137.8 274.2C144.6 273.9 152.9 273.5 159 270.6L158.7 273.3C157.8 274.1 154.2 276.5 141.5 279.6C127 283.1 97.2001 273.6 86.3001 269.9L96.8001 257.8C99.0001 259.2 101.4 260.4 103.9 261.4ZM332.3 115.8C344.5 139 343.8 163.4 350.8 190.5C349.9 192.8 328.5 242.8 291.6 250.2C286.3 250.5 281.6 252.5 277.1 254.3C275.4 255 273.7 255.7 272 256.3C271.8 256.3 271.7 256.4 271.5 256.5C268.6 257.5 265.7 258 263 257.5C254.2 255.9 239.5 253.1 238.9 229.6C238.9 229.3 238.8 228.9 238.7 228.6C236.9 223.8 233.9 217.6 230.4 210.3C222.4 193.8 211.5 171.1 213.5 159.6C215.2 150 217.2 144.4 218.6 140.2C219.8 136.7 220.7 134.2 220.7 131.3C220.7 129.1 220.2 126.4 219.6 123.6C219.1 121 218.5 117.9 218.5 115.5C218.5 115.5 218.5 115.5 218.6 115.5C231.8 106.2 245.5 113.7 246.1 114.1C247.5 114.9 249.4 114.4 250.2 113C251 111.6 250.5 109.7 249.1 108.9C248.4 108.5 234.1 100.6 219.1 108.3C221.3 99.8001 225.5 91.6001 227.4 87.4001C230.2 81.2001 239.3 78.3001 244.5 74.4001C247.1 72.5001 276.8 50.8001 276.8 50.6001C279.9 62.1001 319.7 91.7001 332.3 115.8ZM275.1 280L275.6 261.4C276.9 260.9 278.1 260.4 279.3 259.9C283.4 258.2 287.7 256.4 292.1 256.2C292.2 256.2 292.4 256.2 292.5 256.1C309.5 252.7 326 240.7 340.1 221.2C345.5 213.7 349.6 206.5 352.4 201.2C354.7 225.5 355.2 244.8 355.2 244.8C355.2 244.8 355.3 245.2 355.4 245.9C355.6 247.2 356 249.7 356.8 252.8C355.7 258.1 353.1 265.2 347.1 272C333.7 287.4 309.3 295.8 274.7 297.2L275.1 280ZM185.6 313.7C185.2 312.8 184.9 312 184.5 311.1C176.1 292.3 167 277.4 164.7 273.7L165.5 265.7C165.5 265.5 165.5 265.3 165.5 265.1C166.4 263.6 167.1 261.9 167.5 259.9C169.2 259 170.9 258.2 172.7 257.3C183.1 252.4 193.8 247.3 198.7 219.1C199.8 218.8 200.9 218.1 201.9 217.2C203.5 225.3 205.7 242.5 198.5 251.9C188.9 264.6 192.5 267 196.7 286.3C200.1 302.1 189.6 311 185.6 313.7Z" fill="black"/>
<path d="M271.7 112.9C272.4 114.4 274.2 115 275.7 114.3C275.8 114.2 288.7 108.1 306.4 113.1C321.1 117.3 323.5 121.3 323.7 121.7C324 123.1 325.2 124.1 326.6 124.1C326.7 124.1 326.7 124.1 326.8 124.1C328.5 124 329.7 122.6 329.6 120.9C329.4 118.6 327 112.7 308 107.3C288 101.6 273.6 108.6 273 108.9C271.6 109.6 271 111.4 271.7 112.9Z" fill="black"/>
<path d="M255.1 178C255.3 177.9 260 174.8 262.8 177.9C263.4 178.5 264.2 178.9 265 178.9C265.7 178.9 266.5 178.6 267 178.1C268.2 177 268.3 175.1 267.2 173.9C262.1 168.4 254.8 171 251.7 173.1C250.3 174 250 175.9 250.9 177.2C251.8 178.5 253.7 178.9 255.1 178Z" fill="black"/>
<path d="M236.3 177.3C236.7 177.2 239 176.5 240.3 178.5C240.9 179.4 241.8 179.8 242.8 179.8C243.4 179.8 243.9 179.6 244.5 179.3C245.9 178.4 246.3 176.5 245.3 175.1C243.1 171.7 239.7 170.9 237.1 171C236 168.2 236.8 166.3 242.6 160.5C252.7 150.3 250.2 129.2 250.1 128.4C250 127.9 249.8 127.4 249.6 127C245.7 121.7 241.2 118.8 236.3 118.5C228.5 118.1 222.7 124.3 222.4 124.5C221.3 125.7 221.4 127.6 222.6 128.7C223.8 129.8 225.7 129.8 226.8 128.5C226.8 128.5 231 124.1 236 124.4C236.5 124.4 236.9 124.5 237.4 124.6C234.7 124.6 232.5 126.8 232.5 129.5C232.5 132.2 234.7 134.4 237.4 134.4C240.1 134.4 242.3 132.2 242.3 129.5C242.3 128.4 241.9 127.4 241.3 126.5C242.4 127.3 243.5 128.4 244.5 129.8C245.1 135.7 245.1 149.8 238.7 156.2C231.1 163.8 229.1 167.9 233.1 175.6C233.4 177.2 234.9 177.8 236.3 177.3Z" fill="black"/>
<path d="M299.6 120C284.9 118.5 277.8 128.4 277.5 128.9C276.6 130.3 276.9 132.1 278.2 133.1C279.5 134.1 281.4 133.7 282.4 132.4C282.6 132.2 285.9 127.7 292.5 126.4C291.1 127.6 290.3 129.4 290.3 131.4C290.3 135.2 293.3 138.2 297.1 138.2C300.9 138.2 303.9 135.2 303.9 131.4C303.9 129.5 303.1 127.7 301.8 126.5C310.8 128.2 313.8 132.6 313.9 132.8C314.5 133.7 315.5 134.3 316.5 134.3C317 134.3 317.6 134.2 318 133.9C319.4 133 319.9 131.2 319 129.8C318.8 129.3 314 121.5 299.6 120Z" fill="black"/>
<path d="M291 187.6L290.1 190.5L289.6 191.9C283.9 194.1 278.7 195.7 273.9 196.7C268.1 197.6 261.6 198.3 256.1 198.3C255.8 198.3 255.5 198.3 255.3 198.3C254.3 198.3 253.4 198.3 252.5 198.3C244.1 197.5 239.5 195.3 239.3 195.2C237.8 194.4 236 195 235.2 196.4C234.4 197.9 235 199.7 236.4 200.5C236.6 200.6 237.4 201 238.9 201.6C238.9 201.7 238.9 201.8 238.9 201.9C238.9 202 239.8 205.6 242.3 209.1C245.7 214 250.4 216.6 255.9 216.6C266.8 216.6 285.1 208.8 291 200.4C291.3 201.4 292.2 202.3 293.4 202.4C293.6 202.4 293.7 202.4 293.9 202.4C295.4 202.4 296.6 201.3 296.9 199.9C298.2 191.9 293.6 188.4 291 187.6ZM245.1 203.2C245 202.8 244.9 202.6 244.9 202.6C244.9 202.6 267 204.7 272.6 201.6C271.7 202.3 271.1 202.8 270.7 203.2C270.6 203.3 270.5 203.4 270.4 203.5C269.7 204.2 269.6 204.6 268.5 205.7C266.1 208.1 261.7 207.6 258.3 207.7C255.9 207.8 253.5 207.7 251.3 207.5C250.4 207.4 249.5 207.3 248.6 207C247.6 206.7 246.7 206.2 246.1 205.4C245.8 205.2 245.4 204 245.1 203.2Z" fill="black"/>
<path d="M265 219.9C256.1 225.5 248.2 220 247.9 219.7C246.6 218.7 244.7 219 243.7 220.3C242.7 221.6 243 223.5 244.3 224.5C244.6 224.7 249.7 228.3 256.7 228.3C260.1 228.3 264.1 227.4 268.2 224.9C269.6 224 270 222.2 269.2 220.8C268.3 219.5 266.4 219.1 265 219.9Z" fill="black"/>
<path d="M127.9 207.8C128 207.8 128.1 207.8 128.2 207.8C129.2 207.8 130 207.1 130.2 206.1C130.4 204.7 132.4 203.5 133 203.2C134 202.7 134.5 201.6 134 200.6C133.5 199.6 132.4 199.1 131.4 199.6C130.9 199.8 126.9 201.7 126.3 205.5C126.1 206.6 126.9 207.6 127.9 207.8Z" fill="black"/>
<path d="M91 407.2C88.6 403.2 88.2 398.9 89.7 395C60.5 390.8 27.8 425.8 18.5 436.4C20.9 442.3 22.8 446.2 22.8 446.3C23.4 447.5 23.1 448.9 22.2 449.8H79.9C83.6 443.5 96.4 421.9 102.2 417.4C97.9 415 93.5 411.4 91 407.2Z" fill="white"/>
<path d="M116.4 420.3C113.7 425.7 109.3 437 111.3 449.8H141C141.9 445.1 147.1 430.7 149.1 425.3C146.8 424.2 144.9 423 143.5 421.7C138.8 416.8 123.3 419.2 116.4 420.3Z" fill="white"/>
<path d="M56.6001 319.5C60.8001 314.7 66.2001 326.4 83.1001 322.5C100 318.6 109.9 326.4 109.9 326.4C109.9 326.4 114.1 310.7 131.9 298.1C106.5 297.3 78.8001 278.6 73.2001 274.7C66.8001 276.8 58.4001 281.9 56.2001 286.6C55.4001 288.3 54.7002 290.4 53.9002 292.8C51.3002 300.7 47.7001 311.6 35.2001 324.1C32.5001 326.8 30.2001 329.4 28.0001 332.1C27.9001 337.6 28.2001 349.5 31.4001 352.5C35.8001 356.3 52.3001 324.4 56.6001 319.5Z" fill="white"/>
<path d="M99.8001 377.3C103.9 368.8 108 359 110.8 351.6C101.6 343.9 63.9001 345.4 57.7001 348.2C57.7001 351.8 51.7001 358.7 42.9001 359C34.1001 359.3 35.4001 370.8 30.5001 378.6C26.2001 385.6 10.7001 386.6 5.90008 385.9C5.80008 388.5 5.90008 391.4 6.30008 394.2C12.6001 395.3 29.7001 397.1 43.8001 386.7C59.3001 375.5 91.6001 376.7 99.8001 377.3Z" fill="white"/>
<path d="M153.6 373.2C172.3 365.5 189.3 365.6 194.7 365.8C193.3 353.5 189.5 339.3 183.3 323.7C174.9 325 142.2 330 136.5 329.7C129.9 329.4 122.9 336.9 122.9 336.9C122.9 336.9 121.9 337.9 120.2 340C120.7 340.8 120.9 341.8 120.6 342.7C120.2 343.7 114.8 358.7 108.4 373.1C116.3 375.7 136 380.4 153.6 373.2Z" fill="white"/>
<path d="M149.4 405.4C144.2 408.1 136.8 410.8 129.4 412.8C136.5 412.5 143.8 413.4 147.9 417.5C150.9 420.5 160.6 423.2 168.5 425.4C177.5 427.9 183.1 429.5 185.8 431.9C187.5 428.6 190 423.8 192.9 419.1C195.8 414.3 196.3 408.2 195.8 399.5C186.7 399.3 160.5 399.8 149.4 405.4Z" fill="white"/>
<path d="M143.9 240.4C147.3 240.3 150 238.2 152 236.1C149.3 236.7 146.1 237.2 142.3 237.8L141.2 238C138.4 238.5 135.7 238.6 133.3 238.6C132.9 238.6 132.4 238.6 132 238.6C134.5 239.7 138.4 240.6 143.9 240.4Z" fill="white"/>
<path d="M244.9 202.6C244.9 202.6 245 202.9 245.1 203.2C245.4 204 245.8 205.2 246 205.4C246.6 206.2 247.5 206.7 248.5 207C249.4 207.3 250.3 207.4 251.2 207.5C253.5 207.7 255.9 207.8 258.2 207.7C261.6 207.6 266 208.1 268.4 205.7C269.5 204.6 269.7 204.2 270.3 203.5C270.4 203.4 270.5 203.3 270.6 203.2C271 202.8 271.6 202.3 272.5 201.6C267 204.7 244.9 202.6 244.9 202.6Z" fill="white"/>
</g>
<defs>
<clipPath id="clip0_211_123">
<rect width="489.8" height="454.7" fill="white"/>
</clipPath>
</defs>
</svg>
