<svg width="18" height="47" viewBox="0 0 18 47" fill="none" xmlns="http://www.w3.org/2000/svg">
<path d="M7.61815 0.650038C7.48237 0.253674 7.90151 0.797217 7.94921 0.845351C7.96243 0.857835 7.96521 0.780916 7.9746 0.786757C7.9909 0.801461 8.20014 1.13677 8.25194 1.14125C8.30605 1.1488 8.17062 1.02793 8.19628 0.991835C8.22096 0.977348 8.52406 1.32511 8.39452 1.10609C8.30843 0.959438 8.02442 0.753097 8.09374 0.641249C8.25287 0.848141 8.40696 1.05055 8.56346 1.25844C8.52375 1.12011 8.47794 0.972822 8.43456 0.830702C8.61159 1.0573 8.71766 1.30196 8.92479 1.48695C8.67038 0.855705 9.14781 1.60139 9.16503 1.59633C9.17617 1.59202 9.12691 1.30737 9.12108 1.26039C9.2937 1.42817 9.70427 1.99814 9.59862 1.57582C9.61177 1.65441 9.78217 1.75997 9.7871 1.75551C9.82777 1.69787 9.57158 1.39516 9.65526 1.41371C9.75653 1.4404 9.73623 1.57575 9.8076 1.66859C10.1703 2.14107 10.3661 1.81571 10.6494 2.3473C10.6531 2.33105 10.6564 2.3147 10.6601 2.29848C10.9989 2.85367 11.3314 3.41438 11.6553 3.97914C11.8799 4.14358 12.2828 4.68827 12.4433 4.985C12.475 5.04272 12.5942 5.35626 12.5986 5.38344C12.6053 5.43136 12.4719 5.21601 12.5 5.33266C12.5089 5.36112 12.7645 5.84947 12.7959 5.78773C12.7704 5.72949 12.6475 5.57488 12.6435 5.54066C12.619 5.29382 13.3996 6.83011 13.4717 6.89027C13.4703 6.84822 13.4687 6.80423 13.4668 6.76137C13.5119 6.86275 13.5546 6.96082 13.5986 7.06117C13.5631 7.03057 13.5276 6.99971 13.4922 6.96937C13.5423 7.08331 13.6331 7.22518 13.6748 7.33559C13.6815 7.3536 13.6158 7.3334 13.6348 7.37367C13.6544 7.41457 13.7082 7.3759 13.7451 7.42934C13.7862 7.48925 13.9034 7.80707 13.959 7.91078C14.1642 8.29077 14.3989 8.66555 14.5703 9.06801C14.3246 8.68818 14.4852 9.1149 14.5596 9.21742C14.5761 9.24027 14.6843 9.18131 14.8564 9.60121C14.9645 9.86747 14.6922 9.70459 14.9795 10.0993C14.9285 9.71275 15.0805 10.0447 15.207 10.3024C15.2214 10.3315 15.2925 10.4999 15.3623 10.6588C15.4013 10.7472 15.4392 10.8324 15.4678 10.8903C15.4959 10.9471 15.5941 11.0089 15.6299 11.0846C15.6542 11.1366 15.6399 11.1905 15.6758 11.2672C15.8417 11.623 16.0015 11.9947 16.1367 12.3668C15.8965 12.2075 16.1398 12.566 16.1387 12.5866C16.1324 12.6917 15.9618 12.2916 15.999 12.4616C16.0926 12.684 16.1823 12.9053 16.2685 13.1246C16.2199 12.9341 16.4884 13.3227 16.4658 13.4225C16.595 13.3383 16.7003 14.5029 16.789 14.651C16.809 14.6828 16.8108 14.4322 16.9355 14.9713C16.9486 15.0298 16.8996 15.0205 16.9121 15.0495C16.9196 15.0666 17.0849 15.1379 17.043 15.2741C17.0269 15.3246 16.8675 15.0756 17.0615 15.6627C17.1396 15.3893 17.3451 16.4793 17.3467 16.6901C17.3567 16.6464 17.3672 16.6022 17.3769 16.5582C17.37 16.7666 17.4239 16.7916 17.4307 16.8366C17.4569 17.0142 17.4581 17.2793 17.4922 17.445C17.5323 17.6408 17.6193 17.6227 17.624 17.8629C17.6343 17.8048 17.6434 17.7451 17.6533 17.6871C17.6759 17.8493 17.6969 18.0128 17.7158 18.1735C17.5451 17.8204 17.7219 18.2521 17.7285 18.2829C17.7394 18.3294 17.6833 18.2685 17.7002 18.3463C17.7023 18.3546 17.7449 18.3359 17.7666 18.4586C17.8109 18.7161 17.7489 18.682 17.7627 18.7897C17.764 18.7995 17.8003 18.7609 17.831 18.9459C17.9238 19.5334 17.8017 18.9494 17.792 18.9245C17.7805 18.8953 17.6389 19.1171 17.6367 18.609C17.6391 18.78 17.5659 18.8057 17.5664 18.8248C17.5679 18.8455 17.6102 19.1268 17.6142 19.1442C17.6544 19.2862 17.6921 19.154 17.7041 19.1813C17.7145 19.2047 17.6816 19.563 17.8408 19.6325C17.7124 19.8116 17.7062 19.5472 17.6562 19.2653C17.6237 19.228 17.6241 19.5405 17.625 19.5563C17.6576 19.9529 17.7566 19.7239 17.8379 19.8053C17.8803 19.8489 17.8124 20.0204 17.9062 19.86C17.942 20.2274 17.866 20.0098 17.8584 20.0329C17.8476 20.0695 17.885 20.1963 17.8818 20.2125C17.877 20.2357 17.8368 20.157 17.8291 20.2496C17.8281 20.2649 17.8984 20.411 17.918 20.2174C17.9227 20.4749 17.9732 20.4494 17.8701 20.5426C18.0796 20.7138 17.7564 20.677 17.7471 20.7467C17.7227 20.9323 17.8796 20.8748 17.8877 20.8844C17.9404 20.9503 17.8925 21.4673 17.9131 21.5934C17.7996 21.5439 17.9105 21.1857 17.8867 21.1051C17.8089 20.8413 17.8339 21.4806 17.6875 21.2887C17.7277 21.3692 17.7673 21.4502 17.8066 21.5309C17.713 21.6776 17.6757 21.4685 17.7041 21.8639C17.7832 21.9296 17.6954 21.5855 17.7568 21.6539C17.7937 21.6942 17.7984 21.9246 17.8174 21.9313C17.841 21.9364 17.817 21.7255 17.8525 21.7594C17.9318 21.8345 17.8342 22.5936 17.8086 22.0133C17.8059 22.1754 17.6489 22.2527 17.6914 22.3922C17.7181 22.4849 17.9556 21.9822 17.8799 22.7477C17.8071 22.759 17.8739 22.4405 17.8682 22.4313C17.8594 22.4197 17.6931 22.4706 17.6846 22.4801C17.6593 22.5172 17.7003 23.2937 17.6006 23.4489C17.7027 23.3924 17.5638 24.0314 17.583 24.1022C17.5894 24.1207 17.6537 24.0593 17.6582 24.0787C17.6818 24.2055 17.5382 24.5315 17.5146 24.6832C17.4886 24.854 17.5404 24.8408 17.539 24.8502C17.5256 24.9253 17.5006 24.8604 17.4941 24.9069C17.4851 24.9794 17.4068 25.4485 17.4082 25.4782C17.4092 25.4856 17.4787 25.417 17.4726 25.5231C17.4712 25.541 17.4066 25.5206 17.3838 25.8297C17.3551 26.2032 17.5114 25.5892 17.5557 25.7536C17.4152 25.9726 17.5149 25.9826 17.4961 26.0455C17.4893 26.0675 17.3757 26.2184 17.3476 26.3961C17.3579 26.2666 17.3668 26.1359 17.376 26.0045C17.3388 26.1292 17.3129 26.3757 17.2764 26.4752C17.2585 26.5238 17.1969 26.4694 17.1777 26.5787C17.1746 26.6022 17.3254 26.7264 17.3047 26.4254C17.369 26.4141 17.3039 26.5436 17.3086 26.61C17.3111 26.6208 17.4018 26.6783 17.3242 26.7457C17.3035 26.7601 17.0547 26.4966 17.1572 27.0748C17.1605 27.0935 17.2094 27.0414 17.2139 27.0592C17.2166 27.072 17.1741 27.2055 17.1758 27.2223C17.1781 27.239 17.2313 27.1817 17.2353 27.2018C17.2558 27.3048 17.0722 27.3939 17.125 27.2028C17.0918 27.2636 17.0577 27.3243 17.0244 27.3844C17.1585 27.3412 17.0375 27.4921 17.0215 27.5827C16.9201 28.1565 17.0809 27.7934 17.0996 27.9C17.1289 28.07 16.9521 27.9056 16.9609 28.151C16.9618 28.1731 17.1121 27.9162 16.9394 28.4479C16.9543 28.3675 16.9685 28.286 16.9834 28.2047C16.8588 28.2258 16.9248 28.4923 16.9228 28.5143C16.8896 28.7305 16.8815 28.5789 16.8682 28.9049C16.867 28.9338 16.8242 28.9876 16.8242 29.0504C16.825 29.3106 16.936 28.7341 16.9863 28.7282C17.0098 28.7306 16.861 29.3416 16.8457 29.358C16.7774 29.4346 16.889 29.0767 16.8135 29.1315C16.7857 29.1547 16.6271 30.0258 16.5664 30.1881C16.495 30.3764 16.3197 30.43 16.4951 30.4704C16.311 30.4866 16.416 30.5609 16.4101 30.5856C16.3913 30.6534 16.3768 30.7056 16.3652 30.7487C16.3484 30.9013 16.1617 31.2876 16.0967 31.4274C16.0072 31.5623 15.9821 31.6067 15.8818 31.7975C15.8531 31.8519 15.7816 31.8691 15.7773 31.8922C15.7754 31.906 15.8367 31.9155 15.8193 31.9782C15.7941 32.067 15.4723 32.4783 15.4238 32.4957C15.377 32.5115 15.5277 32.301 15.459 32.3131C15.3569 32.469 15.2716 32.6309 15.168 32.7868C15.1249 32.851 15.115 32.7982 15.0967 32.8258C15.0892 32.8372 14.9723 33.0843 14.9892 33.0827C15.0315 33.076 15.4542 32.3566 15.3926 32.5768C15.3804 32.6196 15.2303 32.7022 15.3291 32.736C14.9151 33.3583 14.4935 33.9761 14.0644 34.5885C14.2372 34.1854 14.5547 33.8197 14.79 33.4352C14.8231 33.3815 14.9417 33.2123 14.8848 33.2057C14.6703 33.521 14.436 33.9378 14.209 34.2252C14.2017 34.2344 14.1852 34.1732 14.1553 34.2057C14.0989 34.2678 14.0152 34.5334 13.9746 34.5602C13.9666 34.5642 13.9983 34.4032 13.9404 34.4205C13.792 34.4651 13.9603 34.6117 13.9023 34.695C13.8551 34.7631 13.4755 35.1425 13.456 35.2916C13.4373 35.4493 13.71 34.9882 13.7363 35.0543C13.586 35.3875 13.3281 35.6562 13.1426 35.9411C13.1402 35.9458 13.207 35.9301 13.1699 35.9957C13.1047 36.1109 13.0294 36.1039 12.9844 36.151C12.9352 36.2033 12.8061 36.4071 12.7666 36.4225C12.7616 36.4242 12.7369 36.3462 12.7392 36.3385C12.7772 36.237 12.8675 36.2527 12.875 36.2457C12.8982 36.2177 12.892 36.1698 12.9121 36.1432C12.9459 36.0997 12.9877 36.0907 13.0312 36.0319C13.0614 35.9913 12.9869 35.9993 13.0166 35.9606C13.0276 35.9466 13.2422 35.8641 13.1426 35.7741C13.1153 35.7451 12.1786 37.0013 12.1133 37.1442C12.2051 37.0429 12.2936 36.9449 12.3848 36.8434C12.1965 37.0432 12.092 37.373 11.9502 37.2995C11.3512 38.1136 10.7379 38.9157 10.0928 39.7106C9.96732 39.8469 9.95229 39.7022 9.78612 39.9567C9.86098 39.9152 9.93453 39.8757 10.0078 39.8356C9.89536 39.9427 9.43201 40.4424 9.37108 40.5455C9.36339 40.559 9.42344 40.6316 9.31639 40.7711C9.22081 40.8951 9.15468 40.8662 9.08983 40.9215C9.03535 40.9685 8.99774 41.0393 8.98143 41.0524C8.96885 41.0623 8.9324 41.0397 8.90233 41.0631C8.80573 41.14 8.95892 41.1436 8.77733 41.1452C8.79277 41.1198 8.80853 41.0938 8.82421 41.068C8.71079 41.1681 8.53636 41.2713 8.65331 41.0934C8.6736 41.0624 8.68314 41.1126 8.70116 41.0924C9.3958 40.2753 8.78372 40.8711 8.57714 41.1969C8.46967 41.2302 8.11496 41.6678 8.09178 41.6715C8.06043 41.6792 8.09574 41.5724 7.97362 41.6393C7.96683 41.6429 7.92466 41.6876 7.87108 41.7428C7.86476 41.7507 7.84168 41.7711 7.83495 41.7789C7.77753 41.8348 7.70208 41.9004 7.64061 41.9538L7.64159 41.9547C7.6484 41.9664 7.63545 41.9701 7.61815 41.9743C7.59626 41.9926 7.57696 42.0087 7.56053 42.0202C7.5999 42.0224 7.63878 42.0218 7.67772 42.0202C7.69014 42.0071 7.70424 41.9933 7.71874 41.9782C7.67056 41.9707 7.64527 41.9613 7.68163 41.9391C7.69252 41.9326 7.7186 41.9521 7.73827 41.9577C7.74628 41.9494 7.75437 41.9408 7.76268 41.9323C7.76292 41.9258 7.76372 41.9182 7.76268 41.9088C7.77005 41.9093 7.77777 41.9093 7.78514 41.9098C7.81508 41.8793 7.84535 41.8477 7.87401 41.82C7.881 41.8119 7.90417 41.7922 7.91112 41.7838C7.98966 41.7032 8.05735 41.6422 8.04979 41.6881C8.04666 41.7071 8.00626 41.7574 7.94823 41.82C7.94138 41.8285 7.91621 41.8498 7.90917 41.858C7.89151 41.8761 7.87043 41.8937 7.8496 41.9137C7.8727 41.9152 7.8958 41.9171 7.91893 41.9186C7.92417 41.9098 7.92935 41.8988 7.93749 41.8873C7.94476 41.8789 7.97059 41.8569 7.97753 41.8483C7.98062 41.8437 7.98374 41.8387 7.98729 41.8336C7.99431 41.8237 8.02233 41.8052 8.05468 41.7819C8.02889 41.781 8.00337 41.7793 7.98632 41.7789C8.00577 41.7409 8.0529 41.7436 8.09667 41.7487C8.12028 41.7286 8.14304 41.7073 8.15624 41.6832C8.15805 41.7036 8.14846 41.727 8.13475 41.7526C8.13813 41.7528 8.14136 41.7535 8.14452 41.7536C8.14071 41.7612 8.13321 41.7638 8.12596 41.7682C8.09798 41.8137 8.05666 41.8614 8.0205 41.8913C8.01508 41.898 7.99821 41.9121 7.98729 41.9225C8.26918 41.9406 8.55263 41.9588 8.83495 41.9762C8.62975 42.0532 8.39862 41.9854 8.18358 41.9928C8.15472 41.9937 8.05467 41.9844 8.06639 42.0358C8.24845 42.049 8.47711 42.0221 8.65331 42.0553C8.65727 42.059 8.63888 42.1029 8.65917 42.11C8.69686 42.1235 8.82674 42.0488 8.84764 42.067C8.85145 42.0715 8.77966 42.1337 8.80175 42.1725C8.85772 42.2717 8.87303 42.0516 8.92186 42.0534C8.93229 42.0539 8.95929 42.0624 8.99315 42.0729C9.08643 42.1005 9.23146 42.1421 9.27635 42.0934C9.34345 42.0211 9.08859 42.0518 9.10839 41.9928C9.28032 41.933 9.4544 41.9954 9.61522 41.987C9.61805 41.9867 9.59369 41.941 9.62889 41.9342C9.69297 41.9225 9.70848 41.9884 9.73925 41.9987C9.77351 42.0094 9.8879 41.9986 9.90331 42.0221C9.9053 42.0252 9.88247 42.0906 9.87889 42.0924C9.82872 42.1193 9.81022 42.0369 9.80565 42.0348C9.78869 42.0318 9.77185 42.0639 9.75585 42.0621C9.72909 42.0591 9.7157 42.0294 9.68163 42.027C9.65793 42.0252 9.68112 42.0821 9.65819 42.0797C9.64879 42.0786 9.55899 41.9489 9.55077 42.0827C9.55426 42.1252 10.2865 42.1726 10.3486 42.1364C10.2882 42.1215 10.2277 42.1057 10.165 42.0905C10.2927 42.1279 10.4322 42.0187 10.4463 42.1764C10.6413 42.1772 10.7688 42.1767 10.9697 42.1676C11.1734 42.1611 11.4213 42.1384 11.6982 42.111C11.7861 42.1135 11.7508 42.22 11.8926 42.1725C11.8507 42.1451 11.8086 42.1179 11.7676 42.0905C11.8405 42.1038 12.1889 42.1066 12.2471 42.0797C12.2543 42.0762 12.2539 41.9831 12.3437 41.9655C12.4241 41.9501 12.4451 42.0181 12.4902 42.027C12.5278 42.034 12.5678 42.0125 12.5791 42.0153C12.5879 42.0176 12.5951 42.0586 12.6162 42.0641C12.6827 42.0811 12.6205 41.968 12.6963 42.0983C12.681 42.1047 12.6655 42.1113 12.6504 42.1178C12.6669 42.1205 12.685 42.1248 12.7021 42.1305L12.6797 42.1325C12.7322 42.1546 12.7751 42.1943 12.7041 42.2252C12.6889 42.2317 12.6982 42.1909 12.6865 42.192C12.2239 42.2424 12.5035 42.2749 12.7109 42.2311L12.6894 42.2321C12.7143 42.2258 12.7386 42.2177 12.7588 42.2077C12.8062 42.264 13.0415 42.2037 13.0508 42.2145C13.0627 42.2309 13.0278 42.2826 13.0849 42.318C13.0973 42.3259 13.4142 42.2568 13.3076 42.3493C13.2853 42.3684 13.1296 42.3685 13.0928 42.3746C13.1939 42.4927 13.3793 42.2879 13.4023 42.2897C13.4971 42.299 13.237 42.4197 13.4473 42.4108C13.6086 42.4036 13.4486 42.336 13.5058 42.2926C13.5387 42.2689 13.7272 42.3403 13.707 42.2204C13.765 42.2 13.7384 42.2679 13.7461 42.2721C13.7507 42.2741 13.7963 42.2545 13.8379 42.2448C13.8635 42.2388 13.8873 42.2371 13.9023 42.2448C13.9071 42.2473 13.903 42.3115 13.9082 42.3161C13.9199 42.3231 14.0173 42.297 14.0215 42.2907C14.0235 42.2866 13.9915 42.2353 13.999 42.2204C14.0087 42.2035 14.0999 42.2016 14.1025 42.1852C14.1059 42.1606 13.9981 42.1938 14.0068 42.1295C14.0617 42.1366 14.1322 42.0826 14.1582 42.027C14.1512 42.0425 14.1038 42.0536 14.0869 42.0514C14.0789 41.9726 14.1579 41.9482 14.1631 41.9948L14.166 41.9694C14.1639 41.955 14.1606 41.9408 14.1641 41.9215C14.1663 41.912 14.202 41.9031 14.207 41.8864C14.207 41.8832 14.1623 41.8571 14.166 41.8375C14.169 41.8031 14.3002 41.7849 14.3164 41.7907C14.3522 41.8088 14.2453 41.8603 14.2461 41.8991C14.2465 41.9061 14.3517 41.9599 14.3564 41.9664C14.3747 42.0353 14.261 42.0057 14.2861 42.0661C14.3132 42.0744 14.3419 42.0824 14.3711 42.0905C14.2724 42.1762 14.1298 42.17 14.1094 42.2477C14.2055 42.2092 14.3557 42.1809 14.3896 42.3434C14.4026 42.4122 14.3493 42.4652 14.3555 42.4821C14.3758 42.5422 14.4495 42.458 14.4541 42.4606C14.4574 42.4637 14.4592 42.4669 14.4599 42.4704C14.4658 42.5071 14.3482 42.5584 14.3476 42.5758C14.3441 42.6079 14.4191 42.7188 14.4248 42.7457C14.4232 42.7517 14.3468 42.7968 14.3838 42.8385C14.4201 42.8805 14.496 42.8667 14.501 42.8707C14.5202 42.8965 14.3934 42.9493 14.3945 42.9664C14.3959 42.976 14.4723 43.0135 14.4785 43.028C14.4831 43.0427 14.4366 43.086 14.4258 43.1373C14.4175 43.1756 14.4674 43.1947 14.4609 43.2018C14.4552 43.2068 14.3405 43.2278 14.334 43.235C14.3272 43.2457 14.3617 43.283 14.3603 43.2946C14.3574 43.3108 14.3173 43.3027 14.3242 43.317C14.3287 43.3287 14.5054 43.4463 14.5137 43.485C14.5247 43.5519 14.3334 43.4308 14.5351 43.6637C14.539 43.663 14.5699 43.6389 14.5713 43.6403C14.6035 43.684 14.4989 43.7817 14.6426 43.7399C14.3862 43.877 14.6274 43.8462 14.6094 43.9655C14.6025 44.0115 14.4967 44.0508 14.4971 44.0573C14.5178 44.1092 14.5456 44.0605 14.5625 44.0846C14.5723 44.0984 14.4825 44.1753 14.5117 44.2086C14.5273 44.2259 14.6323 44.1989 14.6367 44.2018C14.6845 44.2293 14.6424 44.277 14.6562 44.3004C14.6663 44.3158 14.7275 44.3055 14.7295 44.3082C14.7317 44.316 14.6626 44.3992 14.6484 44.4264C14.6391 44.4474 14.6955 44.4664 14.6875 44.4762C14.6394 44.535 14.4864 44.4371 14.6426 44.5856C14.652 44.5944 14.6952 44.5827 14.6992 44.5836C14.7369 44.6269 14.6535 44.6472 14.6445 44.6901C14.6305 44.764 14.7497 44.7022 14.6543 44.7702C14.7418 44.8002 14.7842 44.7895 14.8613 44.7614C14.6392 44.8417 14.569 45.0396 14.8486 44.9811C14.7648 44.9948 14.7909 45.0933 14.7646 45.1002C14.7489 45.1045 14.5904 45.03 14.6953 45.2428C14.7091 45.2694 14.7867 45.2182 14.7715 45.2799C14.5658 45.3027 14.7667 45.3173 14.7754 45.3248C14.798 45.4372 14.4122 45.4427 14.2637 45.4469C14.2341 45.4483 14.2107 45.4506 14.1982 45.4547C14.1097 45.4843 14.0439 45.5987 14.0244 45.6012C13.9615 45.6087 14.0077 45.5488 13.9912 45.5309C13.9739 45.5138 13.8072 45.6372 13.7978 45.6325C13.7617 45.6141 13.7877 45.5489 13.7851 45.5436C13.738 45.5098 13.5057 45.5857 13.4375 45.5778C13.4443 45.6185 13.5777 45.6077 13.5019 45.6823C13.414 45.7684 13.3887 45.5942 13.3848 45.5817C13.2603 45.5952 13.1347 45.6083 13.0078 45.6207C13.0034 45.6204 12.9913 45.6222 12.9873 45.6217C12.7255 45.6442 12.4466 45.6809 12.1367 45.7213C12.1568 45.816 12.42 45.71 12.4258 45.7223C12.4725 45.7918 12.0117 45.8485 11.9385 45.8229C11.9872 45.838 12.0355 45.8527 12.083 45.8678C12.0205 45.988 11.827 45.8663 11.7099 45.9284C11.6722 45.9486 11.7523 45.9839 11.751 45.987C11.7117 46.0343 11.6367 46.0091 11.6836 45.9459C11.58 46.0128 11.5889 45.9499 11.5019 45.9538C11.4986 45.9551 11.5387 45.9954 11.4717 46.0202C11.4424 46.0314 11.281 46.0454 11.2422 46.0807C11.2404 46.0828 11.2393 46.0852 11.2383 46.0875C11.2368 46.0912 11.2397 46.1019 11.2451 46.1149C11.2689 46.1622 11.3353 46.2398 11.3349 46.1217C11.538 46.1782 11.3923 46.0478 11.4678 46.0446C11.478 46.0453 11.4642 46.1303 11.6406 46.0729C11.6235 46.2272 11.3963 46.136 11.3584 46.1569C11.2839 46.2013 11.6134 46.2501 11.6533 46.1266C11.6396 46.2464 11.6778 46.1399 11.7441 46.1373C11.8159 46.1347 11.7889 46.1727 11.8271 46.1686C11.9313 46.1573 11.879 46.0797 11.9717 46.1442C11.8632 45.9234 12.109 46.0962 12.1767 46.1491C12.0781 46.1734 11.9751 46.1987 11.8672 46.2233C11.8748 46.2346 11.8821 46.2462 11.8896 46.2575C11.861 46.2591 11.8321 46.2607 11.8027 46.2623C11.8061 46.2502 11.8091 46.2374 11.8125 46.2252C11.6691 46.3181 11.6179 46.2375 11.6055 46.2379C11.4996 46.2424 11.379 46.2515 11.2549 46.2594C11.1984 46.2629 11.1359 46.2673 11.0723 46.2711C11.0465 46.2724 11.0689 46.3479 10.873 46.2975C10.8126 46.2811 10.8653 46.2196 10.7988 46.2311C10.7217 46.3939 10.719 46.2682 10.6953 46.2672C10.6267 46.2694 10.5869 46.3101 10.5801 46.3112C10.4969 46.3195 10.3794 46.3147 10.293 46.3219C10.291 46.3226 10.3365 46.3718 10.2803 46.358C10.2589 46.3513 10.081 46.1451 9.93358 46.2145C9.97081 46.2283 10.0132 46.2418 10.0508 46.2555C10.0035 46.2366 9.68303 46.2926 9.76171 46.3483C9.81147 46.3824 9.92711 46.2458 9.94139 46.3756C9.83135 46.3383 9.24867 46.3997 9.20214 46.3698C9.19593 46.3655 9.2327 46.3245 9.22557 46.318C9.21861 46.3139 9.08655 46.324 9.06737 46.3082C9.05683 46.2986 9.11529 46.2718 9.11034 46.2565C9.10677 46.2506 9.05675 46.243 9.00878 46.2457C8.97097 46.248 8.93487 46.2578 8.93065 46.2819C8.94961 46.272 8.98367 46.2703 9.00878 46.276C9.03955 46.2827 9.05793 46.2988 9.02538 46.3229C9.0228 46.3247 9.01623 46.3228 9.00878 46.319C8.9946 46.3112 8.97541 46.2976 8.96874 46.3014C8.92984 46.3308 8.96125 46.344 9.00975 46.3493C9.07317 46.3556 9.15774 46.3511 9.1826 46.3512C9.13076 46.3721 9.07493 46.3795 9.00975 46.3805C8.86994 46.3828 8.70663 46.3546 8.57518 46.3854C8.49725 46.3413 8.68927 46.3173 8.60155 46.2809C8.4241 46.2069 8.54896 46.3372 8.54784 46.3473C8.50482 46.3921 8.34921 46.1537 8.35057 46.3356C8.28557 46.3083 8.30678 46.2854 8.21385 46.3092C8.22613 46.3217 8.23779 46.3348 8.24999 46.3473C8.14769 46.4522 7.93081 46.187 7.94725 46.1666C7.99029 46.1129 8.10195 46.1956 8.11327 46.195C8.12796 46.1919 8.16579 46.0072 8.32323 46.1715C8.38677 46.0476 8.07563 46.0883 8.21678 46.0036C8.12208 46.0177 7.72743 45.9316 7.66991 45.986C7.66317 45.9931 7.69453 46.1172 7.59764 46.0543C7.55181 46.0244 7.66267 46.0229 7.64159 45.9948C7.57635 45.9088 6.69084 45.9623 6.52147 45.9655C6.51062 45.9653 6.51464 45.9271 6.50389 45.9274C6.47053 45.9285 6.35012 45.9845 6.291 45.9664C6.4133 46.0382 6.17487 46.0421 6.11424 46.0338C6.02259 46.0212 6.02852 45.954 5.98924 45.9391C5.83681 45.8826 5.59585 46.0405 5.4785 45.8893C5.48286 46.0375 5.27334 45.814 5.17577 45.8112C5.09986 45.8091 4.98847 45.9049 5.08983 45.9664C4.95823 45.9576 4.81894 45.9833 4.6953 45.9899C4.67495 45.991 4.70356 45.9477 4.66893 45.9508C4.66572 45.9514 4.66018 45.9938 4.62987 45.9977C4.38141 46.0298 4.50326 45.9418 4.45799 45.9137C4.43208 45.898 4.41249 45.8902 4.39842 45.8873C4.54387 45.8825 4.71026 45.8683 4.75487 45.8678C4.71921 45.7729 4.4354 45.8796 4.35253 45.8522C4.34969 45.8512 4.36031 45.7989 4.35741 45.7985C4.32704 45.7939 4.12844 45.8076 4.16698 45.8707C4.17676 45.8877 4.27036 45.8904 4.37694 45.8873C4.34791 45.8984 4.36802 45.9573 4.36327 45.9606C4.30113 45.9881 4.14685 45.926 4.09276 45.9166C4.08046 45.9146 4.08005 45.9509 4.07811 45.9528C4.0281 45.9427 4.05153 45.8359 3.99706 45.945C3.91068 45.8085 4.16824 45.93 4.15135 45.8424C4.13839 45.7763 3.56072 45.7929 3.55565 45.8971C3.55408 45.8858 3.54624 45.8708 3.53026 45.8541C3.49558 45.8176 3.32834 45.8207 3.29979 45.8385C3.29499 45.8432 3.29184 45.9407 3.28612 45.945C3.27751 45.9458 3.20714 45.9174 3.13671 45.902C3.07835 45.8899 3.02063 45.8858 2.98436 45.9098C3.0259 45.927 3.06685 45.9437 3.10936 45.9606C2.85339 45.9453 2.88655 45.9774 2.97362 46.0143C2.97804 46.0149 2.98208 46.0195 2.98632 46.0202C3.03708 46.0418 3.10236 46.063 3.12694 46.0748C3.1323 46.0776 3.13529 46.0801 3.13573 46.0817C3.13601 46.0846 3.13255 46.0873 3.12596 46.0895C3.06128 46.1115 2.70173 46.0905 2.78612 46.0104C2.80457 46.0004 3.00091 46.0552 2.90526 45.9811C2.88918 45.9686 2.75342 45.9773 2.74706 45.9694C2.70485 45.9166 2.99805 45.8727 2.96776 45.7995C2.89436 45.8613 2.80641 45.8194 2.7246 45.8297C2.68657 45.8343 2.67298 45.8831 2.66796 45.8854C2.59778 45.8924 2.64051 45.8426 2.61815 45.8414C2.60474 45.8414 2.45265 45.9401 2.4951 45.7858C1.98611 45.8395 2.35888 45.8914 2.63964 45.9079C2.54607 45.9573 2.36851 45.9109 2.27733 45.9118C2.24567 45.9124 2.25609 45.9667 2.19921 45.9694C2.13974 45.9709 1.98046 45.9418 1.74315 45.8707C1.52303 45.7793 1.07445 45.7421 0.484362 45.0895C0.785577 45.409 0.855462 45.3891 0.849597 45.3746C0.839131 45.3404 0.730445 45.2723 0.502917 44.9996C0.0665082 44.3312 0.362717 44.9474 0.271472 44.817C0.252499 44.7837 0.0977419 44.5443 0.0292841 44.1569C-0.0435406 43.7748 0.0428743 43.3928 0.0390497 43.4245C0.0983727 43.1496 0.133555 43.096 0.136706 43.0582C0.116783 43.1737 0.111999 43.2889 0.134753 43.2731C0.157012 43.2579 0.200106 43.1543 0.229479 43.067C0.237329 43.0985 0.244431 43.1316 0.250964 43.1696C0.268568 43.0207 0.400986 42.893 0.389636 42.8395C0.387361 42.8317 0.336762 42.8421 0.332995 42.8385C0.32555 42.7934 0.410088 42.6791 0.396472 42.6686C0.384916 42.6597 0.330598 42.7019 0.31737 42.6764C0.314685 42.6708 0.391923 42.637 0.391589 42.5807C0.391525 42.5599 0.345526 42.5588 0.343737 42.5534C0.333981 42.5081 0.401392 42.5512 0.410143 42.4752C0.416566 42.4186 0.355431 42.3592 0.399401 42.2907C0.240113 42.5097 0.336299 42.3153 0.335925 42.2047C0.335784 42.1872 0.251511 42.1799 0.316393 42.0914C0.404987 42.3402 0.409333 42.0512 0.424792 41.9957C0.426977 41.9932 0.479592 42.0046 0.487292 41.9782C0.487834 41.9758 0.451387 41.9701 0.455065 41.944C0.490288 41.6942 0.491463 41.8589 0.538073 41.8219C0.557925 41.8063 0.53665 41.674 0.542956 41.6413C0.544621 41.6337 0.58109 41.646 0.586901 41.6168C0.596128 41.5663 0.567706 41.509 0.572253 41.4752C0.572998 41.4712 0.631996 41.485 0.627917 41.4157C0.627281 41.4059 0.622281 41.3943 0.615222 41.3883C0.611028 41.385 0.605424 41.3838 0.599597 41.3854C0.595792 41.3866 0.59125 41.389 0.586901 41.3932C0.51217 41.4659 0.570128 41.6488 0.492175 41.7301C0.420984 41.8043 0.481386 41.5319 0.484362 41.5163C0.485416 41.511 0.501838 41.5714 0.520495 41.5182C0.532287 41.4838 0.492094 41.4192 0.484362 41.359C0.481498 41.3371 0.482642 41.315 0.493151 41.2965C0.497336 41.2907 0.590801 41.2548 0.599597 41.2565C0.60277 41.2595 0.601265 41.353 0.628893 41.3463C0.632032 41.3456 0.645034 41.2889 0.665026 41.2858C0.689673 41.282 0.917367 41.3077 0.925768 41.2965C0.946679 41.2679 0.891715 41.2764 0.899401 41.2575C0.916571 41.2164 1.01718 41.0776 0.941393 41.0553C0.931199 41.0791 0.920364 41.1047 0.910143 41.1286C0.934276 40.9858 0.88778 41.0386 0.877917 41.0153C0.867634 40.9906 0.933936 41.0119 0.951159 40.9655C0.954847 40.9552 0.985312 40.7557 0.957018 40.7506C0.976932 40.8714 0.902093 40.8111 0.899401 40.8161C0.890156 40.8336 0.931434 40.8697 0.924792 40.8952C0.876255 41.0747 0.843197 40.8752 0.81444 40.9137C0.805487 40.9268 0.838371 40.9657 0.834948 40.9713C0.823692 40.9902 0.771545 40.9785 0.772448 40.9928C0.775144 41.0263 0.856503 41.0072 0.860339 41.0104C0.900473 41.0483 0.817809 41.1464 0.752917 41.0592C0.714419 41.0941 0.811256 41.1204 0.764636 41.1442C0.672216 41.1919 0.714012 41.0988 0.707018 41.07C0.682289 40.9641 0.726174 40.9452 0.744128 40.8073C0.750488 40.7584 0.716372 40.6889 0.718737 40.6657C0.720192 40.6516 0.916483 40.5537 0.65819 40.4909C0.695233 40.4439 0.88377 40.4017 0.889636 40.3454C0.893583 40.2961 0.802192 40.2891 0.796862 40.2838C0.792865 40.2757 0.812954 40.2182 0.804675 40.195C0.794578 40.1684 0.75762 40.1715 0.75194 40.1315C0.738252 40.0321 0.829573 40.0549 0.838854 40.0475C0.934519 39.9542 0.790343 39.9708 0.785143 39.944C0.780507 39.919 0.906914 39.6113 0.889636 39.5358C0.901784 39.5677 0.914505 39.5998 0.926745 39.6315C0.996294 39.5965 0.913939 39.5216 1.01854 39.5455C0.852568 39.4954 0.988695 39.4212 0.992175 39.3893C0.99328 39.3768 0.964426 39.3704 0.966784 39.3551C0.97589 39.2954 1.02983 39.1692 1.02342 39.1334C0.994463 38.9803 0.805621 39.3061 0.791979 39.3336C0.806896 39.2784 0.845554 38.9544 0.729479 39.0797C0.711521 39.0992 0.777401 39.1573 0.777331 39.1705C0.776021 39.2599 0.725009 39.1776 0.716784 39.1823C0.70364 39.1912 0.755438 39.2632 0.744128 39.276C0.739913 39.2798 0.686666 39.234 0.666003 39.3141C0.616167 39.2601 0.719304 39.0431 0.712878 39.0094C0.70776 38.9985 0.569068 39.0321 0.738268 38.8678C0.726221 38.8672 0.714183 38.8665 0.702136 38.8659C0.724097 38.7557 0.745828 38.6446 0.768542 38.5338C0.792605 38.5525 0.831929 38.6278 0.839831 38.5475C0.84392 38.5034 0.780841 38.5181 0.775378 38.5153C0.76761 38.4716 0.971119 37.7645 1.00389 37.6227C1.01432 37.5754 1.0032 37.4326 1.00487 37.4196C1.01644 37.3581 1.10757 37.1521 1.11327 37.1071C1.11654 37.0791 1.05934 37.0902 1.06835 37.067C1.07695 37.0454 1.11913 37.0818 1.12303 37.0758C1.12696 37.0697 1.13118 37.0582 1.13573 37.0426C1.16929 36.9263 1.22271 36.5835 1.28905 36.5094C1.25684 36.5654 1.2648 36.893 1.30077 36.8971C1.30652 36.8962 1.36286 36.8355 1.35057 36.8151C1.39847 36.8026 1.29761 36.6796 1.33592 36.6413C1.34034 36.6368 1.40563 36.6787 1.44335 36.6002C1.45594 36.5729 1.42326 36.4826 1.5078 36.4274C1.5101 36.3097 1.78043 35.779 1.71874 35.7155C1.71512 35.7129 1.66313 35.7828 1.6494 35.7194C1.63168 35.6361 1.74869 35.7443 1.78807 35.6666C1.79388 35.6546 1.85616 35.4221 1.85057 35.4108C1.79587 35.3153 1.69655 35.5043 1.68846 35.4987C1.66898 35.4818 1.71005 35.3134 1.71776 35.3082C1.7255 35.3038 1.78333 35.4737 1.79882 35.2985C1.78028 35.3127 1.76172 35.327 1.74315 35.3414C1.74489 35.2575 1.8185 35.2734 1.82909 35.2565C1.86214 35.204 1.77619 35.1047 1.94139 35.0592C1.98467 35.0474 2.00986 35.1002 2.01659 35.1002C2.07446 35.0874 1.96002 35.005 2.0703 34.9948C2.07874 34.9952 2.10032 35.1148 2.1621 34.9381C2.14873 34.9471 2.13545 34.9564 2.12206 34.9655C2.11032 34.9334 2.16104 34.7506 2.17479 34.7272C2.2138 34.6619 2.25692 34.7463 2.2744 34.6725C2.16887 34.6856 2.23415 34.4671 2.30663 34.5075C2.22087 34.4424 2.36068 34.288 2.39452 34.2038C2.41579 34.15 2.41474 34.0249 2.42577 34.0104C2.43991 33.9921 2.50282 34.0222 2.53124 33.9909C2.539 33.9827 2.53274 33.8522 2.63671 33.7819C2.65671 33.7684 2.78305 33.772 2.79784 33.817C2.82273 33.8936 2.69144 33.9728 2.7578 33.9957C2.82843 34.0206 2.84392 33.8524 2.86815 33.8161C2.91731 33.7422 2.95174 33.7264 2.97655 33.733C2.98002 33.7339 2.9832 33.7354 2.98632 33.737C3.0118 33.7498 3.02693 33.7832 3.03905 33.7858C3.05531 33.7881 3.07047 33.7825 3.08299 33.7731C3.11611 33.7468 3.13607 33.6956 3.14159 33.6911C3.1702 33.6818 3.18736 33.7695 3.22069 33.7829C3.26396 33.8007 3.37845 33.7346 3.38475 33.7623C3.39129 33.7917 3.3365 33.8358 3.30956 33.859C3.30182 33.8654 3.29634 33.8698 3.29589 33.8717C3.30596 33.9342 3.37668 33.9226 3.43846 33.9079C3.46568 33.9005 3.49159 33.8929 3.50975 33.8903C3.52814 33.8877 3.54074 33.9305 3.54784 33.9254C3.65587 33.8451 3.41467 33.8485 3.45507 33.7838C3.4913 33.7253 3.52549 33.8291 3.53124 33.8307C3.53615 33.8298 3.56875 33.7553 3.59667 33.7516C3.61013 33.7515 3.6659 33.9948 3.72655 34.0094C3.73739 33.9422 3.74876 33.8737 3.75975 33.8063C3.83661 33.8296 3.74755 33.8992 3.75096 33.9118C3.75951 33.9363 3.81769 33.8988 3.84081 33.9098C3.85542 33.917 3.88636 33.9987 3.92967 33.9518C3.94472 33.9354 3.90685 33.8759 3.98729 33.8268C3.96518 34.0922 4.06922 33.9454 4.0996 33.9459C4.12891 33.9492 4.14847 34.0882 4.19042 33.944C4.33945 33.9935 4.23541 33.9651 4.24608 34.0143C4.25901 34.0759 4.35128 33.9806 4.24706 34.1452C4.31963 34.1595 4.36854 34.016 4.37694 34.0104C4.38451 34.0062 4.40619 34.0505 4.42186 34.0436C4.60543 33.9596 4.51001 34.0284 4.60936 34.0221C4.6193 34.0195 4.69785 33.9084 4.67382 34.0084C4.6294 34.1928 4.50447 34.2281 4.70116 34.3366C4.84014 34.2415 4.7663 34.0351 4.77831 33.9938C4.79781 33.9328 4.8174 34.0101 4.83202 34.0075C4.83707 34.005 4.85266 33.9539 4.85643 33.9538C5.02926 33.977 4.77091 34.1858 4.76659 34.2809C4.7993 34.2663 4.83156 34.2544 4.86424 34.2399C4.8534 34.2714 4.84239 34.3024 4.83202 34.3327C4.93487 34.2052 4.85228 34.3347 4.96678 34.4205C4.9924 34.4384 4.97984 34.3249 5.01854 34.4645C5.06764 34.3907 5.08387 34.4258 5.07518 34.3395C5.11273 34.3547 5.11978 34.4605 5.12206 34.5446C5.12319 34.5738 5.1234 34.6022 5.12401 34.6217C5.14096 34.5974 5.15271 34.5763 5.16014 34.5592C5.2172 34.4261 5.05138 34.4547 5.20507 34.3141C5.15524 34.2534 5.13168 34.3516 5.12401 34.3405C5.09633 34.2992 5.18097 34.2563 5.07811 34.1276C5.06046 34.1073 4.97489 34.1345 5.0078 34.0573C5.01163 34.0486 5.08806 34.0194 5.09178 34.0221C5.13419 34.0454 5.09838 34.0892 5.1162 34.0983C5.1323 34.1069 5.14326 34.0525 5.14842 34.0495C5.20529 34.0691 5.15261 34.1034 5.17284 34.1032C5.217 34.1022 5.41415 33.9503 5.27928 34.1969C5.29841 33.9566 5.22787 34.144 5.21971 34.2389C5.21749 34.2632 5.24914 34.2816 5.24901 34.317C5.24881 34.3626 5.21543 34.4029 5.21385 34.4254C5.21222 34.4503 5.339 34.3541 5.24608 34.528C5.36031 34.4643 5.33825 34.2706 5.42772 34.2008C5.60847 34.0631 5.51659 34.3773 5.51464 34.4157C5.51433 34.4253 5.57014 34.414 5.57128 34.4205C5.57207 34.4312 5.4839 34.6002 5.51464 34.6325C5.54529 34.6635 5.53782 34.5669 5.57909 34.5758C5.59741 34.5824 5.58799 34.6915 5.5996 34.7252C5.60288 34.7334 5.6081 34.7366 5.61522 34.7311C5.62031 34.7269 5.62606 34.7173 5.63378 34.7038C5.67589 34.629 5.62638 34.4432 5.74901 34.4616C5.7211 34.5576 5.69408 34.6527 5.666 34.7496C5.65929 34.7732 5.65138 34.799 5.64452 34.8229C5.66932 34.8057 5.69506 34.7869 5.71971 34.7702C5.76257 34.7392 5.80517 34.7102 5.84764 34.6803C5.83624 34.7235 5.81861 34.7624 5.80077 34.8014C5.76339 34.8826 5.72441 34.9581 5.73534 35.0573C5.98529 34.814 5.81056 35.1942 5.82616 35.2047C5.83582 35.2102 5.99192 35.1364 6.01952 35.1256C6.02384 35.2451 5.93025 35.5618 6.13671 35.4323C6.09365 35.4537 6.14006 35.5582 6.14745 35.5631C6.21287 35.5752 6.23692 35.3888 6.28221 35.4371C6.3347 35.4932 6.23026 35.5073 6.21874 35.5592C6.16073 35.8301 6.50823 35.8774 6.3662 36.1139C6.37922 36.1129 6.39224 36.1119 6.40526 36.111C6.28765 36.3822 6.17369 36.6541 6.06249 36.9264C6.12516 37.0685 6.09159 37.3781 6.03612 37.5163C6.02466 37.5441 5.92924 37.6664 5.916 37.6754C5.89232 37.6895 5.91878 37.5803 5.87108 37.6178C5.86092 37.6258 5.76533 37.8575 5.82616 37.858C5.84066 37.8336 5.83906 37.7415 5.85643 37.7321C5.95976 37.6762 5.76415 38.171 5.72069 38.3571C5.7126 38.3908 5.70877 38.4148 5.71288 38.4225C5.7358 38.4115 5.75931 38.4012 5.78221 38.3903C5.76011 38.4335 5.73782 38.4774 5.71581 38.5211C5.70511 38.4979 5.69421 38.4741 5.68358 38.4508C5.65804 38.5014 5.64914 38.5769 5.6201 38.6227C5.61436 38.6288 5.5757 38.5965 5.56835 38.6149C5.56094 38.6336 5.62501 38.6474 5.62401 38.6774C5.62329 38.6931 5.6038 38.7298 5.58299 38.7702C5.59546 38.7523 5.61354 38.7301 5.6328 38.7116C5.64556 38.6881 5.65864 38.6711 5.66893 38.6784L5.66991 38.6813C5.69408 38.6644 5.70831 38.6627 5.69335 38.6998C5.69234 38.7016 5.68579 38.7058 5.6787 38.7135C5.67406 38.7648 5.60851 38.8324 5.59569 38.8092C5.59506 38.8079 5.59801 38.8024 5.60057 38.7936C5.59704 38.7969 5.5956 38.8 5.59471 38.8004C5.57714 38.8075 5.57088 38.8063 5.56932 38.8004C5.56324 38.8122 5.5582 38.8244 5.55272 38.8356C5.56569 38.8367 5.55403 38.8515 5.53221 38.8805C5.53019 38.886 5.52743 38.8908 5.52635 38.8952C5.47979 39.0852 5.46512 39.2869 5.38964 39.4723C5.39352 39.2618 5.29453 39.4493 5.30077 39.5104C5.30154 39.5156 5.31776 39.5247 5.33495 39.5426C5.37997 39.5085 5.4385 39.4659 5.45311 39.483C5.42353 39.5107 5.38529 39.5429 5.35155 39.5612C5.35933 39.5742 5.36413 39.5907 5.3662 39.612L5.57811 39.3991C5.58932 39.3881 5.59858 39.3778 5.60741 39.3707C5.5913 39.3578 5.5439 39.3897 5.50878 39.4049L5.54784 39.3668C5.50959 39.3844 5.48172 39.3881 5.50585 39.3239L5.46581 39.3629C5.46663 39.3599 5.46767 39.3566 5.46874 39.3532C5.52185 39.1887 5.66402 39.3026 5.67186 39.3063C6.20138 38.7448 6.74201 38.0871 7.26073 37.4293C7.17748 37.3795 6.89204 37.8528 6.87499 37.8522C6.77015 37.8645 7.34789 37.1425 7.4453 37.069C7.37563 37.1245 7.30461 37.1817 7.23534 37.236C7.23882 37.0515 7.55453 36.8815 7.64549 36.6813C7.67459 36.6169 7.56013 36.6952 7.55956 36.6911C7.57188 36.6041 7.6744 36.525 7.66405 36.6344C7.73471 36.4498 7.76812 36.5059 7.85839 36.3942C7.86161 36.3889 7.78999 36.4103 7.84374 36.3082C7.86928 36.2602 8.04239 36.0289 8.03417 35.9743C8.0302 35.9519 7.80322 35.9641 7.91307 36.068C7.66549 36.2769 7.90725 36.1901 7.83104 36.2858C7.81849 36.2994 7.77872 36.2157 7.62499 36.483C7.54248 36.3434 7.8396 36.1347 7.86424 36.0719C7.90831 35.9506 7.54052 36.3111 7.57421 36.4596C7.50754 36.3536 7.5392 36.48 7.46678 36.567C7.38746 36.662 7.39237 36.5979 7.35057 36.652C7.23628 36.7989 7.34852 36.7889 7.19725 36.862C7.47183 36.8871 7.05872 37.0892 6.93944 37.1413C7.04774 36.985 7.16009 36.8228 7.26854 36.6627C7.25206 36.6641 7.23519 36.6663 7.21874 36.6676C7.25132 36.6282 7.28475 36.5872 7.31737 36.5475C7.32179 36.5609 7.32588 36.5748 7.33007 36.5885C7.4282 36.3357 7.53693 36.3335 7.55077 36.317C7.72479 36.104 7.91683 35.8447 8.08397 35.6178C8.10906 35.5835 8.02966 35.5642 8.26073 35.3483C8.3332 35.2809 8.32793 35.3902 8.38573 35.2955C8.33706 35.0887 8.43926 35.1652 8.46385 35.1315C8.53447 35.0335 8.54367 34.9522 8.54979 34.943C8.62951 34.8213 8.76244 34.6471 8.8496 34.5133C8.85084 34.5105 8.76184 34.5502 8.83397 34.4733C8.85983 34.4458 9.22267 34.2974 9.333 34.0172C9.27787 34.0718 9.22267 34.1258 9.16796 34.1793C9.23646 34.1168 9.54414 33.5774 9.4121 33.6696C9.33055 33.7276 9.31452 33.9886 9.19237 33.9362C9.34348 33.7906 9.9356 32.8135 10.0098 32.7536C10.0202 32.7459 10.0133 32.8322 10.0273 32.8209C10.0413 32.8071 10.1743 32.5893 10.207 32.569C10.2258 32.5584 10.1843 32.668 10.2021 32.6686C10.2164 32.6671 10.4121 32.4039 10.3779 32.359C10.3513 32.4384 10.2111 32.6175 10.2392 32.4938C10.243 32.478 10.3149 32.4303 10.3193 32.4108C10.36 32.231 10.0884 32.6704 10.0449 32.734C10.1658 32.431 10.509 32.0552 10.6738 31.7184C10.7922 31.6167 10.6095 31.9425 10.7324 31.82C10.9882 31.5638 10.7331 31.7066 10.7334 31.695C10.7437 31.597 11.1074 31.4724 10.9541 31.3746C11.046 31.2817 11.0427 31.3287 11.1201 31.1627C11.0967 31.1762 11.0731 31.1894 11.0498 31.2028C11.0705 30.9751 11.5178 30.7597 11.5215 30.7946C11.5215 30.8965 11.3334 31.0382 11.3232 31.0563C11.3112 31.0808 11.425 31.2479 11.1201 31.4186C11.1566 31.5922 11.4533 31.0502 11.374 31.3327C11.4646 31.1659 11.9494 30.5544 11.9629 30.4284C11.9639 30.4131 11.8254 30.4008 11.9805 30.2692C12.0537 30.2074 11.9399 30.3959 11.9853 30.3756C12.0364 30.3522 12.1793 30.1407 12.3506 29.8659C12.3579 29.8628 12.362 29.8603 12.3623 29.8629C12.3626 29.8671 12.362 29.8719 12.3613 29.8766L12.3896 29.8034C12.4257 29.7448 12.4627 29.6839 12.5 29.6217C12.5144 29.5516 12.5286 29.4835 12.542 29.4186L12.582 29.32C12.5763 29.3313 12.5665 29.3427 12.5557 29.3532C12.6007 29.1347 12.637 28.9596 12.6553 28.8756C12.6601 28.8541 12.6953 28.87 12.7002 28.8493C12.7142 28.7842 12.7147 28.5323 12.7588 28.4215C12.6338 28.6441 12.7372 28.1798 12.7724 28.0631C12.8256 27.8876 12.8881 27.914 12.9199 27.8405C13.0431 27.5554 12.9895 27.0673 13.1846 26.8746C13.0381 26.8542 13.3413 26.4998 13.3799 26.317C13.4109 26.1725 13.3549 25.9496 13.2578 26.1286C13.3141 25.8855 13.337 25.6215 13.3691 25.3922C13.3744 25.3541 13.4083 25.4136 13.416 25.3483C13.415 25.3421 13.3758 25.3261 13.3808 25.2711C13.4223 24.8106 13.4735 25.0459 13.5146 24.9655C13.5374 24.9202 13.551 24.8856 13.5576 24.86C13.5235 25.1272 13.4839 25.4381 13.4697 25.5211C13.5774 25.4671 13.5568 24.9282 13.6045 24.7789C13.6062 24.7738 13.655 24.7999 13.6562 24.7946L13.6689 24.7057C13.681 24.5822 13.6865 24.3889 13.6318 24.4381C13.6123 24.4561 13.5885 24.6218 13.5625 24.8209C13.5595 24.7652 13.4951 24.7957 13.4941 24.7858C13.4843 24.6668 13.5822 24.398 13.6035 24.2985C13.6083 24.2759 13.5709 24.2719 13.5713 24.2682C13.592 24.1797 13.6933 24.2303 13.5957 24.1237C13.7498 23.9787 13.5743 24.4321 13.6641 24.4118C13.7399 24.3927 13.8284 23.3467 13.7178 23.3385C13.7293 23.3359 13.7442 23.3224 13.7627 23.2946C13.8045 23.233 13.8179 22.9431 13.8017 22.8912C13.7985 22.8825 13.6965 22.8783 13.6963 22.8678C13.6969 22.8396 13.7988 22.4967 13.7441 22.361C13.7265 22.4314 13.7078 22.5013 13.6894 22.5709C13.7114 22.1434 13.676 22.2077 13.6396 22.3493C13.639 22.3563 13.6345 22.3631 13.6338 22.3698C13.606 22.4791 13.5756 22.6182 13.5674 22.6198C13.5396 22.6216 13.5524 21.9076 13.6406 22.0485C13.6534 22.0692 13.5984 22.3981 13.6728 22.236C13.6859 22.2068 13.6745 21.9968 13.6816 21.983C13.7344 21.909 13.7835 22.3786 13.8555 22.3258C13.7938 22.2069 13.8344 22.0638 13.8203 21.9313C13.8137 21.8715 13.7625 21.8557 13.7617 21.8483C13.7505 21.7379 13.8024 21.8003 13.8017 21.7633C13.8 21.7401 13.6905 21.5282 13.8467 21.569C13.7268 20.8542 13.7352 21.3746 13.7363 21.8082C13.6819 21.6684 13.7113 21.4015 13.6963 21.2789C13.6909 21.2357 13.6386 21.2614 13.6269 21.1891C13.6068 21.0415 13.6373 20.3232 13.6338 20.1325C13.6606 20.2469 13.7155 20.2093 13.7051 20.1198C13.6944 20.0325 13.6237 20.1119 13.6142 20.0954C13.6056 20.0784 13.6054 19.6612 13.5869 19.5914C13.6452 19.9027 13.6957 19.8284 13.6748 19.5592C13.6952 19.5964 13.7161 19.6333 13.7363 19.6705C13.6986 19.5142 13.7474 19.1801 13.709 19.0905C13.7029 19.077 13.6615 19.1343 13.6582 19.1266C13.6284 19.0489 13.6391 18.7791 13.6211 18.7653C13.6061 18.7568 13.5824 18.8759 13.5566 18.8366C13.5515 18.8281 13.5991 18.7096 13.5664 18.6032C13.5542 18.5636 13.514 18.5944 13.5098 18.5846C13.4746 18.5033 13.5585 18.541 13.5205 18.3873C13.4925 18.2772 13.4041 18.2073 13.3994 18.0475C13.397 18.5726 13.3616 18.1393 13.291 17.9303C13.2795 17.898 13.2044 17.9393 13.2031 17.7321C13.4361 18.1335 13.2574 17.5932 13.2324 17.4791C13.2333 17.4726 13.2838 17.4584 13.2724 17.403C13.2711 17.3984 13.2371 17.4128 13.2226 17.362C13.083 16.8756 13.1964 17.1806 13.2099 17.0787C13.2155 17.0352 13.1061 16.81 13.0879 16.7457C13.0842 16.7311 13.1225 16.7282 13.1064 16.6715C13.0769 16.569 13.0134 16.4907 12.9922 16.4254C12.9914 16.4176 13.0473 16.4006 12.9941 16.2819C12.9789 16.248 12.9479 16.2137 12.9453 16.2682C12.9375 16.4484 13.1173 16.7413 13.1084 16.945C13.1012 17.129 12.9598 16.5857 12.9502 16.5582C12.9556 16.5631 13.0021 16.6361 12.9814 16.5377C12.9619 16.4457 12.8158 16.3074 12.7978 16.1647C12.7966 16.154 12.8491 16.0196 12.8555 16.0231C12.8625 16.0316 12.9282 16.1889 12.9453 16.1579C12.9461 16.1506 12.916 16.0473 12.9297 16.028C12.9469 16.0044 13.1498 15.8934 13.1494 15.8678C13.1451 15.8044 13.1076 15.8574 13.0996 15.819C13.0834 15.7368 13.0581 15.4334 12.9795 15.4479C12.99 15.4962 13.0006 15.5444 13.0107 15.5924C12.9209 15.335 12.9232 15.4557 12.8974 15.4235C12.8697 15.3888 12.9397 15.378 12.917 15.2877C12.9106 15.2619 12.776 14.9111 12.75 14.9264C12.8607 15.1085 12.7592 15.0659 12.7578 15.0739C12.7644 15.1105 12.8251 15.1401 12.8398 15.1871C12.9437 15.5257 12.7602 15.2108 12.7676 15.2955C12.7704 15.3249 12.8264 15.3673 12.8281 15.3795C12.8335 15.419 12.7837 15.436 12.7959 15.4596C12.8242 15.5146 12.8745 15.4233 12.8799 15.4264C12.9424 15.4645 12.9498 15.6864 12.831 15.5846C12.8265 15.6693 12.925 15.6484 12.9053 15.7204C12.8659 15.862 12.8307 15.6796 12.8027 15.6344C12.7025 15.4759 12.7221 15.4075 12.6279 15.1686C12.5942 15.0832 12.5124 14.9958 12.4951 14.9557C12.4852 14.9314 12.5573 14.6286 12.3047 14.7116C12.2943 14.6066 12.4049 14.403 12.3603 14.3082C12.3211 14.226 12.2459 14.2835 12.2373 14.2789C12.2273 14.2687 12.1933 14.1616 12.167 14.1305C12.136 14.0945 12.1109 14.1279 12.0713 14.067C11.9725 13.9155 12.0627 13.8862 12.0625 13.8668C12.0515 13.6484 11.9595 13.7815 11.9316 13.7448C11.9088 13.7112 11.7162 13.1232 11.6328 13.025C11.6713 13.0645 11.7099 13.1038 11.748 13.1432C11.7657 13.0349 11.6371 12.9842 11.7344 12.9391C11.5685 12.9924 11.5951 12.7692 11.5664 12.7174C11.5551 12.6975 11.5287 12.7108 11.5156 12.6852C11.4923 12.6397 11.462 12.5654 11.4316 12.4928C11.3941 12.4033 11.357 12.3172 11.3349 12.2897C11.2274 12.1555 11.2628 12.3608 11.3086 12.5504C11.3358 12.6648 11.3658 12.7717 11.3721 12.7916C11.3567 12.7563 11.309 12.6646 11.2558 12.5748C11.1606 12.4131 11.0503 12.2616 11.0791 12.4469C11.0861 12.4919 11.1899 12.5293 11.2031 12.5504C11.2127 12.5659 11.2194 12.579 11.2246 12.5895C11.2652 12.6719 11.1761 12.6075 11.1728 12.6178C11.1724 12.6419 11.2769 12.7107 11.2822 12.7399C11.2837 12.7494 11.202 12.7217 11.2646 12.862C11.2243 12.8418 11.1736 12.742 11.126 12.6354C11.0698 12.5096 11.0194 12.3764 10.999 12.3512C10.9854 12.3348 10.9236 12.507 10.875 12.111C10.866 12.1202 10.8567 12.1301 10.8476 12.1393C10.7513 11.9496 10.6543 11.761 10.5566 11.5739C10.592 11.5826 10.695 11.6641 10.6182 11.5348C10.5736 11.4601 10.5461 11.545 10.541 11.5387C10.4939 11.4733 9.89199 10.244 9.7578 10.0143C9.71322 9.93448 9.55081 9.73547 9.541 9.71937C9.48334 9.62153 9.31626 9.2468 9.27147 9.18031C9.24337 9.13849 9.22095 9.20494 9.20116 9.16469C9.18285 9.12658 9.24647 9.1402 9.24315 9.12855C9.20914 9.02642 8.76837 8.37169 8.71581 8.18715C8.76026 8.29197 9.12661 8.74046 9.15233 8.71449C9.15548 8.71011 9.12149 8.57085 9.09081 8.55433C9.10526 8.49122 8.91034 8.41384 8.88964 8.32484C8.88762 8.31486 8.97071 8.31173 8.90526 8.16957C8.8821 8.11964 8.7603 8.02282 8.7451 7.86684C8.61609 7.70037 8.14304 6.71611 8.03221 6.69105C8.03035 6.69798 8.08186 6.83586 8.00194 6.76527C7.89328 6.66969 8.08306 6.69886 8.01073 6.55531C7.99953 6.53279 7.75163 6.15732 7.73729 6.15199C7.59701 6.08106 7.77222 6.42868 7.76171 6.43031C7.73358 6.4299 7.55451 6.16669 7.54979 6.14906C7.54865 6.136 7.78057 6.30331 7.57714 6.05336C7.58545 6.09133 7.5943 6.12967 7.60253 6.16762C7.50112 6.05207 7.55732 6.00084 7.54198 5.96742C7.49429 5.86338 7.33408 5.82377 7.35546 5.5934C7.36146 5.53376 7.43748 5.57623 7.44139 5.56996C7.45319 5.494 7.29952 5.50358 7.33885 5.37758C7.34297 5.3691 7.50005 5.50484 7.31151 5.20863C7.31652 5.23431 7.32206 5.25996 7.32714 5.28578C7.28045 5.25223 7.08088 4.96503 7.05663 4.91859C6.99244 4.79208 7.11686 4.85738 7.03319 4.74379C7.00288 4.87097 6.75916 4.52005 6.83983 4.49476C6.722 4.5014 6.58618 4.1536 6.49413 4.01234C6.43304 3.91842 6.27737 3.76799 6.25975 3.73305C6.24133 3.69443 6.30686 3.6646 6.27733 3.5934C6.2681 3.57304 6.09797 3.41348 6.04882 3.21547C6.03778 3.17483 6.08959 3.03996 6.15526 3.08266C6.26678 3.15468 6.31754 3.39827 6.37499 3.35805C6.43259 3.30911 6.22531 3.08503 6.18163 3.00551C6.0009 2.6656 6.19015 2.7987 6.20604 2.77894C6.23736 2.72232 6.11891 2.55417 6.1162 2.54164C6.11492 2.4991 6.23562 2.5906 6.26757 2.57387C6.30726 2.54902 6.26091 2.33499 6.29979 2.36293C6.35688 2.40518 6.40601 2.59807 6.41698 2.60805C6.54237 2.70879 6.50933 2.47139 6.51854 2.39223C6.52255 2.36945 6.58345 2.41173 6.57909 2.39711C6.5095 2.17092 6.42939 2.44701 6.35448 2.3141C6.28805 2.19683 6.43974 2.29332 6.44628 2.29164C6.44461 2.28173 6.35507 2.14697 6.36229 2.11391C6.36889 2.09828 6.71792 2.35757 6.75878 2.30922C6.67141 2.20775 6.58196 2.10454 6.49608 2.00648C6.55533 1.95045 6.61697 2.14018 6.63671 2.15394C6.67403 2.17801 6.64112 2.06068 6.66503 2.05043C6.67992 2.04315 6.80459 2.12011 6.75389 2.00648C6.73499 1.96543 6.64556 1.93672 6.60253 1.77601C6.95986 2.15474 6.7922 1.83844 6.80663 1.80922C6.82104 1.78008 7.0175 1.94112 6.8369 1.7057C6.95678 1.60368 6.88272 1.68419 6.95214 1.735C7.03962 1.80048 6.9429 1.57291 7.13085 1.90883C7.18046 1.8517 6.99841 1.60185 6.99315 1.58461C6.98904 1.56958 7.06019 1.6064 7.05565 1.57875C7.00168 1.25688 7.06506 1.45901 7.09081 1.33851C7.09494 1.32993 6.95919 1.08266 7.09276 1.24769C7.33434 1.5463 7.33806 1.73307 7.55663 1.65687C7.4741 1.36999 7.16187 1.1782 7.10839 1.10805C7.03306 1.00841 7.14489 1.08673 7.14647 1.06703C7.14721 1.06119 7.07753 0.970253 7.07909 0.966444C7.17152 0.803328 7.37581 1.37776 7.50292 1.50844C7.49457 1.45232 7.4873 1.39721 7.48046 1.3434C7.51846 1.39552 7.55892 1.45164 7.59862 1.50648C7.45365 1.21144 7.6111 1.49011 7.76561 1.47133C7.8001 1.46735 7.64011 1.33046 7.84471 1.47328C7.76191 1.32041 7.81471 1.34695 7.69139 1.23891C7.73837 1.20967 7.99745 1.47056 8.10057 1.56996C7.86398 1.12246 7.86305 1.4727 7.70116 1.05726C7.59816 1.02982 7.7301 1.19412 7.70995 1.18519C7.64429 1.16199 7.61358 1.008 7.39745 0.948866C7.36283 0.940431 7.37044 1.07459 7.27538 0.935194C7.2645 0.919016 7.24849 0.790733 7.25389 0.790663C7.29995 0.773093 7.35176 0.875955 7.3701 0.867812C7.38883 0.861805 7.30765 0.766504 7.31053 0.762343C7.3567 0.723504 7.38907 0.832617 7.39549 0.809218C7.40596 0.752906 7.26273 0.330205 7.56151 0.814101C7.23013 0.46671 7.47155 0.80163 7.60253 0.941054C7.63421 0.974387 7.67008 0.962881 7.71971 1.01137C7.78646 1.07774 7.82667 1.16467 7.85936 1.19984C7.89319 1.23543 7.80359 0.960366 8.01268 1.30238C7.96493 1.08653 7.68483 0.845309 7.61815 0.650038ZM7.9121 46.277C7.92524 46.2844 7.97416 46.3657 7.91893 46.3815C7.92071 46.2851 7.83413 46.2478 7.79296 46.3366C7.76723 46.2576 7.85354 46.2446 7.9121 46.277ZM10.1631 46.3043C10.1688 46.3058 10.2428 46.3538 10.2266 46.3727C9.93499 46.4179 9.89828 46.2352 10.1631 46.3043ZM9.28514 46.2858C9.25669 46.28 9.23709 46.3461 9.2412 46.3541C9.26395 46.3804 9.31891 46.325 9.28514 46.2858ZM8.8076 46.3102C8.78136 46.3044 8.71475 46.3032 8.70702 46.3307C8.69764 46.3657 8.79619 46.3534 8.8076 46.3102ZM9.56835 46.2477C9.65378 46.313 9.55856 46.2507 9.56249 46.32C9.61962 46.3221 9.76215 46.324 9.66307 46.2565C9.64358 46.2437 9.59553 46.252 9.56835 46.2477ZM9.49022 46.2252C9.48152 46.2477 9.42073 46.3194 9.47362 46.3141C9.49802 46.3115 9.53593 46.232 9.49022 46.2252ZM7.15526 46.2243C7.20938 46.2251 7.15007 46.3052 7.12108 46.275C7.11076 46.2636 7.14164 46.2241 7.15526 46.2243ZM9.44921 46.2409C9.43647 46.2303 9.12977 46.1916 9.14745 46.277C9.17641 46.2671 9.52205 46.3085 9.44921 46.2409ZM7.68846 46.15C7.68086 46.1614 7.67265 46.1729 7.66503 46.1842C7.94629 46.2226 7.68436 46.2031 7.6162 46.2174C7.59022 46.2229 7.61145 46.265 7.58788 46.2711L7.52831 46.276C7.41514 46.2606 7.47697 46.0745 7.68846 46.15ZM6.8701 46.2184C6.69084 46.0362 7.03413 46.156 7.1328 46.1325C7.03667 46.2072 6.91287 46.195 7.08104 46.2721C6.83405 46.2862 6.93644 46.2147 6.92674 46.2086C6.91491 46.2024 6.87805 46.2255 6.8701 46.2184ZM7.34471 46.2184C7.3552 46.2131 7.43395 46.2498 7.4619 46.2438C7.42295 46.3057 7.27608 46.2543 7.34471 46.2184ZM8.55663 46.2047C8.54297 46.1989 8.31498 46.1959 8.3955 46.2487C8.4214 46.2648 8.63164 46.2574 8.55663 46.2047ZM9.77147 46.2057C9.75194 46.2054 9.67307 46.2148 9.66991 46.2262C9.66535 46.2659 9.76282 46.2437 9.77147 46.2057ZM9.32421 46.0358C9.30086 46.0473 9.37365 46.1144 9.35741 46.1276C9.34676 46.1351 9.2934 46.1109 9.27733 46.1315C9.27202 46.1382 9.32723 46.2015 9.34276 46.1989C9.36483 46.1951 9.34327 46.1457 9.36718 46.1452C9.44601 46.1437 9.517 46.1787 9.59374 46.1774C9.5993 46.1765 9.54797 46.1421 9.60546 46.1422C9.61455 46.1427 9.66865 46.1942 9.73729 46.1862C9.88946 46.023 10.0039 46.1808 10.2021 46.1198C10.1947 46.1046 10.0454 46.0656 10.0371 46.0641C9.87264 46.0394 9.58193 46.0382 9.4121 46.0387C9.36958 46.0388 9.38955 46.0735 9.37108 46.0748C9.3571 46.0746 9.37348 46.012 9.32421 46.0358ZM7.84862 46.1246C7.83963 46.1578 7.75697 46.1498 7.72753 46.153C7.74705 46.1085 7.80807 46.1211 7.84862 46.1246ZM11.2168 46.1051C11.1946 46.1091 11.1163 46.0959 11.1094 46.1149C11.1036 46.1403 11.2164 46.1484 11.2168 46.1051ZM6.67674 46.1012C6.62043 46.0396 6.85372 45.9693 6.90331 46.0084C6.90669 46.0465 6.68542 46.1097 6.67674 46.1012ZM7.02147 46.0348C7.04363 46.0219 7.09409 46.0658 7.07616 46.0924C7.05303 46.1266 7.01579 46.0387 7.02147 46.0348ZM10.4248 46.0407C10.3771 46.028 10.3874 46.0905 10.3906 46.0924C10.4267 46.1118 10.4795 46.055 10.4248 46.0407ZM3.31053 46.0573C3.30168 46.0869 3.16151 46.1158 3.15819 46.067C3.15172 45.9997 3.28629 46.0496 3.31053 46.0573ZM8.98925 45.9977C8.9806 45.9909 8.85045 46.0375 8.90428 46.0827C8.94157 46.1139 8.9474 46.0497 8.95604 46.0495C8.96006 46.0499 8.9848 46.0585 9.00878 46.0651C9.05756 46.0778 9.10587 46.0836 9.0078 46.0123C9.00204 46.008 8.99616 46.0027 8.98925 45.9977ZM12.748 45.9791C12.7968 45.9427 12.8175 46.0602 12.8125 46.0651C12.7411 46.1343 12.7792 46.02 12.7773 46.0123C12.7709 46.0041 12.7191 46.0621 12.7256 46.0055L12.748 45.9791ZM5.36132 46.0514C5.41063 46.035 5.47036 46.0559 5.52147 46.0553C5.49989 46.0824 5.38167 46.0881 5.36132 46.0514ZM2.76073 46.0084C2.8251 46.0657 2.58741 46.0315 2.66893 45.9948C2.6732 45.9932 2.75803 46.0058 2.76073 46.0084ZM13.2402 45.9987C13.3069 46.0439 13.0911 46.0518 13.1562 46.0016C13.1598 45.9993 13.2368 45.9966 13.2402 45.9987ZM5.52635 46.0094C5.55619 45.9917 5.6099 46.0121 5.64647 46.0104C5.6399 46.0404 5.53872 46.0402 5.52635 46.0094ZM12.456 45.9899C12.4603 46.0202 12.3746 46.0343 12.3652 46.0309C12.3141 46.0046 12.4223 45.9798 12.456 45.9899ZM13.583 45.9811C13.5943 45.9605 13.6605 45.9499 13.6738 45.9977C13.6528 45.9961 13.5991 46.0062 13.5918 46.0016C13.5889 45.9997 13.5866 45.9977 13.5849 45.9957C13.5655 46.0405 13.3024 46.0255 13.2822 46.0153C13.198 45.9623 13.5591 45.9582 13.5703 45.9674C13.5762 45.9724 13.5805 45.9769 13.583 45.9811ZM13.9414 45.9118C13.9465 45.9238 13.849 46.0268 13.7988 46.0094C13.7041 45.9763 13.933 45.9048 13.9414 45.9118ZM11.1767 45.9977C11.1936 45.9642 11.0977 45.9621 11.0674 45.9811C11.0616 46.0212 11.1759 46.0024 11.1767 45.9977ZM11.9853 45.9821C11.979 46.0173 11.8262 45.9989 11.8154 45.9743C11.8743 45.9653 11.931 45.971 11.9853 45.9821ZM12.2402 45.8405C12.2491 45.8491 12.3 46.0543 12.208 45.986C12.1919 45.9733 12.2435 45.916 12.1396 45.9049C12.2158 45.899 12.187 45.8007 12.2402 45.8405ZM3.41698 45.9235C3.47799 45.9441 3.55196 45.9392 3.55565 45.903C3.55673 45.9086 3.55992 45.9144 3.56444 45.9205C3.56966 45.9269 3.63558 45.9128 3.66307 45.9264C3.83273 46.009 2.9979 45.9404 3.48729 45.859C3.46386 45.8804 3.44166 45.9022 3.41698 45.9235ZM11.9541 45.7321C11.92 45.7155 11.8229 45.7797 11.8047 45.8297C11.7993 45.8211 11.7865 45.8103 11.7637 45.7985C11.747 45.7884 11.2996 45.8192 11.2266 45.8454C11.2188 45.8493 11.2176 45.8545 11.2266 45.859C11.2479 45.8677 11.3161 45.8765 11.4433 45.8834C11.4631 45.8845 11.4335 45.8444 11.5127 45.8444C11.5178 45.8456 11.5242 45.8794 11.54 45.8795C11.579 45.8798 11.7692 45.8805 11.8017 45.8483C11.8028 45.8547 11.8068 45.8608 11.8125 45.8659C11.8645 45.9099 11.9812 45.7448 11.9541 45.7321ZM12.0566 45.7438C12.0508 45.7414 11.9593 45.7345 11.9766 45.775C12.0032 45.8357 12.0854 45.7639 12.0566 45.7438ZM1.90917 45.7262C1.88335 45.7081 1.77554 45.6959 1.75194 45.7213C1.81065 45.7525 1.97382 45.7703 1.90917 45.7262ZM12.9189 45.6862C12.93 45.7006 12.9043 45.7433 12.8877 45.7399C12.8578 45.7322 12.883 45.6407 12.9189 45.6862ZM13.3564 45.6344C13.3383 45.6905 13.3233 45.6985 13.2549 45.692C13.3526 45.6668 13.2559 45.6288 13.3564 45.6344ZM1.13768 45.5133C1.40406 45.6836 1.63379 45.701 1.53124 45.6325C1.52723 45.6286 1.19213 45.5241 1.13768 45.5133ZM13.5801 45.5885C13.617 45.5846 13.6693 45.5793 13.6836 45.6198C13.6578 45.6162 13.5826 45.619 13.5801 45.5885ZM14.4238 45.483C14.3949 45.521 14.3342 45.5401 14.2773 45.5485C14.2511 45.5523 14.2249 45.5541 14.2031 45.5543C14.1989 45.5267 14.2304 45.5139 14.2715 45.5065C14.326 45.4967 14.3984 45.4955 14.4238 45.483ZM0.28319 44.0846C0.234713 44.1678 0.370781 44.7276 0.526354 44.8815C0.547942 44.9112 0.676197 45.0389 0.780261 45.1061C0.887472 45.1791 0.966227 45.2094 0.954089 45.1989C0.688263 44.9726 0.437984 44.5357 0.37987 44.3131C0.309768 44.0846 0.299782 44.0394 0.28319 44.0846ZM14.9404 44.9508C14.9622 44.9819 14.9022 45.0266 14.8721 45.0133C14.8062 44.9829 14.9349 44.9412 14.9404 44.9508ZM4.17284 44.0006C4.15365 44.0334 4.12728 44.0468 4.10448 44.0534C4.0945 44.1186 4.08823 44.1517 4.08983 44.1159C4.07653 44.169 4.0659 44.1977 4.05956 44.2116C4.07623 44.2164 4.09376 44.2182 4.10253 44.2204C4.10789 44.2055 4.11596 44.1783 4.13573 44.1344C4.12506 44.1105 4.13034 44.0701 4.17284 44.0006ZM0.155261 43.445C0.152592 43.4387 0.132132 43.5698 0.133776 43.5846C0.133312 43.6095 0.141687 43.5664 0.153308 43.526C0.17938 43.4312 0.196154 43.4497 0.213854 43.4567C0.212989 43.4531 0.211747 43.4519 0.209948 43.4538C0.21344 43.349 0.214889 43.2853 0.213854 43.2301C0.190595 43.2968 0.169552 43.3739 0.155261 43.445ZM0.338854 43.2272C0.323274 43.2711 0.277615 43.3647 0.267565 43.4635C0.271808 43.4584 0.276032 43.4955 0.299792 43.487L0.300768 43.4694C0.316977 43.3487 0.329173 43.2838 0.338854 43.2272ZM0.360339 43.1012C0.336831 43.1312 0.289385 43.1295 0.294909 43.151C0.298165 43.1585 0.339795 43.1705 0.344714 43.1959C0.350996 43.1603 0.355471 43.1299 0.360339 43.1012ZM13.7246 42.9752C13.6976 42.9818 13.6254 42.972 13.6103 42.9811C13.5576 43.0129 13.7054 43.0443 13.7246 42.9752ZM0.117175 42.8971C0.112022 42.9407 0.117087 42.9935 0.0624872 42.9967C0.0802032 42.9646 0.0845656 42.8821 0.117175 42.8971ZM13.8652 42.8053C13.7983 42.7422 13.8486 42.9764 13.8574 42.985C13.8742 43.0012 13.9048 42.9847 13.9326 42.9606C13.9624 42.9348 13.9902 42.8998 13.999 42.8864C13.9658 42.8993 13.9419 42.9035 13.9248 42.902C13.8691 42.8965 13.8892 42.8282 13.8652 42.8053ZM13.2627 42.943C13.2317 42.9378 13.1403 42.9268 13.1289 42.9655C13.161 42.9554 13.254 42.9827 13.2627 42.943ZM12.9141 42.8121C12.8778 42.7565 12.8568 42.9021 12.9062 42.902C12.9209 42.9014 12.9179 42.82 12.9141 42.8121ZM13.7441 42.5573C13.7066 42.5643 13.6837 42.6479 13.7646 42.6481C13.7346 42.6677 13.7045 42.6881 13.6738 42.7077C13.8016 42.7504 13.7748 42.6094 13.8096 42.611C13.8577 42.6133 13.8689 42.73 13.8642 42.7682C13.8707 42.7512 13.8843 42.7366 13.9014 42.7243C13.9624 42.6813 14.0708 42.6625 14.1338 42.6413C14.0688 42.6265 13.9661 42.6009 13.8838 42.5875C13.8673 42.5848 13.851 42.5822 13.8369 42.5807C13.8128 42.5782 13.7941 42.6128 13.7734 42.612C13.7405 42.6101 13.7626 42.5616 13.7607 42.5592L13.7441 42.5573ZM13.3799 42.4791C13.4576 42.6121 13.3232 42.5846 13.2666 42.4752C13.2516 42.5057 13.2367 42.5365 13.2217 42.567C13.1729 42.3957 13.1905 42.6733 13.1162 42.5348C13.0601 42.7533 13.3322 42.5124 13.3877 42.6852C13.0652 42.7003 13.6192 42.8373 13.3662 42.5973C13.5607 42.6727 13.4227 42.5572 13.4473 42.5202C13.4734 42.4808 13.5804 42.5073 13.5674 42.443C13.5053 42.4549 13.4426 42.4675 13.3799 42.4791ZM0.309558 42.5387C0.342312 42.5728 0.268308 42.7105 0.218737 42.733C0.171973 42.6834 0.268613 42.4984 0.309558 42.5387ZM13.5957 42.6579C13.5853 42.6567 13.454 42.6918 13.4658 42.7184C13.4876 42.7339 13.6792 42.6894 13.5957 42.6579ZM14.1572 42.5504C14.1162 42.5571 14.047 42.5398 14.0303 42.5954C14.0745 42.5893 14.1435 42.6062 14.1572 42.5504ZM12.4521 42.5563C12.4194 42.5651 12.3252 42.5426 12.3242 42.5807C12.3563 42.5716 12.4507 42.5943 12.4521 42.5563ZM14.2012 42.3834C14.0967 42.2515 14.0177 42.4344 14.001 42.4362C13.9878 42.4342 13.9973 42.3662 13.9941 42.3649C13.9873 42.3631 13.8964 42.3795 13.8574 42.3883C13.8493 42.3902 13.8429 42.3913 13.8418 42.3922C13.8376 42.3971 13.8757 42.4843 13.8496 42.5172C13.855 42.5112 13.8629 42.5056 13.8721 42.5006C13.9577 42.4573 14.1531 42.4525 14.1611 42.4411C14.169 42.4313 14.0821 42.3488 14.2012 42.3834ZM13.7158 42.4176C13.7015 42.4108 13.5929 42.4165 13.5879 42.4596C13.6473 42.509 13.7458 42.4343 13.7158 42.4176ZM13.9658 42.4205C14.0057 42.4539 13.9087 42.4725 13.8818 42.4616C13.8246 42.4372 13.9618 42.4167 13.9658 42.4205ZM0.535143 42.3356C0.502931 42.3256 0.463242 42.4201 0.465808 42.4254C0.506879 42.4976 0.525823 42.3781 0.535143 42.3356ZM0.446276 42.2663C0.43078 42.2777 0.398482 42.379 0.449206 42.3629C0.500247 42.3457 0.468963 42.2512 0.446276 42.2663ZM13.0312 42.2516C13.0173 42.2444 12.8114 42.2794 12.6963 42.3053L12.7168 42.3043C12.6728 42.3126 12.6396 42.3204 12.626 42.3258C12.6405 42.3312 12.6745 42.3333 12.7187 42.3336L12.6992 42.3356C12.8155 42.3374 13.0192 42.3152 13.0312 42.3034C13.0353 42.2989 13.0335 42.2555 13.0312 42.2516ZM0.605456 42.1881C0.576075 42.2103 0.533625 42.3423 0.586901 42.2965C0.591509 42.292 0.635069 42.195 0.605456 42.1881ZM13.5 42.1774C13.4598 42.2648 13.4116 42.2076 13.3447 42.2194C13.3274 42.2231 13.3357 42.2556 13.334 42.2565C13.3025 42.2616 13.3213 42.2188 13.3017 42.2204C13.287 42.2225 13.0392 42.2976 13.0693 42.2311C13.0911 42.1842 13.4447 42.1842 13.5 42.1774ZM11.9551 42.2418C12.0263 42.1826 11.7849 42.2022 11.7724 42.2164C11.7831 42.2463 11.9435 42.2475 11.9551 42.2418ZM12.4023 42.2174C12.392 42.2152 12.2506 42.2118 12.251 42.2418C12.2719 42.2511 12.4831 42.2403 12.4023 42.2174ZM13.8242 42.1432C13.8279 42.1485 13.831 42.1529 13.832 42.153C13.8699 42.1565 13.9386 42.1341 13.9307 42.1891C13.9042 42.1839 13.8661 42.1961 13.833 42.2038C13.7867 42.2144 13.7505 42.2159 13.7773 42.1481C13.7942 42.1044 13.8138 42.1279 13.8242 42.1432ZM12.4678 42.1071C12.4678 42.1124 12.5016 42.1632 12.4355 42.1627C12.4299 42.1626 12.4119 42.0973 12.3291 42.1305C12.3123 42.1373 12.2907 42.1837 12.293 42.1862C12.3901 42.2793 12.6433 42.0559 12.4678 42.1071ZM9.71874 42.1559C9.68698 42.1436 9.54671 42.1483 9.60057 42.1842C9.60772 42.1898 9.71767 42.1902 9.71874 42.1559ZM13.0293 42.1608C13.0572 42.0619 13.2367 42.1073 13.123 42.1676C13.1116 42.1725 13.0599 42.137 13.0293 42.1608ZM0.503893 42.0963C0.474327 42.1094 0.513847 42.1732 0.560534 42.153C0.571018 42.1362 0.507501 42.0949 0.503893 42.0963ZM7.21971 42.0709C7.20223 42.0677 7.18834 42.1031 7.18065 42.1295C7.19497 42.1159 7.2093 42.1022 7.22362 42.0885C7.22231 42.0823 7.22338 42.0756 7.21971 42.0709ZM2.97948 41.9723C2.92855 41.9761 2.86285 42.147 2.92382 42.1256C2.9314 42.1202 2.98256 41.9975 2.97948 41.9723ZM7.98143 42.0934C7.9855 42.0379 7.84787 42.0697 7.90233 42.1159C7.91658 42.127 7.9801 42.1119 7.98143 42.0934ZM13.9971 42.0407C14.0487 42.0849 13.8966 42.1075 13.8203 42.109C13.8046 42.1093 13.792 42.1087 13.7891 42.1071C13.7919 42.1004 13.8034 42.0933 13.8174 42.0866C13.8763 42.0596 13.9899 42.0355 13.9971 42.0407ZM3.35936 42.026C3.33543 42.0292 3.31915 42.0522 3.32616 42.0983C3.34428 42.0981 3.355 42.0945 3.36132 42.0895C3.38151 42.0727 3.35374 42.0404 3.40233 42.0612C3.38522 42.0475 3.37115 42.0351 3.35936 42.026ZM9.30077 42.0231C9.20986 42.09 9.59493 42.1346 9.49315 42.0524C9.48184 42.046 9.30908 42.0175 9.30077 42.0231ZM9.98339 41.9371C9.99184 41.9464 9.95358 41.9958 9.95995 42.0075C9.9643 42.0139 10.103 42.0383 10.1103 42.0338C10.1169 42.0281 10.1085 41.9698 10.1152 41.9625C10.123 41.955 10.2078 42.0063 10.2519 42.0065C10.3338 42.0061 10.3424 41.956 10.3486 41.9557C10.3686 41.9551 10.4006 41.9898 10.4394 41.9889C10.6131 41.9848 10.7742 41.9477 10.957 41.987C10.9818 41.9954 11.0056 42.0068 11.0273 42.0221C11.0034 42.0153 10.9807 42.0122 10.959 42.0114C10.8395 42.0109 10.7638 42.0462 10.6689 42.0612C10.7017 41.9558 10.4887 42.1476 10.6133 42.0231C10.5676 42.053 9.98366 42.0833 9.92772 42.0602C9.91137 42.0524 9.91898 41.8659 9.98339 41.9371ZM7.77342 41.986C7.7617 41.9967 7.75036 42.0083 7.73827 42.0192C7.76674 42.0184 7.79535 42.0174 7.82421 42.0192C7.86123 42.0216 7.84218 42.0574 7.85839 42.0582C7.86564 42.0587 7.99496 42.0268 7.98924 42.0133C7.98222 41.9967 7.86517 41.9937 7.77342 41.986ZM13.8154 41.9801C13.8234 41.9911 13.8218 42.0177 13.8105 42.0358C13.8049 42.045 13.7965 42.0517 13.7861 42.0534C13.7745 42.0315 13.7832 41.9706 13.8017 41.9704C13.8059 41.9704 13.8104 41.9734 13.8154 41.9801ZM3.4121 42.0514C3.39775 42.0371 3.38389 42.0287 3.3701 42.027C3.38145 42.0337 3.39552 42.0416 3.4121 42.0514ZM11.665 42.025C11.6209 41.9961 11.7386 41.9481 11.7812 41.983C11.8053 42.0376 11.67 42.0284 11.665 42.025ZM13.832 41.9704C13.8539 41.9187 14.0303 41.9403 13.9922 41.987C13.9896 41.9946 13.807 42.0464 13.832 41.9704ZM3.22362 41.9752C3.2311 41.987 3.29126 41.9801 3.36815 41.9762C3.37137 41.976 3.37465 41.9764 3.37792 41.9762C3.30825 41.9221 3.25729 41.8877 3.21776 41.8649C3.22004 41.9137 3.22165 41.9704 3.22362 41.9752ZM3.13671 41.8248C3.13309 41.835 3.11605 41.8437 3.07518 41.8502C3.08127 41.8567 3.08368 41.8599 3.07714 41.858C3.07315 41.8566 3.06953 41.8538 3.06542 41.8522C3.06328 41.8525 3.06083 41.8539 3.05858 41.8541C3.11422 41.8576 3.13633 42.0144 3.19042 41.9704C3.2083 41.9561 3.17471 41.8938 3.16991 41.8414C3.15724 41.8353 3.14678 41.8292 3.13671 41.8248ZM12.8721 41.9157C12.8456 41.9668 12.756 41.9613 12.707 41.9743C12.6955 41.9124 12.8367 41.9308 12.8721 41.9157ZM0.606433 41.9C0.600978 41.9021 0.562962 41.9546 0.592761 41.9723C0.643074 41.9593 0.655967 41.8913 0.606433 41.9ZM7.37499 41.8444C7.35808 41.8486 7.33402 41.8492 7.30956 41.8454C7.23842 41.8848 7.19325 41.9131 7.166 41.9332C7.1866 41.9313 7.21141 41.9313 7.24315 41.9274C7.27245 41.9242 7.29702 41.9774 7.3076 41.9684C7.30891 41.967 7.30832 41.9632 7.30858 41.9577C7.24242 41.9376 7.29345 41.8826 7.37499 41.8444ZM2.79589 41.7506C2.72527 41.8153 2.87837 41.8201 2.81346 41.9567C2.84084 41.9204 2.86957 41.8838 2.89842 41.8473C2.93612 41.9442 2.86087 41.9771 2.99803 41.9567C3.0274 41.8794 2.90298 41.9599 2.9326 41.9C2.9485 41.8647 3.02685 41.8637 3.03026 41.8444C3.03349 41.8216 2.96473 41.8421 2.97655 41.8092C2.95327 41.7968 2.93031 41.7863 2.9121 41.776C2.89643 41.7954 2.87791 41.7922 2.85839 41.7819C2.8564 41.7913 2.84983 41.7986 2.82225 41.7946C2.81654 41.7927 2.79797 41.7709 2.79589 41.7506ZM4.74022 41.9332C4.73949 41.9345 4.73899 41.9359 4.73827 41.9371C4.7492 41.9393 4.76128 41.9393 4.7744 41.9401C4.77956 41.9341 4.7839 41.9283 4.78807 41.9235C4.77221 41.9269 4.75619 41.9298 4.74022 41.9332ZM7.09081 41.8698C7.07951 41.8737 7.04899 41.8983 7.01366 41.9303C7.0291 41.9319 7.04253 41.9331 7.05467 41.9342C7.08304 41.8994 7.10172 41.873 7.09081 41.8698ZM8.68163 41.9137C8.6768 41.9507 8.59457 41.9182 8.56346 41.9235C8.56845 41.8859 8.65219 41.9193 8.68163 41.9137ZM7.92967 41.6032C7.88504 41.6151 7.8414 41.6412 7.80077 41.6745C7.79447 41.6821 7.77271 41.7005 7.76659 41.7077C7.74424 41.7248 7.72149 41.7438 7.70018 41.7653C7.69889 41.7664 7.69906 41.7693 7.69725 41.7702C7.65228 41.8161 7.61098 41.87 7.57323 41.9225C7.57894 41.9243 7.58463 41.9255 7.58983 41.9274C7.6434 41.8752 7.72668 41.7988 7.79491 41.737C7.80131 41.7295 7.82395 41.7104 7.83007 41.7028C7.87344 41.661 7.91115 41.6233 7.92967 41.6032ZM2.81053 41.9C2.838 41.84 2.73098 41.8394 2.72069 41.9118C2.72332 41.9229 2.80417 41.9068 2.81053 41.9ZM2.87108 41.7155C2.719 41.6755 2.7859 41.6445 2.74022 41.7418C2.77318 41.5419 2.71325 41.8585 2.71581 41.8707C2.73165 41.9038 2.75524 41.7465 2.75682 41.7389C2.75964 41.7198 2.77929 41.7208 2.80565 41.7262C2.81609 41.7178 2.83628 41.7128 2.87108 41.7155ZM7.80272 41.5006C7.79375 41.381 7.72641 41.4318 7.64257 41.5172C7.63748 41.5236 7.61855 41.5394 7.61327 41.5455C7.49737 41.6567 7.34026 41.8372 7.23729 41.7916C7.76743 41.332 6.79653 41.9608 7.29882 41.8444C7.27495 41.8405 7.25212 41.8357 7.23827 41.8385C7.22798 41.7692 7.35269 41.8214 7.39647 41.8131C7.39849 41.827 7.3939 41.834 7.38671 41.8395C7.43746 41.8176 7.49781 41.8029 7.54784 41.8082C7.55815 41.7597 7.56811 41.7113 7.57811 41.6627C7.67744 41.7108 7.65935 41.6539 7.66698 41.6022C7.67258 41.5956 7.69284 41.5786 7.69823 41.5719C7.70283 41.5352 7.71977 41.5003 7.80272 41.5006ZM0.702136 41.777C0.689584 41.723 0.618175 41.8303 0.657214 41.858C0.666553 41.8363 0.706245 41.7967 0.702136 41.777ZM6.72167 41.8258C6.70413 41.828 6.68401 41.8299 6.66112 41.8307C6.65201 41.8371 6.64317 41.8447 6.63378 41.8522C6.65271 41.8522 6.67007 41.8553 6.68553 41.8561C6.70182 41.8428 6.71583 41.8334 6.72167 41.8258ZM0.446276 41.7516C0.447467 41.7541 0.432185 41.8016 0.429675 41.8034C0.37004 41.8342 0.415763 41.6924 0.446276 41.7516ZM0.977526 41.3717C0.868716 41.4103 0.857386 41.4322 0.870104 41.4469C0.881098 41.4597 0.909733 41.4669 0.910143 41.4713C0.903399 41.4918 0.843677 41.5283 0.842761 41.568C0.833652 41.5241 0.824422 41.4803 0.815417 41.4352C0.814525 41.4309 0.814348 41.4259 0.813464 41.4215C0.811959 41.4238 0.8092 41.4276 0.806628 41.4323C0.77322 41.4947 0.657816 41.7384 0.682604 41.7506C0.721909 41.7693 0.731917 41.673 0.736315 41.6705C0.745667 41.6684 0.860894 41.6798 0.867175 41.6725C0.8744 41.6628 0.904457 41.549 0.934558 41.4625C0.949257 41.4207 0.965093 41.383 0.977526 41.3717ZM8.79979 41.3043C8.85637 41.3357 8.61453 41.558 8.56053 41.6325C8.57786 41.5425 8.72625 41.4002 8.79979 41.3043ZM8.72167 40.8727C8.63081 40.9391 8.10036 41.5224 8.07421 41.5641C8.07029 41.5747 8.09679 41.6096 8.10253 41.609C8.149 41.5831 8.66531 40.9699 8.72167 40.8727ZM7.40428 41.2819C7.40028 41.2867 7.38664 41.2979 7.3828 41.3024C7.34483 41.3359 7.31572 41.367 7.31835 41.3873C7.33734 41.3736 7.3693 41.3502 7.40233 41.3229L7.5078 41.2174C7.53123 41.1899 7.54744 41.1648 7.54686 41.1481C7.51907 41.1826 7.45281 41.2364 7.40428 41.2819ZM7.82518 41.3786C7.96464 41.3093 7.79297 41.2429 7.75096 41.3512C7.75117 41.358 7.81905 41.3815 7.82518 41.3786ZM0.862292 41.1315C0.922534 41.1117 0.869101 41.2522 0.862292 41.2545C0.820882 41.2702 0.813027 41.1475 0.862292 41.1315ZM0.393542 41.0065C0.413011 40.9937 0.421027 41.0879 0.399401 41.111C0.367065 41.1014 0.380871 41.015 0.393542 41.0065ZM0.352526 40.9528C0.391734 40.982 0.365401 41.0357 0.353503 41.0758C0.31417 41.0467 0.340756 40.9927 0.352526 40.9528ZM7.9746 40.945C8.06312 40.9355 8.00776 40.7827 7.9326 40.86C7.91093 40.8826 7.96416 40.9452 7.9746 40.945ZM9.24413 40.5241C9.0569 40.5874 8.87014 41.1103 9.06639 40.8288C9.06853 40.8235 8.9849 40.8332 9.07323 40.7409C9.08211 40.7337 9.14435 40.7604 9.23241 40.6188C9.2497 40.5904 9.24852 40.5231 9.24413 40.5241ZM0.670886 40.5133C0.744083 40.5154 0.649554 40.6201 0.650378 40.65C0.650633 40.6554 0.709479 40.6721 0.707995 40.7018C0.707313 40.7129 0.65276 40.7158 0.651354 40.7194C0.648201 40.7321 0.623796 40.9236 0.575183 40.8366C0.566916 40.8216 0.655887 40.5487 0.670886 40.5133ZM9.26366 40.4215C9.23025 40.444 8.96052 40.7465 9.08007 40.653C9.09166 40.644 9.28331 40.4457 9.26366 40.4215ZM0.59569 40.4489C0.598292 40.4465 0.662041 40.4512 0.638659 40.4928C0.612339 40.5393 0.568727 40.4783 0.59569 40.4489ZM8.95507 40.2536C8.91982 40.3045 8.77911 40.4214 8.80175 40.4528C8.83945 40.3999 8.97824 40.2848 8.95507 40.2536ZM0.573229 40.0856C0.578084 40.0801 0.55107 39.9528 0.636706 40.0202C0.661318 40.04 0.627043 40.1203 0.611315 40.1364C0.604785 40.1373 0.53949 40.1092 0.53612 40.1471C0.533611 40.1785 0.618302 40.1505 0.592761 40.2067C0.567106 40.2632 0.532303 40.1722 0.527331 40.1764C0.52119 40.1845 0.532573 40.2805 0.490222 40.2682C0.459401 40.2575 0.503008 40.1657 0.50194 40.1393C0.500058 40.1064 0.438836 40.1313 0.461901 40.0827C0.476645 40.0517 0.566875 40.0914 0.573229 40.0856ZM1.0244 39.9557C1.00531 39.9696 1.00898 40.1025 1.04686 40.068C1.08 40.0376 1.05552 39.9334 1.0244 39.9557ZM0.920886 40.0485C0.940931 40.0412 1.02582 39.7264 0.929675 39.8942C0.923425 39.9058 0.860512 40.0708 0.920886 40.0485ZM9.92479 39.7389C9.89135 39.7312 9.6662 39.9779 9.65819 39.9948C9.59703 40.151 9.92084 39.7656 9.92479 39.7389ZM1.24706 39.9635C1.27291 39.9774 1.26844 39.941 1.28612 39.9205L1.31737 39.86C1.3243 39.8335 1.32417 39.8021 1.30565 39.7721C1.28615 39.8361 1.26638 39.8997 1.24706 39.9635ZM10.1933 39.7272C10.2735 39.681 10.1352 39.9107 10.0566 39.945C9.98791 39.9389 10.1829 39.7344 10.1933 39.7272ZM0.711901 39.6237C0.756803 39.6638 0.701124 39.7393 0.682604 39.7829C0.646674 39.7451 0.686273 39.6599 0.711901 39.6237ZM1.28807 39.6696C1.40917 39.6207 1.26976 39.6251 1.22069 39.6823C1.26238 39.7124 1.26831 39.6776 1.28807 39.6696ZM0.986315 39.5856C0.970429 39.5962 0.969655 39.6699 0.997058 39.6735C1.04133 39.6793 1.01162 39.5699 0.986315 39.5856ZM5.3076 39.5817C5.29279 39.5781 5.27422 39.6467 5.27538 39.651C5.28586 39.6791 5.35352 39.5934 5.3076 39.5817ZM1.36913 39.6246C1.46577 39.5706 1.32308 39.519 1.30956 39.5739C1.30421 39.5952 1.35518 39.6324 1.36913 39.6246ZM0.613268 39.4811C0.624591 39.5122 0.691178 39.5293 0.675768 39.5592C0.629934 39.6478 0.613798 39.5705 0.613268 39.4811ZM1.25389 39.4186C1.22412 39.3887 1.17925 39.4911 1.18163 39.5006C1.2011 39.5473 1.31238 39.4769 1.25389 39.4186ZM0.634753 39.3229C0.689725 39.3045 0.650383 39.3872 0.651354 39.3922C0.657059 39.3981 0.840693 39.3811 0.696276 39.4918C0.675115 39.508 0.647472 39.4246 0.639636 39.4303C0.62446 39.4422 0.616637 39.4533 0.613268 39.4625C0.614455 39.3956 0.622998 39.3277 0.634753 39.3229ZM0.78612 39.3512C0.817455 39.3558 0.819823 39.4748 0.742175 39.4645C0.753359 39.442 0.766062 39.3495 0.78612 39.3512ZM1.41307 39.2389C1.39088 39.2459 1.40997 39.3766 1.40526 39.3834C1.39758 39.3906 1.34649 39.3377 1.34276 39.4049C1.36426 39.4062 1.41352 39.4577 1.42186 39.4528C1.44543 39.437 1.476 39.22 1.41307 39.2389ZM1.26854 39.3385C1.26369 39.3327 1.17299 39.3492 1.20018 39.3795C1.22194 39.4034 1.27646 39.3634 1.26854 39.3385ZM5.76464 39.0641C5.65986 39.1996 5.80366 39.1157 5.67382 39.2311C5.66237 39.1645 5.67721 39.1393 5.76464 39.0641ZM0.805651 38.8034C0.763477 38.7965 0.768232 38.9464 0.743151 38.9743C0.811244 39.0167 0.772761 38.8828 0.795886 38.8639C0.802966 38.8582 0.94113 39.0074 0.856433 38.82C0.81653 38.8983 0.820315 38.8059 0.805651 38.8034ZM5.50878 38.858C5.48602 38.8525 5.46385 38.8782 5.45116 38.9069C5.47401 38.887 5.49394 38.87 5.50878 38.858ZM0.838854 38.7282C0.952213 38.6995 0.776589 38.5399 0.775378 38.6315C0.77611 38.6415 0.83338 38.7295 0.838854 38.7282ZM6.1953 38.5592C6.24526 38.5171 6.26354 38.6335 6.18163 38.6539C6.15602 38.66 6.16784 38.5832 6.1953 38.5592ZM12.7041 36.445C12.7293 36.4214 12.8739 36.5422 12.7353 36.6149C12.7177 36.6233 12.7254 36.5272 12.708 36.5319C12.6974 36.536 12.5045 36.7661 12.5 36.7799C12.4964 36.795 12.5539 36.8145 12.5517 36.8307C12.5479 36.8493 12.3969 36.9722 12.3408 37.0504C12.2361 37.1966 12.2629 37.2431 12.2549 37.2555C12.2295 37.2917 12.1578 37.3321 12.1064 37.4039C11.8475 37.7677 11.4761 38.3463 11.1787 38.5661C11.4009 38.3399 11.5437 38.0702 11.7178 37.8073C11.7484 37.9417 11.9224 37.3868 11.8301 37.7194C11.9005 37.5825 12.6234 36.5258 12.7041 36.445ZM0.929675 38.1539C0.88491 38.1833 0.907279 38.2626 0.937487 38.2428C0.944164 38.2363 0.955743 38.1594 0.929675 38.1539ZM6.2744 38.0846C6.23847 38.2656 6.1055 38.1912 6.10839 38.1764C6.17473 38.0003 6.18686 38.1613 6.19432 38.1608C6.2097 38.155 6.24969 38.027 6.2744 38.0846ZM6.76659 37.5104C6.85252 37.4554 6.71965 37.6385 6.66796 37.6793C6.64321 37.6609 6.75338 37.5194 6.76659 37.5104ZM1.1035 37.403C1.11005 37.4438 1.02297 37.6374 1.04882 37.6481C1.0779 37.659 1.13844 37.4296 1.1035 37.403ZM7.14159 37.2848C7.04587 37.3998 7.14509 37.4384 7.05077 37.483C7.03528 37.4899 6.83803 37.3966 7.00096 37.319C7.03055 37.3046 6.99855 37.427 7.14159 37.2848ZM7.4287 37.1608C7.35665 37.1502 7.29893 37.3224 7.34764 37.2985C7.35298 37.296 7.47662 37.1691 7.4287 37.1608ZM7.8369 36.6549C8.09189 36.3334 8.49499 35.7847 7.97069 36.3707C7.94876 36.395 8.00932 36.3862 7.92382 36.487C7.91791 36.4932 7.88751 36.4758 7.8701 36.4957C7.82848 36.545 7.61163 36.7934 7.59178 36.8649C7.5863 36.8614 7.57847 36.861 7.56835 36.8649C7.47797 36.9008 7.44431 37.188 7.48436 37.1627C7.53776 37.128 7.613 36.9459 7.60155 36.8825C7.61367 36.8818 7.63597 36.8722 7.67089 36.8502L7.8369 36.6549ZM1.28807 36.9577C1.27347 36.9545 1.25113 37.0278 1.25194 37.0329C1.28348 37.1267 1.327 36.9677 1.28807 36.9577ZM7.49315 36.7858C7.42932 36.8722 7.35955 36.9428 7.28612 37.0084C7.27202 36.9711 7.46453 36.7812 7.49315 36.7858ZM1.35057 36.8151C1.34245 36.8171 1.3303 36.8161 1.31249 36.8112C1.33504 36.8061 1.34633 36.8087 1.35057 36.8151ZM1.41112 36.1842C1.46129 36.1298 1.56629 36.2178 1.49999 36.2536C1.48959 36.2574 1.34453 36.2565 1.41112 36.1842ZM1.53124 35.9733C1.5659 35.9924 1.52763 36.0517 1.50975 36.0768C1.47548 36.0654 1.52676 36.0018 1.53124 35.9733ZM12.999 35.8014C12.9848 35.8124 12.8557 36.0002 12.8808 36.0241C12.9315 35.9728 13.0933 35.7279 12.999 35.8014ZM8.30468 35.8063C8.28241 35.7703 8.17134 35.9392 8.17186 35.9459C8.17694 35.9935 8.28949 35.8561 8.30468 35.8063ZM8.1621 35.7702C8.15071 35.7439 8.01901 35.8954 8.04784 35.9284C8.07268 35.8911 8.17083 35.7904 8.1621 35.7702ZM13.4863 35.3727C13.5392 35.1756 13.0468 35.8211 13.2344 35.6911C13.2485 35.6811 13.4807 35.3911 13.4863 35.3727ZM1.68163 35.5397C1.68234 35.5427 1.66237 35.594 1.65917 35.5973C1.59492 35.63 1.65819 35.4709 1.68163 35.5397ZM6.34764 35.3815C6.41382 35.3878 6.36528 35.476 6.3496 35.486C6.34303 35.4902 6.26204 35.3731 6.34764 35.3815ZM6.19237 35.2252C6.17111 35.1414 6.49148 35.0234 6.3662 35.2321H6.36717C6.3359 35.2836 6.30998 35.2374 6.30663 35.237C6.20345 35.3379 6.30218 35.339 6.30663 35.362C6.31413 35.4111 6.20845 35.3651 6.22753 35.4508C6.20405 35.3113 6.19273 35.4274 6.15331 35.4157C5.99161 35.3707 6.28256 35.2902 6.27245 35.2204C6.27096 35.2105 6.19955 35.2504 6.19237 35.2252ZM6.8496 35.3825C6.78534 35.4087 6.85103 35.264 6.87303 35.3307C6.87334 35.3345 6.85222 35.3811 6.8496 35.3825ZM6.04393 34.986C6.09073 34.9511 6.06199 35.0624 6.03612 35.0885C6.01256 35.0805 6.03988 34.989 6.04393 34.986ZM1.93456 34.9254C1.96351 34.9361 1.93329 35.0295 1.92675 35.0348C1.88737 35.0574 1.88488 34.9492 1.93456 34.9254ZM8.92675 34.7975C8.87059 34.8414 8.85888 34.9559 8.93065 34.8815C8.99408 34.8155 8.93147 34.7942 8.92675 34.7975ZM2.30858 34.776C2.24938 34.773 2.26465 34.8619 2.23632 34.901C2.30323 34.9018 2.28954 34.8199 2.30858 34.776ZM2.41405 34.7565C2.36791 34.754 2.3491 34.8456 2.34276 34.8815C2.4012 34.8851 2.38634 34.7943 2.41405 34.7565ZM2.21874 34.7584C2.21354 34.76 2.1841 34.8579 2.21092 34.8678C2.22875 34.8275 2.27559 34.7502 2.21874 34.7584ZM1.9746 34.6774C1.975 34.6069 1.79999 34.4229 1.99706 34.5455C1.98071 34.6445 1.965 34.7422 1.94921 34.8414C1.90481 34.7909 1.97354 34.729 1.9746 34.6774ZM2.34862 34.5465C2.29773 34.5585 2.30929 34.6855 2.33202 34.6745C2.33866 34.6707 2.37579 34.5406 2.34862 34.5465ZM1.82616 34.6735C1.77309 34.6222 1.86288 34.5184 1.8662 34.5778C1.86676 34.5943 1.83247 34.6476 1.82616 34.6735ZM5.74999 34.3414C5.76811 34.3441 5.76315 34.3589 5.76171 34.3766C5.74314 34.3986 5.72321 34.425 5.69823 34.4538C5.6143 34.538 5.6222 34.516 5.61815 34.5153C5.60532 34.5209 5.64726 34.4816 5.71385 34.3942C5.7275 34.3751 5.73912 34.3573 5.74999 34.3414ZM5.95214 34.3004C5.99005 34.318 5.89995 34.4728 5.88866 34.5036C5.85884 34.4725 5.90963 34.2775 5.95214 34.3004ZM10.1221 33.0123C10.1217 33.0009 10.0108 33.0531 9.99608 33.0797C9.97508 33.1175 10.0396 33.1109 10.0137 33.15C9.92843 33.2786 9.81953 33.3768 9.73827 33.4977C9.73183 33.508 9.81744 33.4443 9.75389 33.5368C9.74311 33.5518 9.64224 33.6062 9.57128 33.7233C9.53565 34.0613 9.28029 34.1525 9.11132 34.4948C9.13329 34.4903 9.3269 34.2835 9.33788 34.2702C9.54265 34.0237 9.86454 33.5606 10.0517 33.2829C10.0991 33.2128 10.048 33.2279 10.0674 33.1969C10.0827 33.1725 10.116 33.236 10.1504 33.1422C10.1662 33.0982 10.0312 33.1778 10.0381 33.1442C10.0429 33.1227 10.1211 33.0515 10.1221 33.0123ZM2.49608 34.2985C2.48881 34.3025 2.47307 34.4398 2.46288 34.4625C2.53408 34.449 2.54919 34.274 2.49608 34.2985ZM5.90917 34.2086C5.95609 34.1819 5.97721 34.2038 5.96483 34.2106C5.87059 34.286 5.82454 34.1819 5.84764 34.4625C5.80544 34.3317 5.79163 34.4348 5.76659 34.403C5.76104 34.3956 5.76094 34.386 5.76171 34.3766C5.87412 34.2434 5.88133 34.2251 5.90917 34.2086ZM8.88085 34.3815C9.16324 33.9065 9.35273 33.9521 9.00585 34.3229C8.99758 34.3312 8.8775 34.4185 8.88085 34.3815ZM5.27928 34.2819C5.32064 34.2525 5.3049 34.3459 5.27928 34.3678C5.25368 34.3605 5.27275 34.289 5.27928 34.2819ZM14.4199 34.1413C14.4459 34.1704 14.324 34.2969 14.2939 34.3532C14.2689 34.3232 14.3902 34.1974 14.4199 34.1413ZM5.8496 34.1618C5.83839 34.1762 5.85557 34.1871 5.74999 34.3414C5.74446 34.3406 5.73721 34.3391 5.72655 34.3414C5.76322 34.3296 5.79646 34.2729 5.82128 34.2213C5.83359 34.1958 5.84407 34.1706 5.8496 34.1588C5.85205 34.1536 5.85394 34.1501 5.8496 34.1618ZM4.72753 33.9996C4.73798 34.0555 4.66825 34.1421 4.66991 34.1901C4.67021 34.1958 4.81637 34.2214 4.70214 34.2487C4.62577 34.2655 4.6515 34.0183 4.72753 33.9996ZM4.2246 34.2047C4.2189 34.2068 4.21274 34.2085 4.20702 34.2106C4.25285 34.2452 4.26799 34.2378 4.27733 34.2243C4.28405 34.2141 4.28835 34.2013 4.29784 34.1969C4.31947 34.1878 4.37591 34.1972 4.36132 34.153C4.31557 34.1705 4.27054 34.1867 4.2246 34.2047ZM2.85546 34.151C2.84657 34.1224 2.75366 34.1844 2.79003 34.2106C2.81308 34.2261 2.86057 34.1703 2.85546 34.151ZM5.51464 34.0729C5.5401 34.0805 5.52106 34.1502 5.51464 34.1559C5.47331 34.1847 5.48999 34.0913 5.51464 34.0729ZM5.40819 34.0221C5.42008 34.0232 5.40498 34.1119 5.39354 34.1198C5.33362 34.1559 5.34588 34.0123 5.40819 34.0221ZM9.61425 33.5914C9.58808 33.5594 9.49658 33.7312 9.51854 33.7663C9.54059 33.735 9.62007 33.6029 9.61425 33.5914ZM9.65428 33.3668C9.59018 33.4569 9.43285 33.6815 9.59569 33.5641C9.62717 33.5414 9.67524 33.4569 9.708 33.4166C9.56117 33.5154 9.71565 33.3999 9.65428 33.3668ZM15.1914 33.2018C15.205 33.2797 15.0936 33.4055 15.0361 33.4948C15.0241 33.4296 15.1422 33.2784 15.1914 33.2018ZM9.81249 33.3034C9.80385 33.2761 9.81157 33.1376 9.7578 33.2262C9.73356 33.2675 9.75602 33.3742 9.81249 33.3034ZM10.1445 32.7184C10.1249 32.7673 9.70791 33.3097 9.84569 33.2272C9.86827 33.214 10.2371 32.7343 10.1445 32.7184ZM15 32.8727C14.975 32.8912 14.9171 33.0119 14.9307 33.025C14.9732 33.0622 15.0996 32.8006 15 32.8727ZM9.9785 32.8278C9.93151 32.8509 9.91712 32.9716 9.98632 32.9391C10.0239 32.8939 9.98893 32.8225 9.9785 32.8278ZM15.6357 32.567C15.6339 32.5739 15.5505 32.6994 15.5449 32.7038C15.4367 32.7806 15.6707 32.4275 15.6357 32.567ZM10.5713 32.4274C10.5057 32.47 10.5516 32.5151 10.543 32.5299C10.532 32.5465 10.2413 32.8443 10.5488 32.6149C10.5655 32.6021 10.6665 32.3651 10.5713 32.4274ZM10.5771 31.9655C10.5575 31.932 10.463 32.0982 10.4853 32.1422C10.519 32.1018 10.5926 31.993 10.5771 31.9655ZM15.9639 31.8366C16.0336 31.8548 15.854 32.0504 15.8135 32.1334C15.7428 32.1157 15.9248 31.9182 15.9639 31.8366ZM10.9795 31.4957C10.9404 31.5272 10.7185 31.8837 10.8428 31.7887C10.8576 31.7773 11.1101 31.3913 10.9795 31.4957ZM15.7588 31.5573C15.6932 31.5902 15.7256 31.714 15.7842 31.6832C15.8184 31.637 15.7657 31.5539 15.7588 31.5573ZM16.4892 30.7086C16.4996 30.7164 16.4994 30.7434 16.4951 30.777C16.4773 30.9387 16.2787 31.3479 16.2099 31.4957C16.1831 31.5499 16.1395 31.6188 16.124 31.6539C16.1113 31.6113 16.1495 31.5447 16.1894 31.484C16.2574 31.3379 16.454 30.9323 16.4717 30.7721C16.4776 30.7498 16.484 30.7281 16.4892 30.7086ZM16.1758 30.6286C16.1723 30.569 16.1073 30.6179 16.1025 30.692C16.0874 30.8269 15.9233 31.167 15.8662 31.2897C15.8561 31.3136 15.8507 31.342 15.8555 31.3737C15.8638 31.3544 15.8817 31.3313 15.9004 31.3102C15.9587 31.1849 16.1274 30.8371 16.1426 30.6998C16.1579 30.6652 16.176 30.6334 16.1758 30.6286ZM11.5371 30.4479C11.632 30.446 11.5527 30.5985 11.4639 30.6784C11.443 30.6965 11.3258 30.7336 11.3701 30.6334C11.4502 30.6869 11.5696 30.5641 11.5371 30.4479ZM11.7617 30.4371C11.7788 30.4933 11.7046 30.5879 11.6592 30.6539C11.6406 30.6213 11.7338 30.4881 11.7617 30.4371ZM16.168 30.5856C16.2579 30.4725 16.1412 30.4539 16.1221 30.5475C16.1154 30.58 16.1638 30.5887 16.168 30.5856ZM11.8623 30.0377C11.9911 29.8572 12.0892 30.0547 11.8047 30.3717C11.8029 30.353 11.8006 30.3338 11.7988 30.3151C11.4756 30.7633 11.7639 30.3383 11.8232 30.2145C11.8451 30.1683 11.7868 30.1817 11.8057 30.1393L11.8623 30.0377ZM16.751 29.5719C16.7946 29.5808 16.7815 29.5751 16.7695 29.6412C16.5853 30.6816 16.4912 30.4254 16.751 29.5719ZM11.958 29.943C11.9461 29.8448 12.1402 29.6251 12.1006 29.7594C12.0944 29.7798 11.982 29.8926 11.958 29.943ZM12.542 29.4186L12.3896 29.8034C12.3766 29.8246 12.3634 29.8453 12.3506 29.8659C12.3466 29.8675 12.341 29.8677 12.3359 29.8707L12.4346 29.6198C12.4368 29.6256 12.4372 29.6294 12.4404 29.6295C12.4542 29.6082 12.4654 29.5664 12.4756 29.5162L12.5332 29.3707C12.5408 29.3655 12.5487 29.3599 12.5557 29.3532C12.5512 29.3746 12.5466 29.3964 12.542 29.4186ZM12.4355 29.2789C12.42 29.3275 12.3995 29.3873 12.3896 29.4469C12.3985 29.4272 12.4115 29.4032 12.4277 29.3766C12.4262 29.4021 12.4256 29.4279 12.4248 29.4528L12.2666 29.8561C12.309 29.7018 12.3616 29.5261 12.3594 29.4586L12.4365 29.2643C12.4361 29.2691 12.436 29.274 12.4355 29.2789ZM12.3008 29.4606C12.3437 29.4178 12.3582 29.4231 12.3594 29.4586L12.208 29.8424C12.2068 29.772 12.1997 29.746 12.1543 29.8307L12.2324 29.6325C12.2341 29.6353 12.2332 29.6376 12.2344 29.6354C12.2356 29.6329 12.2345 29.6293 12.2353 29.6256L12.3008 29.4606ZM12.2119 29.6071L12.126 29.8248C12.1718 29.6122 12.1961 29.5925 12.2119 29.6071ZM16.4053 29.4743C16.3925 29.5592 16.2968 29.7601 16.3672 29.7536C16.3748 29.6851 16.4307 29.5134 16.4053 29.4743ZM12.3008 29.4606C12.2869 29.4744 12.2696 29.4927 12.25 29.5172C12.2401 29.5296 12.2426 29.5954 12.2353 29.6256L12.2324 29.6325C12.2287 29.626 12.2195 29.614 12.2119 29.6071L12.2695 29.4606C12.2748 29.4558 12.2814 29.449 12.2881 29.4381C12.2929 29.4302 12.2922 29.4162 12.293 29.402L12.3486 29.2604C12.3689 29.2399 12.3864 29.2233 12.4004 29.2106L12.3008 29.4606ZM12.4521 29.1559C12.4969 29.1034 12.5069 29.2084 12.499 29.3346C12.5156 29.32 12.5403 29.3101 12.5596 29.3063L12.5332 29.3707C12.5177 29.3814 12.5033 29.3874 12.4932 29.3854C12.4887 29.4306 12.4837 29.4762 12.4756 29.5162L12.4346 29.6198C12.4255 29.5958 12.4222 29.5293 12.4248 29.4528L12.498 29.2702C12.4722 29.3081 12.4475 29.3442 12.4277 29.3766C12.4298 29.3427 12.4329 29.3092 12.4355 29.2789C12.4401 29.2647 12.4436 29.2508 12.4473 29.2389L12.4365 29.2643C12.4421 29.2042 12.4485 29.1602 12.4521 29.1559ZM12.2783 29.3551C12.2917 29.347 12.2944 29.3749 12.293 29.402L12.2695 29.4606C12.2306 29.496 12.2301 29.3848 12.2783 29.3551ZM12.3486 29.2604C12.3401 29.269 12.3311 29.2786 12.3213 29.2887C12.3409 29.2536 12.3589 29.2229 12.375 29.1959L12.3486 29.2604ZM17.1914 27.7575C17.2629 27.7474 17.1643 28.0667 17.1435 28.0895C17.0623 28.1766 17.1995 27.7897 17.1914 27.7575ZM17.1035 27.8102C17.0186 27.8927 17.1604 27.4202 17.1533 27.653C17.1522 27.666 17.1075 27.8065 17.1035 27.8102ZM13.0469 26.9411C13.0526 27.0011 13.0108 27.0978 12.9971 27.1686C12.9711 27.1486 13.0119 26.959 13.0469 26.9411ZM17.042 26.7692C17.0318 26.7785 16.9834 26.9279 17.0127 26.9323C17.0502 26.9366 17.0707 26.7493 17.042 26.7692ZM13.0723 26.6227C13.069 26.7192 13.0251 26.8273 13.0049 26.9245C12.9869 26.8791 13.0282 26.6546 13.0723 26.6227ZM17.251 25.2438C17.2258 25.3014 17.2111 25.51 17.2539 25.4215C17.2606 25.405 17.2783 25.2423 17.251 25.2438ZM17.7461 23.8317C17.7671 24.0138 17.8621 23.9258 17.8154 24.1207C17.806 24.103 17.7966 24.0848 17.7871 24.067C17.7843 24.352 17.6893 24.6714 17.6435 24.9928C17.632 25.0739 17.7141 24.9903 17.6797 25.0944C17.652 25.1779 17.5736 25.2618 17.5664 25.2135C17.5656 25.1999 17.6325 25.0348 17.6406 24.9469C17.6642 24.6858 17.595 24.7438 17.5957 24.7282C17.5973 24.7094 17.6598 24.5554 17.6689 24.4664C17.6917 24.2403 17.667 24.1355 17.7461 23.8317ZM17.8262 22.6422C17.8403 22.6491 17.8226 22.8106 17.8193 22.819C17.8181 22.8215 17.8166 22.8238 17.8154 22.8258C17.8596 22.7934 17.8189 23.3567 17.8877 23.2399C17.9083 23.406 17.8005 23.2105 17.8232 23.3356C17.8315 23.3778 17.9526 23.4292 17.8701 23.6403L17.8525 23.6647C17.8349 23.6708 17.8195 23.6302 17.8105 23.6383C17.8049 23.6445 17.7247 23.8341 17.7305 23.6686C17.738 23.4174 17.8257 23.6537 17.8389 23.5202C17.8407 23.5039 17.7935 23.2438 17.7773 23.2575C17.7757 23.2602 17.7835 23.3372 17.7764 23.3493C17.7494 23.3944 17.7123 23.3681 17.7099 23.3746C17.7042 23.3961 17.7345 23.8022 17.6699 23.8551C17.6516 23.8671 17.6672 23.2132 17.6767 23.1871C17.6847 23.1716 17.7909 23.1857 17.8027 23.1696C17.8087 23.158 17.7873 22.8925 17.7988 22.859C17.8022 22.8493 17.8057 22.842 17.8086 22.8366C17.7731 22.8743 17.7891 22.6332 17.8262 22.6422ZM17.4746 23.5338C17.4604 23.5078 17.3827 23.6797 17.3955 23.734C17.4264 23.8567 17.5036 23.5863 17.4746 23.5338ZM13.6728 23.528C13.5736 23.8191 13.732 22.3667 13.7637 23.2194C13.7447 23.1777 13.7252 23.1359 13.706 23.0944C13.6793 23.2 13.6755 23.3325 13.7119 23.3385C13.706 23.3402 13.6993 23.3451 13.6924 23.3532C13.6855 23.3614 13.6907 23.4791 13.6728 23.528ZM17.5547 22.7584C17.5479 22.9773 17.6389 22.737 17.5664 23.025C17.6443 22.9146 17.6486 22.7147 17.5547 22.7584ZM13.582 22.6559C13.6499 22.6451 13.5907 22.8707 13.581 22.9137C13.5529 22.8942 13.5333 22.6637 13.582 22.6559ZM13.6514 21.8639C13.6534 21.87 13.6453 22.0027 13.6426 22.0084C13.5883 22.1139 13.6107 21.7427 13.6514 21.8639ZM17.6875 21.8121C17.681 21.6696 17.5045 21.5202 17.5303 21.695C17.5331 21.7133 17.6619 21.8266 17.6875 21.8121ZM17.7099 20.8483C17.7021 20.9091 17.7354 21.2362 17.7422 21.2487C17.8075 21.335 17.7861 20.8844 17.7099 20.8483ZM13.7715 20.6452C13.7589 20.6979 13.7802 20.8741 13.8076 20.7955C13.8194 20.7618 13.8026 20.6545 13.7715 20.6452ZM13.7285 20.2819C13.7102 20.379 13.7534 20.5504 13.7861 20.4664C13.7928 20.4469 13.7525 20.287 13.7285 20.2819ZM13.8867 20.1842C13.994 19.8655 13.7701 20.0511 13.7939 20.1032C13.7975 20.1102 13.883 20.1906 13.8867 20.1842ZM13.8096 19.5397C13.8006 19.5907 13.7564 19.6096 13.7695 19.6315C13.7741 19.639 13.8188 19.636 13.833 19.6618C13.8256 19.6211 13.8173 19.5804 13.8096 19.5397ZM13.498 19.3717C13.5145 19.4455 13.5416 19.5182 13.4932 19.5485C13.4959 19.5001 13.4616 19.3671 13.498 19.3717ZM13.4717 18.5817C13.5202 18.6232 13.5339 18.9375 13.5019 19.0114C13.4354 18.9539 13.4133 18.5334 13.4717 18.5817ZM13.543 18.0368C13.5089 18.0384 13.533 18.2472 13.5381 18.2545C13.6166 18.3616 13.5614 18.1221 13.543 18.0368ZM13.4238 17.9694C13.4184 18.0033 13.453 18.2158 13.4863 18.1481C13.5197 18.0802 13.4328 17.9222 13.4238 17.9694ZM13.5088 17.7096C13.4975 17.7671 13.5462 18.0522 13.5625 17.9264C13.564 17.9158 13.5382 17.7007 13.5088 17.7096ZM13.3642 17.61C13.3467 17.6533 13.4217 17.7468 13.4482 17.6764C13.4472 17.6377 13.3664 17.6049 13.3642 17.61ZM13.3203 17.1745C13.3173 17.1805 13.3194 17.3056 13.3564 17.318C13.3902 17.2596 13.3556 17.1233 13.3203 17.1745ZM13.0859 17.0153C13.0891 17.0218 13.1085 17.1167 13.1074 17.1207C13.0788 17.219 13.0189 16.926 13.0859 17.0153ZM13.3154 16.8834C13.2674 16.7937 13.2826 17.042 13.334 17.0641C13.3271 17.0195 13.3325 16.9155 13.3154 16.8834ZM13.248 15.9635C13.1334 16.2296 13.2618 16.167 13.2666 16.1862C13.2759 16.227 13.2543 16.3325 13.2822 16.4049C13.239 16.3248 13.1948 16.2442 13.1504 16.1637C13.1593 16.2352 13.2511 16.8436 13.2812 16.8493C13.3263 16.8557 13.2671 16.6746 13.2685 16.6666C13.2717 16.6575 13.3765 16.599 13.3779 16.5797C13.3779 16.5455 13.2457 16.0544 13.248 15.9635ZM12.5019 15.7438C12.5083 15.7098 12.5849 15.8603 12.584 15.9127C12.5507 15.9181 12.4985 15.7672 12.5019 15.7438ZM12.4287 15.6832C12.4821 15.7034 12.5013 15.8144 12.5205 15.8864C12.4678 15.8658 12.4491 15.7559 12.4287 15.6832ZM12.9746 15.6315C13.0081 15.5579 13.0695 15.8222 13.0674 15.8385C13.0457 15.8945 12.9475 15.6936 12.9746 15.6315ZM12.332 14.7399C12.3911 14.69 12.404 14.9283 12.4287 14.9782C12.4332 14.9868 12.492 14.9733 12.5146 15.0221C12.5229 15.0406 12.4827 15.0837 12.4844 15.0905C12.4917 15.1112 12.6236 15.446 12.5156 15.3346C12.4984 15.3138 12.3517 14.8094 12.332 14.7399ZM12.2207 14.6881C12.2207 14.6824 12.2744 14.6438 12.291 14.7291C12.3095 14.8253 12.2241 14.7557 12.2207 14.6881ZM11.8877 13.9752L11.915 14.0065C11.9427 14.0566 11.9681 14.1509 11.9697 14.1793C11.9699 14.1859 11.8908 14.1882 11.9219 14.2526C11.9468 14.3042 11.9879 14.1971 12.0166 14.3053C12.0446 14.4121 11.9441 14.2983 11.9404 14.3043C11.9406 14.3185 12.0337 14.4672 11.9902 14.4782C11.9582 14.4862 11.9132 14.3059 11.8896 14.2653C11.8599 14.2139 11.8345 14.3002 11.8096 14.2047C11.7938 14.1446 11.8944 14.1404 11.8955 14.1266C11.895 14.1141 11.764 13.9336 11.8877 13.9752ZM12.125 13.8073C12.1355 13.7814 11.9112 13.2165 11.9932 13.5563C11.9991 13.5778 12.0997 13.8884 12.125 13.8073ZM12.1191 13.5817C12.1177 13.6181 12.2384 13.8268 12.2353 13.7418C12.2327 13.6682 12.1224 13.5235 12.1191 13.5817ZM11.8457 13.3454C11.864 13.3801 11.9109 13.5497 11.917 13.5563C12.0118 13.6551 11.924 13.4047 11.8457 13.3454ZM11.5859 13.2975C11.6559 13.3251 11.6857 13.4899 11.7109 13.5709C11.6508 13.5403 11.6011 13.374 11.5859 13.2975ZM12.29 13.4235C12.3214 13.4257 12.2843 13.3703 12.2783 13.3239C12.2716 13.2709 12.237 13.1367 12.1533 13.069C12.2001 13.1878 12.2458 13.3062 12.29 13.4235ZM11.3838 13.1579C11.4206 13.1956 11.4836 13.1698 11.5 13.2272C11.5477 13.3976 11.4665 13.2927 11.3838 13.1579ZM11.749 13.026C11.7469 13.0539 11.8144 13.1685 11.8379 13.1539C11.8754 13.1285 11.753 12.9826 11.749 13.026ZM11.251 12.9C11.2729 12.8274 11.3242 12.9909 11.3281 12.9928C11.3382 12.9957 11.453 12.8275 11.4531 13.108C11.453 13.1493 11.3568 13.0454 11.3564 13.0602C11.3568 13.0905 11.36 13.1129 11.3662 13.1295C11.3051 13.027 11.2471 12.9165 11.251 12.9ZM11.3848 12.8229C11.4114 12.8047 11.5256 12.9859 11.4599 13.0309C11.4467 12.9871 11.369 12.836 11.3848 12.8229ZM12.0439 12.9215C12.0846 12.7486 11.9886 12.8649 12.0068 12.9928C12.066 13.0081 12.0375 12.9499 12.0439 12.9215ZM12.0596 12.7858C12.0759 12.6233 11.9254 12.656 11.9687 12.7536C11.9856 12.7916 12.057 12.809 12.0596 12.7858ZM11.7793 12.5543C11.7291 12.5314 11.798 12.7313 11.8076 12.7409C11.8662 12.7984 11.8775 12.5998 11.7793 12.5543ZM11.7109 12.4157C11.703 12.4069 11.6536 12.5097 11.7031 12.5358C11.7417 12.5559 11.7409 12.4489 11.7109 12.4157ZM11.709 12.1364C11.7038 12.1564 11.7678 12.2506 11.8115 12.3151C11.8326 12.346 11.8495 12.37 11.8506 12.3746C11.8523 12.3922 11.7633 12.3501 11.8281 12.4606C11.8442 12.4451 11.9279 12.4853 11.9297 12.4713C11.93 12.4523 11.8953 12.3738 11.8525 12.2965C11.7944 12.1912 11.7227 12.0891 11.709 12.1364ZM10.9053 11.9381C10.9585 12.0949 10.8668 11.9469 10.8545 11.9557C10.8195 11.9807 10.9736 12.2088 10.9834 12.2721C11.0726 12.282 10.914 12.1068 10.9101 12.0582C10.9092 12.0437 11.1536 12.1606 10.9053 11.9381ZM15.957 12.0114C15.9279 12.0198 15.999 12.2474 16.0557 12.2496C16.0365 12.2074 15.9757 12.0068 15.957 12.0114ZM10.8398 11.8991C10.7762 11.7802 10.7149 11.9185 10.7939 11.9733C10.8001 11.9744 10.8432 11.9075 10.8398 11.8991ZM10.8008 11.8112C10.8471 11.6719 10.5671 11.5763 10.6592 11.7164C10.6683 11.73 10.7984 11.8176 10.8008 11.8112ZM10.2695 10.8629C10.2711 10.945 10.369 11.0465 10.3682 10.9909C10.3679 10.9784 10.2921 10.8469 10.2695 10.8629ZM9.58495 9.60902C9.63275 9.66049 9.7864 10.0193 9.81346 10.0114C9.84044 9.99644 9.63468 9.61472 9.58495 9.60902ZM14.6465 9.33949C14.6337 9.34744 14.7007 9.4847 14.707 9.49281C14.7464 9.53406 14.6891 9.31775 14.6465 9.33949ZM9.2119 8.81019C9.19936 8.81868 9.26856 8.94558 9.27343 8.94984C9.39493 9.05343 9.2461 8.78854 9.2119 8.81019ZM9.09081 8.55433C9.08836 8.56465 9.08096 8.57414 9.06542 8.58363C9.07281 8.55593 9.08128 8.54931 9.09081 8.55433ZM13.9141 7.85805C13.8359 7.84121 14.0086 8.202 14.0049 8.08461C14.0037 8.05771 13.9381 7.90446 13.9141 7.85805ZM8.41405 7.62465C8.37984 7.50343 8.53744 7.52154 8.54296 7.63539C8.54197 7.65042 8.46082 7.7882 8.41405 7.62465ZM13.7724 7.38734C13.8547 7.42135 13.9391 7.72662 13.8935 7.69105C13.8831 7.68155 13.7334 7.37959 13.7724 7.38734ZM8.23632 7.22328C8.27705 7.21495 8.32613 7.33518 8.34471 7.38539C8.31341 7.40281 8.26725 7.26677 8.23632 7.22328ZM7.80663 6.49184C7.81098 6.4957 7.86427 6.5886 7.86424 6.59242C7.86983 6.69873 7.71254 6.42201 7.80663 6.49184ZM7.19042 5.42641C7.21618 5.4081 7.31863 5.56535 7.3203 5.5768C7.32864 5.64571 7.19506 5.50617 7.19042 5.42641ZM7.09374 5.30043C7.01091 5.27958 6.96785 5.13006 6.90428 5.06215C6.81565 4.96755 6.51289 4.91737 6.75194 4.86879C6.866 5.0111 6.98049 5.15662 7.09374 5.30043ZM6.73143 5.04457C6.75181 5.06432 6.80315 5.17102 6.83104 5.20961C6.74525 5.19952 6.6563 4.97104 6.73143 5.04457ZM7.17772 4.84437C7.14847 4.90319 7.26488 5.00225 7.29979 5.08266C7.33121 5.01423 7.22522 4.92362 7.17772 4.84437ZM7.11522 4.91469C7.11563 4.92323 7.22261 5.07899 7.24706 5.0641C7.20591 4.99342 7.13052 4.84457 7.11522 4.91469ZM7.20018 4.70668C7.17582 4.75138 7.28316 4.894 7.32421 4.94691C7.35597 4.89145 7.23608 4.78669 7.20018 4.70668ZM6.90819 4.50258C6.90183 4.57297 7.06634 4.72578 7.06053 4.68519C7.05623 4.66986 6.9126 4.46667 6.90819 4.50258ZM6.65721 4.02699C6.65817 4.03797 6.82945 4.23557 6.85253 4.27504C6.86559 4.18028 6.64735 3.93719 6.65721 4.02699ZM6.61522 3.45082C6.57332 3.42133 6.61935 3.60638 6.666 3.59828C6.69566 3.59421 6.6419 3.47005 6.61522 3.45082ZM7.20799 2.04262C7.31871 2.03646 7.22567 1.96035 7.22069 1.92055C7.21583 1.88392 7.24856 1.83404 7.18456 1.79359C7.19099 1.87454 7.19896 1.95755 7.20799 2.04262ZM7.09862 1.17348C7.18306 1.24028 7.27836 1.43468 7.34276 1.49379C7.35087 1.50105 7.43695 1.37 7.43553 1.53676C7.43242 1.64595 7.09974 1.28554 7.09862 1.17348ZM9.32225 1.2057C9.19777 1.11092 9.13689 0.569827 9.39159 1.01527V1.0143C9.45307 1.12277 9.38453 1.09046 9.37889 1.09144C9.49012 1.36245 9.52319 1.24468 9.5576 1.27504C9.63043 1.33897 9.52633 1.38968 9.65721 1.49769C9.44924 1.31632 9.608 1.49914 9.58007 1.52992C9.45667 1.64617 9.44835 1.19736 9.34276 1.10609C9.32832 1.0936 9.36082 1.23463 9.32225 1.2057ZM9.5996 1.25551C9.63174 1.18896 9.74026 1.37523 9.74999 1.4098C9.75284 1.4223 9.55698 1.34174 9.5996 1.25551ZM8.93163 1.03285C8.89787 0.928955 9.04801 1.12293 9.07518 1.1891C9.05798 1.20812 8.93368 1.04042 8.93163 1.03285ZM7.68163 0.929335C7.65528 0.843371 7.77915 0.986823 7.80272 1.04848C7.78313 1.06718 7.68596 0.942241 7.68163 0.929335ZM9.70604 0.573866C9.71172 0.579479 9.77084 0.671118 9.77343 0.678358C9.78978 0.791529 9.60223 0.50129 9.70604 0.573866ZM7.35741 0.427382C7.36528 0.41854 7.48481 0.556352 7.49217 0.580702C7.52093 0.694987 7.32669 0.490814 7.35741 0.427382ZM7.66991 0.0221085C7.70476 0.00279224 7.77657 -0.021716 7.79979 0.0357803C7.89184 0.269976 7.71791 0.163663 8.12889 0.530897C7.92658 0.394858 8.06963 0.554851 8.01659 0.539687C7.97271 0.525365 7.91916 0.411074 7.916 0.501601C7.90376 0.381894 7.64707 0.0498964 7.65038 0.0367569L7.66991 0.0221085ZM7.93065 0.184218C7.97281 0.171724 8.158 0.481924 8.19921 0.539687C8.14282 0.526948 7.88837 0.207383 7.93065 0.184218ZM7.46385 0.374648C7.48615 0.360093 7.57508 0.471614 7.58397 0.490858C7.61149 0.578 7.48241 0.428836 7.46385 0.374648Z" fill="#191820"/>
</svg>
