<svg width="50" height="50" viewBox="0 0 50 50" fill="none" xmlns="http://www.w3.org/2000/svg">
<g clip-path="url(#clip0_58_10967)">
<path d="M50 29.0514C50 28.0958 45.9792 28.3569 45.6597 27.6625C45.3403 26.9681 50.1153 21.2958 49.4208 20.0236C48.7264 18.7514 42.3569 21.6444 41.9556 21.0069C41.5556 20.3708 42.3611 16.1458 41.6667 15.625C40.9722 15.1042 34.375 22.4528 33.4486 21.5861C32.5222 20.7194 35.5903 7.00278 34.9569 6.72778C34.3236 6.45278 30.2083 8.62361 29.6889 8.50833C29.1694 8.39167 25.9472 0 25 0C24.0528 0 20.8306 8.39167 20.3111 8.50694C19.7917 8.62222 15.6764 6.45139 15.0431 6.72639C14.4097 7.00139 17.4764 20.7167 16.55 21.5847C15.625 22.4528 9.02778 15.1042 8.33333 15.625C7.63889 16.1458 8.44444 20.3708 8.04444 21.0069C7.64305 21.6431 1.27361 18.75 0.579167 20.0236C-0.115278 21.2972 4.66111 26.9681 4.34028 27.6625C4.01944 28.3569 0 28.0958 0 29.0514C0 30.0069 11.7194 36.3222 12.5 37.0667C13.2806 37.8111 8.45278 40.9583 9.14306 41.5514C9.94306 42.2403 14.475 40.3986 23.6111 40.2222V48.6111C23.6111 48.9795 23.7574 49.3327 24.0179 49.5932C24.2784 49.8537 24.6316 50 25 50C25.3684 50 25.7216 49.8537 25.9821 49.5932C26.2426 49.3327 26.3889 48.9795 26.3889 48.6111V40.2222C35.5236 40.3986 40.0569 42.2403 40.8569 41.5514C41.5458 40.9569 36.7194 37.8097 37.5 37.0667C38.2806 36.3236 50 30.0056 50 29.0514Z" fill="#DD2E44"/>
</g>
<defs>
<clipPath id="clip0_58_10967">
<rect width="50" height="50" fill="white"/>
</clipPath>
</defs>
</svg>
