<svg width="414" height="81" viewBox="0 0 414 81" fill="none" xmlns="http://www.w3.org/2000/svg">
<path d="M177.326 21.979C176.768 21.979 176.355 21.886 176.086 21.7C175.838 21.5347 175.683 21.3177 175.621 21.049C175.559 20.7597 175.528 20.4394 175.528 20.088V8.49404C175.528 8.16338 175.559 7.86371 175.621 7.59505C175.683 7.32638 175.849 7.11971 176.117 6.97505C176.386 6.80971 176.799 6.72705 177.357 6.72705C177.853 6.72705 178.225 6.78905 178.473 6.91304C178.721 7.03705 178.887 7.19205 178.969 7.37805C179.052 7.56405 179.093 7.75004 179.093 7.93604C179.114 8.12204 179.135 8.26671 179.155 8.37005L179.031 9.36204C179.155 9.03138 179.362 8.71105 179.651 8.40105C179.941 8.09105 180.292 7.81204 180.705 7.56404C181.119 7.29538 181.563 7.08871 182.038 6.94405C182.534 6.77871 183.041 6.69604 183.557 6.69604C184.529 6.69604 185.397 6.87171 186.161 7.22304C186.926 7.57438 187.577 8.07038 188.114 8.71105C188.672 9.35171 189.096 10.1164 189.385 11.005C189.675 11.873 189.819 12.8547 189.819 13.95V20.119C189.819 20.4704 189.778 20.7907 189.695 21.08C189.633 21.3487 189.478 21.5657 189.23 21.731C188.982 21.8964 188.559 21.979 187.959 21.979C187.381 21.979 186.957 21.886 186.688 21.7C186.42 21.5347 186.254 21.3177 186.192 21.049C186.13 20.7597 186.099 20.4394 186.099 20.088V13.919C186.099 13.175 185.965 12.5344 185.696 11.997C185.448 11.4597 185.076 11.0464 184.58 10.757C184.105 10.4677 183.495 10.323 182.751 10.323C182.028 10.323 181.398 10.478 180.86 10.788C180.323 11.0774 179.91 11.4907 179.62 12.028C179.331 12.5654 179.186 13.1957 179.186 13.919V20.119C179.186 20.4704 179.155 20.7907 179.093 21.08C179.031 21.3487 178.866 21.5657 178.597 21.731C178.349 21.8964 177.926 21.979 177.326 21.979Z" fill="#14141E"/>
<path d="M165.311 22.196C164.319 22.196 163.348 22.01 162.397 21.638C161.467 21.2453 160.62 20.6977 159.855 19.995C159.111 19.2923 158.512 18.4657 158.057 17.515C157.623 16.5643 157.406 15.5207 157.406 14.384C157.406 13.2887 157.613 12.2657 158.026 11.315C158.439 10.3643 159.008 9.52734 159.731 8.80401C160.454 8.08068 161.281 7.52268 162.211 7.13001C163.162 6.71668 164.174 6.51001 165.249 6.51001C166.696 6.51001 168.008 6.86134 169.186 7.56401C170.364 8.24601 171.304 9.17601 172.007 10.354C172.71 11.532 173.061 12.865 173.061 14.353C173.061 15.531 172.844 16.6057 172.41 17.577C171.976 18.5277 171.387 19.3543 170.643 20.057C169.899 20.739 169.062 21.266 168.132 21.638C167.223 22.01 166.282 22.196 165.311 22.196ZM165.249 18.538C165.931 18.538 166.582 18.3727 167.202 18.042C167.843 17.6907 168.359 17.1947 168.752 16.554C169.165 15.9133 169.372 15.159 169.372 14.291C169.372 13.485 169.186 12.772 168.814 12.152C168.463 11.532 167.977 11.0463 167.357 10.695C166.737 10.3437 166.024 10.168 165.218 10.168C164.453 10.168 163.761 10.354 163.141 10.726C162.521 11.0773 162.025 11.5733 161.653 12.214C161.302 12.834 161.126 13.5367 161.126 14.322C161.126 15.19 161.322 15.9443 161.715 16.585C162.108 17.205 162.614 17.6907 163.234 18.042C163.875 18.3727 164.546 18.538 165.249 18.538Z" fill="#14141E"/>
<path d="M141.715 22.196C141.178 22.196 140.61 22.134 140.01 22.01C139.411 21.9067 138.832 21.7517 138.274 21.545C137.716 21.3177 137.231 21.0594 136.817 20.77C136.425 20.46 136.177 20.119 136.073 19.747C135.991 19.5404 135.96 19.344 135.98 19.158C136.001 18.9514 136.063 18.7447 136.166 18.538C136.27 18.3107 136.425 18.0834 136.631 17.856C136.817 17.6287 137.003 17.5047 137.189 17.484C137.396 17.4427 137.654 17.5047 137.964 17.67C138.233 17.7734 138.522 17.9077 138.832 18.073C139.163 18.2384 139.494 18.4037 139.824 18.569C140.176 18.7344 140.527 18.8687 140.878 18.972C141.25 19.0754 141.612 19.127 141.963 19.127C142.728 19.127 143.338 19.003 143.792 18.755C144.247 18.4864 144.474 18.1144 144.474 17.639C144.474 17.3704 144.402 17.1327 144.257 16.926C144.113 16.7194 143.916 16.554 143.668 16.43C143.441 16.2854 143.162 16.1614 142.831 16.058C142.521 15.934 142.18 15.8307 141.808 15.748C141.457 15.6447 141.085 15.531 140.692 15.407C140.176 15.2624 139.659 15.0867 139.142 14.88C138.626 14.6734 138.161 14.4047 137.747 14.074C137.355 13.7434 137.034 13.33 136.786 12.834C136.538 12.338 136.414 11.718 136.414 10.974C136.414 10.044 136.631 9.25869 137.065 8.61802C137.52 7.95669 138.171 7.45036 139.018 7.09902C139.866 6.74769 140.889 6.57202 142.087 6.57202C142.501 6.57202 142.893 6.60302 143.265 6.66502C143.658 6.72702 144.03 6.82002 144.381 6.94402C144.753 7.04736 145.105 7.18169 145.435 7.34702C145.787 7.51236 146.117 7.69836 146.427 7.90502C146.944 8.19436 147.213 8.53535 147.233 8.92802C147.254 9.30002 147.109 9.70302 146.799 10.137C146.572 10.4264 146.345 10.633 146.117 10.757C145.89 10.8604 145.652 10.8604 145.404 10.757C145.074 10.5917 144.712 10.416 144.319 10.23C143.947 10.0234 143.555 9.84769 143.141 9.70302C142.749 9.55835 142.335 9.48602 141.901 9.48602C141.488 9.48602 141.116 9.54802 140.785 9.67202C140.455 9.79602 140.207 9.97169 140.041 10.199C139.876 10.4264 139.793 10.695 139.793 11.005C139.793 11.2944 139.876 11.532 140.041 11.718C140.207 11.904 140.424 12.059 140.692 12.183C140.961 12.307 141.281 12.4207 141.653 12.524C142.025 12.6067 142.418 12.6894 142.831 12.772C143.41 12.896 143.999 13.051 144.598 13.237C145.198 13.423 145.745 13.6814 146.241 14.012C146.758 14.3427 147.171 14.787 147.481 15.345C147.791 15.8824 147.946 16.585 147.946 17.453C147.946 18.9617 147.388 20.1294 146.272 20.956C145.177 21.7827 143.658 22.196 141.715 22.196Z" fill="#14141E"/>
<path d="M125.664 21.979C124.713 21.979 123.835 21.8137 123.029 21.4831C122.244 21.1317 121.551 20.6357 120.952 19.9951C120.353 19.3544 119.888 18.5897 119.557 17.701C119.226 16.8124 119.061 15.8307 119.061 14.7561V8.58705C119.061 8.23572 119.092 7.92572 119.154 7.65705C119.216 7.36772 119.381 7.14038 119.65 6.97505C119.919 6.80972 120.332 6.72705 120.89 6.72705C121.489 6.72705 121.913 6.80972 122.161 6.97505C122.43 7.14038 122.595 7.36772 122.657 7.65705C122.719 7.94638 122.75 8.26672 122.75 8.61805V14.7561C122.75 15.5001 122.874 16.1407 123.122 16.6781C123.391 17.2154 123.773 17.6391 124.269 17.9491C124.765 18.2384 125.375 18.3831 126.098 18.3831C126.842 18.3831 127.472 18.2384 127.989 17.9491C128.526 17.6391 128.94 17.2154 129.229 16.6781C129.518 16.1201 129.663 15.4794 129.663 14.7561V8.55605C129.663 8.20472 129.694 7.89472 129.756 7.62605C129.818 7.33672 129.983 7.11972 130.252 6.97505C130.521 6.80972 130.944 6.72705 131.523 6.72705C132.102 6.72705 132.515 6.80972 132.763 6.97505C133.011 7.14038 133.166 7.36772 133.228 7.65705C133.311 7.94638 133.352 8.25638 133.352 8.58705V20.212C133.352 20.522 133.311 20.8114 133.228 21.08C133.166 21.3487 133.001 21.5657 132.732 21.7311C132.484 21.8964 132.071 21.979 131.492 21.979C131.079 21.979 130.748 21.9274 130.5 21.8241C130.273 21.7414 130.097 21.6277 129.973 21.4831C129.87 21.3177 129.797 21.1524 129.756 20.9871C129.735 20.8217 129.725 20.6564 129.725 20.4911L129.973 19.6541C129.849 19.8401 129.663 20.0674 129.415 20.3361C129.167 20.5841 128.857 20.8424 128.485 21.111C128.134 21.359 127.72 21.5657 127.245 21.7311C126.77 21.8964 126.243 21.979 125.664 21.979Z" fill="#14141E"/>
<path d="M106.983 22.0101C105.971 22.0101 105.103 21.9067 104.379 21.7001C103.656 21.4934 103.067 21.1731 102.612 20.7391C102.158 20.3051 101.817 19.7471 101.589 19.0651C101.383 18.3624 101.279 17.5357 101.279 16.5851V3.44106C101.279 3.06906 101.31 2.74873 101.372 2.48006C101.455 2.21139 101.62 2.00473 101.868 1.86006C102.137 1.69473 102.55 1.61206 103.108 1.61206C103.687 1.61206 104.1 1.69473 104.348 1.86006C104.617 2.02539 104.782 2.25273 104.844 2.54206C104.927 2.81073 104.968 3.11039 104.968 3.44106V16.4611C104.968 16.8951 104.999 17.2464 105.061 17.5151C105.144 17.7837 105.258 17.9904 105.402 18.1351C105.568 18.2591 105.774 18.3521 106.022 18.4141C106.291 18.4554 106.611 18.4761 106.983 18.4761C107.376 18.4761 107.707 18.5071 107.975 18.5691C108.265 18.6311 108.482 18.7861 108.626 19.0341C108.771 19.2614 108.843 19.6437 108.843 20.1811C108.843 20.7597 108.75 21.1834 108.564 21.4521C108.399 21.7001 108.172 21.8551 107.882 21.9171C107.614 21.9791 107.314 22.0101 106.983 22.0101ZM100.008 7.03706L103.201 7.06806L107.479 6.94406C107.831 6.94406 108.141 6.98539 108.409 7.06806C108.699 7.13006 108.926 7.29539 109.091 7.56406C109.257 7.81206 109.339 8.22539 109.339 8.80406C109.339 9.34139 109.257 9.74439 109.091 10.0131C108.926 10.2817 108.709 10.4574 108.44 10.5401C108.172 10.6021 107.862 10.6331 107.51 10.6331L103.356 10.5711L99.9154 10.6021C99.3987 10.5814 99.0371 10.4367 98.8304 10.1681C98.6444 9.87873 98.5514 9.41373 98.5514 8.77306C98.5514 8.17373 98.6651 7.73973 98.8924 7.47106C99.1404 7.18173 99.5124 7.03706 100.008 7.03706Z" fill="#14141E"/>
<path d="M88.8067 22.01C88.2487 22.01 87.8354 21.917 87.5667 21.731C87.3187 21.5657 87.1637 21.3383 87.1017 21.049C87.0397 20.7597 87.0087 20.4393 87.0087 20.088V8.58702C87.0087 8.21502 87.0397 7.89468 87.1017 7.62601C87.1637 7.33668 87.3187 7.11968 87.5667 6.97502C87.8354 6.80968 88.2591 6.72702 88.8377 6.72702C89.3957 6.72702 89.7987 6.79935 90.0467 6.94402C90.3154 7.08868 90.4807 7.27468 90.5427 7.50201C90.6254 7.70868 90.6667 7.91535 90.6667 8.12201L90.4187 8.68002C90.5221 8.51468 90.6667 8.31835 90.8527 8.09101C91.0387 7.84301 91.2867 7.60535 91.5967 7.37802C91.9067 7.13002 92.2787 6.93368 92.7127 6.78901C93.1467 6.62368 93.6634 6.54102 94.2627 6.54102C94.5107 6.54102 94.7691 6.57202 95.0377 6.63402C95.3271 6.67535 95.6061 6.74768 95.8747 6.85102C96.1641 6.93368 96.4224 7.04735 96.6497 7.19201C96.8771 7.33668 97.0527 7.51235 97.1767 7.71902C97.3007 7.90502 97.3627 8.12202 97.3627 8.37002C97.3627 9.03135 97.1974 9.58935 96.8667 10.044C96.5361 10.4987 96.1434 10.726 95.6887 10.726C95.3787 10.726 95.1514 10.695 95.0067 10.633C94.8621 10.571 94.7381 10.4987 94.6347 10.416C94.5521 10.3333 94.4177 10.261 94.2317 10.199C94.0664 10.137 93.7977 10.106 93.4257 10.106C93.1157 10.106 92.7954 10.1577 92.4647 10.261C92.1547 10.3643 91.8654 10.5193 91.5967 10.726C91.3281 10.9327 91.1111 11.2013 90.9457 11.532C90.7804 11.842 90.6977 12.2037 90.6977 12.617V20.15C90.6977 20.5014 90.6667 20.8217 90.6047 21.111C90.5427 21.3797 90.3774 21.5967 90.1087 21.762C89.8401 21.9273 89.4061 22.01 88.8067 22.01Z" fill="#14141E"/>
<path d="M76.7913 22.196C75.7993 22.196 74.828 22.01 73.8773 21.638C72.9473 21.2453 72.1 20.6977 71.3353 19.995C70.5913 19.2923 69.992 18.4657 69.5373 17.515C69.1033 16.5643 68.8863 15.5207 68.8863 14.384C68.8863 13.2887 69.093 12.2657 69.5063 11.315C69.9197 10.3643 70.488 9.52734 71.2113 8.80401C71.9347 8.08068 72.7613 7.52268 73.6913 7.13001C74.642 6.71668 75.6547 6.51001 76.7293 6.51001C78.176 6.51001 79.4883 6.86134 80.6663 7.56401C81.8443 8.24601 82.7847 9.17601 83.4873 10.354C84.19 11.532 84.5413 12.865 84.5413 14.353C84.5413 15.531 84.3243 16.6057 83.8903 17.577C83.4563 18.5277 82.8673 19.3543 82.1233 20.057C81.3793 20.739 80.5423 21.266 79.6123 21.638C78.703 22.01 77.7627 22.196 76.7913 22.196ZM76.7293 18.538C77.4113 18.538 78.0623 18.3727 78.6823 18.042C79.323 17.6907 79.8397 17.1947 80.2323 16.554C80.6457 15.9133 80.8523 15.159 80.8523 14.291C80.8523 13.485 80.6663 12.772 80.2943 12.152C79.943 11.532 79.4573 11.0463 78.8373 10.695C78.2173 10.3437 77.5043 10.168 76.6983 10.168C75.9337 10.168 75.2413 10.354 74.6213 10.726C74.0013 11.0773 73.5053 11.5733 73.1333 12.214C72.782 12.834 72.6063 13.5367 72.6063 14.322C72.6063 15.19 72.8027 15.9443 73.1953 16.585C73.588 17.205 74.0943 17.6907 74.7143 18.042C75.355 18.3727 76.0267 18.538 76.7293 18.538Z" fill="#14141E"/>
<path d="M60.0365 21.793C59.0239 21.793 58.1145 21.607 57.3085 21.235C56.5232 20.8424 55.8515 20.305 55.2935 19.623C54.7562 18.9204 54.3429 18.1144 54.0535 17.205C53.7849 16.2957 53.6505 15.314 53.6505 14.26C53.6712 13.206 53.8262 12.2244 54.1155 11.315C54.4049 10.385 54.8182 9.57904 55.3555 8.89704C55.9135 8.21504 56.5852 7.67771 57.3705 7.28504C58.1559 6.89238 59.0445 6.69604 60.0365 6.69604C60.9872 6.69604 61.8759 6.89238 62.7025 7.28504C63.5499 7.67771 64.2939 8.22538 64.9345 8.92804C65.5959 9.63071 66.1125 10.447 66.4845 11.377C66.8565 12.2864 67.0425 13.268 67.0425 14.322C67.0425 15.3967 66.8565 16.3887 66.4845 17.298C66.1125 18.2074 65.6062 19.003 64.9655 19.685C64.3249 20.3464 63.5809 20.863 62.7335 21.235C61.8862 21.607 60.9872 21.793 60.0365 21.793ZM53.8365 28.241C53.2785 28.241 52.8652 28.1584 52.5965 27.993C52.3279 27.8277 52.1625 27.6107 52.1005 27.342C52.0385 27.0734 52.0075 26.7634 52.0075 26.412V8.58704C52.0075 8.23571 52.0385 7.92571 52.1005 7.65704C52.1625 7.38838 52.3175 7.17138 52.5655 7.00605C52.8342 6.82005 53.2475 6.72705 53.8055 6.72705C54.3429 6.72705 54.7665 6.80971 55.0765 6.97505C55.3865 7.14038 55.5932 7.41938 55.6965 7.81205V26.381C55.7172 26.7324 55.6862 27.0424 55.6035 27.311C55.5415 27.6004 55.3762 27.8277 55.1075 27.993C54.8389 28.1584 54.4152 28.241 53.8365 28.241ZM59.5405 18.321C60.2639 18.321 60.9149 18.1557 61.4935 17.825C62.0722 17.4737 62.5269 16.9984 62.8575 16.399C63.2089 15.779 63.3845 15.0867 63.3845 14.322C63.3845 13.5367 63.2089 12.8444 62.8575 12.245C62.5269 11.6457 62.0722 11.1807 61.4935 10.85C60.9149 10.4987 60.2639 10.323 59.5405 10.323C58.8379 10.323 58.1972 10.4987 57.6185 10.85C57.0399 11.2014 56.5749 11.6767 56.2235 12.276C55.8929 12.8547 55.7275 13.5367 55.7275 14.322C55.7275 15.0867 55.8929 15.779 56.2235 16.399C56.5749 16.9984 57.0399 17.4737 57.6185 17.825C58.1972 18.1557 58.8379 18.321 59.5405 18.321Z" fill="#14141E"/>
<path d="M42.5688 21.793C41.5561 21.793 40.6468 21.607 39.8408 21.235C39.0554 20.8424 38.3838 20.305 37.8258 19.623C37.2884 18.9204 36.8751 18.1144 36.5858 17.205C36.3171 16.2957 36.1828 15.314 36.1828 14.26C36.2034 13.206 36.3584 12.2244 36.6478 11.315C36.9371 10.385 37.3504 9.57904 37.8878 8.89704C38.4458 8.21504 39.1174 7.67771 39.9028 7.28504C40.6881 6.89238 41.5768 6.69604 42.5688 6.69604C43.5194 6.69604 44.4081 6.89238 45.2348 7.28504C46.0821 7.67771 46.8261 8.22538 47.4668 8.92804C48.1281 9.63071 48.6448 10.447 49.0168 11.377C49.3888 12.2864 49.5748 13.268 49.5748 14.322C49.5748 15.3967 49.3888 16.3887 49.0168 17.298C48.6448 18.2074 48.1384 19.003 47.4978 19.685C46.8571 20.3464 46.1131 20.863 45.2658 21.235C44.4184 21.607 43.5194 21.793 42.5688 21.793ZM36.3688 28.241C35.8108 28.241 35.3974 28.1584 35.1288 27.993C34.8601 27.8277 34.6948 27.6107 34.6328 27.342C34.5708 27.0734 34.5398 26.7634 34.5398 26.412V8.58704C34.5398 8.23571 34.5708 7.92571 34.6328 7.65704C34.6948 7.38838 34.8498 7.17138 35.0978 7.00605C35.3664 6.82005 35.7798 6.72705 36.3378 6.72705C36.8751 6.72705 37.2988 6.80971 37.6088 6.97505C37.9188 7.14038 38.1254 7.41938 38.2288 7.81205V26.381C38.2494 26.7324 38.2184 27.0424 38.1358 27.311C38.0738 27.6004 37.9084 27.8277 37.6398 27.993C37.3711 28.1584 36.9474 28.241 36.3688 28.241ZM42.0728 18.321C42.7961 18.321 43.4471 18.1557 44.0258 17.825C44.6044 17.4737 45.0591 16.9984 45.3898 16.399C45.7411 15.779 45.9168 15.0867 45.9168 14.322C45.9168 13.5367 45.7411 12.8444 45.3898 12.245C45.0591 11.6457 44.6044 11.1807 44.0258 10.85C43.4471 10.4987 42.7961 10.323 42.0728 10.323C41.3701 10.323 40.7294 10.4987 40.1508 10.85C39.5721 11.2014 39.1071 11.6767 38.7558 12.276C38.4251 12.8547 38.2598 13.5367 38.2598 14.322C38.2598 15.0867 38.4251 15.779 38.7558 16.399C39.1071 16.9984 39.5721 17.4737 40.1508 17.825C40.7294 18.1557 41.3701 18.321 42.0728 18.321Z" fill="#14141E"/>
<path d="M23.9756 21.979C23.0249 21.979 22.1466 21.8137 21.3406 21.4831C20.5552 21.1317 19.8629 20.6357 19.2636 19.9951C18.6642 19.3544 18.1992 18.5897 17.8686 17.701C17.5379 16.8124 17.3726 15.8307 17.3726 14.7561V8.58705C17.3726 8.23572 17.4036 7.92572 17.4656 7.65705C17.5276 7.36772 17.6929 7.14038 17.9616 6.97505C18.2302 6.80972 18.6436 6.72705 19.2016 6.72705C19.8009 6.72705 20.2246 6.80972 20.4726 6.97505C20.7412 7.14038 20.9066 7.36772 20.9686 7.65705C21.0306 7.94638 21.0616 8.26672 21.0616 8.61805V14.7561C21.0616 15.5001 21.1856 16.1407 21.4336 16.6781C21.7022 17.2154 22.0846 17.6391 22.5806 17.9491C23.0766 18.2384 23.6862 18.3831 24.4096 18.3831C25.1536 18.3831 25.7839 18.2384 26.3006 17.9491C26.8379 17.6391 27.2512 17.2154 27.5406 16.6781C27.8299 16.1201 27.9746 15.4794 27.9746 14.7561V8.55605C27.9746 8.20472 28.0056 7.89472 28.0676 7.62605C28.1296 7.33672 28.2949 7.11972 28.5636 6.97505C28.8322 6.80972 29.2559 6.72705 29.8346 6.72705C30.4132 6.72705 30.8266 6.80972 31.0746 6.97505C31.3226 7.14038 31.4776 7.36772 31.5396 7.65705C31.6222 7.94638 31.6636 8.25638 31.6636 8.58705V20.212C31.6636 20.522 31.6222 20.8114 31.5396 21.08C31.4776 21.3487 31.3122 21.5657 31.0436 21.7311C30.7956 21.8964 30.3822 21.979 29.8036 21.979C29.3902 21.979 29.0596 21.9274 28.8116 21.8241C28.5842 21.7414 28.4086 21.6277 28.2846 21.4831C28.1812 21.3177 28.1089 21.1524 28.0676 20.9871C28.0469 20.8217 28.0366 20.6564 28.0366 20.4911L28.2846 19.6541C28.1606 19.8401 27.9746 20.0674 27.7266 20.3361C27.4786 20.5841 27.1686 20.8424 26.7966 21.111C26.4452 21.359 26.0319 21.5657 25.5566 21.7311C25.0812 21.8964 24.5542 21.979 23.9756 21.979Z" fill="#14141E"/>
<path d="M7.3966 22.289C6.4666 22.289 5.61927 22.1753 4.8546 21.948C4.1106 21.7207 3.44927 21.4313 2.8706 21.08C2.3126 20.7287 1.83727 20.367 1.4446 19.995C1.05193 19.623 0.7626 19.282 0.5766 18.972C0.307933 18.6 0.132267 18.2693 0.0496 17.98C-0.0330667 17.6907 -0.0124 17.4117 0.1116 17.143C0.256267 16.8537 0.5146 16.554 0.8866 16.244C1.2586 15.9133 1.5996 15.748 1.9096 15.748C2.24027 15.7273 2.55027 15.8203 2.8396 16.027C3.1496 16.2337 3.44927 16.523 3.7386 16.895C4.2346 17.5563 4.7926 18.0317 5.4126 18.321C6.0326 18.5897 6.6526 18.724 7.2726 18.724C8.0786 18.724 8.78127 18.6207 9.3806 18.414C9.97993 18.1867 10.4449 17.856 10.7756 17.422C11.1269 16.988 11.3026 16.43 11.3026 15.748C11.3026 15.19 11.1269 14.7353 10.7756 14.384C10.4449 14.012 10.0006 13.702 9.4426 13.454C8.8846 13.1853 8.25427 12.9477 7.5516 12.741C6.8696 12.5137 6.17727 12.2657 5.4746 11.997C4.9786 11.8317 4.4826 11.6353 3.9866 11.408C3.4906 11.16 3.0256 10.881 2.5916 10.571C2.17827 10.261 1.80627 9.89933 1.4756 9.486C1.1656 9.052 0.9176 8.556 0.7316 7.998C0.5456 7.44 0.4526 6.789 0.4526 6.045C0.4526 4.867 0.741933 3.83367 1.3206 2.945C1.89927 2.03567 2.70527 1.32267 3.7386 0.806001C4.77193 0.268667 5.94993 0 7.2726 0C8.11993 0 8.87427 0.0826674 9.5356 0.248001C10.2176 0.392667 10.7963 0.589 11.2716 0.837001C11.7676 1.06433 12.1706 1.302 12.4806 1.55C12.8113 1.77733 13.0489 1.97367 13.1936 2.139C13.6689 2.61433 13.9273 3.01733 13.9686 3.348C14.0306 3.658 13.8446 4.08167 13.4106 4.619C12.9766 5.177 12.5529 5.487 12.1396 5.549C11.7469 5.59033 11.3026 5.425 10.8066 5.053C10.4759 4.70167 10.1453 4.42267 9.8146 4.216C9.48393 3.98867 9.11193 3.82333 8.6986 3.72C8.30593 3.61667 7.82027 3.565 7.2416 3.565C6.82827 3.565 6.42527 3.627 6.0326 3.751C5.6606 3.85433 5.34027 4.01967 5.0716 4.247C4.80293 4.45367 4.58593 4.712 4.4206 5.022C4.27593 5.332 4.2036 5.68333 4.2036 6.076C4.2036 6.61333 4.34827 7.05767 4.6376 7.409C4.9476 7.73967 5.36093 8.01867 5.8776 8.246C6.39427 8.45267 6.97293 8.649 7.6136 8.835C8.25427 9.021 8.90527 9.21733 9.5666 9.424C10.2486 9.65133 10.9203 9.92 11.5816 10.23C12.2429 10.54 12.8319 10.9327 13.3486 11.408C13.8653 11.8627 14.2786 12.4413 14.5886 13.144C14.8986 13.826 15.0536 14.663 15.0536 15.655C15.0536 16.7917 14.8366 17.7837 14.4026 18.631C13.9686 19.4783 13.3796 20.1707 12.6356 20.708C11.8916 21.2453 11.0649 21.638 10.1556 21.886C9.24627 22.1547 8.3266 22.289 7.3966 22.289Z" fill="#14141E"/>
<g clip-path="url(#clip0_185_164)">
<path d="M376.568 47.6948C376.568 40.6064 380.276 36.9325 387.09 36.9325H399.639C407.272 36.9325 413.224 42.7243 413.224 50.1585C413.224 54.1781 411.542 57.5062 408.782 59.6241L412.534 65.6319C413.569 67.2311 414 68.96 414 70.7754C414 76.1349 409.774 80.2842 404.513 80.2842C401.235 80.2842 398.044 78.6418 396.233 75.573L395.198 73.7577C393.947 77.5612 390.54 80.241 386.184 80.241C380.88 80.241 376.524 75.7459 376.524 70.3431V47.6948H376.568ZM373.678 71.9423C373.678 76.6103 369.969 80.3274 365.441 80.241H350.434C343.577 80.241 339.825 76.6103 339.825 69.4787V47.738C339.825 40.6928 343.534 36.9757 350.434 36.9757H365.441C369.969 36.9757 373.678 40.6928 373.678 45.3608C373.678 49.5966 371.091 52.6221 367.382 53.3569C369.107 54.4374 370.013 56.2528 370.013 58.6732C370.013 61.0936 369.021 62.9089 367.382 63.9895C371.048 64.6811 373.678 67.8363 373.678 71.9423ZM328.181 70.516C328.181 75.8755 323.696 80.241 317.745 80.241C312.139 80.241 307.611 75.8323 307.611 70.516V55.5612C302.781 55.2587 298.813 51.2822 298.813 46.2685C298.813 40.9954 302.996 36.9757 308.085 36.9757H327.664C332.796 36.9757 336.936 41.0818 336.936 46.2685C336.936 51.3255 332.968 55.3451 328.138 55.5612V70.516H328.181ZM260.648 47.6948C260.648 40.6064 264.399 36.9325 271.17 36.9325H283.719C291.353 36.9325 297.304 42.7243 297.304 50.1585C297.304 54.1781 295.622 57.5062 292.862 59.6241L296.614 65.6319C297.649 67.2311 298.08 68.96 298.08 70.7754C298.08 76.1349 293.854 80.2842 288.592 80.2842C285.315 80.2842 282.124 78.6418 280.312 75.573L279.277 73.7577C278.027 77.5612 274.62 80.241 270.264 80.241C264.96 80.241 260.604 75.7459 260.604 70.3431V47.6948H260.648ZM236.843 72.0288C234.384 77.129 230.934 79.5494 226.708 79.5494C219.118 79.5494 213.641 72.5907 217.048 64.7675L225.932 44.1074C228.131 39.0504 231.409 36.241 236.886 36.241C242.449 36.241 245.683 39.0504 247.882 44.1074L256.766 64.7675C260.087 72.5907 254.653 79.5494 247.02 79.5494C242.751 79.5494 239.258 77.0858 236.843 72.0288ZM211.528 70.516C211.528 75.8755 207 80.241 201.135 80.241C195.529 80.241 190.958 75.8323 190.958 70.516V55.5612C186.128 55.2587 182.16 51.2822 182.16 46.2685C182.16 40.9954 186.343 36.9757 191.475 36.9757H211.011C216.142 36.9757 220.326 41.0818 220.326 46.2685C220.326 51.3255 216.358 55.3451 211.528 55.5612V70.516ZM182.16 66.1938C182.16 74.795 175.519 80.241 164.349 80.241C152.964 80.241 147.617 76.351 147.617 69.9541C147.617 65.5455 151.024 62.6928 155.854 62.6928H155.94L153.353 60.3156C150.118 57.3333 147.876 54.3942 147.876 50.0288C147.876 41.5573 154.086 36.1978 164.694 36.1978C175.519 36.1978 180.651 40.0445 180.651 46.4846C180.651 50.3313 178.063 52.9247 174.139 53.4866L176.812 55.8638C180.004 58.8461 182.16 61.8716 182.16 66.1938ZM145.461 69.8245C145.461 75.1408 141.019 79.5926 135.585 79.5062C132.523 79.5062 129.418 78.0799 127.521 75.3569L125.494 72.5042C124.545 76.6535 120.923 79.5494 116.265 79.5494C110.874 79.5494 106.605 75.2272 106.605 69.9109V45.8795C106.562 40.5632 110.788 36.241 116.222 36.241C120.966 36.241 124.631 39.3097 125.537 43.5455L127.779 40.3903C129.677 37.797 132.739 36.2842 135.757 36.2842C140.976 36.2842 145.418 40.3903 145.418 45.7066C145.418 47.738 144.857 49.7262 143.606 51.3687L138.949 57.7655L143.606 64.1624C144.857 65.8913 145.461 67.8363 145.461 69.8245ZM102.939 67.6201C102.939 74.5789 97.1606 79.5062 87.8456 79.5062C75.3825 79.5062 66.24 70.2567 66.24 57.852C66.24 45.4473 75.3825 36.1978 87.8456 36.1978C97.1606 36.1978 102.939 41.1251 102.939 48.0838C102.939 52.7518 100.654 55.907 96.0825 57.852C100.654 59.8402 102.939 63.0386 102.939 67.6201ZM52.2244 36.241C58.0463 36.241 62.7038 40.9954 62.6175 46.6143V69.2194C62.6175 74.8382 58.0463 79.5926 52.1381 79.5926C46.4025 79.5926 41.745 74.9247 41.745 69.2194V46.6143C41.745 40.9954 46.4025 36.241 52.2244 36.241ZM38.8988 69.8245C38.8988 75.1408 34.4569 79.5926 28.98 79.5062C25.9181 79.5062 22.8131 78.0799 20.9156 75.3569L18.8888 72.5042C17.94 76.6535 14.3175 79.5494 9.66 79.5494C4.26937 79.5494 0 75.2272 0 69.9109V45.8795C0 40.5632 4.22625 36.241 9.66 36.241C14.3606 36.241 18.0694 39.3097 18.9319 43.5455L21.2606 40.3903C23.1581 37.797 26.1769 36.2842 29.2388 36.2842C34.4569 36.2842 38.8988 40.3903 38.8988 45.7066C38.8988 47.738 38.3381 49.7262 37.0875 51.3687L32.43 57.7655L37.0875 64.1624C38.295 65.8913 38.8988 67.8363 38.8988 69.8245Z" fill="white"/>
</g>
<defs>
<clipPath id="clip0_185_164">
<rect width="414" height="44" fill="white" transform="translate(0 36.241)"/>
</clipPath>
</defs>
</svg>
