<svg width="414" height="44" viewBox="0 0 414 44" fill="none" xmlns="http://www.w3.org/2000/svg">
<g clip-path="url(#clip0_186_184)">
<path d="M376.568 11.4538C376.568 4.36543 380.276 0.691561 387.09 0.691561H399.639C407.272 0.691561 413.224 6.48331 413.224 13.9175C413.224 17.9371 411.542 21.2652 408.782 23.3831L412.534 29.391C413.569 30.9902 414 32.7191 414 34.5344C414 39.8939 409.774 44.0432 404.513 44.0432C401.235 44.0432 398.044 42.4008 396.233 39.332L395.198 37.5167C393.947 41.3202 390.54 44 386.184 44C380.88 44 376.524 39.5049 376.524 34.1022V11.4538H376.568ZM373.678 35.7014C373.678 40.3694 369.969 44.0865 365.441 44H350.434C343.577 44 339.825 40.3694 339.825 33.2377V11.4971C339.825 4.45188 343.534 0.734783 350.434 0.734783H365.441C369.969 0.734783 373.678 4.45188 373.678 9.11985C373.678 13.3556 371.091 16.3811 367.382 17.1159C369.107 18.1965 370.013 20.0118 370.013 22.4322C370.013 24.8527 369.021 26.668 367.382 27.7485C371.048 28.4401 373.678 31.5953 373.678 35.7014ZM328.181 34.2751C328.181 39.6346 323.696 44 317.745 44C312.139 44 307.611 39.5914 307.611 34.2751V19.3202C302.781 19.0177 298.813 15.0413 298.813 10.0275C298.813 4.75443 302.996 0.734783 308.085 0.734783H327.664C332.796 0.734783 336.936 4.84087 336.936 10.0275C336.936 15.0845 332.968 19.1041 328.138 19.3202V34.2751H328.181ZM260.648 11.4538C260.648 4.36543 264.399 0.691561 271.17 0.691561H283.719C291.353 0.691561 297.304 6.48331 297.304 13.9175C297.304 17.9371 295.622 21.2652 292.862 23.3831L296.614 29.391C297.649 30.9902 298.08 32.7191 298.08 34.5344C298.08 39.8939 293.854 44.0432 288.592 44.0432C285.315 44.0432 282.124 42.4008 280.312 39.332L279.277 37.5167C278.027 41.3202 274.62 44 270.264 44C264.96 44 260.604 39.5049 260.604 34.1022V11.4538H260.648ZM236.843 35.7878C234.384 40.888 230.934 43.3085 226.708 43.3085C219.118 43.3085 213.641 36.3497 217.048 28.5265L225.932 7.86641C228.131 2.80944 231.409 9.11206e-06 236.886 9.11206e-06C242.449 9.11206e-06 245.683 2.80944 247.882 7.86641L256.766 28.5265C260.087 36.3497 254.653 43.3085 247.02 43.3085C242.751 43.3085 239.258 40.8448 236.843 35.7878ZM211.528 34.2751C211.528 39.6346 207 44 201.135 44C195.529 44 190.958 39.5914 190.958 34.2751V19.3202C186.128 19.0177 182.16 15.0413 182.16 10.0275C182.16 4.75443 186.343 0.734783 191.475 0.734783H211.011C216.142 0.734783 220.326 4.84087 220.326 10.0275C220.326 15.0845 216.358 19.1041 211.528 19.3202V34.2751ZM182.16 29.9529C182.16 38.554 175.519 44 164.349 44C152.964 44 147.617 40.11 147.617 33.7132C147.617 29.3045 151.024 26.4519 155.854 26.4519H155.94L153.353 24.0747C150.118 21.0923 147.876 18.1532 147.876 13.7878C147.876 5.31631 154.086 -0.0432129 164.694 -0.0432129C175.519 -0.0432129 180.651 3.80355 180.651 10.2436C180.651 14.0904 178.063 16.6837 174.139 17.2456L176.812 19.6228C180.004 22.6051 182.16 25.6307 182.16 29.9529ZM145.461 33.5835C145.461 38.8998 141.019 43.3517 135.585 43.2652C132.523 43.2652 129.418 41.8389 127.521 39.1159L125.494 36.2633C124.545 40.4126 120.923 43.3085 116.265 43.3085C110.874 43.3085 106.605 38.9863 106.605 33.6699V9.63852C106.562 4.32221 110.788 9.11206e-06 116.222 9.11206e-06C120.966 9.11206e-06 124.631 3.06877 125.537 7.30453L127.779 4.14932C129.677 1.556 132.739 0.0432311 135.757 0.0432311C140.976 0.0432311 145.418 4.14932 145.418 9.46563C145.418 11.4971 144.857 13.4853 143.606 15.1277L138.949 21.5246L143.606 27.9214C144.857 29.6503 145.461 31.5953 145.461 33.5835ZM102.939 31.3792C102.939 38.3379 97.1606 43.2652 87.8456 43.2652C75.3825 43.2652 66.24 34.0157 66.24 21.611C66.24 9.2063 75.3825 -0.0432129 87.8456 -0.0432129C97.1606 -0.0432129 102.939 4.8841 102.939 11.8428C102.939 16.5108 100.654 19.666 96.0825 21.611C100.654 23.5992 102.939 26.7976 102.939 31.3792ZM52.2244 9.11206e-06C58.0463 9.11206e-06 62.7038 4.75443 62.6175 10.3733V32.9784C62.6175 38.5973 58.0463 43.3517 52.1381 43.3517C46.4025 43.3517 41.745 38.6837 41.745 32.9784V10.3733C41.745 4.75443 46.4025 9.11206e-06 52.2244 9.11206e-06ZM38.8988 33.5835C38.8988 38.8998 34.4569 43.3517 28.98 43.2652C25.9181 43.2652 22.8131 41.8389 20.9156 39.1159L18.8888 36.2633C17.94 40.4126 14.3175 43.3085 9.66 43.3085C4.26937 43.3085 0 38.9863 0 33.6699V9.63852C0 4.32221 4.22625 9.11206e-06 9.66 9.11206e-06C14.3606 9.11206e-06 18.0694 3.06877 18.9319 7.30453L21.2606 4.14932C23.1581 1.556 26.1769 0.0432311 29.2388 0.0432311C34.4569 0.0432311 38.8988 4.14932 38.8988 9.46563C38.8988 11.4971 38.3381 13.4853 37.0875 15.1277L32.43 21.5246L37.0875 27.9214C38.295 29.6503 38.8988 31.5953 38.8988 33.5835Z" fill="white"/>
</g>
<defs>
<clipPath id="clip0_186_184">
<rect width="414" height="44" fill="white"/>
</clipPath>
</defs>
</svg>
