<svg width="480" height="490" viewBox="0 0 480 490" fill="none" xmlns="http://www.w3.org/2000/svg">
<g clip-path="url(#clip0_216_85)">
<path d="M281.6 21.1999C275 15.6999 272.2 11.1999 271 7.8999C260.4 13.3999 233.3 26.7999 224.3 26.2999L214.2 25.6999C213.5 25.6999 212.9 25.3999 212.4 24.9999C209.2 22.2999 204.2 18.8999 197.7 19.3999C195 19.5999 188.4 22.3999 182 25.0999C169.8 30.1999 161.7 33.2999 156.9 32.6999C155.1 34.2999 153 42.8999 151.8 47.5999C149.6 56.3999 147.6 64.7999 143.3 67.7999C137.9 71.6999 127.3 93.1999 130.8 131.3C132.8 132.2 134.7 133.5 136.6 135.4C137.7 122.5 140.4 103.8 147 86.3999C158 57.5999 173.8 44.7999 193.8 48.4999C210.2 51.4999 230.4 50.7999 230.6 50.7999C230.7 50.7999 230.7 50.7999 230.8 50.7999C232.5 50.7999 272.7 51.5999 290.9 63.1999C291.1 63.2999 291.3 63.4999 291.5 63.6999C296.4 68.6999 300 74.0999 302.7 79.7999C304 74.8999 305.7 68.6999 306.4 65.7999C306.7 61.2999 292.7 30.5999 281.6 21.1999Z" fill="#473128"/>
<path d="M215.2 482.3C216.1 474.6 224.1 407 232.3 397C239.1 388.6 250.4 382.7 255.6 381C255 370.5 254.9 359.8 255.8 350.7C256.7 341 258.1 333.6 259.2 327.1C260.9 317.6 262.1 310.6 261.2 302.2L236 293.6C233.7 307 232.8 315.8 232.8 316C232.7 317.4 231.6 318.5 230.3 318.7C225.3 319.6 220.6 320 216 320C205.3 320 195.1 317.7 181.7 313.8C180.7 313.5 179.6 313.2 178.5 312.9C166 309.4 148.9 304.5 143.2 292.1C142.9 291.5 142.9 290.9 143 290.2C143.3 288.4 143.9 285.5 144.6 282L81.3 293.7C68.9 296 57.8001 303.2 50.7001 313.6C32.5 340.3 30.9 348.9 31.1 351.4C31.1 351.7 31.1 352.1 31 352.4C28.2 363 22.4 378.5 17.3 392.2C13.4 402.7 10 411.7 8.90005 416.1C6.80005 424.3 6.30005 469 6.30005 485.5L92.2 485.4C92.1 479.4 92 446.2 99.3 419.9C99.3 419.7 99.4 419.5 99.5 419.4C106.1 405.8 109.5 391.9 110.6 386.9C108.6 385 107.1 383.1 106.6 382.4C105.6 381 105.9 379.1 107.3 378.1C108.7 377.1 110.6 377.4 111.6 378.8C112.6 380.1 113.8 381.5 115.1 382.7C115.9 383 116.4 383.5 116.8 384.2C118.1 385.2 119.3 385.8 120.1 385.7C121.8 385.5 123.3 386.8 123.5 388.5C123.7 390.2 122.4 391.7 120.7 391.9C120.5 391.9 120.3 391.9 120.1 391.9C118.8 391.9 117.4 391.5 116.1 390.9C114.5 397.4 111.1 409.7 105.2 422C98.3 447.3 98.4 480.1 98.4 485.6L216.7 485.4C215.7 484.5 215.1 483.4 215.2 482.3Z" fill="#4C4C4C"/>
<path d="M60 295.8C61.4 294.9 62.8 294 64.3 293.2C62.4 294.1 61 295 60 295.8Z" fill="#4C4C4C"/>
<path d="M436.5 394.9C433 391.7 429.1 390.7 427.2 390.4C427.3 397.7 427.7 403.5 428.5 406.2C431.8 417.3 426.8 441.4 417 451.8C416.2 452.6 415.1 452.9 414 452.6C412.9 452.3 412.1 451.5 411.9 450.4C411.2 447.1 410.5 443.6 409.8 439.9C407.6 428.3 405.1 415.1 400.1 410.8C398.4 409.4 395.9 407.9 392.9 406.2C386.2 402.4 377.1 397.2 371.8 388.1C365.4 391.3 358.6 394 351.8 395.7C350.7 396 349.7 396.2 348.6 396.4C347.6 396.6 346.5 396.8 345.5 397C342.2 397.6 339 397.9 335.8 397.9C326 397.9 317.2 395 310.7 388C309.3 390.5 306.8 391.9 304.4 393.2C301.1 395 297.3 397.1 293.8 403C288.7 411.7 289.2 418.5 290 429.8C290.4 435.7 290.9 443.1 290.7 452.3C290.7 453.2 290.3 454 289.6 454.6C289.1 455 288.4 455.3 287.7 455.3C287.5 455.3 287.3 455.3 287.1 455.2C261.1 450.3 260.8 433.3 261 429.9C260.5 426.9 257.5 408 256 387.2C251.7 389 242.6 393.9 236.9 400.8C231.6 407.3 224.4 454.7 221.2 483C221.1 483.9 220.6 484.7 219.9 485.1C219.7 485.2 219.5 485.4 219.2 485.4L473.6 485C458.3 443.9 440.2 398.6 436.5 394.9ZM378.5 471H372.6H367.3H365.9H361.5C361.3 471 361 471 360.8 470.9C359.9 470.6 359.2 469.8 359.1 468.8C359 467 358.6 465.3 358.2 463.7C355.5 454 347.9 447 339 447C328.5 447 319.9 456.4 318.9 468.6C318.8 469.9 317.8 470.8 316.5 470.8H312.1H305.4H299.4C298 470.8 297 469.7 297 468.3C298.1 442 316.4 421.1 338.9 421.2C341.8 421.2 344.6 421.6 347.3 422.2C348.3 422.5 349.3 422.8 350.3 423.1C351.6 423.5 352.9 424.1 354.2 424.7C369.2 431.7 380 448.6 380.8 468.6C380.9 469.8 379.9 471 378.5 471Z" fill="#F5E6A7"/>
<path d="M427.8 332.5C430.4 326 438.8 300.1 435.2 237.9C434.2 221.1 427 203.7 414.8 189C403.3 175.1 388.4 166.1 371.7 162.8C361.9 160.9 350.9 162.7 342 164.2C339.4 164.6 336.8 165 334.2 165.4C324.9 166.8 315.4 168.2 306.9 171.4C305.7 171.9 304.4 172.4 303.2 172.9C303.2 172.9 303.2 172.9 303.1 172.9C301.2 173.8 299.5 174.8 297.9 176C296.8 176.8 295.8 177.7 294.8 178.6C291.6 181.7 288.9 185.4 286.5 189.2C286 190 285.5 190.9 285 191.7C277.4 204.2 273 217.5 268.7 233.6C267.8 237.1 266.8 240.9 265.8 244.8C265.2 247.5 264.5 250.3 264 253.1C263.6 255.3 263.2 257.5 262.9 259.7C261.6 269.1 261.4 278.6 263.9 286.7C265.1 290.5 265.9 293.9 266.5 297.1C266.7 298.2 266.8 299.2 267 300.2C267.2 301.5 267.3 302.7 267.4 303.9C267.9 312.2 266.7 319.2 265.1 327.8C264 334.2 262.6 341.5 261.7 350.9C260.8 360 261 370.9 261.6 381.5C263 405.5 266.9 428.6 266.9 429C267 429.3 267 429.6 266.9 429.9C266.8 430.4 265.4 443.2 284.6 448.2C284.6 441 284.2 435.1 283.8 429.9C282.9 417.8 282.4 409.8 288.5 399.6C292.8 392.3 297.8 389.6 301.4 387.6C304.9 385.7 306.1 385 305.9 381.3C305.9 381 305.9 380.7 305.8 380.3C304.8 370.3 304.7 359 304.7 355.1C296.2 348 285.9 337.5 282.4 326C280.6 320.1 279.8 314 279.5 308C279.4 306.7 279.4 305.5 279.4 304.3C279.4 303.3 279.4 302.4 279.4 301.5C279.4 299.1 279.5 296.8 279.6 294.6C277.4 293.9 274.9 292.2 273.2 288.3C268.4 277.1 273.5 252.9 276.3 248.7C279.5 243.9 286 245.1 289.5 246.1C290.9 238.5 292.5 227.5 292.6 223.4C292.6 222.2 293.3 221.2 294.4 220.7C295.5 220.2 296.7 220.5 297.6 221.3C299.9 223.4 312.7 226 325.1 228.5C334.5 230.4 345 232.6 356 235.3C377.9 240.8 401.1 243.9 423.2 244.3C424.3 244.3 425.2 244.9 425.7 245.8C426.2 246.7 426.2 247.8 425.7 248.8C424.2 251.4 421.4 264.4 418.5 278.7C422.7 279 429.9 281.7 430.6 290.1C431.4 299 425.4 316.7 419 320.8C415.8 322.9 412 324.4 409 324.5C406 332 400.6 342.1 391.8 349.7C386.2 354.5 379.5 357.2 373.1 359.7C372.9 359.8 372.8 359.8 372.6 359.9C372.6 360.3 372.5 360.7 372.5 361.2C372.5 364.3 373 369.8 373.5 374.6C373.7 377 374.3 379.2 375 381.2C378.7 391.1 388 396.4 395.7 400.8C398.9 402.6 401.7 404.2 403.8 406C410.5 411.6 413.1 425.3 415.6 438.5C415.8 439.7 416.1 441 416.3 442.2C422.1 431.9 425 415.4 422.7 407.7C421.6 403.9 421.1 395.3 421.2 385.2C421.4 366.7 423.6 342.8 427.8 332.5Z" fill="#F2C460"/>
<path d="M299.1 158.5C298.9 158.7 298.7 158.9 298.4 159.1C298.2 159.7 298 160.3 297.7 160.9C296.6 163.8 295.5 167.1 295.4 167.9C295.4 168.4 295.4 169 295.4 169.6C295.4 170 295.4 170.3 295.4 170.7C297 169.6 298.8 168.5 300.7 167.7C301.4 167.4 302.2 167 302.9 166.7C305.8 163 307.5 160.3 305.9 157.4C305.3 156.2 304.6 155.6 304 155.6C302.5 155.3 300.1 157.4 299.1 158.5Z" fill="#FFCC94"/>
<path d="M132 191.3C129.8 191.3 127.9 189.5 127.9 187.2C127.9 185 129.7 183.1 132 183.1C133.8 183.1 135.2 184.2 135.8 185.8C135.4 178.1 135.5 169.4 135.6 162.6C133.8 162.1 132.2 161.9 131.7 162.2C131.7 162.2 131.7 162.2 131.7 162.3C131.4 163.2 131.4 163.7 131.4 163.9C132.7 164.4 133.6 165.9 133.3 167.4C133 168.9 131.7 169.9 130.3 169.9C130.1 169.9 129.9 169.9 129.7 169.8C128.6 169.6 127.1 168.8 126.2 167.2C125.1 165.4 125 163.1 125.9 160.4C126.5 158.6 127.7 157.2 129.4 156.5C131.4 155.6 133.8 155.8 135.9 156.2C136 153.8 136 152.1 136.1 151.3C136.1 150.7 136.1 147.7 136.3 143.1C135.5 143 134.7 142.6 134.2 141.9C128.5 134.2 123 136.2 120.9 137.5C118.2 139 117.2 141.4 117.5 142C119.2 145.7 121 155.1 123.5 169C124.6 174.8 125.6 180.2 126.4 184.1C128 191.4 133.2 194.5 136.7 196.3C136.4 193.9 136.1 191.2 136 188.2C135.5 190 133.9 191.3 132 191.3Z" fill="#FFCC94"/>
<path d="M212.2 284.5C197.6 283 187 282 168.5 263.8C164.1 259.9 160.3 255.4 157 250.5C155.6 257.4 153.1 270.2 151.2 280C150.4 284.3 149.6 287.9 149.2 290.3C154.2 299.5 169.8 303.9 180.1 306.9C181.2 307.2 182.3 307.5 183.3 307.8C200.9 312.9 212.3 315.1 226.8 312.9C227.2 309.1 228.3 301.1 230.2 290.6C230.7 288.1 231.2 285.4 231.7 282.6C227.1 284 222.3 284.8 217.3 284.8C215.7 284.7 214 284.6 212.2 284.5Z" fill="#FFCC94"/>
<path d="M289.1 176.3C289.4 173.4 289.4 171.5 289.3 169.7C289.3 169.1 289.3 168.5 289.3 167.9C289.3 166.3 290.1 164.1 292 158.9C298.7 140.4 314.5 97.0999 287.3 68.5999C270.8 58.2999 232.8 57.3999 230.9 57.2999C229.2 57.3999 209.5 57.9999 192.8 54.8999C191 54.5999 189.2 54.3999 187.4 54.3999C173.1 54.3999 161.8 65.7999 152.9 88.8999C141.9 117.5 142.2 151.2 142.2 151.6C142.2 151.7 142.2 151.7 142.2 151.8C141.7 162.6 141.1 192.5 143.8 200.4C144.1 201.3 144.5 202.8 145 204.9C148.1 216.7 155.2 244.2 172.7 259.4L172.8 259.5C189.8 276.2 198.9 277.1 212.8 278.5C228.8 280.1 243.5 273.2 256.6 258.1C256.9 257.8 257.1 257.4 257.4 257.1C258.8 248.3 261.1 239.7 263 232.3C267.4 215.7 272 202 280 188.8C282.6 184.4 285.5 180 289.1 176.3ZM232.4 199.3C235 197.4 237.8 194.2 237.9 192C237.9 191.4 237.8 190.9 237.3 190.4C232.6 185.6 230 180.9 229.6 176.1C227.1 148.7 244.8 136.9 247.7 135.1C250.5 132.5 267.5 118.6 292.9 140.3C294.2 141.4 294.4 143.4 293.2 144.7C292.1 146 290.1 146.2 288.8 145C279 136.7 269.4 133.2 261.1 134.9C255.1 136.2 251.8 139.7 251.7 139.7C251.5 140 251.2 140.2 250.9 140.3C250.2 140.7 233.3 150.4 235.6 175.5C235.9 178.8 237.8 182.3 241.6 186C243.3 187.8 244.2 190 244 192.4C243.6 198.2 237.3 203.2 236 204.2C233 206.5 230 207.3 227.1 207.3C222.3 207.3 217.8 205 213.9 202.9C211.8 201.8 209.9 200.8 208 200.1C207.1 199.8 206.4 199 206.1 198C204 190.5 210.1 185.7 213.6 184.2C215.2 183.5 217 184.3 217.7 185.8C218.4 187.4 217.6 189.2 216.1 189.9C215.7 190.1 212 191.8 212 194.9C213.7 195.6 215.3 196.5 216.9 197.3C223.4 200.9 227.7 202.8 232.4 199.3ZM161.2 133.4C160.6 134.1 159.8 134.4 158.9 134.4C158.2 134.4 157.4 134.1 156.8 133.6C155.5 132.5 155.4 130.5 156.6 129.2C156.9 128.9 183.6 100.2 218.8 125.4C220.2 126.4 220.5 128.3 219.5 129.7C218.5 131.1 216.6 131.4 215.2 130.4C184.6 108.5 162.1 132.4 161.2 133.4ZM181.8 143C181.8 141.2 182.5 139.6 183.7 138.4C176 139.9 171.7 145.1 171.6 145.1C170.5 146.4 168.6 146.6 167.3 145.6C166 144.5 165.8 142.6 166.8 141.3C167.2 140.8 176.5 129.6 192.6 132.3C204.5 134.3 211.5 145.6 211.8 146C212.7 147.5 212.2 149.4 210.8 150.2C210.3 150.5 209.7 150.7 209.2 150.7C208.2 150.7 207.1 150.2 206.6 149.2C206.5 149.1 201.5 141.1 193.5 138.8C194.5 139.9 195 141.4 195 143C195 146.6 192 149.6 188.4 149.6C184.8 149.6 181.8 146.6 181.8 143ZM246.4 226.1C245.5 226.5 244.4 226.8 243.2 227C242.4 229.4 236.9 243.7 219.5 243.7C216.8 243.7 213.7 243.3 210.4 242.5C191 237.8 187.1 224.8 187.7 217.2C186.8 216.7 186.2 216.4 186.1 216.3C184.6 215.4 184.1 213.5 185 212.1C185.9 210.6 187.8 210.1 189.2 211C189.3 211.1 200.2 217.4 213.6 219.4C229.4 221.8 239.4 222.1 244 220.3C245.6 219.7 247.4 220.4 248 222C248.7 223.7 248 225.4 246.4 226.1ZM278.6 155.9C278.6 155.8 277.1 152.3 270.2 150C271.8 151.2 272.8 153.1 272.8 155.2C272.8 158.8 269.8 161.8 266.2 161.8C262.6 161.8 259.6 158.8 259.6 155.2C259.6 152.1 261.8 149.4 264.7 148.8C256.4 148 252.8 152.9 252.8 153C251.8 154.4 249.9 154.7 248.5 153.8C247.1 152.8 246.8 150.9 247.7 149.5C248 149.1 255.1 139.2 270.8 143.8C281.9 147 284.1 153.4 284.4 154.1C284.9 155.7 284 157.5 282.4 158C282.1 158.1 281.8 158.1 281.5 158.1C280.3 158 279.1 157.2 278.6 155.9Z" fill="#FFCC94"/>
<path d="M354.6 241.3C343.7 238.6 333.2 236.4 323.9 234.6C311.3 232 303.1 230.3 298.2 228.5C297.3 236.5 295.2 249.3 294.1 253.7C293.4 256.5 292.5 259.2 291.6 261.8C290.7 264.3 289.9 266.6 289.3 269.1C288 274.6 286.9 280.6 286.3 286.9C285.8 291.7 285.3 297.5 285.4 303.7C285.4 304.6 285.4 305.6 285.5 306.5C285.5 307.8 285.6 309 285.7 310.3C286.1 315.1 286.8 319.9 288.2 324.5C291.4 335.1 301.6 345.1 309.7 351.6C310.9 352.5 312 353.4 313.2 354.2C313.3 354.3 313.4 354.4 313.5 354.4C318.6 358.1 323.5 360.6 328.3 362.1C332.6 363.4 337.4 363.9 342.6 363.3C343.6 363.2 344.5 363.1 345.5 362.9C346.6 362.7 347.7 362.5 348.8 362.3C352.4 361.5 356.2 360.3 360.2 358.7C361.4 358.2 362.7 357.7 364 357.1C364.2 357 364.3 357 364.5 356.9C366.7 355.9 368.9 355 371.1 354.2C377.4 351.7 383.3 349.3 388.2 345.2C396.4 338.2 401.3 328.6 404 321.7C406.1 312.2 408.2 301.3 410.3 290.8C414.2 271.2 417 257.4 419.1 250.3C397.7 249.6 375.5 246.5 354.6 241.3ZM346.4 307.3C348.4 305.8 352.6 305 355.7 308.8C356.4 309.7 356.3 310.9 355.4 311.6C355 311.9 354.6 312.1 354.1 312.1C353.5 312.1 353 311.9 352.6 311.4C351 309.4 349.3 310.2 348.7 310.6C347.8 311.2 346.6 311 345.9 310.1C345.4 309.2 345.5 307.9 346.4 307.3ZM299.4 244.7C322.5 231.2 339.5 249.5 339.6 249.7C340.7 250.9 340.6 252.8 339.4 253.9C338.8 254.4 338.1 254.7 337.4 254.7C336.6 254.7 335.8 254.4 335.2 253.7C334.6 253.1 321.2 238.8 302.5 249.8C301.1 250.6 299.2 250.2 298.4 248.7C297.5 247.4 298 245.5 299.4 244.7ZM330 306.1C329 306.6 327.8 306.3 327.3 305.3C326.8 304.4 327.1 303.2 328 302.6C329.5 301.7 333.2 300.9 336.2 304.1C337 304.9 336.9 306.2 336.1 306.9C335.7 307.3 335.2 307.4 334.7 307.4C334.2 307.4 333.6 307.2 333.2 306.8C331.9 305.3 330.4 305.9 330 306.1ZM334.6 274.7H334.5C332.9 274.7 331.6 273.4 331.5 271.8C331.5 271.5 331.1 267.2 326.7 263.8C326.9 264.5 327.1 265.2 327.1 265.9C327.1 269.5 324.2 272.5 320.5 272.5C316.8 272.5 313.9 269.6 313.9 265.9C313.9 263.5 315.2 261.4 317.1 260.3C312.2 260.3 308.4 264.1 307.8 264.9C306.9 266.3 305 266.6 303.6 265.6C302.2 264.6 301.9 262.8 302.9 261.4C304.8 258.6 311.4 253.2 319.2 254.3H319.3C333.2 256.8 337.3 266.6 337.4 271.4C337.6 273.2 336.3 274.6 334.6 274.7ZM371.7 334.8C371.4 336.2 370.2 337.2 368.8 337.2C368.6 337.2 368.4 337.2 368.2 337.1C366 336.6 364.5 335 363.6 333C363.2 333 362.6 333 361.9 333H361.8C359.7 338.8 352.5 342.1 342.5 342.1C341.8 342.1 341 342.1 340.2 342C339.2 342 338.1 341.9 337 341.7C335.8 341.6 334.6 341.4 333.3 341.2C333.2 341.2 333 341.1 332.9 341.1C318.1 338.3 312.4 324.7 311.7 322.7C311.5 322.6 311.4 322.4 311.2 322.2C309.8 323 308.2 323.6 306.2 323.6C306.1 323.6 306 323.6 306 323.6C304.3 323.6 303 322.2 303.1 320.5C303.1 318.9 304.5 317.6 306.1 317.6C306.1 317.6 306.2 317.6 306.3 317.6C306.6 317.6 306.8 317.6 307 317.5C308.8 317.1 309.9 315.5 310.4 314.7C310.6 314.4 310.7 314.2 310.7 314.2C311 313.6 311.4 313.1 312 312.7C312.8 312.3 313.7 312.2 314.6 312.5C315.4 312.8 315.9 313.4 316.2 314.1C316.5 314.8 316.5 315.6 316.2 316.4C316.1 316.6 316 316.8 315.9 317C315.7 317.3 315.6 317.7 315.4 318C316.1 318.4 318.5 319.6 322.6 321C325 321.8 327.9 322.7 331.4 323.5C331.8 323.6 332.3 323.7 332.7 323.8C336.3 324.2 340.7 324.8 345.6 325.9C353.1 326.8 358.8 327 361.9 327C361.8 326.2 361.7 325.5 361.7 325C361.6 323.3 362.9 321.9 364.5 321.8C366.1 321.7 367.6 323 367.7 324.6C367.9 327.4 368.7 330.6 369.5 331.2C371 331.6 372 333.2 371.7 334.8ZM396 285.9C395.7 286 395.5 286 395.2 286C393.9 286 392.7 285.1 392.3 283.8C392.3 283.7 390.9 279.1 387.2 275.9C387.4 276.5 387.5 277.1 387.5 277.7C387.5 281.3 384.6 284.3 380.9 284.3C377.3 284.3 374.3 281.4 374.3 277.7C374.3 276.1 374.9 274.6 375.9 273.4C371 274.9 367.2 278.8 367.1 278.9C366 280.1 364.1 280.1 362.9 279C361.7 277.9 361.6 276 362.8 274.8C363.2 274.4 372.7 264.5 383.7 267.3C394.6 270.1 398 281.7 398.1 282.2C398.6 283.8 397.6 285.5 396 285.9ZM403.4 277.6C403.3 277.6 403.2 277.6 403.1 277.6C401.6 277.6 400.3 276.4 400.1 274.9C400.1 274.8 398.7 261.7 388.7 259.2C377.8 256.5 369.8 261.1 369.7 261.1C368.3 261.9 366.4 261.5 365.6 260C364.8 258.6 365.2 256.7 366.6 255.9C367 255.7 376.7 250 390.1 253.3C404.3 256.9 406 273.6 406 274.3C406.3 276 405.1 277.5 403.4 277.6Z" fill="#FFCC94"/>
<path d="M283.9 266.3C284.5 264.1 285.3 261.9 286 259.8C286.9 257.2 287.7 254.8 288.3 252.3V252.2C285.7 251.3 282.2 250.9 281.3 252.2C279.5 254.9 274.8 277 278.8 286.1C279.2 287.1 279.7 287.8 280.2 288.3C280.3 287.6 280.3 287 280.4 286.3C281 280.7 281.9 275.5 282.9 270.5C282.4 270.6 282.1 270.7 281.8 270.9C281.7 271 281.7 271 281.7 271.2C281.7 272.3 280.8 273.2 279.7 273.2C278.6 273.2 277.7 272.3 277.7 271.2C277.7 269.9 278.2 268.8 279.2 267.9C280.5 266.8 282.3 266.4 283.9 266.3Z" fill="#FFCC94"/>
<path d="M424.8 290.7C424.3 285.2 418.6 284.8 417.9 284.8C417.8 284.8 417.6 284.8 417.5 284.7C417 287.1 416.5 289.6 416.1 292C415.7 293.9 415.4 295.7 415 297.6C416.4 297.6 418 297.9 419.2 299.1C419.9 299.8 420.9 301.2 420.4 303.6C420.1 305 418.8 306 417.5 306C417.3 306 417.1 306 416.8 305.9C415.6 305.6 414.8 304.7 414.5 303.6C414.3 303.6 414.2 303.6 414.1 303.7C414 303.7 413.9 303.7 413.8 303.7C412.8 308.7 411.8 313.6 410.8 318.2C412.1 317.8 413.9 317.1 416 315.7C419.7 313.4 425.4 298.5 424.8 290.7Z" fill="#FFCC94"/>
<path d="M366.5 362.7C366.5 362.7 366.4 362.7 366.4 362.8C360.8 365.3 355.5 367.1 350.5 368.3C349.6 368.5 348.6 368.7 347.7 368.9C346.6 369.1 345.5 369.3 344.4 369.4C342.3 369.7 340.3 369.8 338.4 369.8C334.2 369.8 330.2 369.2 326.5 368.1C321.3 366.5 316.2 363.9 310.9 360.2C311 365.3 311.2 372.8 311.9 379.6C312.4 380.4 312.8 381.1 313.4 381.8C321.1 392.5 334.1 393.3 346 391C347.1 390.8 348.1 390.6 349.2 390.3C350.3 390 351.3 389.8 352.3 389.5C359.2 387.5 365.3 384.8 369 383C368.8 382.5 368.7 382.1 368.5 381.6C366.3 375.1 366.3 367.5 366.5 362.7Z" fill="#FFCC94"/>
<path d="M215.2 226.7C211.2 226.2 207.2 225.3 203.3 224.1C201.3 223.5 199.3 222.3 197.3 222C197.3 222 197.3 222.3 197.5 222.8C197.9 224.1 198.8 226.5 199.1 226.8C201.6 229.8 206.7 230.8 210.3 231.7C214.8 232.9 219.4 233.5 224 233.6C225.2 233.6 226.5 233.6 227.7 233.1C230.1 232.2 230.9 231 231.7 228.8C231.8 228.4 232 228 232.1 227.5C232.1 227.4 232.2 227.2 232.2 227.1C231.1 227.2 230 227.3 228.9 227.4C224.4 227.7 219.7 227.3 215.2 226.7Z" fill="white"/>
<path d="M340.3 331.3C339.3 331.2 338.3 331 337.3 330.8C336.6 330.7 336 330.6 335.4 330.5C334.8 330.4 334.3 330.3 333.7 330.2C333.1 330.1 332.6 330 332 329.9C330.4 329.6 328.9 329.2 327.5 328.9C326.5 328.7 325.6 328.4 324.7 328.2C324.8 328.5 324.9 328.9 325 329.2C325.3 329.9 325.7 330.5 326.2 331.1C327.2 332.3 328.5 333.2 329.9 333.9C331.5 334.7 333.3 335.2 335.2 335.6C335.8 335.7 336.4 335.8 337 335.9C338.5 336.1 340.1 336.2 341.5 336.2C344.2 336.2 346.6 335.8 348.8 334.1C349 333.9 349.2 333.8 349.4 333.6C349.7 333.3 350 333 350.3 332.7C347.4 332.2 344 331.8 340.3 331.3Z" fill="white"/>
<path d="M354.2 424.6C352.9 424 351.6 423.5 350.3 423C349.3 422.7 348.3 422.4 347.3 422.1C344.6 421.4 341.8 421.1 338.9 421.1C316.4 421 298.1 441.9 297 468.2C296.9 469.6 298 470.7 299.4 470.7H305.4C305.4 448.7 320.4 431 339 431C342.9 431 346.6 431.8 350.1 433.3C350.8 433.6 351.6 434 352.3 434.3C354.2 435.3 356 436.4 357.6 437.8C366.6 445 372.5 457.2 372.5 471H378.4C379.8 471 380.9 469.9 380.8 468.5C380 448.5 369.2 431.6 354.2 424.6Z" fill="#ED517E"/>
<path d="M357.6 437.8C355.9 436.5 354.1 435.3 352.3 434.3C351.6 433.9 350.8 433.6 350.1 433.3C346.6 431.8 342.9 431 339 431C320.5 430.9 305.4 448.7 305.4 470.7H312.1C312.1 453.1 324.1 438.9 338.9 439C343.9 439 348.6 440.7 352.7 443.6C353.9 444.5 355.1 445.5 356.2 446.5C358.8 449.1 360.9 452.2 362.5 455.7C363.8 458.6 364.8 461.8 365.3 465.1C365.6 467 365.8 468.9 365.8 470.9H367.2H372.5C372.5 457.1 366.6 445 357.6 437.8Z" fill="#FCCF07"/>
<path d="M365.4 465.1C364.9 461.7 363.9 458.6 362.6 455.7C361 452.2 358.8 449.1 356.3 446.5C355.2 445.4 354.1 444.4 352.8 443.6C348.8 440.7 344.1 439.1 339 439C324.2 438.9 312.1 453.2 312.2 470.7H316.6C317.9 470.7 318.9 469.7 319 468.5C319.9 456.4 328.6 446.9 339.1 446.9C348.1 446.9 355.7 453.9 358.3 463.6C358.7 465.2 359.1 466.9 359.2 468.7C359.3 469.7 360 470.5 360.9 470.8C361.1 470.9 361.4 470.9 361.6 470.9H366C365.8 468.9 365.7 467 365.4 465.1Z" fill="#1C569D"/>
<path d="M158.9 134.4C159.7 134.4 160.6 134.1 161.2 133.4C162.1 132.4 184.6 108.5 215.2 130.4C216.6 131.4 218.5 131.1 219.5 129.7C220.5 128.3 220.2 126.4 218.8 125.4C183.7 100.2 156.9 128.9 156.6 129.2C155.5 130.5 155.5 132.4 156.8 133.6C157.4 134.2 158.1 134.4 158.9 134.4Z" fill="black"/>
<path d="M211.9 195.1C212 192 215.6 190.3 216 190.1C217.6 189.4 218.3 187.6 217.6 186C216.9 184.4 215.1 183.7 213.5 184.4C210 185.9 203.9 190.7 206 198.2C206.3 199.2 207 199.9 207.9 200.3C209.8 201 211.7 202 213.8 203.1C217.7 205.1 222.2 207.5 227 207.5C229.9 207.5 232.9 206.7 235.9 204.4C237.2 203.5 243.4 198.5 243.9 192.6C244.1 190.2 243.3 188 241.5 186.2C237.8 182.4 235.8 179 235.5 175.7C233.2 150.6 250.1 140.9 250.8 140.5C251.1 140.3 251.4 140.1 251.6 139.9C251.6 139.9 255 136.4 261 135.1C269.3 133.4 278.9 136.8 288.7 145.2C290 146.3 291.9 146.2 293.1 144.9C294.2 143.6 294.1 141.7 292.8 140.5C267.4 118.8 250.4 132.7 247.6 135.3C244.6 137.1 227 148.8 229.5 176.3C229.9 181.1 232.5 185.8 237.2 190.6C237.7 191.1 237.9 191.6 237.8 192.2C237.6 194.4 234.8 197.6 232.3 199.5C227.5 203.1 223.3 201.1 216.7 197.7C215.2 196.6 213.6 195.8 211.9 195.1Z" fill="black"/>
<path d="M271 143.7C255.3 139.1 248.2 149 247.9 149.4C246.9 150.8 247.3 152.7 248.7 153.7C250.1 154.7 252 154.3 253 152.9C253 152.8 256.6 147.9 264.9 148.7C262 149.4 259.8 152 259.8 155.1C259.8 158.7 262.8 161.7 266.4 161.7C270 161.7 273 158.7 273 155.1C273 153 272 151.1 270.4 149.9C277.3 152.2 278.7 155.7 278.8 155.8C279.2 157.1 280.4 158 281.7 158C282 158 282.3 158 282.6 157.9C284.2 157.4 285.1 155.7 284.6 154C284.3 153.3 282 146.9 271 143.7Z" fill="black"/>
<path d="M195 143C195 141.4 194.4 139.9 193.5 138.8C201.5 141.1 206.6 149.2 206.6 149.2C207.2 150.2 208.2 150.7 209.2 150.7C209.7 150.7 210.3 150.6 210.8 150.2C212.3 149.3 212.7 147.4 211.8 146C211.5 145.5 204.5 134.2 192.6 132.3C176.4 129.6 167.1 140.8 166.8 141.3C165.7 142.6 165.9 144.6 167.3 145.6C168.6 146.7 170.6 146.5 171.6 145.1C171.7 145 176 139.8 183.7 138.4C182.6 139.6 181.8 141.2 181.8 143C181.8 146.6 184.8 149.6 188.4 149.6C192 149.6 195 146.6 195 143Z" fill="black"/>
<path d="M244.1 220.3C239.5 222.1 229.5 221.8 213.7 219.4C200.3 217.3 189.4 211 189.3 211C187.8 210.1 185.9 210.6 185.1 212.1C184.2 213.6 184.7 215.5 186.2 216.3C186.3 216.4 186.9 216.7 187.8 217.2C187.2 224.8 191.1 237.8 210.5 242.5C213.9 243.3 216.9 243.7 219.6 243.7C237 243.7 242.5 229.3 243.3 227C244.5 226.8 245.5 226.5 246.5 226.1C248.1 225.5 248.9 223.7 248.2 222.1C247.5 220.5 245.7 219.7 244.1 220.3ZM232.1 227.6C232 228.1 231.8 228.5 231.7 228.9C230.9 231 230.1 232.3 227.7 233.2C226.5 233.6 225.3 233.7 224 233.7C219.4 233.6 214.8 233 210.3 231.8C206.7 230.9 201.6 229.9 199.1 226.9C198.8 226.6 197.9 224.2 197.5 222.9C197.3 222.4 197.3 222.1 197.3 222.1C199.3 222.5 201.3 223.6 203.3 224.2C207.2 225.4 211.1 226.3 215.2 226.8C219.7 227.4 224.4 227.7 228.9 227.5C230 227.4 231.1 227.4 232.2 227.2C232.2 227.4 232.2 227.5 232.1 227.6Z" fill="black"/>
<path d="M328 302.6C327.1 303.2 326.8 304.3 327.3 305.3C327.8 306.2 329.1 306.6 330 306.1C330.4 305.9 331.8 305.3 333.3 306.9C333.7 307.3 334.2 307.5 334.8 307.5C335.3 307.5 335.8 307.3 336.2 307C337 306.2 337 305 336.3 304.2C333.2 300.9 329.5 301.7 328 302.6Z" fill="black"/>
<path d="M348.8 310.5C349.4 310.1 351 309.3 352.7 311.3C353.1 311.8 353.7 312 354.2 312C354.6 312 355.1 311.9 355.5 311.5C356.4 310.8 356.5 309.5 355.8 308.7C352.7 304.9 348.5 305.7 346.5 307.2C345.6 307.8 345.4 309.1 346.1 310C346.6 310.9 347.9 311.1 348.8 310.5Z" fill="black"/>
<path d="M319.4 254.5H319.3C311.5 253.4 305 258.8 303 261.6C302 263 302.4 264.8 303.7 265.8C305.1 266.8 306.9 266.4 307.9 265.1C308.5 264.3 312.3 260.5 317.2 260.5C315.3 261.6 314 263.7 314 266.1C314 269.7 316.9 272.7 320.6 272.7C324.3 272.7 327.2 269.8 327.2 266.1C327.2 265.4 327.1 264.7 326.8 264C331.2 267.4 331.6 271.7 331.6 272C331.7 273.6 333 274.9 334.6 274.9H334.7C336.4 274.8 337.6 273.4 337.6 271.8C337.3 266.8 333.3 257 319.4 254.5Z" fill="black"/>
<path d="M367.2 278.9C367.3 278.8 371.1 274.9 376 273.4C375 274.5 374.4 276 374.4 277.7C374.4 281.3 377.3 284.3 381 284.3C384.6 284.3 387.6 281.4 387.6 277.7C387.6 277.1 387.5 276.5 387.3 275.9C391 279.1 392.4 283.8 392.4 283.8C392.8 285.1 394 286 395.3 286C395.6 286 395.8 286 396.1 285.9C397.7 285.5 398.6 283.8 398.2 282.2C398.1 281.7 394.7 270.2 383.8 267.3C372.8 264.5 363.3 274.3 362.9 274.8C361.8 276 361.8 277.9 363 279C364.1 280.2 366 280.1 367.2 278.9Z" fill="black"/>
<path d="M302.5 249.9C321.3 238.9 334.7 253.1 335.2 253.8C335.8 254.5 336.6 254.8 337.4 254.8C338.1 254.8 338.8 254.5 339.4 254C340.6 252.9 340.7 251 339.6 249.8C339.4 249.6 322.4 231.3 299.4 244.8C298 245.6 297.5 247.5 298.3 248.9C299.2 250.2 301 250.7 302.5 249.9Z" fill="black"/>
<path d="M369.8 261.1C369.9 261.1 377.9 256.4 388.8 259.2C398.8 261.7 400.2 274.8 400.2 274.9C400.3 276.5 401.6 277.6 403.2 277.6C403.3 277.6 403.4 277.6 403.5 277.6C405.2 277.5 406.4 276 406.2 274.3C406.1 273.6 404.5 256.8 390.3 253.3C376.9 250 367.2 255.7 366.8 255.9C365.4 256.7 364.9 258.6 365.8 260C366.5 261.5 368.4 261.9 369.8 261.1Z" fill="black"/>
<path d="M479.6 484C474.2 469.4 446.8 396.1 440.5 390.4C435.3 385.7 429.6 384.6 427.1 384.3C427.3 366.9 429.3 344.6 433.3 334.8C440.7 316.7 443.6 280.4 441.2 237.6C440.2 219.5 432.5 200.9 419.5 185.3C407.1 170.3 391 160.5 373 157C362.1 154.9 350.5 156.8 341.2 158.3C338.7 158.7 336.1 159.1 333.5 159.5C326.4 160.6 319.1 161.7 312.1 163.6C313.1 160.8 313.3 157.7 311.5 154.4C309.5 150.6 306.7 149.6 304.8 149.3C303.7 149.2 302.7 149.3 301.8 149.6C307 133.6 312.4 110.8 306.3 89.4C306.5 89.1 306.7 88.7 306.8 88.3C307 87.7 311.2 72.3 312.4 67.3C314.2 60.1 297.4 26.4 285.6 16.4C276.8 9 276.5 4.7 276.5 3.9C277 2.7 276.7 1.5 275.8 0.599999C274.8 -0.300001 273.3 -0.300001 272.1 0.299999C257.3 8.2 231.4 20.5 224.7 20.1L215.6 19.5C212.7 17.2 206.1 12.4 197.2 13.2C193.5 13.5 187.1 16.2 179.6 19.3C172.4 22.3 160.4 27.3 157.4 26.5C157 26.4 156.7 26.4 156.3 26.4C150.5 26.9 148.4 35.4 145.8 46.1C144.2 52.4 142.1 61.1 139.7 62.8C132 68.4 121.4 91.5 124.5 130.1C122 130.2 119.6 131 117.6 132.1C112.4 135.1 109.9 140.4 111.7 144.4C113.2 147.8 115.5 160.1 117.3 170C118.4 175.8 119.4 181.3 120.3 185.3C122.7 196.3 131.4 200.4 135 202.2C135.4 202.4 135.9 202.6 136.1 202.7C136.6 203 137.2 203.2 137.8 203.2C137.9 203.2 138.1 203.2 138.2 203.1C138.4 203.9 138.7 204.9 139 206C141.2 214.3 145.2 230 153.4 244.3L152.4 240.7C152.4 240.7 148.5 261.3 145.8 275.1L80.1 287.2C74.5 288.2 69.2 290.2 64.3 292.8C62.8 293.6 61.4 294.5 60 295.4C54.4 299.2 49.4 304 45.6 309.7C25.5 339.1 24.7 347.8 24.9 350.8C22.1 361.1 16.5 376.2 11.5 389.6C7.5 400.2 4.1 409.4 2.9 414.1C0 425.1 0 483 0 485.4C0 487.1 1.4 488.5 3.1 488.5C4.8 488.5 6.2 487.1 6.2 485.4C6.2 468.9 6.6 424.2 8.8 416C9.9 411.6 13.3 402.6 17.2 392.1C22.3 378.4 28.1 362.9 30.9 352.3C31 352 31 351.6 31 351.3C30.8 348.8 32.4 340.2 50.6 313.5C57.7 303.1 68.8 295.9 81.2 293.6L144.5 281.9C143.8 285.4 143.2 288.3 142.9 290.1C142.8 290.7 142.9 291.4 143.1 292C148.8 304.4 165.9 309.3 178.4 312.8C179.5 313.1 180.6 313.4 181.6 313.7C194.9 317.6 205.2 319.9 215.9 319.9C220.5 319.9 225.2 319.5 230.2 318.6C231.6 318.4 232.6 317.2 232.7 315.9C232.7 315.8 233.6 306.9 235.9 293.5L261.1 302.1C262.1 310.6 260.8 317.5 259.1 327C257.9 333.5 256.6 340.9 255.7 350.6C254.8 359.8 254.9 370.4 255.5 380.9C250.2 382.6 239 388.5 232.2 396.9C224 406.9 216 474.5 215.1 482.2C215 483.4 215.5 484.4 216.4 485C216.8 485.3 217.2 485.4 217.7 485.5C217.8 485.5 217.9 485.5 218 485.5C218.3 485.5 218.7 485.4 219 485.3C219.2 485.2 219.5 485.1 219.7 485C220.4 484.5 220.9 483.8 221 482.9C224.3 454.6 231.4 407.2 236.7 400.7C242.3 393.8 251.4 388.9 255.8 387.1C257.3 408 260.3 426.8 260.8 429.8C260.6 433.2 260.9 450.2 286.9 455.1C287.1 455.1 287.3 455.2 287.5 455.2C288.2 455.2 288.9 455 289.4 454.5C290.1 453.9 290.5 453.1 290.5 452.2C290.7 443 290.2 435.6 289.8 429.7C289 418.4 288.5 411.5 293.6 402.9C297.1 397 300.9 394.9 304.2 393.1C306.6 391.8 309 390.4 310.5 387.9C317 395 325.8 397.8 335.6 397.8C338.8 397.8 342 397.5 345.3 396.9C346.3 396.7 347.4 396.5 348.4 396.3C349.5 396.1 350.5 395.8 351.6 395.6C358.3 393.9 365.1 391.2 371.6 388C376.9 397 386 402.2 392.7 406.1C395.7 407.8 398.2 409.3 399.9 410.7C404.9 415 407.4 428.1 409.6 439.8C410.3 443.5 411 447.1 411.7 450.3C411.9 451.4 412.8 452.2 413.8 452.5C414.8 452.8 416 452.5 416.8 451.7C426.6 441.3 431.6 417.2 428.3 406.1C427.5 403.5 427.1 397.7 427 390.3C429 390.6 432.8 391.6 436.3 394.8C440 398.5 458.1 443.8 473.4 485C473.5 485.3 473.7 485.7 473.8 486C474.2 487.2 475.4 488 476.6 488C476.9 488 477.3 487.9 477.6 487.8C479.4 487.3 480.2 485.5 479.6 484ZM403.9 406.1C401.8 404.3 399 402.7 395.8 400.9C388.1 396.5 378.8 391.2 375.1 381.3C374.4 379.3 373.8 377.1 373.6 374.7C373.1 370 372.7 364.4 372.6 361.3C372.6 360.8 372.7 360.3 372.7 360C372.9 359.9 373 359.9 373.2 359.8C379.6 357.2 386.3 354.6 391.9 349.8C400.8 342.2 406.1 332.1 409.1 324.6C412.1 324.5 415.9 322.9 419.1 320.9C425.5 316.8 431.5 299.1 430.7 290.2C430 281.9 422.8 279.2 418.6 278.8C421.5 264.5 424.3 251.6 425.8 248.9C426.3 248 426.3 246.9 425.8 245.9C425.3 245 424.3 244.4 423.3 244.4C401.2 243.9 377.9 240.8 356.1 235.4C345.1 232.7 334.5 230.5 325.2 228.6C312.8 226.1 300 223.5 297.7 221.4C296.8 220.6 295.6 220.4 294.5 220.8C293.4 221.2 292.7 222.3 292.7 223.5C292.6 227.5 291 238.5 289.6 246.2C286.2 245.2 279.6 244 276.4 248.8C273.6 253 268.5 277.2 273.3 288.4C275 292.4 277.5 294 279.7 294.7C279.6 296.9 279.5 299.2 279.5 301.6C279.5 302.5 279.5 303.5 279.5 304.4C279.5 305.6 279.6 306.9 279.6 308.1C279.9 314.1 280.7 320.3 282.5 326.1C286 337.6 296.3 348.1 304.8 355.2C304.8 359.1 304.9 370.4 305.9 380.4C305.9 380.8 306 381.1 306 381.4C306.3 385.1 305 385.8 301.5 387.7C297.9 389.7 293 392.4 288.6 399.7C282.5 410 283.1 417.9 283.9 430C284.3 435.2 284.7 441.1 284.7 448.3C265.4 443.3 266.9 430.5 267 430C267 429.7 267 429.4 267 429.1C266.9 428.8 263.1 405.7 261.7 381.6C261.1 370.9 260.9 360.1 261.8 351C262.7 341.6 264 334.3 265.2 327.9C266.7 319.3 268 312.3 267.5 304C267.4 302.8 267.3 301.6 267.1 300.3C267 299.3 266.8 298.2 266.6 297.2C266 294 265.2 290.6 264 286.8C261.5 278.7 261.7 269.2 263 259.8C263.3 257.6 263.7 255.4 264.1 253.2C264.6 250.4 265.3 247.6 265.9 244.9C266.8 241 267.9 237.2 268.8 233.7C273.1 217.6 277.5 204.3 285.1 191.8C285.6 191 286.1 190.1 286.6 189.3C289 185.5 291.7 181.8 294.9 178.7C295.9 177.8 296.9 176.9 298 176.1C299.6 174.9 301.3 173.8 303.2 173C303.2 173 303.2 173 303.3 173C304.5 172.5 305.7 171.9 307 171.5C315.6 168.3 325.1 166.9 334.3 165.5C336.9 165.1 339.6 164.7 342.1 164.3C350.9 162.8 361.9 161 371.8 162.9C388.5 166.2 403.4 175.2 414.9 189.1C427.1 203.8 434.3 221.2 435.3 238C438.8 300.2 430.5 326.1 427.9 332.6C423.7 342.8 421.5 366.8 421.3 385.4C421.2 395.5 421.7 404.1 422.8 407.9C425.1 415.6 422.2 432.1 416.4 442.4C416.2 441.2 415.9 440 415.7 438.7C413.1 425.5 410.6 411.8 403.9 406.1ZM352.1 389.3C351.1 389.6 350 389.9 349 390.1C348 390.4 346.9 390.6 345.8 390.8C333.9 393.1 320.9 392.3 313.2 381.6C312.7 380.9 312.2 380.2 311.7 379.4C311 372.6 310.8 365.1 310.7 360C316 363.7 321.2 366.3 326.3 367.9C330 369.1 334 369.6 338.2 369.6C340.2 369.6 342.2 369.5 344.2 369.2C345.3 369.1 346.4 368.9 347.5 368.7C348.4 368.5 349.4 368.3 350.3 368.1C355.3 367 360.6 365.1 366.2 362.6C366.2 362.6 366.3 362.6 366.3 362.5C366.1 367.3 366.2 374.9 368.2 381.2C368.4 381.7 368.5 382.2 368.7 382.6C365.1 384.6 359.1 387.3 352.1 389.3ZM285.4 306.5C285.4 305.6 285.3 304.6 285.3 303.7C285.3 297.5 285.7 291.7 286.2 286.9C286.9 280.6 287.9 274.6 289.2 269.1C289.8 266.6 290.6 264.3 291.5 261.8C292.4 259.2 293.3 256.5 294 253.7C295.1 249.2 297.2 236.5 298.1 228.5C303 230.3 311.1 232.1 323.8 234.6C333.1 236.5 343.6 238.6 354.5 241.3C375.4 246.5 397.6 249.6 418.8 250.4C416.7 257.5 413.9 271.3 410 290.9C407.9 301.4 405.8 312.3 403.7 321.8C401 328.7 396.1 338.3 387.9 345.3C383 349.5 377.1 351.8 370.8 354.3C368.6 355.2 366.4 356.1 364.2 357C364 357.1 363.9 357.1 363.7 357.2C362.4 357.8 361.2 358.3 359.9 358.8C355.9 360.4 352.2 361.6 348.5 362.4C347.4 362.6 346.3 362.8 345.2 363C344.2 363.2 343.3 363.3 342.3 363.4C337.1 363.9 332.3 363.5 328 362.2C323.1 360.7 318.3 358.1 313.2 354.5C313.1 354.4 313 354.4 312.9 354.3C311.8 353.5 310.6 352.6 309.4 351.7C301.4 345.2 291.1 335.2 287.9 324.6C286.5 320 285.8 315.2 285.4 310.4C285.6 309.1 285.5 307.8 285.4 306.5ZM288.3 252.3C287.7 254.8 286.9 257.3 286 259.8C285.3 261.9 284.5 264.1 283.9 266.3C282.3 266.4 280.5 266.8 279.2 267.9C278.2 268.7 277.7 269.9 277.7 271.2C277.7 272.3 278.6 273.2 279.7 273.2C280.8 273.2 281.7 272.3 281.7 271.2C281.7 271 281.7 271 281.8 270.9C282 270.7 282.4 270.6 282.9 270.5C281.8 275.5 280.9 280.8 280.4 286.3C280.3 286.9 280.3 287.6 280.2 288.3C279.7 287.8 279.3 287.2 278.8 286.1C274.9 276.9 279.5 254.9 281.3 252.2C282.2 250.9 285.7 251.3 288.3 252.2V252.3ZM417.9 284.8C418.6 284.8 424.3 285.2 424.8 290.7C425.5 298.5 419.7 313.4 416 315.8C413.8 317.2 412 317.9 410.8 318.3C411.8 313.6 412.8 308.7 413.8 303.8C413.9 303.8 414 303.8 414.1 303.8C414.2 303.8 414.4 303.8 414.5 303.7C414.7 304.8 415.6 305.7 416.8 306C417 306 417.2 306.1 417.5 306.1C418.9 306.1 420.1 305.1 420.4 303.7C420.9 301.3 419.9 299.8 419.2 299.2C418 298 416.4 297.7 415 297.7C415.4 295.8 415.7 294 416.1 292.1C416.6 289.7 417.1 287.3 417.5 284.8C417.6 284.8 417.8 284.8 417.9 284.8ZM180.1 306.9C169.7 304 154.2 299.6 149.2 290.3C149.7 287.9 150.4 284.2 151.2 280C153.1 270.2 155.7 257.4 157 250.5C160.3 255.4 164.1 259.9 168.5 263.8C187 282 197.6 283 212.2 284.5C213.9 284.7 215.6 284.8 217.3 284.8C222.3 284.8 227.1 284 231.7 282.6C231.1 285.4 230.6 288 230.2 290.6C228.3 301.1 227.3 309.2 226.8 312.9C212.3 315.1 200.9 313 183.3 307.8C182.3 307.5 181.3 307.2 180.1 306.9ZM126.3 184.1C125.4 180.2 124.4 174.8 123.4 169C120.8 155.1 119 145.8 117.4 142C117.1 141.4 118.1 139.1 120.8 137.5C122.9 136.3 128.4 134.3 134.1 141.9C134.6 142.6 135.4 143 136.2 143.1C136 147.7 136 150.7 136 151.3C136 152.1 135.9 153.8 135.8 156.2C133.8 155.8 131.3 155.6 129.3 156.5C127.6 157.3 126.4 158.6 125.8 160.4C125 163.1 125.1 165.4 126.1 167.2C127 168.8 128.5 169.6 129.6 169.8C129.8 169.8 130 169.9 130.2 169.9C131.6 169.9 132.9 168.9 133.2 167.4C133.5 165.9 132.7 164.5 131.3 163.9C131.3 163.7 131.3 163.1 131.6 162.3C131.6 162.2 131.6 162.2 131.6 162.2C132 161.9 133.7 162.1 135.5 162.6C135.4 169.4 135.3 178 135.7 185.8C135.1 184.2 133.6 183.1 131.9 183.1C129.7 183.1 127.8 184.9 127.8 187.2C127.8 189.4 129.6 191.3 131.9 191.3C133.8 191.3 135.4 190 135.8 188.2C136 191.1 136.2 193.9 136.5 196.3C133.2 194.5 128 191.4 126.3 184.1ZM143.4 67.9C147.6 64.8 149.7 56.5 151.9 47.7C153.1 43 155.2 34.4 157 32.8C161.9 33.4 169.9 30.2 182.1 25.2C188.5 22.5 195.2 19.8 197.8 19.5C204.3 19 209.3 22.4 212.5 25.1C213 25.5 213.6 25.8 214.3 25.8L224.4 26.4C233.4 26.9 260.5 13.5 271.1 8C272.3 11.3 275.1 15.8 281.7 21.3C292.8 30.7 306.8 61.4 306.4 66C305.7 68.8 304 75.1 302.7 80C300 74.4 296.4 69 291.5 63.9C291.3 63.7 291.1 63.6 290.9 63.4C272.8 51.8 232.5 51 230.8 51C230.7 51 230.7 51 230.6 51C230.4 51 210.2 51.7 193.8 48.7C173.8 45 158.1 57.7 147 86.6C140.3 104 137.7 122.7 136.6 135.6C134.7 133.7 132.7 132.3 130.8 131.5C127.4 93.2 138 71.8 143.4 67.9ZM299.1 158.5C300.1 157.4 302.5 155.3 304.1 155.5C304.7 155.6 305.4 156.2 306 157.3C307.6 160.2 305.9 162.9 303 166.6C302.3 166.9 301.5 167.2 300.8 167.6C298.9 168.5 297.2 169.5 295.5 170.6C295.5 170.2 295.5 169.9 295.5 169.5C295.5 168.9 295.5 168.4 295.5 167.8C295.6 167 296.8 163.7 297.8 160.8C298 160.2 298.2 159.6 298.5 159C298.7 158.9 298.9 158.7 299.1 158.5ZM142.1 151.6C142.1 151.5 142.1 151.5 142.1 151.4C142.1 151.1 141.8 117.4 152.8 88.7C161.7 65.5 173 54.2 187.3 54.2C189.1 54.2 190.8 54.4 192.7 54.7C209.4 57.8 229.1 57.2 230.8 57.1C232.8 57.1 270.8 58.1 287.2 68.4C314.4 97 298.7 140.2 291.9 158.7C290 163.9 289.2 166.1 289.2 167.7C289.2 168.3 289.2 168.9 289.2 169.5C289.2 171.3 289.3 173.3 289 176.1C285.5 179.9 282.6 184.2 279.9 188.6C271.9 201.7 267.3 215.5 262.9 232.1C260.9 239.5 258.7 248 257.3 256.9C257 257.2 256.8 257.6 256.5 257.9C243.5 273 228.8 279.9 212.7 278.3C198.8 276.9 189.7 276 172.7 259.3L172.6 259.2C155.1 244.1 148 216.5 144.9 204.7C144.4 202.6 144 201.2 143.7 200.2C141.1 192.3 141.7 162.4 142.1 151.6ZM238.6 279.9C245 276.9 250.9 272.6 256.2 267.4C255.7 274.8 256.2 282.1 258.3 288.7C259 291 259.6 293.1 260 295.1L237.1 287.3C237.6 284.9 238.1 282.4 238.6 279.9Z" fill="black"/>
<path d="M331.3 323.5C327.8 322.7 324.9 321.8 322.5 321C318.4 319.6 316 318.4 315.3 318C315.5 317.7 315.7 317.3 315.8 317C315.9 316.8 316 316.6 316.1 316.4C316.4 315.6 316.4 314.8 316.1 314.1C315.8 313.4 315.2 312.8 314.5 312.5C313.6 312.1 312.7 312.2 311.9 312.7C311.3 313 310.9 313.5 310.6 314.2C310.6 314.2 310.5 314.4 310.3 314.7C309.8 315.6 308.7 317.2 306.9 317.5C306.7 317.5 306.4 317.6 306.2 317.6C306.1 317.6 306.1 317.6 306 317.6C304.4 317.6 303 318.9 303 320.5C303 322.2 304.3 323.5 305.9 323.6C306 323.6 306.1 323.6 306.1 323.6C308 323.6 309.7 323.1 311.1 322.2C311.2 322.4 311.4 322.5 311.6 322.7C312.3 324.7 318 338.3 332.8 341.1C332.9 341.1 333.1 341.2 333.2 341.2C334.5 341.4 335.7 341.6 336.9 341.7C338 341.8 339.1 341.9 340.1 342C340.9 342 341.6 342.1 342.4 342.1C352.4 342.1 359.6 338.8 361.7 333H361.8C362.5 333 363 333 363.5 333C364.5 335 365.9 336.7 368.1 337.1C368.3 337.1 368.5 337.2 368.7 337.2C370.1 337.2 371.3 336.2 371.6 334.8C371.9 333.2 370.9 331.7 369.4 331.3C368.6 330.7 367.8 327.5 367.6 324.7C367.5 323 366.1 321.8 364.4 321.9C362.7 322 361.5 323.4 361.6 325.1C361.6 325.6 361.7 326.3 361.8 327.1C358.7 327.1 353 326.9 345.5 326C340.5 324.9 336.2 324.3 332.6 323.9C332.2 323.8 331.8 323.7 331.3 323.5ZM349.5 333.4C349.3 333.6 349.1 333.7 348.9 333.9C346.7 335.6 344.3 336 341.6 336C340.2 336 338.6 335.9 337.1 335.7C336.5 335.6 335.9 335.5 335.3 335.4C333.5 335.1 331.7 334.5 330 333.7C328.6 333 327.3 332.1 326.3 330.9C325.8 330.3 325.4 329.7 325.1 329C325 328.7 324.9 328.4 324.8 328C325.7 328.3 326.6 328.5 327.6 328.7C329 329.1 330.5 329.4 332.1 329.7C332.6 329.8 333.2 329.9 333.8 330C334.3 330.1 334.9 330.2 335.5 330.3C336.1 330.4 336.8 330.5 337.4 330.6C338.4 330.8 339.4 330.9 340.4 331.1C344.1 331.6 347.5 332 350.5 332.3C350.1 332.8 349.8 333.1 349.5 333.4Z" fill="black"/>
<path d="M120 385.5C119.2 385.6 118 385 116.7 384C116.3 383.3 115.7 382.8 115 382.5C113.7 381.3 112.5 379.9 111.5 378.6C110.5 377.2 108.6 376.9 107.2 377.9C105.8 378.9 105.5 380.8 106.5 382.2C107 382.9 108.5 384.8 110.5 386.7C109.4 391.7 105.9 405.7 99.3999 419.2C99.2999 419.4 99.2999 419.5 99.1999 419.7C91.8999 446 91.9999 479.2 92.0999 485.2C92.0999 485.7 92.0999 486 92.0999 486.1C92.0999 487.8 93.4999 489.1 95.1999 489.1C95.1999 489.1 95.1999 489.1 95.2999 489.1C96.9999 489.1 98.3999 487.6 98.2999 485.9C98.2999 485.9 98.2999 485.6 98.2999 485.1C98.1999 479.7 98.0999 446.8 105.1 421.5C111 409.2 114.4 396.9 116 390.4C117.3 391 118.6 391.4 120 391.4C120.2 391.4 120.4 391.4 120.6 391.4C122.3 391.2 123.6 389.7 123.4 388C123.2 386.6 121.7 385.3 120 385.5Z" fill="black"/>
</g>
<defs>
<clipPath id="clip0_216_85">
<rect width="479.8" height="489.3" fill="white"/>
</clipPath>
</defs>
</svg>
