<svg width="90" height="70" viewBox="0 0 90 70" fill="none" xmlns="http://www.w3.org/2000/svg">
<g clip-path="url(#clip0_6_12)">
<path d="M72.4813 39.9523C70.9981 40.1192 69.6549 40.4531 68.5075 40.9539C68.2836 39.6741 67.1922 38.6725 65.9049 38.6725C64.4496 38.6725 63.2463 39.9245 63.2463 41.4547V48.0763C63.2183 48.4658 63.2183 48.7719 63.2463 48.9944V57.5636C63.2463 59.0938 64.4496 60.3458 65.9049 60.3458C67.3601 60.3458 68.5634 59.0938 68.5634 57.5636V48.2154C68.7313 47.0747 69.9627 45.8506 73.069 45.4889C74.5243 45.3219 75.5877 43.9308 75.4198 42.4006C75.2519 40.8983 73.9366 39.7854 72.4813 39.9523Z" fill="#F24071"/>
<path d="M79.3097 8.2353C77.8825 7.90143 76.4552 8.79173 76.1194 10.2107C75.3078 13.6884 74.1325 16.6375 72.7332 19.1415L67.2201 10.2663C66.4366 9.01431 64.8134 8.65262 63.5541 9.40382C62.2948 10.1828 61.931 11.7965 62.6866 13.0485L69.431 23.899C65.7929 28.128 61.4552 30.465 57.7332 31.7727C47.6306 35.3339 37.0522 33.0803 31.819 29.0461C30.6716 28.1558 28.9925 28.3506 28.097 29.5191C27.2015 30.6598 27.3974 32.3291 28.5728 33.2194C32.0709 35.9181 37.0242 37.81 42.4813 38.5056C44.0765 38.7003 45.6716 38.8116 47.2668 38.8116C51.4645 38.8116 55.6343 38.1161 59.5242 36.7528C70.6343 32.8577 78.3582 23.8712 81.2966 11.4348C81.6325 10.0159 80.7649 8.56916 79.3097 8.2353Z" fill="#4DC3EB"/>
<path d="M38.3955 28.4618C39.8507 28.4618 41.0541 27.2655 41.0541 25.8188C41.0541 24.372 39.8507 23.1757 38.3955 23.1757C37.9478 23.1757 36.6045 23.1757 36.5765 21.2003V2.64308C36.5765 1.19634 35.3731 0 33.9179 0C32.4627 0 31.2593 1.19634 31.2593 2.64308V21.1168C31.2593 21.6176 31.3153 24.4555 33.3302 26.4865C34.1978 27.4046 35.7929 28.4618 38.3955 28.4618Z" fill="#4DC3EB"/>
<path d="M51.0448 27.6272C52.556 27.6272 53.9832 27.2655 55.2705 26.6256C55.6063 27.7107 56.6138 28.5175 57.8172 28.5175C59.2724 28.5175 60.4757 27.3211 60.4757 25.8744V10.628C60.4757 9.18124 59.2724 7.9849 57.8172 7.9849C56.6138 7.9849 55.5784 8.79173 55.2705 9.87679C54.0112 9.23688 52.5839 8.8752 51.0448 8.8752C45.8395 8.8752 41.6138 13.0763 41.6138 18.2512C41.6138 23.4261 45.8395 27.6272 51.0448 27.6272ZM51.0448 14.1892C53.3116 14.1892 55.1586 16.0254 55.1586 18.279C55.1586 20.5326 53.3116 22.3688 51.0448 22.3688C48.778 22.3688 46.931 20.5326 46.931 18.279C46.931 16.0254 48.778 14.1892 51.0448 14.1892Z" fill="#4DC3EB"/>
<path d="M19.4216 8.90302C17.9105 8.90302 16.4832 9.26471 15.1959 9.90461C14.8601 8.81955 13.8526 8.01272 12.6493 8.01272C11.194 8.01272 9.99068 9.20906 9.99068 10.6558V33.6645C9.99068 35.1113 11.194 36.3076 12.6493 36.3076C14.1045 36.3076 15.3078 35.1113 15.3078 33.6645V26.7091C16.5392 27.3211 17.9384 27.655 19.4216 27.655C24.6269 27.655 28.8526 23.4539 28.8526 18.279C28.8246 13.1041 24.5989 8.90302 19.4216 8.90302ZM19.4216 22.341C17.1549 22.341 15.3078 20.5048 15.3078 18.2512C15.3078 15.9976 17.1549 14.1614 19.4216 14.1614C21.6605 14.1892 23.5075 16.0254 23.5075 18.279C23.5075 20.5326 21.6605 22.341 19.4216 22.341Z" fill="#4DC3EB"/>
<path d="M57.1175 42.818C55.8302 42.818 54.7668 43.7083 54.5149 44.9324C53.1437 44.2091 51.5765 43.7917 49.9254 43.7917C44.4963 43.7917 40.0746 48.1876 40.0746 53.5851C40.0746 53.6129 40.0746 53.6407 40.0746 53.6407C40.0746 53.6685 40.0746 53.6963 40.0746 53.6963C40.0746 59.0938 44.4963 63.4897 49.9254 63.4897C51.5765 63.4897 53.1437 63.0723 54.5149 62.349C54.7668 63.5453 55.8302 64.4634 57.1175 64.4634C58.5728 64.4634 59.7761 63.2671 59.7761 61.8203V61.6812V45.5723V45.4332C59.7761 43.9865 58.6008 42.818 57.1175 42.818ZM49.9254 58.0922C47.4347 58.0922 45.4198 56.089 45.3918 53.6407C45.4198 51.1924 47.4627 49.1892 49.9254 49.1892C52.3881 49.1892 54.431 51.1924 54.459 53.6407C54.431 56.1169 52.416 58.0922 49.9254 58.0922Z" fill="#F24071"/>
<path d="M0.251866 45.8784C0.11194 45.461 0 45.0715 0 44.5151C0 43.1796 1.39925 42.2337 2.51866 42.2337C3.80597 42.2337 4.72948 42.9293 5.17724 44.0978L8.84328 54.058L12.7612 44.0978C13.209 42.9293 14.1325 42.2337 15.4198 42.2337C16.5392 42.2337 17.9384 43.1796 17.9384 44.5151C17.9384 45.0715 17.8545 45.461 17.6866 45.8784L8.78731 67.9134C8.33955 69.0262 7.52799 70 6.26866 70C4.44963 70 3.49813 68.8593 3.49813 67.7186C3.49813 67.2178 3.63806 66.6614 3.83396 66.1884L6.15672 60.4571L0.251866 45.8784Z" fill="#F24071"/>
<path d="M24.1511 50.942C24.5149 53.5572 26.6978 54.7536 29.1884 54.7536C31.931 54.7536 33.806 52.6113 35.2052 52.6113C36.3526 52.6113 37.3881 53.752 37.3881 54.8927C37.3881 57.1741 32.6586 59.372 28.7127 59.372C22.7239 59.372 18.75 55.0318 18.75 49.1892C18.75 43.8196 22.6679 38.9507 28.2929 38.9507C34.0578 38.9507 37.8638 44.1534 37.8638 48.5771C37.8638 50.163 37.1642 50.9141 35.541 50.9141H24.1511V50.942ZM32.4907 47.4086C32.1828 45.0994 30.7276 43.3744 28.2369 43.3744C25.8862 43.3744 24.291 45.1828 24.0392 47.4086H32.4907Z" fill="#F24071"/>
<path d="M87.3414 50.1351C86.334 50.1351 84.319 48.6049 82.584 48.6049C81.6325 48.6049 80.7649 49.0501 80.7649 50.0795C80.7649 52.5278 90 52.1661 90 58.2035C90 61.7369 87.0056 64.4078 82.416 64.4078C79.4216 64.4078 75 62.7107 75 60.318C75 59.5111 75.8116 57.9809 77.2948 57.9809C79.3657 57.9809 80.2892 59.7893 82.8078 59.7893C84.431 59.7893 84.9067 59.2886 84.9067 58.287C84.9067 55.8665 75.6716 56.2281 75.6716 50.163C75.6716 46.4905 78.666 43.9865 82.8638 43.9865C85.4944 43.9865 89.5243 45.2107 89.5243 47.7981C89.5243 48.9944 88.6007 50.1351 87.3414 50.1351Z" fill="#F24071"/>
</g>
<defs>
<clipPath id="clip0_6_12">
<rect width="90" height="70" fill="white"/>
</clipPath>
</defs>
</svg>
